<svg width="295" height="168" viewBox="0 0 295 168" fill="none" xmlns="http://www.w3.org/2000/svg">
<rect width="295" height="168" rx="8" fill="#102A43"/>
<path d="M16.56 31.28L17.2 30.176C17.4133 30.3147 17.712 30.448 18.096 30.576C18.48 30.704 18.928 30.768 19.44 30.768C19.9733 30.768 20.3947 30.7147 20.704 30.608C21.024 30.5013 21.2533 30.3467 21.392 30.144C21.5413 29.9307 21.616 29.6853 21.616 29.408C21.616 29.1947 21.568 28.9333 21.472 28.624C21.3867 28.304 21.1947 27.8773 20.896 27.344C20.5973 26.8 20.1387 26.0907 19.52 25.216L20.624 24.496C21.1893 25.2747 21.6373 25.9787 21.968 26.608C22.3093 27.2373 22.5493 27.792 22.688 28.272C22.8373 28.7413 22.912 29.1467 22.912 29.488C22.912 29.9147 22.8053 30.3307 22.592 30.736C22.3787 31.1307 22.0213 31.456 21.52 31.712C21.0187 31.968 20.3253 32.096 19.44 32.096C19.056 32.096 18.6827 32.064 18.32 32C17.968 31.936 17.6427 31.8453 17.344 31.728C17.0453 31.6 16.784 31.4507 16.56 31.28ZM27.565 30.768C28.0983 30.768 28.5197 30.7147 28.829 30.608C29.149 30.5013 29.3783 30.3467 29.517 30.144C29.6663 29.9307 29.741 29.6853 29.741 29.408C29.741 29.1947 29.6823 28.9387 29.565 28.64C29.4583 28.3413 29.309 28.0107 29.117 27.648C28.925 27.2747 28.701 26.8853 28.445 26.48C28.1997 26.064 27.933 25.6427 27.645 25.216L28.749 24.496C29.165 25.1253 29.5277 25.7227 29.837 26.288C30.1463 26.8427 30.4077 27.3653 30.621 27.856C30.8343 28.336 31.005 28.7893 31.133 29.216C31.2823 29.6853 31.4477 30.032 31.629 30.256C31.821 30.48 32.0183 30.624 32.221 30.688C32.4237 30.7413 32.6103 30.768 32.781 30.768C33.005 30.768 33.1703 30.832 33.277 30.96C33.3837 31.0773 33.437 31.2213 33.437 31.392C33.437 31.5627 33.3623 31.7227 33.213 31.872C33.0637 32.0107 32.8717 32.08 32.637 32.08C32.285 32.08 31.9383 32.016 31.597 31.888C31.2663 31.7493 30.9783 31.5307 30.733 31.232C30.4877 30.9227 30.317 30.512 30.221 30L30.861 29.488C30.861 29.9147 30.7703 30.3307 30.589 30.736C30.4077 31.1307 30.077 31.456 29.597 31.712C29.1277 31.968 28.4503 32.096 27.565 32.096C27.181 32.096 26.8077 32.064 26.445 32C26.093 31.936 25.7677 31.8453 25.469 31.728C25.1703 31.6 24.909 31.4507 24.685 31.28L25.325 30.176C25.5383 30.3147 25.837 30.448 26.221 30.576C26.605 30.704 27.053 30.768 27.565 30.768ZM43.3326 32.08C42.8846 32.08 42.474 32.0533 42.1006 32C41.7273 31.936 41.3913 31.824 41.0926 31.664C40.794 31.504 40.5433 31.2747 40.3406 30.976C40.138 30.6667 39.9833 30.2613 39.8766 29.76L40.8206 29.2C40.9593 29.6267 41.13 29.952 41.3326 30.176C41.5353 30.4 41.8073 30.5547 42.1486 30.64C42.5006 30.7253 42.9486 30.768 43.4926 30.768C43.7166 30.768 43.8766 30.832 43.9726 30.96C44.0793 31.0773 44.1326 31.2213 44.1326 31.392C44.1326 31.5627 44.058 31.7227 43.9086 31.872C43.7593 32.0107 43.5673 32.08 43.3326 32.08ZM33.1406 32.08L33.2846 30.768C33.8393 30.768 34.3833 30.7253 34.9166 30.64C35.45 30.5547 35.9726 30.432 36.4846 30.272C36.9966 30.112 37.4873 29.92 37.9566 29.696C38.4366 29.4613 38.89 29.1947 39.3166 28.896C39.0393 28.6507 38.7193 28.4373 38.3566 28.256C37.994 28.0747 37.594 27.936 37.1566 27.84C36.73 27.7333 36.2766 27.68 35.7966 27.68C35.626 27.68 35.466 27.6853 35.3166 27.696C35.1673 27.7067 35.018 27.728 34.8686 27.76C34.7193 27.7813 34.5486 27.8133 34.3566 27.856L34.1006 26.64C34.3886 26.5547 34.6766 26.4907 34.9646 26.448C35.2526 26.3947 35.53 26.368 35.7966 26.368C36.3513 26.368 36.8526 26.4373 37.3006 26.576C37.7486 26.704 38.154 26.864 38.5166 27.056C38.89 27.248 39.2366 27.44 39.5566 27.632C39.8873 27.824 40.2073 27.9893 40.5166 28.128C40.826 28.256 41.146 28.32 41.4766 28.32H41.8126L41.9246 29.472C41.466 29.472 41.0446 29.536 40.6606 29.664C40.2766 29.792 39.898 29.9573 39.5246 30.16C39.162 30.352 38.778 30.56 38.3726 30.784C37.9673 30.9973 37.5193 31.2053 37.0286 31.408C36.538 31.6 35.9726 31.76 35.3326 31.888C34.7033 32.016 33.9726 32.08 33.1406 32.08ZM37.3166 34.976C37.0926 34.976 36.9006 34.896 36.7406 34.736C36.5913 34.5867 36.5166 34.4053 36.5166 34.192C36.5166 33.9787 36.5913 33.792 36.7406 33.632C36.9006 33.472 37.0926 33.392 37.3166 33.392C37.53 33.392 37.7113 33.472 37.8606 33.632C38.0206 33.792 38.1006 33.9787 38.1006 34.192C38.1006 34.4053 38.0206 34.5867 37.8606 34.736C37.7113 34.896 37.53 34.976 37.3166 34.976ZM43.8281 32.08L43.9721 30.768C44.5801 30.768 45.0068 30.7093 45.2521 30.592C45.4975 30.4747 45.6361 30.2667 45.6681 29.968C45.7108 29.6693 45.7215 29.2533 45.7001 28.72L45.3961 20.576H46.6921L47.0121 28.576C47.0335 29.1413 47.0121 29.6427 46.9481 30.08C46.8948 30.5173 46.7561 30.8853 46.5321 31.184C46.3188 31.4827 45.9935 31.7067 45.5561 31.856C45.1295 32.0053 44.5535 32.08 43.8281 32.08ZM49.9564 32L49.6364 20.576H50.9324L51.2524 32H49.9564ZM60.0466 31.248C59.8226 31.184 59.604 31.088 59.3906 30.96C59.188 30.8213 59.0013 30.6507 58.8306 30.448C58.6706 30.2453 58.5426 30.016 58.4466 29.76C58.3506 29.4933 58.3026 29.2107 58.3026 28.912C58.3026 28.368 58.4253 27.904 58.6706 27.52C58.9266 27.1253 59.2573 26.8267 59.6626 26.624C60.0786 26.4213 60.532 26.32 61.0226 26.32C61.204 26.32 61.4013 26.3413 61.6146 26.384C61.828 26.416 62.0306 26.4587 62.2226 26.512L62.0146 27.712C61.8546 27.6693 61.684 27.6373 61.5026 27.616C61.3213 27.584 61.1613 27.568 61.0226 27.568C60.7026 27.568 60.4306 27.632 60.2066 27.76C59.9933 27.8773 59.8333 28.0373 59.7266 28.24C59.62 28.4427 59.5666 28.6667 59.5666 28.912C59.5666 29.2533 59.668 29.5627 59.8706 29.84C60.0733 30.1067 60.3186 30.32 60.6066 30.48C60.8946 30.64 61.172 30.72 61.4386 30.72L60.0466 31.248ZM58.0306 32.928L57.6626 31.712C58.0893 31.616 58.596 31.4827 59.1826 31.312C59.78 31.1413 60.404 30.9493 61.0546 30.736C61.7053 30.512 62.3293 30.2773 62.9266 30.032L63.4066 31.2C63.0973 31.328 62.708 31.4773 62.2386 31.648C61.78 31.808 61.2893 31.968 60.7666 32.128C60.2546 32.2987 59.7586 32.4533 59.2786 32.592C58.7986 32.7413 58.3826 32.8533 58.0306 32.928ZM74.0528 32.08C73.4128 32.08 72.8848 32.0267 72.4688 31.92C72.0634 31.8133 71.7434 31.648 71.5088 31.424C71.2848 31.2 71.1248 30.9173 71.0288 30.576C70.9434 30.224 70.8901 29.808 70.8688 29.328L70.5488 20.576H71.8608L72.1808 28.816C72.2021 29.3387 72.2501 29.744 72.3248 30.032C72.4101 30.3093 72.5914 30.5013 72.8688 30.608C73.1568 30.7147 73.6048 30.768 74.2128 30.768C74.4368 30.768 74.5968 30.832 74.6928 30.96C74.7994 31.0773 74.8528 31.2213 74.8528 31.392C74.8528 31.5627 74.7781 31.7227 74.6288 31.872C74.4794 32.0107 74.2874 32.08 74.0528 32.08ZM66.7408 32.08C66.4528 32.08 66.1594 32.0533 65.8608 32C65.5728 31.9573 65.3701 31.9253 65.2528 31.904L65.4288 30.64C66.1648 30.736 66.8581 30.752 67.5088 30.688C68.1594 30.624 68.7248 30.4427 69.2048 30.144C69.6954 29.8347 70.0794 29.3707 70.3568 28.752C70.6341 28.1333 70.7728 27.328 70.7728 26.336L71.5408 28.256C71.4128 28.928 71.2208 29.4933 70.9648 29.952C70.7088 30.4 70.4101 30.768 70.0688 31.056C69.7381 31.3333 69.3808 31.5467 68.9968 31.696C68.6128 31.8453 68.2288 31.9467 67.8448 32C67.4608 32.0533 67.0928 32.08 66.7408 32.08ZM70.2128 29.888C70.0421 29.5573 69.8021 29.1733 69.4928 28.736C69.1834 28.288 68.8101 27.8027 68.3728 27.28C67.9354 26.7573 67.4394 26.2133 66.8848 25.648C66.3408 25.0827 65.7488 24.512 65.1088 23.936L65.9728 23.024C66.6768 23.696 67.3008 24.3253 67.8448 24.912C68.3994 25.488 68.8848 26.032 69.3008 26.544C69.7168 27.0453 70.0741 27.504 70.3728 27.92C70.6714 28.336 70.9221 28.7147 71.1248 29.056L70.2128 29.888ZM74.5469 32.08L74.7069 30.768C75.0055 30.768 75.2402 30.704 75.4109 30.576C75.5922 30.448 75.7629 30.2347 75.9229 29.936C76.0935 29.6373 76.3069 29.2373 76.5629 28.736C76.8189 28.224 77.0749 27.808 77.3309 27.488C77.5975 27.1573 77.8535 26.9013 78.0989 26.72C78.3549 26.528 78.5949 26.3947 78.8189 26.32C79.0429 26.2453 79.2509 26.208 79.4429 26.208C79.7949 26.208 80.1095 26.288 80.3869 26.448C80.6642 26.5973 80.9255 26.8587 81.1709 27.232C81.4162 27.5947 81.6669 28.096 81.9229 28.736C82.1682 29.3227 82.3869 29.7653 82.5789 30.064C82.7815 30.352 82.9895 30.544 83.2029 30.64C83.4269 30.7253 83.6775 30.768 83.9549 30.768C84.1789 30.768 84.3389 30.832 84.4349 30.96C84.5415 31.0773 84.5949 31.2213 84.5949 31.392C84.5949 31.5627 84.5202 31.7227 84.3709 31.872C84.2215 32.0107 84.0295 32.08 83.7949 32.08C83.3789 32.08 82.9949 32.0107 82.6429 31.872C82.3015 31.7333 82.0135 31.5147 81.7789 31.216L82.0029 30.88C81.8855 31.2107 81.7255 31.4827 81.5229 31.696C81.3309 31.8987 81.1122 32.048 80.8669 32.144C80.6215 32.2507 80.3602 32.304 80.0829 32.304C79.7309 32.304 79.3682 32.2293 78.9949 32.08C78.6322 31.9307 78.2802 31.7173 77.9389 31.44C77.5975 31.1627 77.2989 30.8373 77.0429 30.464C76.7655 30.9547 76.4989 31.3173 76.2429 31.552C75.9975 31.776 75.7415 31.92 75.4749 31.984C75.2082 32.048 74.8989 32.08 74.5469 32.08ZM77.6509 29.248C77.8322 29.5467 78.0242 29.808 78.2269 30.032C78.4402 30.256 78.6535 30.4427 78.8669 30.592C79.0802 30.7307 79.2882 30.8373 79.4909 30.912C79.7042 30.976 79.8962 31.008 80.0669 31.008C80.4402 31.008 80.7122 30.8747 80.8829 30.608C81.0642 30.3413 81.0589 29.968 80.8669 29.488C80.7709 29.2427 80.6695 29.0027 80.5629 28.768C80.4669 28.5333 80.3602 28.32 80.2429 28.128C80.1255 27.9253 79.9922 27.7707 79.8429 27.664C79.6935 27.5467 79.5282 27.488 79.3469 27.488C79.1869 27.488 79.0162 27.5413 78.8349 27.648C78.6642 27.7547 78.4775 27.936 78.2749 28.192C78.0829 28.448 77.8749 28.8 77.6509 29.248ZM84.2969 32.08L84.4569 30.768C85.0969 30.768 85.6995 30.7093 86.2649 30.592C86.8302 30.464 87.3475 30.2987 87.8169 30.096C88.2969 29.8827 88.7075 29.6427 89.0489 29.376C89.3902 29.0987 89.6515 28.816 89.8329 28.528C90.0249 28.2293 90.1209 27.936 90.1209 27.648C90.1209 27.5093 90.0729 27.3707 89.9769 27.232C89.8809 27.0827 89.7155 26.96 89.4809 26.864C89.2569 26.768 88.9529 26.72 88.5689 26.72C88.3342 26.72 88.0729 26.752 87.7849 26.816C87.4969 26.88 87.2195 26.9707 86.9529 27.088C86.6969 27.1947 86.4835 27.3173 86.3129 27.456C86.6009 27.6907 86.8675 27.92 87.1129 28.144C87.3689 28.368 87.6302 28.6133 87.8969 28.88C88.1635 29.136 88.4515 29.4293 88.7609 29.76C89.0062 29.9413 89.2782 30.096 89.5769 30.224C89.8862 30.352 90.2169 30.4587 90.5689 30.544C90.9315 30.6187 91.2995 30.6773 91.6729 30.72C92.0462 30.752 92.4195 30.768 92.7929 30.768C93.0169 30.768 93.1769 30.832 93.2729 30.96C93.3795 31.0773 93.4329 31.2213 93.4329 31.392C93.4329 31.5627 93.3582 31.7227 93.2089 31.872C93.0595 32.0107 92.8675 32.08 92.6329 32.08C92.0462 32.08 91.4435 32.0267 90.8249 31.92C90.2169 31.8027 89.6462 31.632 89.1129 31.408C88.5795 31.1733 88.1262 30.88 87.7529 30.528C87.5715 30.2933 87.3689 30.0587 87.1449 29.824C86.9209 29.5893 86.6755 29.3547 86.4089 29.12C86.1529 28.8747 85.8755 28.6453 85.5769 28.432C85.5129 28.3787 85.4489 28.2827 85.3849 28.144C85.3209 28.0053 85.2675 27.8613 85.2249 27.712C85.1822 27.5627 85.1609 27.4507 85.1609 27.376C85.1609 27.216 85.2622 27.024 85.4649 26.8C85.6675 26.576 85.9395 26.3627 86.2809 26.16C86.6222 25.9467 87.0115 25.7707 87.4489 25.632C87.8862 25.4933 88.3395 25.424 88.8089 25.424C89.4169 25.424 89.9075 25.5147 90.2809 25.696C90.6649 25.8773 90.9422 26.112 91.1129 26.4C91.2942 26.6773 91.3849 26.976 91.3849 27.296C91.3849 27.7653 91.2675 28.2347 91.0329 28.704C90.7982 29.1627 90.4622 29.5947 90.0249 30C89.5875 30.4053 89.0755 30.768 88.4889 31.088C87.9022 31.3973 87.2515 31.6427 86.5369 31.824C85.8329 31.9947 85.0862 32.08 84.2969 32.08ZM93.1406 32.08L93.2846 30.768C93.8926 30.768 94.3193 30.7093 94.5646 30.592C94.81 30.4747 94.9486 30.2667 94.9806 29.968C95.0233 29.6693 95.034 29.2533 95.0126 28.72L94.7086 20.576H96.0046L96.3246 28.576C96.346 29.1413 96.3246 29.6427 96.2606 30.08C96.2073 30.5173 96.0686 30.8853 95.8446 31.184C95.6313 31.4827 95.306 31.7067 94.8686 31.856C94.442 32.0053 93.866 32.08 93.1406 32.08ZM99.2689 32L98.9489 20.576H100.245L100.565 32H99.2689ZM107.263 31.28L107.903 30.176C108.116 30.3147 108.415 30.448 108.799 30.576C109.183 30.704 109.631 30.768 110.143 30.768C110.676 30.768 111.098 30.7147 111.407 30.608C111.727 30.5013 111.956 30.3467 112.095 30.144C112.244 29.9307 112.319 29.6853 112.319 29.408C112.319 29.1947 112.271 28.9333 112.175 28.624C112.09 28.304 111.898 27.8773 111.599 27.344C111.3 26.8 110.842 26.0907 110.223 25.216L111.327 24.496C111.892 25.2747 112.34 25.9787 112.671 26.608C113.012 27.2373 113.252 27.792 113.391 28.272C113.54 28.7413 113.615 29.1467 113.615 29.488C113.615 29.9147 113.508 30.3307 113.295 30.736C113.082 31.1307 112.724 31.456 112.223 31.712C111.722 31.968 111.028 32.096 110.143 32.096C109.759 32.096 109.386 32.064 109.023 32C108.671 31.936 108.346 31.8453 108.047 31.728C107.748 31.6 107.487 31.4507 107.263 31.28ZM118.268 30.768C118.801 30.768 119.223 30.7147 119.532 30.608C119.852 30.5013 120.081 30.3467 120.22 30.144C120.369 29.9307 120.444 29.6853 120.444 29.408C120.444 29.1947 120.385 28.9387 120.268 28.64C120.161 28.3413 120.012 28.0107 119.82 27.648C119.628 27.2747 119.404 26.8853 119.148 26.48C118.903 26.064 118.636 25.6427 118.348 25.216L119.452 24.496C119.868 25.1253 120.231 25.7227 120.54 26.288C120.849 26.8427 121.111 27.3653 121.324 27.856C121.537 28.336 121.708 28.7893 121.836 29.216C121.985 29.6853 122.151 30.032 122.332 30.256C122.524 30.48 122.721 30.624 122.924 30.688C123.127 30.7413 123.313 30.768 123.484 30.768C123.708 30.768 123.873 30.832 123.98 30.96C124.087 31.0773 124.14 31.2213 124.14 31.392C124.14 31.5627 124.065 31.7227 123.916 31.872C123.767 32.0107 123.575 32.08 123.34 32.08C122.988 32.08 122.641 32.016 122.3 31.888C121.969 31.7493 121.681 31.5307 121.436 31.232C121.191 30.9227 121.02 30.512 120.924 30L121.564 29.488C121.564 29.9147 121.473 30.3307 121.292 30.736C121.111 31.1307 120.78 31.456 120.3 31.712C119.831 31.968 119.153 32.096 118.268 32.096C117.884 32.096 117.511 32.064 117.148 32C116.796 31.936 116.471 31.8453 116.172 31.728C115.873 31.6 115.612 31.4507 115.388 31.28L116.028 30.176C116.241 30.3147 116.54 30.448 116.924 30.576C117.308 30.704 117.756 30.768 118.268 30.768ZM123.844 32.08L124.004 30.768C124.676 30.768 125.193 30.7627 125.556 30.752C125.929 30.7413 126.201 30.7307 126.372 30.72C126.542 30.6987 126.66 30.688 126.724 30.688C126.532 30.5813 126.308 30.416 126.052 30.192C125.796 29.9573 125.572 29.664 125.38 29.312C125.188 28.9493 125.092 28.5227 125.092 28.032C125.092 27.424 125.23 26.8907 125.508 26.432C125.796 25.9733 126.185 25.616 126.676 25.36C127.177 25.104 127.748 24.976 128.388 24.976C128.633 24.976 128.894 24.9973 129.172 25.04C129.449 25.0827 129.716 25.1467 129.972 25.232L129.7 26.464C129.486 26.4107 129.262 26.368 129.028 26.336C128.793 26.304 128.58 26.288 128.388 26.288C128.004 26.288 127.662 26.3627 127.364 26.512C127.065 26.6507 126.83 26.848 126.66 27.104C126.489 27.36 126.404 27.6693 126.404 28.032C126.404 28.3093 126.462 28.5653 126.58 28.8C126.697 29.024 126.852 29.2267 127.044 29.408C127.236 29.5893 127.449 29.7387 127.684 29.856C127.918 29.9733 128.148 30.064 128.372 30.128C128.606 30.192 128.814 30.2187 128.996 30.208C129.124 30.1653 129.241 30.128 129.348 30.096C129.454 30.064 129.572 30.0267 129.7 29.984C129.838 29.9307 130.004 29.8613 130.196 29.776C130.398 29.6907 130.654 29.5787 130.964 29.44L131.412 30.608C130.697 30.896 129.966 31.152 129.22 31.376C128.484 31.6 127.678 31.776 126.804 31.904C125.94 32.0213 124.953 32.08 123.844 32.08Z" fill="#B8C0CC"/>
<path d="M28.688 81.36C29.1213 81.36 29.4637 81.4813 29.715 81.724C29.9663 81.958 30.092 82.27 30.092 82.66V85H16.78V83.7C16.78 83.4487 16.832 83.18 16.936 82.894C17.04 82.608 17.222 82.348 17.482 82.114L22.942 76.615C23.41 76.147 23.8173 75.7007 24.164 75.276C24.5107 74.8513 24.7967 74.4353 25.022 74.028C25.2473 73.612 25.4163 73.2003 25.529 72.793C25.6417 72.377 25.698 71.9393 25.698 71.48C25.698 70.726 25.516 70.1497 25.152 69.751C24.7967 69.3437 24.2507 69.14 23.514 69.14C22.916 69.14 22.409 69.3003 21.993 69.621C21.5857 69.933 21.304 70.323 21.148 70.791C20.966 71.2677 20.7277 71.584 20.433 71.74C20.1383 71.896 19.718 71.9307 19.172 71.844L17.04 71.467C17.1787 70.5223 17.443 69.699 17.833 68.997C18.2317 68.295 18.7213 67.71 19.302 67.242C19.8913 66.774 20.563 66.4273 21.317 66.202C22.071 65.968 22.8813 65.851 23.748 65.851C24.684 65.851 25.5247 65.9897 26.27 66.267C27.024 66.5357 27.6653 66.9127 28.194 67.398C28.7227 67.8833 29.1257 68.464 29.403 69.14C29.689 69.8073 29.832 70.544 29.832 71.35C29.832 72.0433 29.7323 72.6847 29.533 73.274C29.3423 73.8633 29.078 74.4267 28.74 74.964C28.402 75.4927 28.0077 76.0083 27.557 76.511C27.115 77.005 26.6427 77.5077 26.14 78.019L22.435 81.815C22.9117 81.6677 23.384 81.555 23.852 81.477C24.32 81.399 24.7533 81.36 25.152 81.36H28.688ZM46.142 75.523C46.142 77.1783 45.9644 78.6127 45.609 79.826C45.2537 81.0393 44.7597 82.0447 44.127 82.842C43.503 83.6393 42.7577 84.233 41.891 84.623C41.033 85.013 40.1014 85.208 39.096 85.208C38.0907 85.208 37.159 85.013 36.301 84.623C35.4517 84.233 34.715 83.6393 34.091 82.842C33.467 82.0447 32.9774 81.0393 32.622 79.826C32.2754 78.6127 32.102 77.1783 32.102 75.523C32.102 73.8677 32.2754 72.4333 32.622 71.22C32.9774 70.0067 33.467 69.0013 34.091 68.204C34.715 67.4067 35.4517 66.8173 36.301 66.436C37.159 66.046 38.0907 65.851 39.096 65.851C40.1014 65.851 41.033 66.046 41.891 66.436C42.7577 66.8173 43.503 67.4067 44.127 68.204C44.7597 69.0013 45.2537 70.0067 45.609 71.22C45.9644 72.4333 46.142 73.8677 46.142 75.523ZM41.982 75.523C41.982 74.2143 41.8997 73.144 41.735 72.312C41.5704 71.4713 41.3494 70.8127 41.072 70.336C40.8034 69.8593 40.4957 69.5343 40.149 69.361C39.8024 69.179 39.4514 69.088 39.096 69.088C38.7407 69.088 38.3897 69.179 38.043 69.361C37.705 69.5343 37.4017 69.8593 37.133 70.336C36.873 70.8127 36.6607 71.4713 36.496 72.312C36.34 73.144 36.262 74.2143 36.262 75.523C36.262 76.8403 36.34 77.915 36.496 78.747C36.6607 79.579 36.873 80.2377 37.133 80.723C37.4017 81.1997 37.705 81.529 38.043 81.711C38.3897 81.8843 38.7407 81.971 39.096 81.971C39.4514 81.971 39.8024 81.8843 40.149 81.711C40.4957 81.529 40.8034 81.1997 41.072 80.723C41.3494 80.2377 41.5704 79.579 41.735 78.747C41.8997 77.915 41.982 76.8403 41.982 75.523ZM61.7241 75.523C61.7241 77.1783 61.5464 78.6127 61.1911 79.826C60.8357 81.0393 60.3417 82.0447 59.7091 82.842C59.0851 83.6393 58.3397 84.233 57.4731 84.623C56.6151 85.013 55.6834 85.208 54.6781 85.208C53.6727 85.208 52.7411 85.013 51.8831 84.623C51.0337 84.233 50.2971 83.6393 49.6731 82.842C49.0491 82.0447 48.5594 81.0393 48.2041 79.826C47.8574 78.6127 47.6841 77.1783 47.6841 75.523C47.6841 73.8677 47.8574 72.4333 48.2041 71.22C48.5594 70.0067 49.0491 69.0013 49.6731 68.204C50.2971 67.4067 51.0337 66.8173 51.8831 66.436C52.7411 66.046 53.6727 65.851 54.6781 65.851C55.6834 65.851 56.6151 66.046 57.4731 66.436C58.3397 66.8173 59.0851 67.4067 59.7091 68.204C60.3417 69.0013 60.8357 70.0067 61.1911 71.22C61.5464 72.4333 61.7241 73.8677 61.7241 75.523ZM57.5641 75.523C57.5641 74.2143 57.4817 73.144 57.3171 72.312C57.1524 71.4713 56.9314 70.8127 56.6541 70.336C56.3854 69.8593 56.0777 69.5343 55.7311 69.361C55.3844 69.179 55.0334 69.088 54.6781 69.088C54.3227 69.088 53.9717 69.179 53.6251 69.361C53.2871 69.5343 52.9837 69.8593 52.7151 70.336C52.4551 70.8127 52.2427 71.4713 52.0781 72.312C51.9221 73.144 51.8441 74.2143 51.8441 75.523C51.8441 76.8403 51.9221 77.915 52.0781 78.747C52.2427 79.579 52.4551 80.2377 52.7151 80.723C52.9837 81.1997 53.2871 81.529 53.6251 81.711C53.9717 81.8843 54.3227 81.971 54.6781 81.971C55.0334 81.971 55.3844 81.8843 55.7311 81.711C56.0777 81.529 56.3854 81.1997 56.6541 80.723C56.9314 80.2377 57.1524 79.579 57.3171 78.747C57.4817 77.915 57.5641 76.8403 57.5641 75.523Z" fill="white"/>
<rect x="75" y="66.5" width="52" height="16" rx="4" fill="#0F3E28"/>
<path d="M79.9577 76.76H82.9277L81.4477 73.79L79.9577 76.76ZM91.9381 77.755V78.5H88.0581V77.755H89.5781V73.05C89.5781 72.9 89.5831 72.745 89.5931 72.585L88.3731 73.62C88.3265 73.6567 88.2798 73.68 88.2331 73.69C88.1865 73.7 88.1415 73.7017 88.0981 73.695C88.0581 73.6883 88.0215 73.675 87.9881 73.655C87.9581 73.6317 87.9331 73.6083 87.9131 73.585L87.6081 73.16L89.7581 71.305H90.5531V77.755H91.9381ZM98.0489 77.485C98.1656 77.485 98.2572 77.52 98.3239 77.59C98.3906 77.6567 98.4239 77.7433 98.4239 77.85V78.5H93.5539V78.135C93.5539 78.0617 93.5689 77.985 93.5989 77.905C93.6289 77.825 93.6772 77.7517 93.7439 77.685L95.9839 75.44C96.1739 75.25 96.3422 75.0683 96.4889 74.895C96.6389 74.7217 96.7656 74.5483 96.8689 74.375C96.9756 74.2017 97.0556 74.0267 97.1089 73.85C97.1656 73.67 97.1939 73.4817 97.1939 73.285C97.1939 73.095 97.1639 72.9283 97.1039 72.785C97.0472 72.6383 96.9672 72.5183 96.8639 72.425C96.7639 72.3283 96.6422 72.2567 96.4989 72.21C96.3589 72.16 96.2039 72.135 96.0339 72.135C95.8706 72.135 95.7189 72.1583 95.5789 72.205C95.4422 72.2517 95.3189 72.3167 95.2089 72.4C95.1022 72.4833 95.0122 72.5833 94.9389 72.7C94.8689 72.8133 94.8172 72.9383 94.7839 73.075C94.7339 73.2117 94.6689 73.3033 94.5889 73.35C94.5122 73.3967 94.3989 73.4067 94.2489 73.38L93.6839 73.28C93.7339 72.94 93.8272 72.6417 93.9639 72.385C94.1039 72.1283 94.2789 71.915 94.4889 71.745C94.6989 71.5717 94.9389 71.4417 95.2089 71.355C95.4822 71.265 95.7772 71.22 96.0939 71.22C96.4139 71.22 96.7072 71.2683 96.9739 71.365C97.2439 71.4583 97.4756 71.5933 97.6689 71.77C97.8656 71.9433 98.0189 72.155 98.1289 72.405C98.2389 72.655 98.2939 72.9367 98.2939 73.25C98.2939 73.5167 98.2539 73.7633 98.1739 73.99C98.0972 74.2167 97.9922 74.4333 97.8589 74.64C97.7256 74.8467 97.5689 75.0483 97.3889 75.245C97.2122 75.4383 97.0256 75.635 96.8289 75.835L95.0889 77.615C95.2322 77.575 95.3756 77.5433 95.5189 77.52C95.6656 77.4967 95.8039 77.485 95.9339 77.485H98.0489ZM99.9197 77.88C99.9197 77.7833 99.9364 77.6933 99.9697 77.61C100.006 77.5233 100.055 77.4483 100.115 77.385C100.178 77.3217 100.251 77.2717 100.335 77.235C100.421 77.1983 100.513 77.18 100.61 77.18C100.706 77.18 100.796 77.1983 100.88 77.235C100.966 77.2717 101.041 77.3217 101.105 77.385C101.168 77.4483 101.218 77.5233 101.255 77.61C101.291 77.6933 101.31 77.7833 101.31 77.88C101.31 77.98 101.291 78.0717 101.255 78.155C101.218 78.2383 101.168 78.3117 101.105 78.375C101.041 78.4383 100.966 78.4867 100.88 78.52C100.796 78.5567 100.706 78.575 100.61 78.575C100.513 78.575 100.421 78.5567 100.335 78.52C100.251 78.4867 100.178 78.4383 100.115 78.375C100.055 78.3117 100.006 78.2383 99.9697 78.155C99.9364 78.0717 99.9197 77.98 99.9197 77.88ZM105.193 77.73C105.41 77.73 105.603 77.7 105.773 77.64C105.943 77.5767 106.085 77.49 106.198 77.38C106.315 77.2667 106.403 77.1333 106.463 76.98C106.523 76.8267 106.553 76.66 106.553 76.48C106.553 76.26 106.518 76.07 106.448 75.91C106.381 75.75 106.286 75.6183 106.163 75.515C106.043 75.4083 105.9 75.33 105.733 75.28C105.566 75.2267 105.386 75.2 105.193 75.2C105 75.2 104.82 75.2267 104.653 75.28C104.486 75.33 104.341 75.4083 104.218 75.515C104.098 75.6183 104.003 75.75 103.933 75.91C103.866 76.07 103.833 76.26 103.833 76.48C103.833 76.66 103.863 76.8267 103.923 76.98C103.983 77.1333 104.07 77.2667 104.183 77.38C104.3 77.49 104.443 77.5767 104.613 77.64C104.783 77.7 104.976 77.73 105.193 77.73ZM105.193 72.045C104.996 72.045 104.823 72.075 104.673 72.135C104.526 72.195 104.405 72.275 104.308 72.375C104.211 72.475 104.138 72.5933 104.088 72.73C104.041 72.8633 104.018 73.005 104.018 73.155C104.018 73.305 104.038 73.4517 104.078 73.595C104.121 73.7383 104.188 73.8667 104.278 73.98C104.371 74.09 104.493 74.1783 104.643 74.245C104.793 74.3117 104.976 74.345 105.193 74.345C105.41 74.345 105.593 74.3117 105.743 74.245C105.893 74.1783 106.013 74.09 106.103 73.98C106.196 73.8667 106.263 73.7383 106.303 73.595C106.346 73.4517 106.368 73.305 106.368 73.155C106.368 73.005 106.343 72.8633 106.293 72.73C106.246 72.5933 106.173 72.475 106.073 72.375C105.976 72.275 105.855 72.195 105.708 72.135C105.561 72.075 105.39 72.045 105.193 72.045ZM106.328 74.745C106.771 74.8817 107.103 75.0983 107.323 75.395C107.546 75.6917 107.658 76.06 107.658 76.5C107.658 76.8167 107.598 77.1033 107.478 77.36C107.358 77.6167 107.19 77.835 106.973 78.015C106.756 78.195 106.496 78.335 106.193 78.435C105.893 78.5317 105.56 78.58 105.193 78.58C104.826 78.58 104.491 78.5317 104.188 78.435C103.888 78.335 103.63 78.195 103.413 78.015C103.196 77.835 103.028 77.6167 102.908 77.36C102.788 77.1033 102.728 76.8167 102.728 76.5C102.728 76.06 102.838 75.6917 103.058 75.395C103.281 75.0983 103.615 74.8817 104.058 74.745C103.698 74.6017 103.426 74.3933 103.243 74.12C103.063 73.8467 102.973 73.5183 102.973 73.135C102.973 72.865 103.026 72.6133 103.133 72.38C103.24 72.1467 103.39 71.945 103.583 71.775C103.78 71.6017 104.015 71.4667 104.288 71.37C104.561 71.27 104.863 71.22 105.193 71.22C105.523 71.22 105.823 71.27 106.093 71.37C106.366 71.4667 106.6 71.6017 106.793 71.775C106.99 71.945 107.141 72.1467 107.248 72.38C107.358 72.6133 107.413 72.865 107.413 73.135C107.413 73.5183 107.321 73.8467 107.138 74.12C106.958 74.3933 106.688 74.6017 106.328 74.745ZM110.134 73.44C110.134 73.8667 110.247 74.195 110.474 74.425C110.704 74.6517 111.024 74.765 111.434 74.765C111.654 74.765 111.847 74.73 112.014 74.66C112.184 74.59 112.327 74.4967 112.444 74.38C112.56 74.26 112.649 74.1217 112.709 73.965C112.769 73.805 112.799 73.635 112.799 73.455C112.799 73.245 112.765 73.0583 112.699 72.895C112.635 72.7283 112.544 72.5867 112.424 72.47C112.307 72.3533 112.167 72.265 112.004 72.205C111.84 72.1417 111.662 72.11 111.469 72.11C111.265 72.11 111.082 72.1433 110.919 72.21C110.755 72.2767 110.615 72.37 110.499 72.49C110.382 72.6067 110.292 72.7467 110.229 72.91C110.165 73.07 110.134 73.2467 110.134 73.44ZM111.979 75.675C112.045 75.5917 112.107 75.5133 112.164 75.44C112.22 75.3633 112.274 75.2867 112.324 75.21C112.15 75.3333 111.957 75.4283 111.744 75.495C111.53 75.5583 111.304 75.59 111.064 75.59C110.804 75.59 110.554 75.5467 110.314 75.46C110.074 75.37 109.86 75.2383 109.674 75.065C109.487 74.8883 109.337 74.6717 109.224 74.415C109.114 74.155 109.059 73.8567 109.059 73.52C109.059 73.2033 109.117 72.905 109.234 72.625C109.354 72.345 109.52 72.1017 109.734 71.895C109.947 71.685 110.202 71.52 110.499 71.4C110.795 71.28 111.124 71.22 111.484 71.22C111.84 71.22 112.164 71.2783 112.454 71.395C112.744 71.5083 112.99 71.67 113.194 71.88C113.397 72.0867 113.554 72.335 113.664 72.625C113.774 72.9117 113.829 73.2283 113.829 73.575C113.829 73.7917 113.809 73.9967 113.769 74.19C113.732 74.3833 113.677 74.5717 113.604 74.755C113.534 74.935 113.447 75.1133 113.344 75.29C113.244 75.4633 113.13 75.64 113.004 75.82L111.309 78.25C111.259 78.3233 111.184 78.3833 111.084 78.43C110.987 78.4767 110.877 78.5 110.754 78.5H109.769L111.979 75.675ZM118.565 73.04C118.565 73.3167 118.52 73.565 118.43 73.785C118.343 74.005 118.225 74.1933 118.075 74.35C117.925 74.5033 117.751 74.6217 117.555 74.705C117.358 74.785 117.151 74.825 116.935 74.825C116.701 74.825 116.485 74.785 116.285 74.705C116.088 74.6217 115.916 74.5033 115.77 74.35C115.626 74.1933 115.513 74.005 115.43 73.785C115.346 73.565 115.305 73.3167 115.305 73.04C115.305 72.7567 115.346 72.5033 115.43 72.28C115.513 72.0533 115.626 71.8633 115.77 71.71C115.916 71.5533 116.088 71.4333 116.285 71.35C116.485 71.2667 116.701 71.225 116.935 71.225C117.168 71.225 117.383 71.2667 117.58 71.35C117.78 71.4333 117.951 71.5533 118.095 71.71C118.241 71.8633 118.356 72.0533 118.44 72.28C118.523 72.5033 118.565 72.7567 118.565 73.04ZM117.735 73.04C117.735 72.8367 117.713 72.665 117.67 72.525C117.63 72.3817 117.573 72.2667 117.5 72.18C117.43 72.09 117.345 72.0267 117.245 71.99C117.148 71.95 117.045 71.93 116.935 71.93C116.821 71.93 116.716 71.95 116.62 71.99C116.523 72.0267 116.44 72.09 116.37 72.18C116.3 72.2667 116.245 72.3817 116.205 72.525C116.165 72.665 116.145 72.8367 116.145 73.04C116.145 73.24 116.165 73.4083 116.205 73.545C116.245 73.6817 116.3 73.7933 116.37 73.88C116.44 73.9633 116.523 74.0233 116.62 74.06C116.716 74.0967 116.821 74.115 116.935 74.115C117.045 74.115 117.148 74.0967 117.245 74.06C117.345 74.0233 117.43 73.9633 117.5 73.88C117.573 73.7933 117.63 73.6817 117.67 73.545C117.713 73.4083 117.735 73.24 117.735 73.04ZM121.035 71.475C121.071 71.4283 121.115 71.3883 121.165 71.355C121.218 71.3183 121.291 71.3 121.385 71.3H122.16L116.855 78.335C116.818 78.3817 116.773 78.4217 116.72 78.455C116.666 78.485 116.601 78.5 116.525 78.5H115.725L121.035 71.475ZM122.595 76.805C122.595 77.0817 122.55 77.33 122.46 77.55C122.37 77.77 122.25 77.9567 122.1 78.11C121.95 78.2633 121.776 78.3817 121.58 78.465C121.383 78.545 121.176 78.585 120.96 78.585C120.726 78.585 120.51 78.545 120.31 78.465C120.113 78.3817 119.941 78.2633 119.795 78.11C119.651 77.9567 119.538 77.77 119.455 77.55C119.375 77.33 119.335 77.0817 119.335 76.805C119.335 76.5217 119.375 76.2683 119.455 76.045C119.538 75.8183 119.651 75.6267 119.795 75.47C119.941 75.3133 120.113 75.195 120.31 75.115C120.51 75.0317 120.726 74.99 120.96 74.99C121.193 74.99 121.41 75.0317 121.61 75.115C121.81 75.195 121.981 75.3133 122.125 75.47C122.271 75.6267 122.386 75.8183 122.47 76.045C122.553 76.2683 122.595 76.5217 122.595 76.805ZM121.765 76.805C121.765 76.6017 121.743 76.43 121.7 76.29C121.66 76.1467 121.603 76.0317 121.53 75.945C121.456 75.855 121.37 75.7917 121.27 75.755C121.173 75.715 121.07 75.695 120.96 75.695C120.85 75.695 120.746 75.715 120.65 75.755C120.553 75.7917 120.468 75.855 120.395 75.945C120.325 76.0317 120.27 76.1467 120.23 76.29C120.19 76.43 120.17 76.6017 120.17 76.805C120.17 77.005 120.19 77.1733 120.23 77.31C120.27 77.4467 120.325 77.5583 120.395 77.645C120.468 77.7283 120.553 77.7883 120.65 77.825C120.746 77.8617 120.85 77.88 120.96 77.88C121.07 77.88 121.173 77.8617 121.27 77.825C121.37 77.7883 121.456 77.7283 121.53 77.645C121.603 77.5583 121.66 77.4467 121.7 77.31C121.743 77.1733 121.765 77.005 121.765 76.805Z" fill="#0BFF96"/>
<rect x="247" y="16" width="32" height="32" rx="8" fill="#7B6F00"/>
<g clip-path="url(#clip0_2001_2291)">
<path d="M270.333 38V36.6667C270.333 36.0758 270.136 35.5019 269.774 35.0349C269.412 34.5679 268.906 34.2344 268.333 34.0867" stroke="#FFEF60" stroke-width="2" stroke-linecap="round" stroke-linejoin="round"/>
<path d="M266.333 38V36.6667C266.333 35.9594 266.052 35.2811 265.552 34.781C265.052 34.281 264.374 34 263.667 34H258.333C257.626 34 256.948 34.281 256.448 34.781C255.947 35.2811 255.667 35.9594 255.667 36.6667V38" stroke="#FFEF60" stroke-width="2" stroke-linecap="round" stroke-linejoin="round"/>
<path d="M265.667 26.0867C266.24 26.2335 266.749 26.5671 267.112 27.0349C267.475 27.5026 267.672 28.0779 267.672 28.67C267.672 29.2621 267.475 29.8374 267.112 30.3051C266.749 30.7729 266.24 31.1065 265.667 31.2533" stroke="#FFEF60" stroke-width="2" stroke-linecap="round" stroke-linejoin="round"/>
<path d="M261 31.3333C262.473 31.3333 263.667 30.1394 263.667 28.6667C263.667 27.1939 262.473 26 261 26C259.527 26 258.333 27.1939 258.333 28.6667C258.333 30.1394 259.527 31.3333 261 31.3333Z" stroke="#FFEF60" stroke-width="2" stroke-linecap="round" stroke-linejoin="round"/>
</g>
<path d="M16.42 108.014C16.42 107.79 16.4387 107.552 16.476 107.3C16.5227 107.039 16.588 106.763 16.672 106.474C16.7653 106.175 16.8773 105.863 17.008 105.536L18.016 105.928C17.9227 106.189 17.8387 106.437 17.764 106.67C17.6987 106.903 17.6473 107.123 17.61 107.328C17.582 107.533 17.568 107.729 17.568 107.916C17.568 108.308 17.652 108.639 17.82 108.91C17.9973 109.19 18.24 109.419 18.548 109.596C18.856 109.773 19.206 109.904 19.598 109.988C19.9993 110.072 20.424 110.114 20.872 110.114C21.4133 110.114 21.9173 110.067 22.384 109.974C22.86 109.881 23.2753 109.745 23.63 109.568C23.994 109.4 24.2787 109.204 24.484 108.98C24.6893 108.765 24.792 108.532 24.792 108.28C24.792 108.159 24.7453 108.047 24.652 107.944C24.5587 107.841 24.4187 107.743 24.232 107.65C24.0453 107.557 23.8213 107.468 23.56 107.384C23.2987 107.291 23 107.197 22.664 107.104L22.93 105.942C23.4153 106.129 23.8447 106.287 24.218 106.418C24.5913 106.539 24.918 106.637 25.198 106.712C25.478 106.787 25.7207 106.843 25.926 106.88C26.1313 106.908 26.304 106.922 26.444 106.922C26.64 106.922 26.78 106.978 26.864 107.09C26.9573 107.193 27.004 107.319 27.004 107.468C27.004 107.617 26.9387 107.757 26.808 107.888C26.6773 108.009 26.5093 108.07 26.304 108.07C26.248 108.07 26.192 108.07 26.136 108.07C26.08 108.07 26.0193 108.07 25.954 108.07C25.898 108.07 25.842 108.07 25.786 108.07C25.8047 108.154 25.8187 108.219 25.828 108.266C25.8373 108.322 25.842 108.392 25.842 108.476C25.842 108.821 25.7207 109.157 25.478 109.484C25.2447 109.811 24.8993 110.105 24.442 110.366C23.9847 110.637 23.4293 110.851 22.776 111.01C22.132 111.169 21.3947 111.248 20.564 111.248C19.8267 111.248 19.1407 111.127 18.506 110.884C17.8807 110.651 17.3767 110.296 16.994 109.82C16.6113 109.344 16.42 108.742 16.42 108.014ZM21.572 113.894C21.376 113.894 21.208 113.824 21.068 113.684C20.9373 113.553 20.872 113.395 20.872 113.208C20.872 113.021 20.9373 112.858 21.068 112.718C21.208 112.578 21.376 112.508 21.572 112.508C21.7587 112.508 21.9173 112.578 22.048 112.718C22.188 112.858 22.258 113.021 22.258 113.208C22.258 113.395 22.188 113.553 22.048 113.684C21.9173 113.824 21.7587 113.894 21.572 113.894ZM19.654 113.894C19.458 113.894 19.29 113.824 19.15 113.684C19.0193 113.553 18.954 113.395 18.954 113.208C18.954 113.021 19.0193 112.858 19.15 112.718C19.29 112.578 19.458 112.508 19.654 112.508C19.8407 112.508 19.9993 112.578 20.13 112.718C20.27 112.858 20.34 113.021 20.34 113.208C20.34 113.395 20.27 113.553 20.13 113.684C19.9993 113.824 19.8407 113.894 19.654 113.894ZM33.5846 108.252C32.7633 108.252 32.0726 108.219 31.5126 108.154C30.9619 108.098 30.5139 108.009 30.1686 107.888C29.8233 107.767 29.5619 107.613 29.3846 107.426C29.2073 107.239 29.0859 107.015 29.0206 106.754L29.3426 106.642C29.1093 107.09 28.8573 107.417 28.5866 107.622C28.3159 107.818 28.0313 107.944 27.7326 108C27.4433 108.047 27.1353 108.07 26.8086 108.07L26.9486 106.922C27.2753 106.922 27.5413 106.875 27.7466 106.782C27.9613 106.689 28.1339 106.535 28.2646 106.32C28.4046 106.105 28.5259 105.821 28.6286 105.466C28.7313 105.111 28.8433 104.673 28.9646 104.15L29.9866 104.416C29.9306 104.631 29.8793 104.836 29.8326 105.032C29.7859 105.228 29.7486 105.401 29.7206 105.55C29.7019 105.69 29.6926 105.802 29.6926 105.886C29.6926 106.11 29.7439 106.301 29.8466 106.46C29.9493 106.609 30.1453 106.735 30.4346 106.838C30.7239 106.931 31.1393 107.001 31.6806 107.048C32.2313 107.085 32.9499 107.104 33.8366 107.104C34.4526 107.104 35.0033 107.067 35.4886 106.992C35.9739 106.917 36.3799 106.805 36.7066 106.656C37.0426 106.497 37.2993 106.306 37.4766 106.082C37.6539 105.858 37.7426 105.601 37.7426 105.312C37.7426 105.107 37.6913 104.906 37.5886 104.71C37.4859 104.505 37.3273 104.332 37.1126 104.192C36.8979 104.052 36.6133 103.982 36.2586 103.982C35.8106 103.982 35.3626 104.099 34.9146 104.332C34.4759 104.565 34.0559 104.859 33.6546 105.214C33.2626 105.559 32.9126 105.914 32.6046 106.278C32.2966 106.642 32.0493 106.959 31.8626 107.23L30.6446 107.188C30.9433 106.703 31.2979 106.208 31.7086 105.704C32.1286 105.191 32.5859 104.719 33.0806 104.29C33.5846 103.851 34.1119 103.501 34.6626 103.24C35.2133 102.969 35.7733 102.834 36.3426 102.834C36.8559 102.834 37.2946 102.941 37.6586 103.156C38.0319 103.361 38.3166 103.641 38.5126 103.996C38.7179 104.351 38.8206 104.752 38.8206 105.2C38.8206 105.751 38.6573 106.259 38.3306 106.726C38.0133 107.183 37.4719 107.552 36.7066 107.832C35.9413 108.112 34.9006 108.252 33.5846 108.252ZM35.9366 101.392C35.7406 101.392 35.5726 101.327 35.4326 101.196C35.3019 101.056 35.2366 100.893 35.2366 100.706C35.2366 100.519 35.3019 100.356 35.4326 100.216C35.5726 100.076 35.7406 100.006 35.9366 100.006C36.1233 100.006 36.2819 100.076 36.4126 100.216C36.5526 100.356 36.6226 100.519 36.6226 100.706C36.6226 100.893 36.5526 101.056 36.4126 101.196C36.2819 101.327 36.1233 101.392 35.9366 101.392ZM44.0291 108.07C43.2824 108.07 42.7084 107.986 42.3071 107.818C41.9151 107.65 41.6444 107.389 41.4951 107.034C41.3457 106.679 41.2617 106.222 41.2431 105.662L40.9631 98.004H42.1111L42.3911 105.214C42.4097 105.671 42.4517 106.026 42.5171 106.278C42.5917 106.521 42.7504 106.689 42.9931 106.782C43.2451 106.875 43.6371 106.922 44.1691 106.922C44.3651 106.922 44.5051 106.978 44.5891 107.09C44.6824 107.193 44.7291 107.319 44.7291 107.468C44.7291 107.617 44.6637 107.757 44.5331 107.888C44.4024 108.009 44.2344 108.07 44.0291 108.07ZM44.5293 108.07L44.6693 106.922C44.9306 106.922 45.136 106.866 45.2853 106.754C45.444 106.642 45.5933 106.455 45.7333 106.194C45.8826 105.933 46.0693 105.583 46.2933 105.144C46.5173 104.696 46.7413 104.332 46.9653 104.052C47.1986 103.763 47.4226 103.539 47.6373 103.38C47.8613 103.212 48.0713 103.095 48.2673 103.03C48.4633 102.965 48.6453 102.932 48.8133 102.932C49.1213 102.932 49.3966 103.002 49.6393 103.142C49.882 103.273 50.1106 103.501 50.3253 103.828C50.54 104.145 50.7593 104.584 50.9833 105.144C51.198 105.657 51.3893 106.045 51.5573 106.306C51.7346 106.558 51.9166 106.726 52.1033 106.81C52.2993 106.885 52.5186 106.922 52.7613 106.922C52.9573 106.922 53.0973 106.978 53.1813 107.09C53.2746 107.193 53.3213 107.319 53.3213 107.468C53.3213 107.617 53.256 107.757 53.1253 107.888C52.9946 108.009 52.8266 108.07 52.6213 108.07C52.2573 108.07 51.9213 108.009 51.6133 107.888C51.3146 107.767 51.0626 107.575 50.8573 107.314L51.0533 107.02C50.9506 107.309 50.8106 107.547 50.6333 107.734C50.4653 107.911 50.274 108.042 50.0593 108.126C49.8446 108.219 49.616 108.266 49.3733 108.266C49.0653 108.266 48.748 108.201 48.4213 108.07C48.104 107.939 47.796 107.753 47.4973 107.51C47.1986 107.267 46.9373 106.983 46.7133 106.656C46.4706 107.085 46.2373 107.403 46.0133 107.608C45.7986 107.804 45.5746 107.93 45.3413 107.986C45.108 108.042 44.8373 108.07 44.5293 108.07ZM47.2453 105.592C47.404 105.853 47.572 106.082 47.7493 106.278C47.936 106.474 48.1226 106.637 48.3093 106.768C48.496 106.889 48.678 106.983 48.8553 107.048C49.042 107.104 49.21 107.132 49.3593 107.132C49.686 107.132 49.924 107.015 50.0733 106.782C50.232 106.549 50.2273 106.222 50.0593 105.802C49.9753 105.587 49.8866 105.377 49.7933 105.172C49.7093 104.967 49.616 104.78 49.5133 104.612C49.4106 104.435 49.294 104.299 49.1633 104.206C49.0326 104.103 48.888 104.052 48.7293 104.052C48.5893 104.052 48.44 104.099 48.2813 104.192C48.132 104.285 47.9686 104.444 47.7913 104.668C47.6233 104.892 47.4413 105.2 47.2453 105.592ZM53.123 108.07L53.249 106.922C53.781 106.922 54.1544 106.871 54.369 106.768C54.5837 106.665 54.705 106.483 54.733 106.222C54.7704 105.961 54.7797 105.597 54.761 105.13L54.495 98.004H55.629L55.909 105.004C55.9277 105.499 55.909 105.937 55.853 106.32C55.8064 106.703 55.685 107.025 55.489 107.286C55.3024 107.547 55.0177 107.743 54.635 107.874C54.2617 108.005 53.7577 108.07 53.123 108.07ZM58.5478 108L58.2678 98.004H59.4018L59.6818 108H58.5478ZM65.1927 111.248L64.7867 110.184C65.4681 109.96 66.0327 109.703 66.4807 109.414C66.9381 109.125 67.2974 108.817 67.5587 108.49C67.8294 108.163 68.0207 107.832 68.1327 107.496C68.2447 107.151 68.3007 106.819 68.3007 106.502C68.3007 106.045 68.1981 105.583 67.9927 105.116C67.7967 104.64 67.5774 104.192 67.3347 103.772L68.3567 103.254C68.5341 103.581 68.6881 103.903 68.8187 104.22C68.9587 104.537 69.0801 104.836 69.1827 105.116C69.2947 105.396 69.3834 105.653 69.4487 105.886C69.5794 106.287 69.7474 106.563 69.9527 106.712C70.1674 106.852 70.4567 106.922 70.8207 106.922C71.0167 106.922 71.1567 106.978 71.2407 107.09C71.3341 107.193 71.3807 107.319 71.3807 107.468C71.3807 107.617 71.3154 107.757 71.1847 107.888C71.0541 108.009 70.8861 108.07 70.6807 108.07C70.2701 108.07 69.9341 108 69.6727 107.86C69.4207 107.711 69.2294 107.519 69.0987 107.286C68.9681 107.043 68.8794 106.791 68.8327 106.53L69.2807 106.782C69.2807 107.398 69.1407 107.958 68.8607 108.462C68.5901 108.975 68.2401 109.419 67.8107 109.792C67.3814 110.175 66.9334 110.487 66.4667 110.73C66.0001 110.973 65.5754 111.145 65.1927 111.248ZM75.4855 111.038C74.8975 111.038 74.3655 110.903 73.8895 110.632C73.4135 110.361 73.0355 109.951 72.7555 109.4C72.4755 108.859 72.3355 108.177 72.3355 107.356C72.3355 106.6 72.4242 105.905 72.6015 105.27C72.7788 104.635 73.0122 104.089 73.3015 103.632C73.6002 103.165 73.9268 102.806 74.2815 102.554C74.6362 102.302 74.9862 102.176 75.3315 102.176C75.6395 102.176 75.9148 102.265 76.1575 102.442C76.4002 102.619 76.5915 102.867 76.7315 103.184C76.8715 103.501 76.9415 103.879 76.9415 104.318C76.9415 104.71 76.8808 105.102 76.7595 105.494C76.6382 105.886 76.4095 106.241 76.0735 106.558C75.7468 106.875 75.2755 107.118 74.6595 107.286L75.5695 106.516C75.8682 106.591 76.1668 106.661 76.4655 106.726C76.7735 106.782 77.0862 106.829 77.4035 106.866C77.7302 106.903 78.0708 106.922 78.4255 106.922C78.6215 106.922 78.7615 106.978 78.8455 107.09C78.9388 107.193 78.9855 107.319 78.9855 107.468C78.9855 107.617 78.9202 107.757 78.7895 107.888C78.6588 108.009 78.4908 108.07 78.2855 108.07C78.0335 108.07 77.7628 108.056 77.4735 108.028C77.1842 108 76.8948 107.967 76.6055 107.93C76.3162 107.883 76.0408 107.832 75.7795 107.776L76.9975 107.734C77.2308 107.986 77.3895 108.257 77.4735 108.546C77.5668 108.845 77.5902 109.139 77.5435 109.428C77.5062 109.727 77.3988 109.997 77.2215 110.24C77.0535 110.483 76.8248 110.674 76.5355 110.814C76.2462 110.963 75.8962 111.038 75.4855 111.038ZM71.1875 108.07L71.3275 106.922C71.5235 106.922 71.7195 106.922 71.9155 106.922C72.1115 106.922 72.2982 106.917 72.4755 106.908L72.5315 107.944C72.3168 107.981 72.0928 108.009 71.8595 108.028C71.6355 108.056 71.4115 108.07 71.1875 108.07ZM75.5135 109.89C75.6815 109.89 75.8448 109.857 76.0035 109.792C76.1715 109.736 76.3068 109.633 76.4095 109.484C76.5215 109.344 76.5775 109.153 76.5775 108.91C76.5775 108.677 76.5168 108.462 76.3955 108.266C76.2835 108.079 76.0828 107.925 75.7935 107.804C75.5042 107.683 75.0935 107.622 74.5615 107.622C74.4495 107.622 74.3235 107.631 74.1835 107.65C74.0528 107.659 73.9175 107.678 73.7775 107.706C73.6375 107.725 73.4928 107.753 73.3435 107.79V106.838C73.6982 106.791 74.0202 106.721 74.3095 106.628C74.6082 106.525 74.8695 106.385 75.0935 106.208C75.3175 106.031 75.4902 105.797 75.6115 105.508C75.7328 105.219 75.7935 104.864 75.7935 104.444C75.7935 104.304 75.7748 104.145 75.7375 103.968C75.7095 103.791 75.6535 103.641 75.5695 103.52C75.4855 103.389 75.3735 103.324 75.2335 103.324C75.0935 103.324 74.9208 103.417 74.7155 103.604C74.5195 103.791 74.3235 104.052 74.1275 104.388C73.9408 104.724 73.7822 105.125 73.6515 105.592C73.5302 106.049 73.4695 106.553 73.4695 107.104C73.4695 107.711 73.5348 108.196 73.6655 108.56C73.8055 108.933 73.9828 109.213 74.1975 109.4C74.4122 109.596 74.6362 109.727 74.8695 109.792C75.1028 109.857 75.3175 109.89 75.5135 109.89ZM78.7832 108.07L78.9232 106.922C79.2219 106.922 79.4645 106.903 79.6512 106.866C79.8379 106.819 79.9919 106.712 80.1132 106.544C80.2439 106.367 80.3652 106.091 80.4772 105.718C80.5892 105.345 80.7199 104.822 80.8692 104.15L81.9192 104.444C81.8632 104.677 81.7979 104.957 81.7232 105.284C81.6485 105.611 81.6112 105.909 81.6112 106.18C81.6112 106.329 81.6485 106.46 81.7232 106.572C81.7979 106.684 81.9239 106.773 82.1012 106.838C82.2879 106.894 82.5352 106.922 82.8432 106.922C83.1232 106.922 83.3519 106.899 83.5292 106.852C83.7065 106.805 83.8512 106.693 83.9632 106.516C84.0845 106.339 84.1919 106.054 84.2852 105.662C84.3785 105.27 84.4765 104.733 84.5792 104.052L85.6432 104.248C85.6152 104.416 85.5825 104.621 85.5452 104.864C85.5079 105.107 85.4705 105.349 85.4332 105.592C85.4052 105.825 85.3912 106.021 85.3912 106.18C85.3912 106.311 85.4192 106.437 85.4752 106.558C85.5405 106.67 85.6619 106.759 85.8392 106.824C86.0259 106.889 86.3012 106.922 86.6652 106.922C87.1319 106.922 87.4679 106.824 87.6732 106.628C87.8879 106.432 87.9952 106.133 87.9952 105.732C87.9952 105.517 87.9905 105.293 87.9812 105.06C87.9719 104.817 87.9532 104.551 87.9252 104.262C87.9065 103.963 87.8739 103.623 87.8272 103.24L88.8492 103.17C88.9052 103.926 88.9659 104.547 89.0312 105.032C89.1059 105.517 89.2085 105.9 89.3392 106.18C89.4792 106.451 89.6659 106.642 89.8992 106.754C90.1325 106.866 90.4405 106.922 90.8232 106.922C91.0192 106.922 91.1592 106.978 91.2432 107.09C91.3365 107.193 91.3832 107.319 91.3832 107.468C91.3832 107.617 91.3179 107.757 91.1872 107.888C91.0565 108.009 90.8885 108.07 90.6832 108.07C90.3659 108.07 90.0812 108.028 89.8292 107.944C89.5865 107.851 89.3719 107.729 89.1852 107.58C89.0079 107.421 88.8585 107.244 88.7372 107.048C88.6252 106.843 88.5459 106.628 88.4992 106.404L88.7512 106.488C88.6485 106.908 88.4852 107.235 88.2612 107.468C88.0465 107.692 87.7899 107.851 87.4912 107.944C87.1925 108.028 86.8752 108.07 86.5392 108.07C86.1285 108.07 85.7925 108.019 85.5312 107.916C85.2699 107.813 85.0645 107.659 84.9152 107.454C84.7752 107.239 84.6819 106.969 84.6352 106.642H85.1112C84.9339 107.043 84.7472 107.347 84.5512 107.552C84.3552 107.757 84.1125 107.897 83.8232 107.972C83.5339 108.037 83.1512 108.07 82.6752 108.07C82.4419 108.07 82.1899 108.033 81.9192 107.958C81.6579 107.883 81.4292 107.739 81.2332 107.524C81.0372 107.3 80.9205 106.969 80.8832 106.53L81.3032 106.446C81.1445 106.922 80.9485 107.277 80.7152 107.51C80.4912 107.734 80.2205 107.883 79.9032 107.958C79.5859 108.033 79.2125 108.07 78.7832 108.07ZM84.8172 100.37C84.6212 100.37 84.4532 100.305 84.3132 100.174C84.1825 100.034 84.1172 99.8707 84.1172 99.684C84.1172 99.4973 84.1825 99.334 84.3132 99.194C84.4532 99.054 84.6212 98.984 84.8172 98.984C85.0039 98.984 85.1625 99.054 85.2932 99.194C85.4332 99.334 85.5032 99.4973 85.5032 99.684C85.5032 99.8707 85.4332 100.034 85.2932 100.174C85.1625 100.305 85.0039 100.37 84.8172 100.37ZM83.8652 101.91C83.6692 101.91 83.5012 101.845 83.3612 101.714C83.2305 101.574 83.1652 101.411 83.1652 101.224C83.1652 101.037 83.2305 100.874 83.3612 100.734C83.5012 100.594 83.6692 100.524 83.8652 100.524C84.0519 100.524 84.2105 100.594 84.3412 100.734C84.4812 100.874 84.5512 101.037 84.5512 101.224C84.5512 101.411 84.4812 101.574 84.3412 101.714C84.2105 101.845 84.0519 101.91 83.8652 101.91ZM85.7692 101.91C85.5732 101.91 85.4052 101.845 85.2652 101.714C85.1345 101.574 85.0692 101.411 85.0692 101.224C85.0692 101.037 85.1345 100.874 85.2652 100.734C85.4052 100.594 85.5732 100.524 85.7692 100.524C85.9559 100.524 86.1145 100.594 86.2452 100.734C86.3852 100.874 86.4552 101.037 86.4552 101.224C86.4552 101.411 86.3852 101.574 86.2452 101.714C86.1145 101.845 85.9559 101.91 85.7692 101.91ZM91.1777 108.07L91.3037 106.922C91.8357 106.922 92.2091 106.871 92.4237 106.768C92.6384 106.665 92.7597 106.483 92.7877 106.222C92.8251 105.961 92.8344 105.597 92.8157 105.13L92.5497 98.004H93.6837L93.9637 105.004C93.9824 105.499 93.9637 105.937 93.9077 106.32C93.8611 106.703 93.7397 107.025 93.5437 107.286C93.3571 107.547 93.0724 107.743 92.6897 107.874C92.3164 108.005 91.8124 108.07 91.1777 108.07ZM99.3885 108.07C98.6418 108.07 98.0678 107.986 97.6665 107.818C97.2745 107.65 97.0038 107.389 96.8545 107.034C96.7051 106.679 96.6211 106.222 96.6025 105.662L96.3225 98.004H97.4705L97.7505 105.214C97.7691 105.671 97.8111 106.026 97.8765 106.278C97.9511 106.521 98.1098 106.689 98.3525 106.782C98.6045 106.875 98.9965 106.922 99.5285 106.922C99.7245 106.922 99.8645 106.978 99.9485 107.09C100.042 107.193 100.088 107.319 100.088 107.468C100.088 107.617 100.023 107.757 99.8925 107.888C99.7618 108.009 99.5938 108.07 99.3885 108.07ZM99.8887 108.07L100.029 106.922C100.486 106.922 100.85 106.894 101.121 106.838C101.391 106.782 101.587 106.67 101.709 106.502C101.83 106.325 101.891 106.063 101.891 105.718C101.891 105.485 101.853 105.209 101.779 104.892C101.704 104.565 101.606 104.22 101.485 103.856C101.363 103.492 101.233 103.133 101.093 102.778L102.227 102.358C102.348 102.657 102.46 102.997 102.563 103.38C102.675 103.763 102.768 104.141 102.843 104.514C102.917 104.887 102.955 105.214 102.955 105.494C102.955 105.867 102.913 106.199 102.829 106.488C102.754 106.768 102.637 107.011 102.479 107.216C102.32 107.412 102.115 107.575 101.863 107.706C101.62 107.827 101.335 107.921 101.009 107.986C100.682 108.042 100.309 108.07 99.8887 108.07ZM101.387 110.674C101.191 110.674 101.023 110.604 100.883 110.464C100.752 110.333 100.687 110.175 100.687 109.988C100.687 109.801 100.752 109.638 100.883 109.498C101.023 109.358 101.191 109.288 101.387 109.288C101.573 109.288 101.732 109.358 101.863 109.498C102.003 109.638 102.073 109.801 102.073 109.988C102.073 110.175 102.003 110.333 101.863 110.464C101.732 110.604 101.573 110.674 101.387 110.674ZM114.993 108.07C114.489 108.07 114.041 108 113.649 107.86C113.267 107.711 112.959 107.463 112.725 107.118C112.501 106.763 112.375 106.273 112.347 105.648L112.123 100.776H113.257L113.481 105.396C113.509 105.835 113.589 106.166 113.719 106.39C113.85 106.605 114.032 106.749 114.265 106.824C114.508 106.889 114.797 106.922 115.133 106.922C115.329 106.922 115.469 106.978 115.553 107.09C115.647 107.193 115.693 107.319 115.693 107.468C115.693 107.617 115.628 107.757 115.497 107.888C115.367 108.009 115.199 108.07 114.993 108.07ZM112.879 106.53C112.347 106.698 111.829 106.782 111.325 106.782C110.821 106.782 110.364 106.707 109.953 106.558C109.543 106.409 109.216 106.194 108.973 105.914C108.731 105.625 108.609 105.279 108.609 104.878C108.609 104.486 108.707 104.117 108.903 103.772C109.109 103.427 109.384 103.119 109.729 102.848C110.084 102.577 110.49 102.353 110.947 102.176C111.414 101.989 111.909 101.863 112.431 101.798L112.627 102.974C112.161 102.993 111.745 103.058 111.381 103.17C111.027 103.273 110.723 103.408 110.471 103.576C110.229 103.744 110.042 103.926 109.911 104.122C109.781 104.318 109.715 104.509 109.715 104.696C109.715 104.901 109.79 105.069 109.939 105.2C110.089 105.331 110.28 105.433 110.513 105.508C110.747 105.573 111.003 105.615 111.283 105.634C111.563 105.643 111.834 105.634 112.095 105.606C112.357 105.569 112.581 105.517 112.767 105.452L112.879 106.53ZM112.585 99.166C112.389 99.166 112.221 99.1007 112.081 98.97C111.951 98.83 111.885 98.6667 111.885 98.48C111.885 98.2933 111.951 98.13 112.081 97.99C112.221 97.85 112.389 97.78 112.585 97.78C112.772 97.78 112.931 97.85 113.061 97.99C113.201 98.13 113.271 98.2933 113.271 98.48C113.271 98.6667 113.201 98.83 113.061 98.97C112.931 99.1007 112.772 99.166 112.585 99.166ZM110.667 99.166C110.471 99.166 110.303 99.1007 110.163 98.97C110.033 98.83 109.967 98.6667 109.967 98.48C109.967 98.2933 110.033 98.13 110.163 97.99C110.303 97.85 110.471 97.78 110.667 97.78C110.854 97.78 111.013 97.85 111.143 97.99C111.283 98.13 111.353 98.2933 111.353 98.48C111.353 98.6667 111.283 98.83 111.143 98.97C111.013 99.1007 110.854 99.166 110.667 99.166ZM115.498 108.07L115.638 106.922C116.095 106.922 116.459 106.894 116.73 106.838C117.001 106.782 117.197 106.67 117.318 106.502C117.439 106.325 117.5 106.063 117.5 105.718C117.5 105.485 117.463 105.209 117.388 104.892C117.313 104.565 117.215 104.22 117.094 103.856C116.973 103.492 116.842 103.133 116.702 102.778L117.836 102.358C117.957 102.657 118.069 102.997 118.172 103.38C118.284 103.763 118.377 104.141 118.452 104.514C118.527 104.887 118.564 105.214 118.564 105.494C118.564 105.867 118.522 106.199 118.438 106.488C118.363 106.768 118.247 107.011 118.088 107.216C117.929 107.412 117.724 107.575 117.472 107.706C117.229 107.827 116.945 107.921 116.618 107.986C116.291 108.042 115.918 108.07 115.498 108.07ZM117.29 100.902C117.094 100.902 116.926 100.837 116.786 100.706C116.655 100.566 116.59 100.403 116.59 100.216C116.59 100.029 116.655 99.866 116.786 99.726C116.926 99.586 117.094 99.516 117.29 99.516C117.477 99.516 117.635 99.586 117.766 99.726C117.906 99.866 117.976 100.029 117.976 100.216C117.976 100.403 117.906 100.566 117.766 100.706C117.635 100.837 117.477 100.902 117.29 100.902ZM119.39 111.22L118.984 110.156C119.927 109.857 120.65 109.498 121.154 109.078C121.667 108.667 122.017 108.238 122.204 107.79C122.4 107.342 122.498 106.913 122.498 106.502C122.498 106.241 122.47 105.989 122.414 105.746C122.358 105.503 122.26 105.228 122.12 104.92C121.98 104.612 121.784 104.229 121.532 103.772L122.554 103.254C122.909 103.861 123.161 104.435 123.31 104.976C123.469 105.517 123.548 105.993 123.548 106.404C123.548 106.992 123.45 107.524 123.254 108C123.067 108.476 122.815 108.896 122.498 109.26C122.19 109.633 121.849 109.951 121.476 110.212C121.112 110.473 120.743 110.688 120.37 110.856C120.006 111.024 119.679 111.145 119.39 111.22ZM129.049 108.07C128.302 108.07 127.728 107.986 127.327 107.818C126.935 107.65 126.664 107.389 126.515 107.034C126.365 106.679 126.281 106.222 126.263 105.662L125.983 98.004H127.131L127.411 105.214C127.429 105.671 127.471 106.026 127.537 106.278C127.611 106.521 127.77 106.689 128.013 106.782C128.265 106.875 128.657 106.922 129.189 106.922C129.385 106.922 129.525 106.978 129.609 107.09C129.702 107.193 129.749 107.319 129.749 107.468C129.749 107.617 129.683 107.757 129.553 107.888C129.422 108.009 129.254 108.07 129.049 108.07ZM129.549 108.07L129.689 106.922C129.922 106.922 130.16 106.922 130.403 106.922C130.655 106.913 130.902 106.899 131.145 106.88C131.387 106.861 131.621 106.838 131.845 106.81C132.069 106.782 132.269 106.74 132.447 106.684C132.773 106.581 133.072 106.446 133.343 106.278C133.623 106.11 133.847 105.905 134.015 105.662C134.192 105.419 134.281 105.139 134.281 104.822C134.281 104.607 134.229 104.388 134.127 104.164C134.024 103.931 133.884 103.735 133.707 103.576C133.529 103.417 133.324 103.338 133.091 103.338C132.867 103.338 132.657 103.413 132.461 103.562C132.274 103.711 132.12 103.907 131.999 104.15C131.887 104.383 131.831 104.626 131.831 104.878C131.831 105.177 131.905 105.447 132.055 105.69C132.213 105.923 132.405 106.124 132.629 106.292C132.853 106.46 133.077 106.595 133.301 106.698L131.971 107.09C131.821 106.978 131.644 106.824 131.439 106.628C131.243 106.423 131.065 106.171 130.907 105.872C130.757 105.573 130.683 105.233 130.683 104.85C130.683 104.477 130.748 104.131 130.879 103.814C131.019 103.487 131.201 103.203 131.425 102.96C131.658 102.717 131.919 102.531 132.209 102.4C132.507 102.26 132.815 102.19 133.133 102.19C133.59 102.19 133.991 102.316 134.337 102.568C134.682 102.82 134.948 103.142 135.135 103.534C135.331 103.917 135.429 104.318 135.429 104.738C135.429 105.139 135.354 105.503 135.205 105.83C135.055 106.147 134.85 106.432 134.589 106.684C134.337 106.936 134.038 107.151 133.693 107.328C133.357 107.505 132.997 107.65 132.615 107.762C132.4 107.827 132.167 107.879 131.915 107.916C131.672 107.953 131.415 107.981 131.145 108C130.874 108.028 130.603 108.047 130.333 108.056C130.062 108.065 129.801 108.07 129.549 108.07ZM136.479 108.07C136.012 108.07 135.527 108.042 135.023 107.986C134.528 107.921 134.057 107.841 133.609 107.748C133.17 107.645 132.806 107.533 132.517 107.412L133.483 106.712C133.763 106.749 134.094 106.787 134.477 106.824C134.859 106.852 135.242 106.875 135.625 106.894C136.007 106.913 136.339 106.922 136.619 106.922C136.815 106.922 136.955 106.978 137.039 107.09C137.132 107.193 137.179 107.319 137.179 107.468C137.179 107.617 137.113 107.757 136.983 107.888C136.852 108.009 136.684 108.07 136.479 108.07ZM133.987 100.748C133.791 100.748 133.623 100.683 133.483 100.552C133.352 100.412 133.287 100.249 133.287 100.062C133.287 99.8753 133.352 99.712 133.483 99.572C133.623 99.432 133.791 99.362 133.987 99.362C134.173 99.362 134.332 99.432 134.463 99.572C134.603 99.712 134.673 99.8753 134.673 100.062C134.673 100.249 134.603 100.412 134.463 100.552C134.332 100.683 134.173 100.748 133.987 100.748ZM132.069 100.748C131.873 100.748 131.705 100.683 131.565 100.552C131.434 100.412 131.369 100.249 131.369 100.062C131.369 99.8753 131.434 99.712 131.565 99.572C131.705 99.432 131.873 99.362 132.069 99.362C132.255 99.362 132.414 99.432 132.545 99.572C132.685 99.712 132.755 99.8753 132.755 100.062C132.755 100.249 132.685 100.412 132.545 100.552C132.414 100.683 132.255 100.748 132.069 100.748ZM136.98 108.07L137.12 106.922C137.382 106.922 137.601 106.866 137.778 106.754C137.956 106.642 138.128 106.455 138.296 106.194C138.464 105.933 138.646 105.583 138.842 105.144C139.113 104.547 139.379 104.094 139.64 103.786C139.911 103.478 140.177 103.268 140.438 103.156C140.709 103.044 140.975 102.988 141.236 102.988C141.554 102.988 141.848 103.072 142.118 103.24C142.389 103.399 142.627 103.613 142.832 103.884C143.038 104.155 143.196 104.453 143.308 104.78C143.43 105.097 143.49 105.415 143.49 105.732C143.49 106.292 143.392 106.74 143.196 107.076C143 107.403 142.748 107.641 142.44 107.79C142.142 107.93 141.829 108 141.502 108C141.213 108 140.84 107.944 140.382 107.832C139.934 107.72 139.365 107.435 138.674 106.978L139.22 106.096C139.678 106.385 140.088 106.586 140.452 106.698C140.826 106.801 141.134 106.852 141.376 106.852C141.647 106.852 141.862 106.815 142.02 106.74C142.179 106.656 142.296 106.539 142.37 106.39C142.445 106.241 142.482 106.073 142.482 105.886C142.482 105.615 142.417 105.345 142.286 105.074C142.156 104.803 141.988 104.579 141.782 104.402C141.586 104.225 141.376 104.136 141.152 104.136C140.984 104.136 140.821 104.183 140.662 104.276C140.504 104.369 140.34 104.542 140.172 104.794C140.004 105.046 139.813 105.41 139.598 105.886C139.374 106.39 139.16 106.791 138.954 107.09C138.758 107.379 138.558 107.594 138.352 107.734C138.147 107.874 137.932 107.963 137.708 108C137.494 108.047 137.251 108.07 136.98 108.07Z" fill="#B8C0CC"/>
<path d="M22.6 132.704C22.6 133.456 22.518 134.108 22.354 134.66C22.194 135.208 21.974 135.662 21.694 136.022C21.414 136.382 21.082 136.65 20.698 136.826C20.318 137.002 19.91 137.09 19.474 137.09C19.034 137.09 18.624 137.002 18.244 136.826C17.868 136.65 17.54 136.382 17.26 136.022C16.98 135.662 16.76 135.208 16.6 134.66C16.44 134.108 16.36 133.456 16.36 132.704C16.36 131.952 16.44 131.3 16.6 130.748C16.76 130.196 16.98 129.74 17.26 129.38C17.54 129.016 17.868 128.746 18.244 128.57C18.624 128.394 19.034 128.306 19.474 128.306C19.91 128.306 20.318 128.394 20.698 128.57C21.082 128.746 21.414 129.016 21.694 129.38C21.974 129.74 22.194 130.196 22.354 130.748C22.518 131.3 22.6 131.952 22.6 132.704ZM21.49 132.704C21.49 132.048 21.434 131.498 21.322 131.054C21.214 130.606 21.066 130.246 20.878 129.974C20.694 129.702 20.48 129.508 20.236 129.392C19.992 129.272 19.738 129.212 19.474 129.212C19.21 129.212 18.956 129.272 18.712 129.392C18.468 129.508 18.254 129.702 18.07 129.974C17.886 130.246 17.738 130.606 17.626 131.054C17.518 131.498 17.464 132.048 17.464 132.704C17.464 133.36 17.518 133.91 17.626 134.354C17.738 134.798 17.886 135.156 18.07 135.428C18.254 135.7 18.468 135.896 18.712 136.016C18.956 136.132 19.21 136.19 19.474 136.19C19.738 136.19 19.992 136.132 20.236 136.016C20.48 135.896 20.694 135.7 20.878 135.428C21.066 135.156 21.214 134.798 21.322 134.354C21.434 133.91 21.49 133.36 21.49 132.704ZM27.7929 130.478C27.7929 130.814 27.7409 131.116 27.6369 131.384C27.5329 131.648 27.3929 131.872 27.2169 132.056C27.0449 132.236 26.8429 132.374 26.6109 132.47C26.3829 132.566 26.1409 132.614 25.8849 132.614C25.6169 132.614 25.3669 132.566 25.1349 132.47C24.9029 132.374 24.7009 132.236 24.5289 132.056C24.3609 131.872 24.2289 131.648 24.1329 131.384C24.0369 131.116 23.9889 130.814 23.9889 130.478C23.9889 130.134 24.0369 129.828 24.1329 129.56C24.2289 129.292 24.3609 129.066 24.5289 128.882C24.7009 128.698 24.9029 128.558 25.1349 128.462C25.3669 128.366 25.6169 128.318 25.8849 128.318C26.1569 128.318 26.4089 128.366 26.6409 128.462C26.8729 128.558 27.0749 128.698 27.2469 128.882C27.4189 129.066 27.5529 129.292 27.6489 129.56C27.7449 129.828 27.7929 130.134 27.7929 130.478ZM26.9649 130.478C26.9649 130.214 26.9369 129.99 26.8809 129.806C26.8249 129.622 26.7469 129.472 26.6469 129.356C26.5509 129.236 26.4369 129.15 26.3049 129.098C26.1729 129.046 26.0329 129.02 25.8849 129.02C25.7369 129.02 25.5989 129.046 25.4709 129.098C25.3429 129.15 25.2309 129.236 25.1349 129.356C25.0389 129.472 24.9629 129.622 24.9069 129.806C24.8509 129.99 24.8229 130.214 24.8229 130.478C24.8229 130.738 24.8509 130.96 24.9069 131.144C24.9629 131.324 25.0389 131.472 25.1349 131.588C25.2309 131.7 25.3429 131.782 25.4709 131.834C25.5989 131.882 25.7369 131.906 25.8849 131.906C26.0329 131.906 26.1729 131.882 26.3049 131.834C26.4369 131.782 26.5509 131.7 26.6469 131.588C26.7469 131.472 26.8249 131.324 26.8809 131.144C26.9369 130.96 26.9649 130.738 26.9649 130.478ZM30.8349 128.582C30.8749 128.534 30.9209 128.492 30.9729 128.456C31.0289 128.42 31.1029 128.402 31.1949 128.402H31.9689L25.6809 136.826C25.6449 136.878 25.5989 136.92 25.5429 136.952C25.4869 136.984 25.4189 137 25.3389 137H24.5529L30.8349 128.582ZM32.5509 134.972C32.5509 135.308 32.4989 135.608 32.3949 135.872C32.2909 136.136 32.1509 136.36 31.9749 136.544C31.8029 136.724 31.6009 136.862 31.3689 136.958C31.1409 137.054 30.8989 137.102 30.6429 137.102C30.3709 137.102 30.1189 137.054 29.8869 136.958C29.6589 136.862 29.4589 136.724 29.2869 136.544C29.1189 136.36 28.9869 136.136 28.8909 135.872C28.7949 135.608 28.7469 135.308 28.7469 134.972C28.7469 134.628 28.7949 134.322 28.8909 134.054C28.9869 133.782 29.1189 133.554 29.2869 133.37C29.4589 133.186 29.6589 133.046 29.8869 132.95C30.1189 132.854 30.3709 132.806 30.6429 132.806C30.9109 132.806 31.1609 132.854 31.3929 132.95C31.6289 133.046 31.8309 133.186 31.9989 133.37C32.1709 133.554 32.3049 133.782 32.4009 134.054C32.5009 134.322 32.5509 134.628 32.5509 134.972ZM31.7229 134.972C31.7229 134.708 31.6949 134.484 31.6389 134.3C31.5829 134.112 31.5049 133.96 31.4049 133.844C31.3089 133.728 31.1949 133.644 31.0629 133.592C30.9309 133.54 30.7909 133.514 30.6429 133.514C30.4949 133.514 30.3549 133.54 30.2229 133.592C30.0949 133.644 29.9829 133.728 29.8869 133.844C29.7909 133.96 29.7149 134.112 29.6589 134.3C29.6069 134.484 29.5809 134.708 29.5809 134.972C29.5809 135.232 29.6069 135.452 29.6589 135.632C29.7149 135.812 29.7909 135.96 29.8869 136.076C29.9829 136.188 30.0949 136.27 30.2229 136.322C30.3549 136.37 30.4949 136.394 30.6429 136.394C30.7909 136.394 30.9309 136.37 31.0629 136.322C31.1949 136.27 31.3089 136.188 31.4049 136.076C31.5049 135.96 31.5829 135.812 31.6389 135.632C31.6949 135.452 31.7229 135.232 31.7229 134.972Z" fill="white"/>
<path d="M255.237 130.73C255.293 130.338 255.401 129.992 255.561 129.692C255.721 129.388 255.923 129.134 256.167 128.93C256.415 128.726 256.697 128.572 257.013 128.468C257.333 128.36 257.677 128.306 258.045 128.306C258.409 128.306 258.745 128.358 259.053 128.462C259.361 128.566 259.625 128.714 259.845 128.906C260.069 129.098 260.243 129.33 260.367 129.602C260.491 129.874 260.553 130.176 260.553 130.508C260.553 130.78 260.517 131.024 260.445 131.24C260.377 131.452 260.277 131.638 260.145 131.798C260.017 131.958 259.861 132.094 259.677 132.206C259.493 132.318 259.287 132.41 259.059 132.482C259.619 132.626 260.039 132.874 260.319 133.226C260.603 133.574 260.745 134.01 260.745 134.534C260.745 134.93 260.669 135.286 260.517 135.602C260.369 135.918 260.165 136.188 259.905 136.412C259.645 136.632 259.341 136.802 258.993 136.922C258.649 137.038 258.279 137.096 257.883 137.096C257.427 137.096 257.037 137.04 256.713 136.928C256.389 136.812 256.115 136.654 255.891 136.454C255.667 136.254 255.483 136.018 255.339 135.746C255.195 135.47 255.073 135.172 254.973 134.852L255.435 134.66C255.555 134.608 255.671 134.594 255.783 134.618C255.899 134.642 255.983 134.708 256.035 134.816C256.087 134.928 256.151 135.062 256.227 135.218C256.307 135.374 256.415 135.524 256.551 135.668C256.687 135.812 256.859 135.934 257.067 136.034C257.279 136.134 257.547 136.184 257.871 136.184C258.171 136.184 258.433 136.136 258.657 136.04C258.885 135.94 259.073 135.812 259.221 135.656C259.373 135.5 259.487 135.326 259.563 135.134C259.639 134.942 259.677 134.752 259.677 134.564C259.677 134.332 259.647 134.12 259.587 133.928C259.527 133.736 259.415 133.57 259.251 133.43C259.087 133.29 258.861 133.18 258.573 133.1C258.289 133.02 257.923 132.98 257.475 132.98V132.206C257.843 132.202 258.155 132.162 258.411 132.086C258.671 132.01 258.881 131.906 259.041 131.774C259.205 131.642 259.323 131.484 259.395 131.3C259.471 131.116 259.509 130.912 259.509 130.688C259.509 130.44 259.469 130.224 259.389 130.04C259.313 129.856 259.207 129.704 259.071 129.584C258.935 129.464 258.773 129.374 258.585 129.314C258.401 129.254 258.201 129.224 257.985 129.224C257.769 129.224 257.567 129.256 257.379 129.32C257.195 129.384 257.031 129.474 256.887 129.59C256.747 129.702 256.629 129.836 256.533 129.992C256.437 130.148 256.369 130.32 256.329 130.508C256.277 130.648 256.211 130.742 256.131 130.79C256.055 130.834 255.943 130.846 255.795 130.826L255.237 130.73ZM265.386 136.208C265.674 136.208 265.934 136.162 266.166 136.07C266.402 135.978 266.602 135.85 266.766 135.686C266.934 135.522 267.062 135.328 267.15 135.104C267.242 134.88 267.288 134.636 267.288 134.372C267.288 134.092 267.244 133.84 267.156 133.616C267.068 133.388 266.942 133.196 266.778 133.04C266.618 132.88 266.426 132.758 266.202 132.674C265.978 132.59 265.732 132.548 265.464 132.548C265.176 132.548 264.916 132.598 264.684 132.698C264.452 132.794 264.254 132.926 264.09 133.094C263.93 133.258 263.806 133.45 263.718 133.67C263.634 133.886 263.592 134.112 263.592 134.348C263.592 134.624 263.632 134.876 263.712 135.104C263.792 135.332 263.908 135.528 264.06 135.692C264.216 135.856 264.404 135.984 264.624 136.076C264.848 136.164 265.102 136.208 265.386 136.208ZM264.762 131.624C264.686 131.72 264.612 131.814 264.54 131.906C264.472 131.994 264.406 132.082 264.342 132.17C264.546 132.03 264.77 131.922 265.014 131.846C265.258 131.77 265.524 131.732 265.812 131.732C266.16 131.732 266.488 131.79 266.796 131.906C267.104 132.018 267.372 132.184 267.6 132.404C267.832 132.62 268.016 132.888 268.152 133.208C268.288 133.524 268.356 133.886 268.356 134.294C268.356 134.69 268.284 135.058 268.14 135.398C267.996 135.738 267.794 136.034 267.534 136.286C267.278 136.538 266.968 136.736 266.604 136.88C266.244 137.024 265.846 137.096 265.41 137.096C264.978 137.096 264.586 137.028 264.234 136.892C263.882 136.752 263.582 136.556 263.334 136.304C263.09 136.048 262.9 135.74 262.764 135.38C262.632 135.016 262.566 134.61 262.566 134.162C262.566 133.786 262.648 133.386 262.812 132.962C262.98 132.534 263.246 132.078 263.61 131.594L265.794 128.66C265.85 128.588 265.926 128.528 266.022 128.48C266.122 128.428 266.236 128.402 266.364 128.402H267.312L264.762 131.624ZM273.711 130.478C273.711 130.814 273.659 131.116 273.555 131.384C273.451 131.648 273.311 131.872 273.135 132.056C272.963 132.236 272.761 132.374 272.529 132.47C272.301 132.566 272.059 132.614 271.803 132.614C271.535 132.614 271.285 132.566 271.053 132.47C270.821 132.374 270.619 132.236 270.447 132.056C270.279 131.872 270.147 131.648 270.051 131.384C269.955 131.116 269.907 130.814 269.907 130.478C269.907 130.134 269.955 129.828 270.051 129.56C270.147 129.292 270.279 129.066 270.447 128.882C270.619 128.698 270.821 128.558 271.053 128.462C271.285 128.366 271.535 128.318 271.803 128.318C272.075 128.318 272.327 128.366 272.559 128.462C272.791 128.558 272.993 128.698 273.165 128.882C273.337 129.066 273.471 129.292 273.567 129.56C273.663 129.828 273.711 130.134 273.711 130.478ZM272.883 130.478C272.883 130.214 272.855 129.99 272.799 129.806C272.743 129.622 272.665 129.472 272.565 129.356C272.469 129.236 272.355 129.15 272.223 129.098C272.091 129.046 271.951 129.02 271.803 129.02C271.655 129.02 271.517 129.046 271.389 129.098C271.261 129.15 271.149 129.236 271.053 129.356C270.957 129.472 270.881 129.622 270.825 129.806C270.769 129.99 270.741 130.214 270.741 130.478C270.741 130.738 270.769 130.96 270.825 131.144C270.881 131.324 270.957 131.472 271.053 131.588C271.149 131.7 271.261 131.782 271.389 131.834C271.517 131.882 271.655 131.906 271.803 131.906C271.951 131.906 272.091 131.882 272.223 131.834C272.355 131.782 272.469 131.7 272.565 131.588C272.665 131.472 272.743 131.324 272.799 131.144C272.855 130.96 272.883 130.738 272.883 130.478ZM276.753 128.582C276.793 128.534 276.839 128.492 276.891 128.456C276.947 128.42 277.021 128.402 277.113 128.402H277.887L271.599 136.826C271.563 136.878 271.517 136.92 271.461 136.952C271.405 136.984 271.337 137 271.257 137H270.471L276.753 128.582ZM278.469 134.972C278.469 135.308 278.417 135.608 278.313 135.872C278.209 136.136 278.069 136.36 277.893 136.544C277.721 136.724 277.519 136.862 277.287 136.958C277.059 137.054 276.817 137.102 276.561 137.102C276.289 137.102 276.037 137.054 275.805 136.958C275.577 136.862 275.377 136.724 275.205 136.544C275.037 136.36 274.905 136.136 274.809 135.872C274.713 135.608 274.665 135.308 274.665 134.972C274.665 134.628 274.713 134.322 274.809 134.054C274.905 133.782 275.037 133.554 275.205 133.37C275.377 133.186 275.577 133.046 275.805 132.95C276.037 132.854 276.289 132.806 276.561 132.806C276.829 132.806 277.079 132.854 277.311 132.95C277.547 133.046 277.749 133.186 277.917 133.37C278.089 133.554 278.223 133.782 278.319 134.054C278.419 134.322 278.469 134.628 278.469 134.972ZM277.641 134.972C277.641 134.708 277.613 134.484 277.557 134.3C277.501 134.112 277.423 133.96 277.323 133.844C277.227 133.728 277.113 133.644 276.981 133.592C276.849 133.54 276.709 133.514 276.561 133.514C276.413 133.514 276.273 133.54 276.141 133.592C276.013 133.644 275.901 133.728 275.805 133.844C275.709 133.96 275.633 134.112 275.577 134.3C275.525 134.484 275.499 134.708 275.499 134.972C275.499 135.232 275.525 135.452 275.577 135.632C275.633 135.812 275.709 135.96 275.805 136.076C275.901 136.188 276.013 136.27 276.141 136.322C276.273 136.37 276.413 136.394 276.561 136.394C276.709 136.394 276.849 136.37 276.981 136.322C277.113 136.27 277.227 136.188 277.323 136.076C277.423 135.96 277.501 135.812 277.557 135.632C277.613 135.452 277.641 135.232 277.641 134.972Z" fill="white"/>
<g clip-path="url(#clip1_2001_2291)">
<rect x="16" y="143" width="263" height="4" rx="2" fill="#486581"/>
<rect x="16" y="143" width="80" height="4" rx="2" fill="#FBC62F"/>
</g>
<defs>
<clipPath id="clip0_2001_2291">
<rect width="16" height="16" fill="white" transform="translate(255 24)"/>
</clipPath>
<clipPath id="clip1_2001_2291">
<rect width="263" height="4" fill="white" transform="translate(16 143)"/>
</clipPath>
</defs>
</svg>
