<svg width="282" height="168" viewBox="0 0 282 168" fill="none" xmlns="http://www.w3.org/2000/svg">
<rect width="281.5" height="168" rx="8" fill="#102A43"/>
<path d="M21.552 36.84C20.0053 36.84 18.8 36.488 17.936 35.784C17.072 35.08 16.64 34.0987 16.64 32.84C16.64 32.3493 16.704 31.832 16.832 31.288C16.9707 30.7333 17.1573 30.184 17.392 29.64L18.384 29.944C18.1813 30.36 18.016 30.7973 17.888 31.256C17.76 31.704 17.696 32.1307 17.696 32.536C17.696 33.4427 17.9893 34.1467 18.576 34.648C19.1733 35.1493 20.0053 35.4 21.072 35.4H22.032C23.312 35.4 24.304 35.1547 25.008 34.664C25.7227 34.184 26.08 33.512 26.08 32.648V32.472L23.52 31.896C22.592 31.6827 21.9147 31.3733 21.488 30.968C21.0613 30.5627 20.848 30.0293 20.848 29.368C20.848 28.856 20.944 28.36 21.136 27.88C21.3387 27.4 21.6 26.9733 21.92 26.6C22.2507 26.216 22.6293 25.912 23.056 25.688C23.4827 25.4533 23.92 25.336 24.368 25.336C24.944 25.336 25.4293 25.464 25.824 25.72C26.2187 25.9653 26.5493 26.3173 26.816 26.776L25.856 27.704C25.632 27.3627 25.3867 27.112 25.12 26.952C24.8533 26.792 24.5493 26.712 24.208 26.712C23.8987 26.712 23.6053 26.776 23.328 26.904C23.0507 27.032 22.8053 27.208 22.592 27.432C22.3893 27.656 22.224 27.9173 22.096 28.216C21.9787 28.5147 21.92 28.8293 21.92 29.16C21.92 29.4907 22.048 29.7627 22.304 29.976C22.5707 30.1893 22.992 30.3653 23.568 30.504L25.744 31.016C26.224 31.1333 26.576 31.3253 26.8 31.592C27.024 31.848 27.136 32.2 27.136 32.648C27.136 33.3093 27.008 33.896 26.752 34.408C26.5067 34.9307 26.144 35.3733 25.664 35.736C25.184 36.0987 24.5973 36.3707 23.904 36.552C23.2107 36.744 22.4267 36.84 21.552 36.84ZM22.496 40.04C22.2827 40.04 22.112 39.976 21.984 39.848C21.856 39.7307 21.792 39.5333 21.792 39.256C21.792 38.9787 21.856 38.776 21.984 38.648C22.112 38.5307 22.2827 38.472 22.496 38.472H22.672C22.8853 38.472 23.056 38.5307 23.184 38.648C23.312 38.776 23.376 38.9787 23.376 39.256C23.376 39.5333 23.312 39.7307 23.184 39.848C23.056 39.976 22.8853 40.04 22.672 40.04H22.496ZM20.432 40.04C20.2187 40.04 20.048 39.976 19.92 39.848C19.792 39.7307 19.728 39.5333 19.728 39.256C19.728 38.9787 19.792 38.776 19.92 38.648C20.048 38.5307 20.2187 38.472 20.432 38.472H20.608C20.8213 38.472 20.992 38.5307 21.12 38.648C21.248 38.776 21.312 38.9787 21.312 39.256C21.312 39.5333 21.248 39.7307 21.12 39.848C20.992 39.976 20.8213 40.04 20.608 40.04H20.432ZM27.1494 35.464H27.7414C28.328 35.464 28.808 35.3787 29.1814 35.208C29.5547 35.0373 29.848 34.808 30.0614 34.52C30.2747 34.2427 30.424 33.912 30.5094 33.528C30.5947 33.1547 30.6374 32.76 30.6374 32.344C30.6374 32.0347 30.6214 31.7147 30.5894 31.384C30.5574 31.0427 30.5147 30.7173 30.4614 30.408L30.1254 28.6L31.2454 28.376L31.4534 29.592C31.5174 29.9653 31.5654 30.3173 31.5974 30.648C31.64 30.9787 31.672 31.304 31.6934 31.624H33.2134V32.68L32.8934 33H31.6774C31.6347 33.5227 31.5334 34.0133 31.3734 34.472C31.224 34.9413 30.9947 35.352 30.6854 35.704C30.3867 36.056 29.992 36.3333 29.5014 36.536C29.0214 36.7387 28.4347 36.84 27.7414 36.84H27.1494V35.464ZM36.4868 37.32C36.1668 36.808 35.9054 36.3867 35.7028 36.056C35.5108 35.7253 35.3614 35.4427 35.2548 35.208C35.1481 34.984 35.0788 34.792 35.0468 34.632C35.0148 34.472 34.9988 34.3013 34.9988 34.12C34.9988 33.608 35.1748 33.0533 35.5268 32.456L35.4628 32.408C35.2494 32.632 34.9881 32.7867 34.6788 32.872C34.3801 32.9573 33.9534 33 33.3987 33V31.944L33.7188 31.624H34.2788C34.6521 31.624 34.9614 31.5333 35.2068 31.352C35.4628 31.16 35.7134 30.8293 35.9588 30.36L36.6468 29.016L37.5428 29.496L36.9508 30.664C36.6628 31.24 36.4441 31.7413 36.2948 32.168C36.1561 32.584 36.0868 32.9787 36.0868 33.352C36.0868 33.5333 36.0974 33.704 36.1188 33.864C36.1508 34.024 36.2094 34.2053 36.2948 34.408C36.3801 34.6107 36.5028 34.8453 36.6628 35.112C36.8228 35.3787 37.0308 35.704 37.2868 36.088L38.5188 32.856C38.7001 32.3973 38.8921 32.0773 39.0948 31.896C39.2974 31.7147 39.5854 31.624 39.9588 31.624H41.2068V32.68L40.8868 33H39.5908L37.9427 37.32H36.4868ZM41.3831 31.944L41.7031 31.624H42.2631C42.4658 31.624 42.6418 31.608 42.7911 31.576C42.9511 31.5333 43.0951 31.464 43.2231 31.368C43.3511 31.272 43.4685 31.144 43.5751 30.984C43.6925 30.824 43.8151 30.616 43.9431 30.36L44.6311 29.016L45.5431 29.48L44.6951 31.08L44.9191 31.224C45.2605 31.448 45.5911 31.6027 45.9111 31.688C46.2418 31.7733 46.5618 31.816 46.8711 31.816C47.3725 31.816 47.7405 31.6987 47.9751 31.464C48.2205 31.2293 48.3431 30.8293 48.3431 30.264V29.016H49.4631V30.264C49.4631 30.84 49.5431 31.2453 49.7031 31.48C49.8631 31.704 50.1298 31.816 50.5031 31.816H50.8711C51.2445 31.816 51.5058 31.704 51.6551 31.48C51.8151 31.2453 51.8951 30.84 51.8951 30.264V28.376H53.0151V30.264C53.0151 31.1707 53.4685 31.624 54.3751 31.624H54.9351V32.68L54.6151 33C53.9111 33 53.3565 32.888 52.9511 32.664C52.5458 32.4293 52.2631 32.072 52.1031 31.592H52.0231C51.9591 32.1893 51.7991 32.6053 51.5431 32.84C51.2871 33.0747 50.9138 33.192 50.4231 33.192C49.3245 33.192 48.6791 32.6587 48.4871 31.592H48.4071C48.3005 32.104 48.0925 32.4987 47.7831 32.776C47.4845 33.0533 47.0845 33.192 46.5831 33.192C45.9538 33.192 45.2498 32.9413 44.4711 32.44L43.9751 32.12C43.6658 32.4613 43.3138 32.696 42.9191 32.824C42.5245 32.9413 42.0125 33 41.3831 33V31.944ZM49.8471 27.096C49.6338 27.096 49.4631 27.0373 49.3351 26.92C49.2071 26.792 49.1431 26.5893 49.1431 26.312C49.1431 26.0347 49.2071 25.8373 49.3351 25.72C49.4631 25.592 49.6338 25.528 49.8471 25.528H50.0231C50.2365 25.528 50.4071 25.592 50.5351 25.72C50.6631 25.8373 50.7271 26.0347 50.7271 26.312C50.7271 26.5893 50.6631 26.792 50.5351 26.92C50.4071 27.0373 50.2365 27.096 50.0231 27.096H49.8471ZM47.7831 27.096C47.5698 27.096 47.3991 27.0373 47.2711 26.92C47.1431 26.792 47.0791 26.5893 47.0791 26.312C47.0791 26.0347 47.1431 25.8373 47.2711 25.72C47.3991 25.592 47.5698 25.528 47.7831 25.528H47.9591C48.1725 25.528 48.3431 25.592 48.4711 25.72C48.5991 25.8373 48.6631 26.0347 48.6631 26.312C48.6631 26.5893 48.5991 26.792 48.4711 26.92C48.3431 27.0373 48.1725 27.096 47.9591 27.096H47.7831ZM48.8071 25.16C48.6045 25.16 48.4391 25.1013 48.3111 24.984C48.1938 24.856 48.1351 24.664 48.1351 24.408C48.1351 24.152 48.1938 23.9653 48.3111 23.848C48.4391 23.72 48.6045 23.656 48.8071 23.656H48.9991C49.2018 23.656 49.3618 23.72 49.4791 23.848C49.6071 23.9653 49.6711 24.152 49.6711 24.408C49.6711 24.664 49.6071 24.856 49.4791 24.984C49.3618 25.1013 49.2018 25.16 48.9991 25.16H48.8071ZM55.1175 31.944L55.4375 31.624H55.9015C56.4135 31.624 56.7815 31.5067 57.0055 31.272C57.2402 31.0373 57.3575 30.664 57.3575 30.152V21.16H58.5415V30.152C58.5415 31.1333 58.3282 31.8533 57.9015 32.312C57.4855 32.7707 56.8188 33 55.9015 33H55.1175V31.944ZM61.4344 21.16H62.6184V33H61.4344V21.16ZM75.2818 33.192C74.1618 33.192 73.2178 33.1333 72.4498 33.016C71.6924 32.8987 71.0791 32.712 70.6098 32.456C70.1404 32.2 69.7991 31.864 69.5858 31.448C69.3831 31.0213 69.2818 30.504 69.2818 29.896C69.2818 29.4693 69.3351 29.032 69.4418 28.584C69.5591 28.136 69.7351 27.64 69.9698 27.096L70.9618 27.4C70.5244 28.3067 70.3058 29.0853 70.3058 29.736C70.3058 30.3867 70.6151 30.8667 71.2338 31.176C71.8524 31.4747 72.8284 31.624 74.1618 31.624H76.4018C77.1591 31.624 77.7831 31.6027 78.2738 31.56C78.7644 31.5173 79.1538 31.4427 79.4418 31.336C79.7298 31.2293 79.9271 31.0853 80.0338 30.904C80.1511 30.712 80.2098 30.472 80.2098 30.184C80.2098 30.0027 80.1991 29.7787 80.1778 29.512C80.1564 29.2347 80.1031 28.872 80.0178 28.424L79.7778 27.096L80.8978 26.92L81.1058 28.248C81.1804 28.728 81.2284 29.1227 81.2498 29.432C81.2818 29.7307 81.2978 29.9813 81.2978 30.184C81.2978 30.7387 81.1911 31.208 80.9778 31.592C80.7751 31.976 80.4338 32.2853 79.9538 32.52C79.4844 32.7547 78.8658 32.9253 78.0978 33.032C77.3404 33.1387 76.4018 33.192 75.2818 33.192ZM76.1778 27.096C75.9644 27.096 75.7938 27.0373 75.6658 26.92C75.5378 26.792 75.4738 26.5893 75.4738 26.312C75.4738 26.0347 75.5378 25.8373 75.6658 25.72C75.7938 25.592 75.9644 25.528 76.1778 25.528H76.3538C76.5671 25.528 76.7378 25.592 76.8658 25.72C76.9938 25.8373 77.0578 26.0347 77.0578 26.312C77.0578 26.5893 76.9938 26.792 76.8658 26.92C76.7378 27.0373 76.5671 27.096 76.3538 27.096H76.1778ZM74.1138 27.096C73.9004 27.096 73.7298 27.0373 73.6018 26.92C73.4738 26.792 73.4098 26.5893 73.4098 26.312C73.4098 26.0347 73.4738 25.8373 73.6018 25.72C73.7298 25.592 73.9004 25.528 74.1138 25.528H74.2898C74.5031 25.528 74.6738 25.592 74.8018 25.72C74.9298 25.8373 74.9938 26.0347 74.9938 26.312C74.9938 26.5893 74.9298 26.792 74.8018 26.92C74.6738 27.0373 74.5031 27.096 74.2898 27.096H74.1138ZM86.4996 33C85.9876 33 85.5503 32.9573 85.1876 32.872C84.8356 32.7867 84.5476 32.648 84.3236 32.456C84.1103 32.2533 83.9556 31.992 83.8596 31.672C83.7636 31.352 83.7156 30.9627 83.7156 30.504V21.16H84.8996V30.504C84.8996 30.9093 85.0116 31.1973 85.2356 31.368C85.4596 31.5387 85.8063 31.624 86.2756 31.624H86.8356V32.68L86.5156 33H86.4996ZM87.0081 31.944L87.3281 31.624H87.8881C88.7948 31.624 89.2481 31.1707 89.2481 30.264V27.736H90.3681V30.264C90.3681 31.1707 90.8215 31.624 91.7281 31.624H92.2881V32.68L91.9681 33C90.4961 33 89.6321 32.4773 89.3761 31.432H89.2961C89.1788 32.0187 88.9495 32.4293 88.6081 32.664C88.2668 32.888 87.7335 33 87.0081 33V31.944ZM89.7121 36.2C89.4988 36.2 89.3281 36.136 89.2001 36.008C89.0721 35.8907 89.0081 35.6933 89.0081 35.416C89.0081 35.1387 89.0721 34.936 89.2001 34.808C89.3281 34.6907 89.4988 34.632 89.7121 34.632H89.8881C90.1015 34.632 90.2721 34.6907 90.4001 34.808C90.5281 34.936 90.5921 35.1387 90.5921 35.416C90.5921 35.6933 90.5281 35.8907 90.4001 36.008C90.2721 36.136 90.1015 36.2 89.8881 36.2H89.7121ZM92.4612 31.944L92.7812 31.624H93.3413C94.2479 31.624 94.7013 31.1707 94.7013 30.264V21.16H95.8853V30.264C95.8853 31.1707 96.3386 31.624 97.2453 31.624H97.8053V32.68L97.4852 33C95.9706 33 95.0853 32.4773 94.8293 31.432H94.7493C94.6319 32.0187 94.4026 32.4293 94.0613 32.664C93.7199 32.888 93.1866 33 92.4612 33V31.944ZM109.017 33C108.611 33 108.27 32.968 107.993 32.904C107.726 32.8293 107.481 32.6907 107.257 32.488C106.702 32.8293 105.923 33 104.921 33H97.9925V31.944L98.3125 31.624H99.1445L99.7365 30.616V21.16H100.921V27.016L100.729 28.888L100.809 28.92C101.161 28.4507 101.513 28.0613 101.865 27.752C102.217 27.432 102.574 27.176 102.937 26.984C103.31 26.792 103.683 26.6533 104.057 26.568C104.441 26.4827 104.835 26.44 105.241 26.44C106.275 26.44 107.081 26.728 107.657 27.304C108.233 27.8693 108.521 28.6533 108.521 29.656C108.521 30.4027 108.398 31.0213 108.153 31.512C108.377 31.5867 108.665 31.624 109.017 31.624H109.337V32.68L109.017 33ZM104.921 31.624C105.721 31.624 106.334 31.4907 106.76 31.224C107.187 30.9573 107.401 30.488 107.401 29.816C107.401 29.1547 107.23 28.6587 106.889 28.328C106.558 27.9867 106.089 27.816 105.481 27.816H105.001C104.574 27.816 104.185 27.8587 103.833 27.944C103.491 28.0187 103.161 28.1573 102.841 28.36C102.531 28.552 102.222 28.824 101.913 29.176C101.614 29.5173 101.294 29.9493 100.953 30.472L100.265 31.544L100.312 31.624H104.921ZM109.524 31.944L109.844 31.624H110.308C110.82 31.624 111.188 31.5067 111.412 31.272C111.646 31.0373 111.764 30.664 111.764 30.152V21.16H112.948V30.152C112.948 31.1333 112.734 31.8533 112.308 32.312C111.892 32.7707 111.225 33 110.308 33H109.524V31.944ZM115.841 21.16H117.025V33H115.841V21.16ZM128.392 37.864C127.699 37.864 127.064 37.7733 126.488 37.592C125.923 37.4213 125.437 37.16 125.032 36.808C124.627 36.456 124.312 36.024 124.088 35.512C123.875 35 123.768 34.408 123.768 33.736C123.768 32.872 124.029 32.088 124.552 31.384C125.085 30.6693 125.837 30.104 126.808 29.688V29.608C126.2 29.2347 125.725 28.7813 125.384 28.248C125.053 27.704 124.888 27.1333 124.888 26.536C124.888 26.056 124.968 25.6187 125.128 25.224C125.288 24.8293 125.501 24.4933 125.768 24.216C126.045 23.928 126.371 23.7093 126.744 23.56C127.117 23.4 127.512 23.32 127.928 23.32C128.536 23.32 129.064 23.448 129.512 23.704C129.96 23.9493 130.333 24.3013 130.632 24.76L129.832 25.688C129.555 25.3467 129.256 25.096 128.936 24.936C128.627 24.776 128.269 24.696 127.864 24.696C127.256 24.696 126.792 24.8667 126.472 25.208C126.163 25.5387 126.008 25.9813 126.008 26.536C126.008 26.888 126.072 27.192 126.2 27.448C126.339 27.704 126.525 27.912 126.76 28.072C126.995 28.232 127.272 28.3547 127.592 28.44C127.923 28.5147 128.28 28.552 128.664 28.552C129.112 28.552 129.576 28.504 130.056 28.408L131.352 28.168L131.592 29.416L129.48 29.864C127.933 30.1947 126.792 30.6373 126.056 31.192C125.32 31.736 124.952 32.4347 124.952 33.288V33.608C124.952 34.504 125.256 35.1973 125.864 35.688C126.483 36.1787 127.325 36.424 128.392 36.424C129.085 36.424 129.72 36.296 130.296 36.04C130.883 35.7947 131.448 35.3893 131.992 34.824L132.856 35.896C132.195 36.5893 131.507 37.0907 130.792 37.4C130.088 37.7093 129.288 37.864 128.392 37.864ZM133.575 35.464H134.423C135.586 35.464 136.482 35.2453 137.111 34.808C137.751 34.3813 138.146 33.7787 138.295 33H136.423C135.57 33 134.909 32.776 134.439 32.328C133.97 31.88 133.735 31.2507 133.735 30.44C133.735 29.96 133.805 29.5067 133.943 29.08C134.093 28.6533 134.295 28.2853 134.551 27.976C134.807 27.656 135.111 27.4053 135.463 27.224C135.826 27.032 136.221 26.936 136.647 26.936C137.533 26.936 138.226 27.3307 138.727 28.12C139.239 28.9093 139.495 30.0187 139.495 31.448V31.624H140.231V32.68L139.911 33H139.351C139.117 34.2267 138.589 35.1707 137.767 35.832C136.957 36.504 135.842 36.84 134.423 36.84H133.575V35.464ZM134.855 30.28C134.855 30.7493 134.978 31.0907 135.223 31.304C135.479 31.5173 135.879 31.624 136.423 31.624H138.375V31.128C138.375 30.264 138.21 29.5813 137.879 29.08C137.559 28.568 137.117 28.312 136.551 28.312C136.007 28.312 135.586 28.4933 135.287 28.856C134.999 29.2187 134.855 29.6933 134.855 30.28ZM140.414 31.944L140.734 31.624C141.086 31.624 141.353 31.608 141.534 31.576C141.726 31.544 141.881 31.48 141.998 31.384C141.966 31.2667 141.945 31.1493 141.934 31.032C141.924 30.9147 141.918 30.7867 141.918 30.648C141.918 30.072 142.105 29.5493 142.478 29.08C142.862 28.6 143.438 28.1093 144.206 27.608L144.99 27.096H146.238L147.374 30.184C147.481 30.472 147.577 30.712 147.662 30.904C147.758 31.0853 147.86 31.2293 147.966 31.336C148.084 31.4427 148.206 31.5173 148.334 31.56C148.473 31.6027 148.633 31.624 148.814 31.624H149.118V32.68L148.798 33C148.297 33 147.897 32.9307 147.598 32.792C147.3 32.6427 147.033 32.3547 146.798 31.928L146.702 31.96V33H144.798C143.422 33 142.537 32.6 142.142 31.8H142.078C141.94 32.2053 141.748 32.5093 141.502 32.712C141.257 32.904 140.894 33 140.414 33V31.944ZM142.974 30.504C142.974 30.888 143.129 31.1707 143.438 31.352C143.748 31.5333 144.233 31.624 144.894 31.624H146.638C146.521 31.3787 146.393 31.064 146.254 30.68L145.358 28.264L144.75 28.632C144.27 28.92 143.854 29.2187 143.502 29.528C143.15 29.8373 142.974 30.1627 142.974 30.504ZM149.305 31.944L149.625 31.624H150.169C150.638 31.624 151.07 31.608 151.465 31.576C151.87 31.544 152.281 31.4853 152.697 31.4C153.113 31.304 153.55 31.1707 154.009 31C154.478 30.8293 155.006 30.6053 155.593 30.328L157.065 29.624V29.56L154.697 29.032L151.385 28.216V29.592H150.265V28.36C150.265 27.912 150.388 27.576 150.633 27.352C150.889 27.1173 151.209 27 151.593 27C151.71 27 151.849 27.016 152.009 27.048C152.18 27.0693 152.441 27.1227 152.793 27.208L156.697 28.216C157.284 28.3653 157.774 28.472 158.169 28.536C158.564 28.5893 158.905 28.616 159.193 28.616H159.449V29.992H158.233V30.184C158.233 30.7173 158.35 31.0907 158.585 31.304C158.82 31.5173 159.182 31.624 159.673 31.624H160.233V32.68L159.913 33C159.444 33 159.044 32.9573 158.713 32.872C158.382 32.7867 158.11 32.648 157.897 32.456C157.694 32.2533 157.54 31.9973 157.433 31.688C157.337 31.3787 157.284 31 157.273 30.552L156.025 31.304C155.364 31.6987 154.777 32.0133 154.265 32.248C153.753 32.472 153.273 32.6427 152.825 32.76C152.377 32.8667 151.94 32.936 151.513 32.968C151.097 32.9893 150.649 33 150.169 33H149.305V31.944ZM154.409 36.2C154.196 36.2 154.025 36.136 153.897 36.008C153.769 35.8907 153.705 35.6933 153.705 35.416C153.705 35.1387 153.769 34.936 153.897 34.808C154.025 34.6907 154.196 34.632 154.409 34.632H154.585C154.798 34.632 154.969 34.6907 155.097 34.808C155.225 34.936 155.289 35.1387 155.289 35.416C155.289 35.6933 155.225 35.8907 155.097 36.008C154.969 36.136 154.798 36.2 154.585 36.2H154.409ZM162.51 32.072C162.265 32.4027 161.977 32.6427 161.646 32.792C161.326 32.9307 160.916 33 160.414 33V31.944L160.734 31.624C160.937 31.624 161.108 31.5973 161.246 31.544C161.396 31.4907 161.524 31.4107 161.63 31.304C161.748 31.1867 161.849 31.0373 161.934 30.856C162.03 30.664 162.126 30.44 162.222 30.184L162.67 29C162.916 28.36 163.241 27.8693 163.646 27.528C164.052 27.176 164.59 27 165.262 27C166.052 27 166.66 27.3573 167.086 28.072C167.524 28.7867 167.742 29.7787 167.742 31.048V31.8L166.798 33.192L162.51 32.072ZM163.15 30.808L166.622 31.736V31.048C166.622 30.216 166.484 29.5653 166.206 29.096C165.94 28.616 165.561 28.376 165.07 28.376C164.665 28.376 164.35 28.4987 164.126 28.744C163.913 28.9893 163.732 29.2987 163.582 29.672L163.15 30.808Z" fill="#B8C0CC"/>
<path d="M29.663 87.088V90H18.873V87.088H22.513V77.533C22.513 77.2903 22.5173 77.0477 22.526 76.805C22.5347 76.5537 22.5477 76.3023 22.565 76.051L20.407 77.845C20.2163 77.9923 20.0257 78.0833 19.835 78.118C19.653 78.144 19.4797 78.144 19.315 78.118C19.1503 78.0833 19.003 78.027 18.873 77.949C18.743 77.8623 18.6477 77.7757 18.587 77.689L17.313 75.999L23.215 71.046H26.543V87.088H29.663ZM32.973 93.211C32.7824 93.055 32.687 92.8643 32.687 92.639C32.687 92.5523 32.7174 92.457 32.778 92.353C32.8387 92.2577 32.9124 92.171 32.999 92.093C33.103 91.989 33.2244 91.859 33.363 91.703C33.5017 91.5557 33.6404 91.391 33.779 91.209C33.9177 91.027 34.0434 90.8277 34.156 90.611C34.2774 90.3943 34.3684 90.1647 34.429 89.922C34.1344 89.896 33.8657 89.8223 33.623 89.701C33.3804 89.5797 33.1724 89.4237 32.999 89.233C32.8257 89.0337 32.6914 88.8083 32.596 88.557C32.5007 88.297 32.453 88.0153 32.453 87.712C32.453 87.4347 32.505 87.179 32.609 86.945C32.713 86.7023 32.8604 86.4943 33.051 86.321C33.2504 86.139 33.48 85.996 33.74 85.892C34.0087 85.788 34.3077 85.736 34.637 85.736C35.027 85.736 35.365 85.8053 35.651 85.944C35.937 86.074 36.1754 86.256 36.366 86.49C36.5567 86.7153 36.6954 86.9797 36.782 87.283C36.8774 87.5777 36.925 87.8897 36.925 88.219C36.925 88.6523 36.8557 89.116 36.717 89.61C36.5784 90.0953 36.3704 90.585 36.093 91.079C35.8244 91.573 35.4864 92.0583 35.079 92.535C34.6717 93.0117 34.2037 93.445 33.675 93.835L32.973 93.211ZM44.1001 77.728C44.4555 77.6587 44.7978 77.611 45.1271 77.585C45.4565 77.559 45.7771 77.546 46.0891 77.546C47.0858 77.546 47.9655 77.6977 48.7281 78.001C49.4908 78.3043 50.1321 78.7203 50.6521 79.249C51.1721 79.769 51.5621 80.3843 51.8221 81.095C52.0908 81.797 52.2251 82.551 52.2251 83.357C52.2251 84.371 52.0431 85.2983 51.6791 86.139C51.3238 86.971 50.8255 87.6903 50.1841 88.297C49.5428 88.9037 48.7758 89.376 47.8831 89.714C46.9991 90.0433 46.0285 90.208 44.9711 90.208C44.3558 90.208 43.7665 90.143 43.2031 90.013C42.6485 89.883 42.1241 89.7097 41.6301 89.493C41.1448 89.2677 40.6941 89.012 40.2781 88.726C39.8621 88.4313 39.4851 88.1193 39.1471 87.79L40.3951 86.126C40.5251 85.9527 40.6768 85.8227 40.8501 85.736C41.0235 85.6407 41.2098 85.593 41.4091 85.593C41.6691 85.593 41.9118 85.6667 42.1371 85.814C42.3711 85.9527 42.6225 86.1087 42.8911 86.282C43.1685 86.4467 43.4891 86.5983 43.8531 86.737C44.2171 86.8757 44.6678 86.945 45.2051 86.945C45.7425 86.945 46.2018 86.8583 46.5831 86.685C46.9645 86.503 47.2721 86.2603 47.5061 85.957C47.7488 85.645 47.9221 85.2853 48.0261 84.878C48.1388 84.462 48.1951 84.02 48.1951 83.552C48.1951 82.6333 47.9351 81.9357 47.4151 81.459C46.8951 80.9737 46.1585 80.731 45.2051 80.731C44.3558 80.731 43.5238 80.8913 42.7091 81.212L40.2131 80.536L41.8251 71.059H51.5231V72.723C51.5231 73.0003 51.4798 73.2517 51.3931 73.477C51.3065 73.7023 51.1678 73.9017 50.9771 74.075C50.7951 74.2397 50.5525 74.3697 50.2491 74.465C49.9458 74.5517 49.5818 74.595 49.1571 74.595H44.6331L44.1001 77.728ZM61.4242 87.023C61.8402 87.023 62.2258 86.945 62.5812 86.789C62.9452 86.633 63.2572 86.4207 63.5172 86.152C63.7772 85.8747 63.9808 85.554 64.1282 85.19C64.2842 84.8173 64.3622 84.4143 64.3622 83.981C64.3622 83.4957 64.2885 83.0623 64.1412 82.681C64.0025 82.2997 63.8032 81.979 63.5432 81.719C63.2832 81.459 62.9668 81.2597 62.5942 81.121C62.2302 80.9823 61.8228 80.913 61.3722 80.913C60.9648 80.913 60.5922 80.9867 60.2542 81.134C59.9162 81.2727 59.6215 81.4763 59.3702 81.745C59.1275 82.0137 58.9368 82.3343 58.7982 82.707C58.6595 83.0797 58.5902 83.5 58.5902 83.968C58.5902 84.436 58.6465 84.8563 58.7592 85.229C58.8718 85.6017 59.0452 85.9223 59.2792 86.191C59.5132 86.4597 59.8078 86.6677 60.1632 86.815C60.5185 86.9537 60.9388 87.023 61.4242 87.023ZM60.7742 78.339C61.3808 78.1137 62.0568 78.001 62.8022 78.001C63.4868 78.001 64.1628 78.1137 64.8302 78.339C65.4975 78.5643 66.0955 78.911 66.6242 79.379C67.1528 79.847 67.5775 80.4407 67.8982 81.16C68.2275 81.8707 68.3922 82.7113 68.3922 83.682C68.3922 84.566 68.2275 85.4067 67.8982 86.204C67.5688 86.9927 67.1008 87.686 66.4942 88.284C65.8962 88.8733 65.1725 89.3413 64.3232 89.688C63.4738 90.0347 62.5335 90.208 61.5022 90.208C60.4448 90.208 59.4958 90.0433 58.6552 89.714C57.8145 89.376 57.0995 88.908 56.5102 88.31C55.9295 87.712 55.4832 86.997 55.1712 86.165C54.8678 85.333 54.7162 84.4187 54.7162 83.422C54.7162 81.5587 55.4355 79.665 56.8742 77.741L61.1382 71.982C61.3375 71.7307 61.6235 71.514 61.9962 71.332C62.3775 71.15 62.8108 71.059 63.2962 71.059H66.8842L61.2682 77.767L60.7742 78.339ZM83.8312 71.059V72.749C83.8312 73.2517 83.7749 73.659 83.6622 73.971C83.5495 74.2743 83.4412 74.53 83.3372 74.738L76.7592 88.674C76.5772 89.038 76.3172 89.35 75.9792 89.61C75.6499 89.87 75.2079 90 74.6532 90H71.7152L78.4752 76.441C78.6745 76.077 78.8739 75.7477 79.0732 75.453C79.2812 75.1497 79.5109 74.8637 79.7622 74.595H71.4292C71.3079 74.595 71.1909 74.5733 71.0782 74.53C70.9742 74.478 70.8789 74.413 70.7922 74.335C70.7142 74.2483 70.6492 74.153 70.5972 74.049C70.5452 73.9363 70.5192 73.8237 70.5192 73.711V71.059H83.8312Z" fill="white"/>
<rect x="97" y="71.5" width="46" height="16" rx="4" fill="#0F3E28"/>
<path d="M102.258 81.76H105.228L103.748 78.79L102.258 81.76ZM114.049 82.485C114.166 82.485 114.257 82.52 114.324 82.59C114.391 82.6567 114.424 82.7433 114.424 82.85V83.5H109.554V83.135C109.554 83.0617 109.569 82.985 109.599 82.905C109.629 82.825 109.677 82.7517 109.744 82.685L111.984 80.44C112.174 80.25 112.342 80.0683 112.489 79.895C112.639 79.7217 112.766 79.5483 112.869 79.375C112.976 79.2017 113.056 79.0267 113.109 78.85C113.166 78.67 113.194 78.4817 113.194 78.285C113.194 78.095 113.164 77.9283 113.104 77.785C113.047 77.6383 112.967 77.5183 112.864 77.425C112.764 77.3283 112.642 77.2567 112.499 77.21C112.359 77.16 112.204 77.135 112.034 77.135C111.871 77.135 111.719 77.1583 111.579 77.205C111.442 77.2517 111.319 77.3167 111.209 77.4C111.102 77.4833 111.012 77.5833 110.939 77.7C110.869 77.8133 110.817 77.9383 110.784 78.075C110.734 78.2117 110.669 78.3033 110.589 78.35C110.512 78.3967 110.399 78.4067 110.249 78.38L109.684 78.28C109.734 77.94 109.827 77.6417 109.964 77.385C110.104 77.1283 110.279 76.915 110.489 76.745C110.699 76.5717 110.939 76.4417 111.209 76.355C111.482 76.265 111.777 76.22 112.094 76.22C112.414 76.22 112.707 76.2683 112.974 76.365C113.244 76.4583 113.476 76.5933 113.669 76.77C113.866 76.9433 114.019 77.155 114.129 77.405C114.239 77.655 114.294 77.9367 114.294 78.25C114.294 78.5167 114.254 78.7633 114.174 78.99C114.097 79.2167 113.992 79.4333 113.859 79.64C113.726 79.8467 113.569 80.0483 113.389 80.245C113.212 80.4383 113.026 80.635 112.829 80.835L111.089 82.615C111.232 82.575 111.376 82.5433 111.519 82.52C111.666 82.4967 111.804 82.485 111.934 82.485H114.049ZM115.92 82.88C115.92 82.7833 115.936 82.6933 115.97 82.61C116.006 82.5233 116.055 82.4483 116.115 82.385C116.178 82.3217 116.251 82.2717 116.335 82.235C116.421 82.1983 116.513 82.18 116.61 82.18C116.706 82.18 116.796 82.1983 116.88 82.235C116.966 82.2717 117.041 82.3217 117.105 82.385C117.168 82.4483 117.218 82.5233 117.255 82.61C117.291 82.6933 117.31 82.7833 117.31 82.88C117.31 82.98 117.291 83.0717 117.255 83.155C117.218 83.2383 117.168 83.3117 117.105 83.375C117.041 83.4383 116.966 83.4867 116.88 83.52C116.796 83.5567 116.706 83.575 116.61 83.575C116.513 83.575 116.421 83.5567 116.335 83.52C116.251 83.4867 116.178 83.4383 116.115 83.375C116.055 83.3117 116.006 83.2383 115.97 83.155C115.936 83.0717 115.92 82.98 115.92 82.88ZM121.193 82.73C121.41 82.73 121.603 82.7 121.773 82.64C121.943 82.5767 122.085 82.49 122.198 82.38C122.315 82.2667 122.403 82.1333 122.463 81.98C122.523 81.8267 122.553 81.66 122.553 81.48C122.553 81.26 122.518 81.07 122.448 80.91C122.381 80.75 122.286 80.6183 122.163 80.515C122.043 80.4083 121.9 80.33 121.733 80.28C121.566 80.2267 121.386 80.2 121.193 80.2C121 80.2 120.82 80.2267 120.653 80.28C120.486 80.33 120.341 80.4083 120.218 80.515C120.098 80.6183 120.003 80.75 119.933 80.91C119.866 81.07 119.833 81.26 119.833 81.48C119.833 81.66 119.863 81.8267 119.923 81.98C119.983 82.1333 120.07 82.2667 120.183 82.38C120.3 82.49 120.443 82.5767 120.613 82.64C120.783 82.7 120.976 82.73 121.193 82.73ZM121.193 77.045C120.996 77.045 120.823 77.075 120.673 77.135C120.526 77.195 120.405 77.275 120.308 77.375C120.211 77.475 120.138 77.5933 120.088 77.73C120.041 77.8633 120.018 78.005 120.018 78.155C120.018 78.305 120.038 78.4517 120.078 78.595C120.121 78.7383 120.188 78.8667 120.278 78.98C120.371 79.09 120.493 79.1783 120.643 79.245C120.793 79.3117 120.976 79.345 121.193 79.345C121.41 79.345 121.593 79.3117 121.743 79.245C121.893 79.1783 122.013 79.09 122.103 78.98C122.196 78.8667 122.263 78.7383 122.303 78.595C122.346 78.4517 122.368 78.305 122.368 78.155C122.368 78.005 122.343 77.8633 122.293 77.73C122.246 77.5933 122.173 77.475 122.073 77.375C121.976 77.275 121.855 77.195 121.708 77.135C121.561 77.075 121.39 77.045 121.193 77.045ZM122.328 79.745C122.771 79.8817 123.103 80.0983 123.323 80.395C123.546 80.6917 123.658 81.06 123.658 81.5C123.658 81.8167 123.598 82.1033 123.478 82.36C123.358 82.6167 123.19 82.835 122.973 83.015C122.756 83.195 122.496 83.335 122.193 83.435C121.893 83.5317 121.56 83.58 121.193 83.58C120.826 83.58 120.491 83.5317 120.188 83.435C119.888 83.335 119.63 83.195 119.413 83.015C119.196 82.835 119.028 82.6167 118.908 82.36C118.788 82.1033 118.728 81.8167 118.728 81.5C118.728 81.06 118.838 80.6917 119.058 80.395C119.281 80.0983 119.615 79.8817 120.058 79.745C119.698 79.6017 119.426 79.3933 119.243 79.12C119.063 78.8467 118.973 78.5183 118.973 78.135C118.973 77.865 119.026 77.6133 119.133 77.38C119.24 77.1467 119.39 76.945 119.583 76.775C119.78 76.6017 120.015 76.4667 120.288 76.37C120.561 76.27 120.863 76.22 121.193 76.22C121.523 76.22 121.823 76.27 122.093 76.37C122.366 76.4667 122.6 76.6017 122.793 76.775C122.99 76.945 123.141 77.1467 123.248 77.38C123.358 77.6133 123.413 77.865 123.413 78.135C123.413 78.5183 123.321 78.8467 123.138 79.12C122.958 79.3933 122.688 79.6017 122.328 79.745ZM126.134 78.44C126.134 78.8667 126.247 79.195 126.474 79.425C126.704 79.6517 127.024 79.765 127.434 79.765C127.654 79.765 127.847 79.73 128.014 79.66C128.184 79.59 128.327 79.4967 128.444 79.38C128.56 79.26 128.649 79.1217 128.709 78.965C128.769 78.805 128.799 78.635 128.799 78.455C128.799 78.245 128.765 78.0583 128.699 77.895C128.635 77.7283 128.544 77.5867 128.424 77.47C128.307 77.3533 128.167 77.265 128.004 77.205C127.84 77.1417 127.662 77.11 127.469 77.11C127.265 77.11 127.082 77.1433 126.919 77.21C126.755 77.2767 126.615 77.37 126.499 77.49C126.382 77.6067 126.292 77.7467 126.229 77.91C126.165 78.07 126.134 78.2467 126.134 78.44ZM127.979 80.675C128.045 80.5917 128.107 80.5133 128.164 80.44C128.22 80.3633 128.274 80.2867 128.324 80.21C128.15 80.3333 127.957 80.4283 127.744 80.495C127.53 80.5583 127.304 80.59 127.064 80.59C126.804 80.59 126.554 80.5467 126.314 80.46C126.074 80.37 125.86 80.2383 125.674 80.065C125.487 79.8883 125.337 79.6717 125.224 79.415C125.114 79.155 125.059 78.8567 125.059 78.52C125.059 78.2033 125.117 77.905 125.234 77.625C125.354 77.345 125.52 77.1017 125.734 76.895C125.947 76.685 126.202 76.52 126.499 76.4C126.795 76.28 127.124 76.22 127.484 76.22C127.84 76.22 128.164 76.2783 128.454 76.395C128.744 76.5083 128.99 76.67 129.194 76.88C129.397 77.0867 129.554 77.335 129.664 77.625C129.774 77.9117 129.829 78.2283 129.829 78.575C129.829 78.7917 129.809 78.9967 129.769 79.19C129.732 79.3833 129.677 79.5717 129.604 79.755C129.534 79.935 129.447 80.1133 129.344 80.29C129.244 80.4633 129.13 80.64 129.004 80.82L127.309 83.25C127.259 83.3233 127.184 83.3833 127.084 83.43C126.987 83.4767 126.877 83.5 126.754 83.5H125.769L127.979 80.675ZM134.565 78.04C134.565 78.3167 134.52 78.565 134.43 78.785C134.343 79.005 134.225 79.1933 134.075 79.35C133.925 79.5033 133.751 79.6217 133.555 79.705C133.358 79.785 133.151 79.825 132.935 79.825C132.701 79.825 132.485 79.785 132.285 79.705C132.088 79.6217 131.916 79.5033 131.77 79.35C131.626 79.1933 131.513 79.005 131.43 78.785C131.346 78.565 131.305 78.3167 131.305 78.04C131.305 77.7567 131.346 77.5033 131.43 77.28C131.513 77.0533 131.626 76.8633 131.77 76.71C131.916 76.5533 132.088 76.4333 132.285 76.35C132.485 76.2667 132.701 76.225 132.935 76.225C133.168 76.225 133.383 76.2667 133.58 76.35C133.78 76.4333 133.951 76.5533 134.095 76.71C134.241 76.8633 134.356 77.0533 134.44 77.28C134.523 77.5033 134.565 77.7567 134.565 78.04ZM133.735 78.04C133.735 77.8367 133.713 77.665 133.67 77.525C133.63 77.3817 133.573 77.2667 133.5 77.18C133.43 77.09 133.345 77.0267 133.245 76.99C133.148 76.95 133.045 76.93 132.935 76.93C132.821 76.93 132.716 76.95 132.62 76.99C132.523 77.0267 132.44 77.09 132.37 77.18C132.3 77.2667 132.245 77.3817 132.205 77.525C132.165 77.665 132.145 77.8367 132.145 78.04C132.145 78.24 132.165 78.4083 132.205 78.545C132.245 78.6817 132.3 78.7933 132.37 78.88C132.44 78.9633 132.523 79.0233 132.62 79.06C132.716 79.0967 132.821 79.115 132.935 79.115C133.045 79.115 133.148 79.0967 133.245 79.06C133.345 79.0233 133.43 78.9633 133.5 78.88C133.573 78.7933 133.63 78.6817 133.67 78.545C133.713 78.4083 133.735 78.24 133.735 78.04ZM137.035 76.475C137.071 76.4283 137.115 76.3883 137.165 76.355C137.218 76.3183 137.291 76.3 137.385 76.3H138.16L132.855 83.335C132.818 83.3817 132.773 83.4217 132.72 83.455C132.666 83.485 132.601 83.5 132.525 83.5H131.725L137.035 76.475ZM138.595 81.805C138.595 82.0817 138.55 82.33 138.46 82.55C138.37 82.77 138.25 82.9567 138.1 83.11C137.95 83.2633 137.776 83.3817 137.58 83.465C137.383 83.545 137.176 83.585 136.96 83.585C136.726 83.585 136.51 83.545 136.31 83.465C136.113 83.3817 135.941 83.2633 135.795 83.11C135.651 82.9567 135.538 82.77 135.455 82.55C135.375 82.33 135.335 82.0817 135.335 81.805C135.335 81.5217 135.375 81.2683 135.455 81.045C135.538 80.8183 135.651 80.6267 135.795 80.47C135.941 80.3133 136.113 80.195 136.31 80.115C136.51 80.0317 136.726 79.99 136.96 79.99C137.193 79.99 137.41 80.0317 137.61 80.115C137.81 80.195 137.981 80.3133 138.125 80.47C138.271 80.6267 138.386 80.8183 138.47 81.045C138.553 81.2683 138.595 81.5217 138.595 81.805ZM137.765 81.805C137.765 81.6017 137.743 81.43 137.7 81.29C137.66 81.1467 137.603 81.0317 137.53 80.945C137.456 80.855 137.37 80.7917 137.27 80.755C137.173 80.715 137.07 80.695 136.96 80.695C136.85 80.695 136.746 80.715 136.65 80.755C136.553 80.7917 136.468 80.855 136.395 80.945C136.325 81.0317 136.27 81.1467 136.23 81.29C136.19 81.43 136.17 81.6017 136.17 81.805C136.17 82.005 136.19 82.1733 136.23 82.31C136.27 82.4467 136.325 82.5583 136.395 82.645C136.468 82.7283 136.553 82.7883 136.65 82.825C136.746 82.8617 136.85 82.88 136.96 82.88C137.07 82.88 137.173 82.8617 137.27 82.825C137.37 82.7883 137.456 82.7283 137.53 82.645C137.603 82.5583 137.66 82.4467 137.7 82.31C137.743 82.1733 137.765 82.005 137.765 81.805Z" fill="#0BFF96"/>
<path d="M21.026 118.284C19.6073 118.284 18.5013 117.962 17.708 117.318C16.924 116.683 16.532 115.792 16.532 114.644C16.532 114.224 16.588 113.762 16.7 113.258C16.8213 112.754 16.9847 112.259 17.19 111.774L18.254 112.096C18.0767 112.479 17.932 112.871 17.82 113.272C17.708 113.673 17.652 114.037 17.652 114.364C17.652 115.073 17.9087 115.619 18.422 116.002C18.9353 116.394 19.6447 116.59 20.55 116.59H21.516C22.5893 116.59 23.4247 116.427 24.022 116.1C24.6287 115.783 24.932 115.335 24.932 114.756V114.728L22.804 114.308C22.0387 114.159 21.4927 113.925 21.166 113.608C20.8393 113.291 20.676 112.829 20.676 112.222C20.676 111.746 20.7693 111.289 20.956 110.85C21.1427 110.402 21.3947 110.01 21.712 109.674C22.0387 109.329 22.412 109.053 22.832 108.848C23.2613 108.643 23.7093 108.54 24.176 108.54C24.8387 108.531 25.3847 108.699 25.814 109.044C26.2433 109.389 26.6073 109.917 26.906 110.626L27.298 111.564C27.3913 111.816 27.48 112.007 27.564 112.138L28.166 111.116C28.5113 110.519 28.8567 110.019 29.202 109.618C29.5567 109.207 29.9207 108.881 30.294 108.638C30.6673 108.386 31.0547 108.209 31.456 108.106C31.8573 107.994 32.2773 107.938 32.716 107.938C33.7053 107.938 34.4613 108.213 34.984 108.764C35.516 109.305 35.782 110.057 35.782 111.018C35.782 112.073 35.502 112.833 34.942 113.3C34.382 113.767 33.528 114 32.38 114H28.138C27.886 114 27.6573 113.972 27.452 113.916C27.256 113.851 27.074 113.748 26.906 113.608C26.7473 113.468 26.598 113.286 26.458 113.062C26.318 112.838 26.178 112.563 26.038 112.236L25.646 111.326C25.3193 110.533 24.764 110.136 23.98 110.136C23.7093 110.136 23.4433 110.183 23.182 110.276C22.9207 110.369 22.6873 110.495 22.482 110.654C22.2767 110.813 22.1133 110.995 21.992 111.2C21.8707 111.405 21.81 111.615 21.81 111.83C21.81 112.073 21.894 112.259 22.062 112.39C22.23 112.521 22.5333 112.637 22.972 112.74L24.736 113.118C25.2027 113.221 25.5387 113.403 25.744 113.664C25.9587 113.925 26.066 114.289 26.066 114.756C26.066 115.316 25.9493 115.815 25.716 116.254C25.492 116.693 25.1607 117.061 24.722 117.36C24.2927 117.659 23.7653 117.887 23.14 118.046C22.524 118.205 21.8193 118.284 21.026 118.284ZM28.53 112.334L28.572 112.418H32.38C33.164 112.418 33.7333 112.32 34.088 112.124C34.4427 111.928 34.62 111.569 34.62 111.046C34.62 110.038 34.0553 109.534 32.926 109.534H32.506C32.114 109.534 31.764 109.562 31.456 109.618C31.148 109.674 30.8633 109.772 30.602 109.912C30.3407 110.052 30.0887 110.243 29.846 110.486C29.6127 110.729 29.3747 111.037 29.132 111.41L28.53 112.334ZM21.908 121.182C21.6933 121.182 21.5207 121.117 21.39 120.986C21.2687 120.855 21.208 120.655 21.208 120.384C21.208 120.104 21.2687 119.899 21.39 119.768C21.5207 119.647 21.6933 119.586 21.908 119.586H22.118C22.3327 119.586 22.5053 119.647 22.636 119.768C22.7667 119.899 22.832 120.104 22.832 120.384C22.832 120.655 22.7667 120.855 22.636 120.986C22.5053 121.117 22.3327 121.182 22.118 121.182H21.908ZM19.934 121.182C19.7193 121.182 19.5467 121.117 19.416 120.986C19.2947 120.855 19.234 120.655 19.234 120.384C19.234 120.104 19.2947 119.899 19.416 119.768C19.5467 119.647 19.7193 119.586 19.934 119.586H20.144C20.3587 119.586 20.5313 119.647 20.662 119.768C20.7927 119.899 20.858 120.104 20.858 120.384C20.858 120.655 20.7927 120.855 20.662 120.986C20.5313 121.117 20.3587 121.182 20.144 121.182H19.934ZM32.184 106.51C31.9693 106.51 31.7967 106.445 31.666 106.314C31.5447 106.183 31.484 105.983 31.484 105.712C31.484 105.432 31.5447 105.231 31.666 105.11C31.7967 104.979 31.9693 104.914 32.184 104.914H32.394C32.6087 104.914 32.7813 104.979 32.912 105.11C33.0427 105.231 33.108 105.432 33.108 105.712C33.108 105.983 33.0427 106.183 32.912 106.314C32.7813 106.445 32.6087 106.51 32.394 106.51H32.184ZM40.3858 114C39.4711 114 38.8131 113.813 38.4118 113.44C38.0104 113.057 37.8098 112.423 37.8098 111.536V103.64H39.1118V111.41C39.1118 111.802 39.2004 112.068 39.3778 112.208C39.5644 112.348 39.8678 112.418 40.2878 112.418H40.7498V113.664L40.3998 114H40.3858ZM40.9179 112.754L41.2539 112.418C41.5432 112.418 41.7719 112.409 41.9399 112.39C42.1172 112.371 42.2712 112.329 42.4019 112.264C42.3739 112.115 42.3599 111.951 42.3599 111.774C42.3599 111.251 42.5232 110.771 42.8499 110.332C43.1859 109.893 43.6852 109.464 44.3479 109.044L45.1179 108.568H46.5319L47.5819 111.382C47.6566 111.587 47.7312 111.76 47.8059 111.9C47.8806 112.031 47.9599 112.133 48.0439 112.208C48.1372 112.283 48.2399 112.339 48.3519 112.376C48.4639 112.404 48.5992 112.418 48.7579 112.418H49.0939V113.664L48.7579 114C48.2446 114 47.8386 113.925 47.5399 113.776C47.2412 113.617 46.9799 113.347 46.7559 112.964L46.6719 112.978V114H44.9499C44.3246 114 43.8112 113.897 43.4099 113.692C43.0179 113.477 42.7332 113.174 42.5559 112.782H42.4719C42.3412 113.202 42.1546 113.51 41.9119 113.706C41.6692 113.902 41.3379 114 40.9179 114V112.754ZM43.4379 111.62C43.4379 111.9 43.5499 112.105 43.7739 112.236C43.9979 112.357 44.3199 112.418 44.7399 112.418H46.4899C46.4526 112.343 46.4199 112.264 46.3919 112.18C46.3639 112.096 46.3312 112.007 46.2939 111.914L45.5519 109.926L44.7119 110.346C44.3386 110.533 44.0306 110.733 43.7879 110.948C43.5546 111.153 43.4379 111.377 43.4379 111.62ZM49.2519 112.754L49.5879 112.418H50.0779C50.4886 112.418 50.7732 112.329 50.9319 112.152C51.0999 111.975 51.1839 111.695 51.1839 111.312V103.64H52.4999V111.312C52.4999 112.236 52.3132 112.917 51.9399 113.356C51.5666 113.785 50.9459 114 50.0779 114H49.2519V112.754ZM54.9367 103.64H56.2387V114H54.9367V103.64ZM60.6795 115.778H61.2115C61.6875 115.778 62.0842 115.717 62.4015 115.596C62.7189 115.475 62.9755 115.302 63.1715 115.078C63.3675 114.863 63.5075 114.602 63.5915 114.294C63.6755 113.986 63.7175 113.641 63.7175 113.258C63.7175 113.006 63.7035 112.745 63.6755 112.474C63.6475 112.203 63.6102 111.933 63.5635 111.662L63.2695 109.968L64.4735 109.744L64.6695 110.92C64.7162 111.191 64.7535 111.452 64.7815 111.704C64.8189 111.956 64.8469 112.194 64.8655 112.418H66.1675V113.664L65.8315 114H64.8655C64.8095 114.485 64.6975 114.933 64.5295 115.344C64.3615 115.755 64.1282 116.109 63.8295 116.408C63.5402 116.707 63.1809 116.94 62.7515 117.108C62.3222 117.276 61.8135 117.36 61.2255 117.36H60.6795V115.778ZM69.062 117.78C68.81 117.397 68.6 117.071 68.432 116.8C68.2733 116.539 68.1426 116.31 68.04 116.114C67.9466 115.918 67.8813 115.741 67.844 115.582C67.8066 115.433 67.788 115.274 67.788 115.106C67.788 114.807 67.8393 114.523 67.942 114.252C68.054 113.981 68.1846 113.739 68.334 113.524L68.264 113.482C68.0773 113.659 67.844 113.79 67.564 113.874C67.2933 113.958 66.8826 114 66.332 114V112.754L66.668 112.418H67.074C67.4566 112.418 67.7553 112.348 67.97 112.208C68.194 112.068 68.3946 111.821 68.572 111.466L69.146 110.304L70.182 110.836L69.65 111.914C69.5286 112.157 69.426 112.376 69.342 112.572C69.258 112.768 69.188 112.95 69.132 113.118C69.076 113.277 69.034 113.431 69.006 113.58C68.9873 113.729 68.978 113.879 68.978 114.028C68.978 114.187 68.9966 114.341 69.034 114.49C69.0713 114.639 69.1273 114.803 69.202 114.98C69.2766 115.167 69.3746 115.367 69.496 115.582C69.6266 115.797 69.7806 116.044 69.958 116.324L71.106 113.496C71.2646 113.085 71.4326 112.805 71.61 112.656C71.7873 112.497 72.0393 112.418 72.366 112.418H73.486V113.664L73.15 114H72.086L70.602 117.78H69.062ZM73.6542 112.754L73.9902 112.418H74.2702C74.4662 112.418 74.6389 112.404 74.7882 112.376C74.9376 112.348 75.0682 112.297 75.1802 112.222C75.2922 112.147 75.3949 112.049 75.4882 111.928C75.5816 111.807 75.6749 111.653 75.7682 111.466L76.3422 110.304L77.3922 110.836L76.7622 112.082L76.8602 112.138C77.1402 112.297 77.4062 112.413 77.6582 112.488C77.9196 112.563 78.1856 112.6 78.4562 112.6C78.8762 112.6 79.1842 112.507 79.3802 112.32C79.5762 112.124 79.6742 111.788 79.6742 111.312V110.304H80.8922V111.312C80.8922 111.769 80.9529 112.096 81.0742 112.292C81.2049 112.479 81.4289 112.572 81.7462 112.572H81.9982C82.2969 112.572 82.5116 112.479 82.6422 112.292C82.7822 112.096 82.8522 111.769 82.8522 111.312V109.744H84.0702V111.312C84.0702 112.049 84.4342 112.418 85.1622 112.418H85.6942V113.664L85.3442 114C84.6909 114 84.1822 113.883 83.8182 113.65C83.4636 113.407 83.2209 113.034 83.0902 112.53H83.0202C82.9642 113.118 82.8102 113.538 82.5582 113.79C82.3156 114.042 81.9702 114.168 81.5222 114.168C80.5702 114.168 80.0056 113.622 79.8282 112.53H79.7442C79.5856 113.622 79.0676 114.168 78.1902 114.168C77.9196 114.168 77.6396 114.117 77.3502 114.014C77.0702 113.911 76.7342 113.743 76.3422 113.51L75.9642 113.286C75.6842 113.575 75.3669 113.767 75.0122 113.86C74.6576 113.953 74.2049 114 73.6542 114V112.754ZM81.1862 108.876C80.9716 108.876 80.7989 108.811 80.6682 108.68C80.5376 108.549 80.4722 108.349 80.4722 108.078C80.4722 107.798 80.5376 107.597 80.6682 107.476C80.7989 107.345 80.9716 107.28 81.1862 107.28H81.3822C81.5969 107.28 81.7696 107.345 81.9002 107.476C82.0309 107.597 82.0962 107.798 82.0962 108.078C82.0962 108.349 82.0309 108.549 81.9002 108.68C81.7696 108.811 81.5969 108.876 81.3822 108.876H81.1862ZM79.1982 108.876C78.9836 108.876 78.8109 108.811 78.6802 108.68C78.5589 108.549 78.4982 108.349 78.4982 108.078C78.4982 107.798 78.5589 107.597 78.6802 107.476C78.8109 107.345 78.9836 107.28 79.1982 107.28H79.4082C79.6229 107.28 79.7956 107.345 79.9262 107.476C80.0569 107.597 80.1222 107.798 80.1222 108.078C80.1222 108.349 80.0569 108.549 79.9262 108.68C79.7956 108.811 79.6229 108.876 79.4082 108.876H79.1982ZM80.1922 107.028C79.9869 107.028 79.8189 106.967 79.6882 106.846C79.5576 106.715 79.4922 106.515 79.4922 106.244C79.4922 105.973 79.5576 105.777 79.6882 105.656C79.8189 105.535 79.9869 105.474 80.1922 105.474H80.4022C80.6076 105.474 80.7709 105.535 80.8922 105.656C81.0229 105.777 81.0882 105.973 81.0882 106.244C81.0882 106.515 81.0229 106.715 80.8922 106.846C80.7709 106.967 80.6076 107.028 80.4022 107.028H80.1922ZM85.8574 112.754L86.1934 112.418H86.6834C87.094 112.418 87.3787 112.329 87.5374 112.152C87.7054 111.975 87.7894 111.695 87.7894 111.312V103.64H89.1054V111.312C89.1054 112.236 88.9187 112.917 88.5454 113.356C88.172 113.785 87.5514 114 86.6834 114H85.8574V112.754ZM94.1182 114C93.2035 114 92.5455 113.813 92.1442 113.44C91.7428 113.057 91.5422 112.423 91.5422 111.536V103.64H92.8442V111.41C92.8442 111.802 92.9328 112.068 93.1102 112.208C93.2968 112.348 93.6002 112.418 94.0202 112.418H94.4822V113.664L94.1322 114H94.1182ZM94.6503 112.754L94.9863 112.418H95.2803C95.915 112.418 96.363 112.348 96.6243 112.208C96.8857 112.059 97.0163 111.793 97.0163 111.41C97.0163 111.251 97.0023 111.051 96.9743 110.808C96.9557 110.565 96.9137 110.243 96.8483 109.842L96.6243 108.624L97.8423 108.428L98.0243 109.646C98.1363 110.393 98.1923 110.981 98.1923 111.41C98.1923 112.287 97.9543 112.941 97.4783 113.37C97.0023 113.79 96.2697 114 95.2803 114H94.6503V112.754ZM96.9043 116.898C96.6897 116.898 96.517 116.833 96.3863 116.702C96.265 116.571 96.2043 116.371 96.2043 116.1C96.2043 115.82 96.265 115.615 96.3863 115.484C96.517 115.363 96.6897 115.302 96.9043 115.302H97.1143C97.329 115.302 97.5017 115.363 97.6323 115.484C97.763 115.615 97.8283 115.82 97.8283 116.1C97.8283 116.371 97.763 116.571 97.6323 116.702C97.5017 116.833 97.329 116.898 97.1143 116.898H96.9043ZM109.691 114C108.842 114 108.23 113.827 107.857 113.482C107.493 113.127 107.311 112.581 107.311 111.844V111.676H107.241C107.101 112.199 106.882 112.577 106.583 112.81C106.284 113.034 105.892 113.146 105.407 113.146C104.763 113.146 104.268 112.973 103.923 112.628C103.578 112.283 103.405 111.797 103.405 111.172C103.405 110.855 103.452 110.565 103.545 110.304C103.638 110.033 103.783 109.781 103.979 109.548C104.175 109.315 104.418 109.095 104.707 108.89C105.006 108.675 105.356 108.461 105.757 108.246L107.241 107.462V106.72H108.515V111.536C108.515 111.872 108.599 112.105 108.767 112.236C108.935 112.357 109.201 112.418 109.565 112.418H110.027V113.664L109.691 114ZM105.715 111.564C106.275 111.564 106.667 111.494 106.891 111.354C107.124 111.214 107.241 110.967 107.241 110.612V108.722L105.981 109.366C105.477 109.627 105.113 109.861 104.889 110.066C104.665 110.262 104.553 110.505 104.553 110.794C104.553 111.065 104.637 111.261 104.805 111.382C104.982 111.503 105.286 111.564 105.715 111.564ZM107.801 105.586C107.586 105.586 107.414 105.521 107.283 105.39C107.162 105.259 107.101 105.059 107.101 104.788C107.101 104.508 107.162 104.307 107.283 104.186C107.414 104.055 107.586 103.99 107.801 103.99H108.011C108.226 103.99 108.398 104.055 108.529 104.186C108.66 104.307 108.725 104.508 108.725 104.788C108.725 105.059 108.66 105.259 108.529 105.39C108.398 105.521 108.226 105.586 108.011 105.586H107.801ZM105.827 105.586C105.612 105.586 105.44 105.521 105.309 105.39C105.188 105.259 105.127 105.059 105.127 104.788C105.127 104.508 105.188 104.307 105.309 104.186C105.44 104.055 105.612 103.99 105.827 103.99H106.037C106.252 103.99 106.424 104.055 106.555 104.186C106.686 104.307 106.751 104.508 106.751 104.788C106.751 105.059 106.686 105.259 106.555 105.39C106.424 105.521 106.252 105.586 106.037 105.586H105.827ZM110.191 112.754L110.527 112.418H110.821C111.456 112.418 111.904 112.348 112.165 112.208C112.427 112.059 112.557 111.793 112.557 111.41C112.557 111.251 112.543 111.051 112.515 110.808C112.497 110.565 112.455 110.243 112.389 109.842L112.165 108.624L113.383 108.428L113.565 109.646C113.677 110.393 113.733 110.981 113.733 111.41C113.733 112.287 113.495 112.941 113.019 113.37C112.543 113.79 111.811 114 110.821 114H110.191V112.754ZM112.487 107C112.273 107 112.1 106.935 111.969 106.804C111.848 106.673 111.787 106.473 111.787 106.202C111.787 105.922 111.848 105.721 111.969 105.6C112.1 105.469 112.273 105.404 112.487 105.404H112.697C112.912 105.404 113.085 105.469 113.215 105.6C113.346 105.721 113.411 105.922 113.411 106.202C113.411 106.473 113.346 106.673 113.215 106.804C113.085 106.935 112.912 107 112.697 107H112.487ZM113.933 115.778H114.465C114.941 115.778 115.338 115.717 115.655 115.596C115.973 115.475 116.229 115.302 116.425 115.078C116.621 114.863 116.761 114.602 116.845 114.294C116.929 113.986 116.971 113.641 116.971 113.258C116.971 113.006 116.957 112.745 116.929 112.474C116.901 112.203 116.864 111.933 116.817 111.662L116.523 109.968L117.727 109.744L117.923 110.92C118.082 111.825 118.161 112.6 118.161 113.244C118.161 113.823 118.091 114.359 117.951 114.854C117.821 115.358 117.606 115.797 117.307 116.17C117.009 116.543 116.626 116.833 116.159 117.038C115.693 117.253 115.133 117.36 114.479 117.36H113.933V115.778ZM122.739 114C121.825 114 121.167 113.813 120.765 113.44C120.364 113.057 120.163 112.423 120.163 111.536V103.64H121.465V111.41C121.465 111.802 121.554 112.068 121.731 112.208C121.918 112.348 122.221 112.418 122.641 112.418H123.103V113.664L122.753 114H122.739ZM123.271 112.754L123.607 112.418H125.413L125.441 112.348C124.601 111.629 124.181 110.785 124.181 109.814C124.181 109.422 124.242 109.053 124.363 108.708C124.494 108.363 124.676 108.059 124.909 107.798C125.143 107.537 125.418 107.331 125.735 107.182C126.062 107.033 126.421 106.958 126.813 106.958C127.205 106.958 127.56 107.033 127.877 107.182C128.204 107.331 128.479 107.537 128.703 107.798C128.937 108.05 129.119 108.353 129.249 108.708C129.38 109.053 129.445 109.422 129.445 109.814C129.445 110.775 129.025 111.62 128.185 112.348L128.213 112.418H130.033V113.664L129.697 114H129.529C129.035 114 128.559 113.944 128.101 113.832C127.653 113.711 127.224 113.515 126.813 113.244C126.412 113.515 125.983 113.711 125.525 113.832C125.068 113.944 124.597 114 124.111 114H123.271V112.754ZM126.813 112.096C127.289 111.835 127.658 111.536 127.919 111.2C128.181 110.864 128.311 110.472 128.311 110.024C128.311 109.576 128.176 109.217 127.905 108.946C127.644 108.675 127.303 108.54 126.883 108.54H126.729C126.309 108.54 125.964 108.675 125.693 108.946C125.432 109.217 125.301 109.576 125.301 110.024C125.301 110.472 125.432 110.864 125.693 111.2C125.964 111.536 126.337 111.835 126.813 112.096ZM127.667 105.53C127.453 105.53 127.28 105.465 127.149 105.334C127.028 105.203 126.967 105.003 126.967 104.732C126.967 104.452 127.028 104.251 127.149 104.13C127.28 103.999 127.453 103.934 127.667 103.934H127.877C128.092 103.934 128.265 103.999 128.395 104.13C128.526 104.251 128.591 104.452 128.591 104.732C128.591 105.003 128.526 105.203 128.395 105.334C128.265 105.465 128.092 105.53 127.877 105.53H127.667ZM125.693 105.53C125.479 105.53 125.306 105.465 125.175 105.334C125.054 105.203 124.993 105.003 124.993 104.732C124.993 104.452 125.054 104.251 125.175 104.13C125.306 103.999 125.479 103.934 125.693 103.934H125.903C126.118 103.934 126.291 103.999 126.421 104.13C126.552 104.251 126.617 104.452 126.617 104.732C126.617 105.003 126.552 105.203 126.421 105.334C126.291 105.465 126.118 105.53 125.903 105.53H125.693ZM132.115 113.202C131.901 113.491 131.644 113.697 131.345 113.818C131.047 113.939 130.664 114 130.197 114V112.754L130.533 112.418C130.888 112.418 131.145 112.343 131.303 112.194C131.471 112.035 131.625 111.769 131.765 111.396L132.157 110.388C132.381 109.809 132.675 109.347 133.039 109.002C133.413 108.647 133.912 108.47 134.537 108.47C135.303 108.47 135.891 108.797 136.301 109.45C136.712 110.094 136.917 110.999 136.917 112.166V112.712L135.867 114.252L132.115 113.202ZM132.773 111.732L135.713 112.558V112.166C135.713 111.503 135.587 110.985 135.335 110.612C135.083 110.239 134.733 110.052 134.285 110.052C133.959 110.052 133.693 110.15 133.487 110.346C133.291 110.533 133.128 110.794 132.997 111.13L132.773 111.732Z" fill="#B8C0CC"/>
<rect x="234" y="17" width="32" height="32" rx="8" fill="#006277"/>
<path d="M246 26.3333L244 28.9999V38.3333C244 38.6869 244.14 39.026 244.391 39.2761C244.641 39.5261 244.98 39.6666 245.333 39.6666H254.667C255.02 39.6666 255.359 39.5261 255.609 39.2761C255.86 39.026 256 38.6869 256 38.3333V28.9999L254 26.3333H246Z" stroke="#99EDFF" stroke-width="2" stroke-linecap="round" stroke-linejoin="round"/>
<path d="M252.667 31.6667C252.667 32.374 252.386 33.0523 251.886 33.5524C251.385 34.0525 250.707 34.3334 250 34.3334C249.293 34.3334 248.614 34.0525 248.114 33.5524C247.614 33.0523 247.333 32.374 247.333 31.6667" stroke="#99EDFF" stroke-width="2" stroke-linecap="round" stroke-linejoin="round"/>
<path d="M244 29H256" stroke="#99EDFF" stroke-width="2" stroke-linecap="round" stroke-linejoin="round"/>
<path d="M22.6 137.704C22.6 138.456 22.518 139.108 22.354 139.66C22.194 140.208 21.974 140.662 21.694 141.022C21.414 141.382 21.082 141.65 20.698 141.826C20.318 142.002 19.91 142.09 19.474 142.09C19.034 142.09 18.624 142.002 18.244 141.826C17.868 141.65 17.54 141.382 17.26 141.022C16.98 140.662 16.76 140.208 16.6 139.66C16.44 139.108 16.36 138.456 16.36 137.704C16.36 136.952 16.44 136.3 16.6 135.748C16.76 135.196 16.98 134.74 17.26 134.38C17.54 134.016 17.868 133.746 18.244 133.57C18.624 133.394 19.034 133.306 19.474 133.306C19.91 133.306 20.318 133.394 20.698 133.57C21.082 133.746 21.414 134.016 21.694 134.38C21.974 134.74 22.194 135.196 22.354 135.748C22.518 136.3 22.6 136.952 22.6 137.704ZM21.49 137.704C21.49 137.048 21.434 136.498 21.322 136.054C21.214 135.606 21.066 135.246 20.878 134.974C20.694 134.702 20.48 134.508 20.236 134.392C19.992 134.272 19.738 134.212 19.474 134.212C19.21 134.212 18.956 134.272 18.712 134.392C18.468 134.508 18.254 134.702 18.07 134.974C17.886 135.246 17.738 135.606 17.626 136.054C17.518 136.498 17.464 137.048 17.464 137.704C17.464 138.36 17.518 138.91 17.626 139.354C17.738 139.798 17.886 140.156 18.07 140.428C18.254 140.7 18.468 140.896 18.712 141.016C18.956 141.132 19.21 141.19 19.474 141.19C19.738 141.19 19.992 141.132 20.236 141.016C20.48 140.896 20.694 140.7 20.878 140.428C21.066 140.156 21.214 139.798 21.322 139.354C21.434 138.91 21.49 138.36 21.49 137.704ZM27.7929 135.478C27.7929 135.814 27.7409 136.116 27.6369 136.384C27.5329 136.648 27.3929 136.872 27.2169 137.056C27.0449 137.236 26.8429 137.374 26.6109 137.47C26.3829 137.566 26.1409 137.614 25.8849 137.614C25.6169 137.614 25.3669 137.566 25.1349 137.47C24.9029 137.374 24.7009 137.236 24.5289 137.056C24.3609 136.872 24.2289 136.648 24.1329 136.384C24.0369 136.116 23.9889 135.814 23.9889 135.478C23.9889 135.134 24.0369 134.828 24.1329 134.56C24.2289 134.292 24.3609 134.066 24.5289 133.882C24.7009 133.698 24.9029 133.558 25.1349 133.462C25.3669 133.366 25.6169 133.318 25.8849 133.318C26.1569 133.318 26.4089 133.366 26.6409 133.462C26.8729 133.558 27.0749 133.698 27.2469 133.882C27.4189 134.066 27.5529 134.292 27.6489 134.56C27.7449 134.828 27.7929 135.134 27.7929 135.478ZM26.9649 135.478C26.9649 135.214 26.9369 134.99 26.8809 134.806C26.8249 134.622 26.7469 134.472 26.6469 134.356C26.5509 134.236 26.4369 134.15 26.3049 134.098C26.1729 134.046 26.0329 134.02 25.8849 134.02C25.7369 134.02 25.5989 134.046 25.4709 134.098C25.3429 134.15 25.2309 134.236 25.1349 134.356C25.0389 134.472 24.9629 134.622 24.9069 134.806C24.8509 134.99 24.8229 135.214 24.8229 135.478C24.8229 135.738 24.8509 135.96 24.9069 136.144C24.9629 136.324 25.0389 136.472 25.1349 136.588C25.2309 136.7 25.3429 136.782 25.4709 136.834C25.5989 136.882 25.7369 136.906 25.8849 136.906C26.0329 136.906 26.1729 136.882 26.3049 136.834C26.4369 136.782 26.5509 136.7 26.6469 136.588C26.7469 136.472 26.8249 136.324 26.8809 136.144C26.9369 135.96 26.9649 135.738 26.9649 135.478ZM30.8349 133.582C30.8749 133.534 30.9209 133.492 30.9729 133.456C31.0289 133.42 31.1029 133.402 31.1949 133.402H31.9689L25.6809 141.826C25.6449 141.878 25.5989 141.92 25.5429 141.952C25.4869 141.984 25.4189 142 25.3389 142H24.5529L30.8349 133.582ZM32.5509 139.972C32.5509 140.308 32.4989 140.608 32.3949 140.872C32.2909 141.136 32.1509 141.36 31.9749 141.544C31.8029 141.724 31.6009 141.862 31.3689 141.958C31.1409 142.054 30.8989 142.102 30.6429 142.102C30.3709 142.102 30.1189 142.054 29.8869 141.958C29.6589 141.862 29.4589 141.724 29.2869 141.544C29.1189 141.36 28.9869 141.136 28.8909 140.872C28.7949 140.608 28.7469 140.308 28.7469 139.972C28.7469 139.628 28.7949 139.322 28.8909 139.054C28.9869 138.782 29.1189 138.554 29.2869 138.37C29.4589 138.186 29.6589 138.046 29.8869 137.95C30.1189 137.854 30.3709 137.806 30.6429 137.806C30.9109 137.806 31.1609 137.854 31.3929 137.95C31.6289 138.046 31.8309 138.186 31.9989 138.37C32.1709 138.554 32.3049 138.782 32.4009 139.054C32.5009 139.322 32.5509 139.628 32.5509 139.972ZM31.7229 139.972C31.7229 139.708 31.6949 139.484 31.6389 139.3C31.5829 139.112 31.5049 138.96 31.4049 138.844C31.3089 138.728 31.1949 138.644 31.0629 138.592C30.9309 138.54 30.7909 138.514 30.6429 138.514C30.4949 138.514 30.3549 138.54 30.2229 138.592C30.0949 138.644 29.9829 138.728 29.8869 138.844C29.7909 138.96 29.7149 139.112 29.6589 139.3C29.6069 139.484 29.5809 139.708 29.5809 139.972C29.5809 140.232 29.6069 140.452 29.6589 140.632C29.7149 140.812 29.7909 140.96 29.8869 141.076C29.9829 141.188 30.0949 141.27 30.2229 141.322C30.3549 141.37 30.4949 141.394 30.6429 141.394C30.7909 141.394 30.9309 141.37 31.0629 141.322C31.1949 141.27 31.3089 141.188 31.4049 141.076C31.5049 140.96 31.5829 140.812 31.6389 140.632C31.6949 140.452 31.7229 140.232 31.7229 139.972Z" fill="white"/>
<path d="M247.443 133.402V133.882C247.443 134.018 247.427 134.13 247.395 134.218C247.367 134.306 247.339 134.38 247.311 134.44L243.747 141.622C243.695 141.726 243.623 141.816 243.531 141.892C243.439 141.964 243.317 142 243.165 142H242.397L246.009 134.908C246.061 134.808 246.115 134.716 246.171 134.632C246.227 134.548 246.287 134.468 246.351 134.392H241.863C241.795 134.392 241.735 134.366 241.683 134.314C241.631 134.258 241.605 134.196 241.605 134.128V133.402H247.443ZM251.898 141.244C252.178 141.244 252.428 141.206 252.648 141.13C252.872 141.05 253.06 140.94 253.212 140.8C253.368 140.656 253.486 140.486 253.566 140.29C253.65 140.09 253.692 139.87 253.692 139.63C253.692 139.334 253.642 139.082 253.542 138.874C253.446 138.662 253.314 138.49 253.146 138.358C252.982 138.226 252.792 138.13 252.576 138.07C252.36 138.006 252.134 137.974 251.898 137.974C251.662 137.974 251.436 138.006 251.22 138.07C251.004 138.13 250.812 138.226 250.644 138.358C250.48 138.49 250.348 138.662 250.248 138.874C250.152 139.082 250.104 139.334 250.104 139.63C250.104 139.87 250.144 140.09 250.224 140.29C250.308 140.486 250.426 140.656 250.578 140.8C250.734 140.94 250.922 141.05 251.142 141.13C251.366 141.206 251.618 141.244 251.898 141.244ZM251.898 134.134C251.642 134.134 251.416 134.172 251.22 134.248C251.028 134.324 250.866 134.428 250.734 134.56C250.606 134.692 250.508 134.846 250.44 135.022C250.376 135.198 250.344 135.386 250.344 135.586C250.344 135.782 250.372 135.972 250.428 136.156C250.484 136.34 250.574 136.504 250.698 136.648C250.822 136.788 250.982 136.902 251.178 136.99C251.378 137.074 251.618 137.116 251.898 137.116C252.178 137.116 252.416 137.074 252.612 136.99C252.812 136.902 252.974 136.788 253.098 136.648C253.222 136.504 253.312 136.34 253.368 136.156C253.424 135.972 253.452 135.782 253.452 135.586C253.452 135.386 253.418 135.198 253.35 135.022C253.286 134.846 253.188 134.692 253.056 134.56C252.928 134.428 252.766 134.324 252.57 134.248C252.378 134.172 252.154 134.134 251.898 134.134ZM253.128 137.518C253.664 137.67 254.076 137.924 254.364 138.28C254.652 138.636 254.796 139.092 254.796 139.648C254.796 140.024 254.724 140.364 254.58 140.668C254.44 140.968 254.242 141.224 253.986 141.436C253.734 141.648 253.43 141.812 253.074 141.928C252.718 142.04 252.326 142.096 251.898 142.096C251.47 142.096 251.078 142.04 250.722 141.928C250.366 141.812 250.06 141.648 249.804 141.436C249.548 141.224 249.35 140.968 249.21 140.668C249.07 140.364 249 140.024 249 139.648C249 139.092 249.144 138.636 249.432 138.28C249.72 137.924 250.132 137.67 250.668 137.518C250.216 137.35 249.874 137.1 249.642 136.768C249.414 136.432 249.3 136.032 249.3 135.568C249.3 135.252 249.362 134.956 249.486 134.68C249.61 134.404 249.786 134.164 250.014 133.96C250.242 133.756 250.514 133.596 250.83 133.48C251.15 133.364 251.506 133.306 251.898 133.306C252.286 133.306 252.64 133.364 252.96 133.48C253.28 133.596 253.554 133.756 253.782 133.96C254.01 134.164 254.186 134.404 254.31 134.68C254.434 134.956 254.496 135.252 254.496 135.568C254.496 136.032 254.38 136.432 254.148 136.768C253.92 137.1 253.58 137.35 253.128 137.518ZM260.211 135.478C260.211 135.814 260.159 136.116 260.055 136.384C259.951 136.648 259.811 136.872 259.635 137.056C259.463 137.236 259.261 137.374 259.029 137.47C258.801 137.566 258.559 137.614 258.303 137.614C258.035 137.614 257.785 137.566 257.553 137.47C257.321 137.374 257.119 137.236 256.947 137.056C256.779 136.872 256.647 136.648 256.551 136.384C256.455 136.116 256.407 135.814 256.407 135.478C256.407 135.134 256.455 134.828 256.551 134.56C256.647 134.292 256.779 134.066 256.947 133.882C257.119 133.698 257.321 133.558 257.553 133.462C257.785 133.366 258.035 133.318 258.303 133.318C258.575 133.318 258.827 133.366 259.059 133.462C259.291 133.558 259.493 133.698 259.665 133.882C259.837 134.066 259.971 134.292 260.067 134.56C260.163 134.828 260.211 135.134 260.211 135.478ZM259.383 135.478C259.383 135.214 259.355 134.99 259.299 134.806C259.243 134.622 259.165 134.472 259.065 134.356C258.969 134.236 258.855 134.15 258.723 134.098C258.591 134.046 258.451 134.02 258.303 134.02C258.155 134.02 258.017 134.046 257.889 134.098C257.761 134.15 257.649 134.236 257.553 134.356C257.457 134.472 257.381 134.622 257.325 134.806C257.269 134.99 257.241 135.214 257.241 135.478C257.241 135.738 257.269 135.96 257.325 136.144C257.381 136.324 257.457 136.472 257.553 136.588C257.649 136.7 257.761 136.782 257.889 136.834C258.017 136.882 258.155 136.906 258.303 136.906C258.451 136.906 258.591 136.882 258.723 136.834C258.855 136.782 258.969 136.7 259.065 136.588C259.165 136.472 259.243 136.324 259.299 136.144C259.355 135.96 259.383 135.738 259.383 135.478ZM263.253 133.582C263.293 133.534 263.339 133.492 263.391 133.456C263.447 133.42 263.521 133.402 263.613 133.402H264.387L258.099 141.826C258.063 141.878 258.017 141.92 257.961 141.952C257.905 141.984 257.837 142 257.757 142H256.971L263.253 133.582ZM264.969 139.972C264.969 140.308 264.917 140.608 264.813 140.872C264.709 141.136 264.569 141.36 264.393 141.544C264.221 141.724 264.019 141.862 263.787 141.958C263.559 142.054 263.317 142.102 263.061 142.102C262.789 142.102 262.537 142.054 262.305 141.958C262.077 141.862 261.877 141.724 261.705 141.544C261.537 141.36 261.405 141.136 261.309 140.872C261.213 140.608 261.165 140.308 261.165 139.972C261.165 139.628 261.213 139.322 261.309 139.054C261.405 138.782 261.537 138.554 261.705 138.37C261.877 138.186 262.077 138.046 262.305 137.95C262.537 137.854 262.789 137.806 263.061 137.806C263.329 137.806 263.579 137.854 263.811 137.95C264.047 138.046 264.249 138.186 264.417 138.37C264.589 138.554 264.723 138.782 264.819 139.054C264.919 139.322 264.969 139.628 264.969 139.972ZM264.141 139.972C264.141 139.708 264.113 139.484 264.057 139.3C264.001 139.112 263.923 138.96 263.823 138.844C263.727 138.728 263.613 138.644 263.481 138.592C263.349 138.54 263.209 138.514 263.061 138.514C262.913 138.514 262.773 138.54 262.641 138.592C262.513 138.644 262.401 138.728 262.305 138.844C262.209 138.96 262.133 139.112 262.077 139.3C262.025 139.484 261.999 139.708 261.999 139.972C261.999 140.232 262.025 140.452 262.077 140.632C262.133 140.812 262.209 140.96 262.305 141.076C262.401 141.188 262.513 141.27 262.641 141.322C262.773 141.37 262.913 141.394 263.061 141.394C263.209 141.394 263.349 141.37 263.481 141.322C263.613 141.27 263.727 141.188 263.823 141.076C263.923 140.96 264.001 140.812 264.057 140.632C264.113 140.452 264.141 140.232 264.141 139.972Z" fill="white"/>
<g clip-path="url(#clip0_2001_2223)">
<rect x="16" y="148" width="249.5" height="4" rx="2" fill="#486581"/>
<rect x="16" y="148" width="185" height="4" rx="2" fill="#00C7F2"/>
</g>
<defs>
<clipPath id="clip0_2001_2223">
<rect width="249.5" height="4" fill="white" transform="translate(16 148)"/>
</clipPath>
</defs>
</svg>
