<svg width="298" height="168" viewBox="0 0 298 168" fill="none" xmlns="http://www.w3.org/2000/svg">
<rect width="298" height="168" rx="8" fill="#102A43"/>
<path d="M17.184 38.288C17.0027 37.584 16.8427 36.896 16.704 36.224C16.576 35.552 16.48 34.9333 16.416 34.368C16.352 33.8027 16.32 33.3387 16.32 32.976C16.32 32.3253 16.4373 31.7867 16.672 31.36C16.9067 30.9227 17.2213 30.5867 17.616 30.352C18.0107 30.1067 18.448 29.9413 18.928 29.856C19.4187 29.7707 19.92 29.744 20.432 29.776C20.9547 29.7973 21.4453 29.8613 21.904 29.968C21.936 29.6053 21.9147 29.2587 21.84 28.928C21.776 28.5867 21.664 28.288 21.504 28.032C21.3547 27.7653 21.1627 27.5573 20.928 27.408C20.6933 27.2587 20.4267 27.184 20.128 27.184C19.8613 27.184 19.6107 27.2427 19.376 27.36C19.1413 27.4773 18.9173 27.6587 18.704 27.904C18.5013 28.1387 18.304 28.432 18.112 28.784L17.12 28.24C17.3973 27.664 17.7013 27.2053 18.032 26.864C18.3733 26.5227 18.7307 26.2773 19.104 26.128C19.4773 25.968 19.8453 25.888 20.208 25.888C20.752 25.888 21.2107 26.0053 21.584 26.24C21.9573 26.464 22.2507 26.7627 22.464 27.136C22.688 27.4987 22.848 27.8933 22.944 28.32C23.0507 28.736 23.104 29.136 23.104 29.52C23.104 29.7867 23.072 30.0533 23.008 30.32C22.944 30.5867 22.864 30.8267 22.768 31.04C22.6827 31.2533 22.5973 31.4187 22.512 31.536C21.936 31.3653 21.3973 31.2427 20.896 31.168C20.3947 31.0933 19.9413 31.072 19.536 31.104C19.1413 31.1253 18.8 31.2107 18.512 31.36C18.224 31.5093 18.0053 31.7227 17.856 32C17.7067 32.2773 17.632 32.6293 17.632 33.056C17.632 33.4507 17.664 33.92 17.728 34.464C17.792 35.008 17.8827 35.5787 18 36.176C18.1173 36.784 18.256 37.3813 18.416 37.968L17.184 38.288ZM25.722 32L25.402 20.576H26.698L27.018 32H25.722ZM32.0025 30.768C32.5358 30.768 32.9572 30.7147 33.2665 30.608C33.5865 30.5013 33.8158 30.3467 33.9545 30.144C34.1038 29.9307 34.1785 29.6853 34.1785 29.408C34.1785 29.1947 34.1198 28.9387 34.0025 28.64C33.8958 28.3413 33.7465 28.0107 33.5545 27.648C33.3625 27.2747 33.1385 26.8853 32.8825 26.48C32.6372 26.064 32.3705 25.6427 32.0825 25.216L33.1865 24.496C33.6025 25.1253 33.9652 25.7227 34.2745 26.288C34.5838 26.8427 34.8452 27.3653 35.0585 27.856C35.2718 28.336 35.4425 28.7893 35.5705 29.216C35.7198 29.6853 35.8852 30.032 36.0665 30.256C36.2585 30.48 36.4558 30.624 36.6585 30.688C36.8612 30.7413 37.0478 30.768 37.2185 30.768C37.4425 30.768 37.6078 30.832 37.7145 30.96C37.8212 31.0773 37.8745 31.2213 37.8745 31.392C37.8745 31.5627 37.7998 31.7227 37.6505 31.872C37.5012 32.0107 37.3092 32.08 37.0745 32.08C36.7225 32.08 36.3758 32.016 36.0345 31.888C35.7038 31.7493 35.4158 31.5307 35.1705 31.232C34.9252 30.9227 34.7545 30.512 34.6585 30L35.2985 29.488C35.2985 29.9147 35.2078 30.3307 35.0265 30.736C34.8452 31.1307 34.5145 31.456 34.0345 31.712C33.5652 31.968 32.8878 32.096 32.0025 32.096C31.6185 32.096 31.2452 32.064 30.8825 32C30.5305 31.936 30.2052 31.8453 29.9065 31.728C29.6078 31.6 29.3465 31.4507 29.1225 31.28L29.7625 30.176C29.9758 30.3147 30.2745 30.448 30.6585 30.576C31.0425 30.704 31.4905 30.768 32.0025 30.768ZM47.7701 32.08C47.3221 32.08 46.9115 32.0533 46.5381 32C46.1648 31.936 45.8288 31.824 45.5301 31.664C45.2315 31.504 44.9808 31.2747 44.7781 30.976C44.5755 30.6667 44.4208 30.2613 44.3141 29.76L45.2581 29.2C45.3968 29.6267 45.5675 29.952 45.7701 30.176C45.9728 30.4 46.2448 30.5547 46.5861 30.64C46.9381 30.7253 47.3861 30.768 47.9301 30.768C48.1541 30.768 48.3141 30.832 48.4101 30.96C48.5168 31.0773 48.5701 31.2213 48.5701 31.392C48.5701 31.5627 48.4955 31.7227 48.3461 31.872C48.1968 32.0107 48.0048 32.08 47.7701 32.08ZM37.5781 32.08L37.7221 30.768C38.2768 30.768 38.8208 30.7253 39.3541 30.64C39.8875 30.5547 40.4101 30.432 40.9221 30.272C41.4341 30.112 41.9248 29.92 42.3941 29.696C42.8741 29.4613 43.3275 29.1947 43.7541 28.896C43.4768 28.6507 43.1568 28.4373 42.7941 28.256C42.4315 28.0747 42.0315 27.936 41.5941 27.84C41.1675 27.7333 40.7141 27.68 40.2341 27.68C40.0635 27.68 39.9035 27.6853 39.7541 27.696C39.6048 27.7067 39.4555 27.728 39.3061 27.76C39.1568 27.7813 38.9861 27.8133 38.7941 27.856L38.5381 26.64C38.8261 26.5547 39.1141 26.4907 39.4021 26.448C39.6901 26.3947 39.9675 26.368 40.2341 26.368C40.7888 26.368 41.2901 26.4373 41.7381 26.576C42.1861 26.704 42.5915 26.864 42.9541 27.056C43.3275 27.248 43.6741 27.44 43.9941 27.632C44.3248 27.824 44.6448 27.9893 44.9541 28.128C45.2635 28.256 45.5835 28.32 45.9141 28.32H46.2501L46.3621 29.472C45.9035 29.472 45.4821 29.536 45.0981 29.664C44.7141 29.792 44.3355 29.9573 43.9621 30.16C43.5995 30.352 43.2155 30.56 42.8101 30.784C42.4048 30.9973 41.9568 31.2053 41.4661 31.408C40.9755 31.6 40.4101 31.76 39.7701 31.888C39.1408 32.016 38.4101 32.08 37.5781 32.08ZM40.0901 24.72C39.8661 24.72 39.6741 24.6453 39.5141 24.496C39.3648 24.336 39.2901 24.1493 39.2901 23.936C39.2901 23.7227 39.3648 23.536 39.5141 23.376C39.6741 23.216 39.8661 23.136 40.0901 23.136C40.3035 23.136 40.4848 23.216 40.6341 23.376C40.7941 23.536 40.8741 23.7227 40.8741 23.936C40.8741 24.1493 40.7941 24.336 40.6341 24.496C40.4848 24.6453 40.3035 24.72 40.0901 24.72ZM48.2656 32.08L48.4256 30.768C48.959 30.768 49.375 30.7307 49.6736 30.656C49.9723 30.5707 50.1963 30.416 50.3456 30.192C50.5056 29.9573 50.6336 29.6213 50.7296 29.184C50.8256 28.7467 50.943 28.176 51.0816 27.472L52.3296 27.712C52.287 27.904 52.239 28.1173 52.1856 28.352C52.1323 28.5867 52.0843 28.8213 52.0416 29.056C52.0096 29.28 51.9936 29.4773 51.9936 29.648C51.9936 29.808 52.0043 29.9573 52.0256 30.096C52.047 30.2347 52.127 30.352 52.2656 30.448C52.4043 30.544 52.639 30.624 52.9696 30.688C53.3003 30.7413 53.775 30.768 54.3936 30.768C54.6176 30.768 54.7776 30.832 54.8736 30.96C54.9803 31.0773 55.0336 31.2213 55.0336 31.392C55.0336 31.5627 54.959 31.7227 54.8096 31.872C54.6603 32.0107 54.4683 32.08 54.2336 32.08C53.583 32.08 53.0656 32.048 52.6816 31.984C52.2976 31.9093 52.0043 31.8027 51.8016 31.664C51.6096 31.5253 51.471 31.3547 51.3856 31.152C51.311 30.9387 51.2523 30.6933 51.2096 30.416L51.6896 30.448C51.519 30.7893 51.3323 31.0667 51.1296 31.28C50.9376 31.4933 50.7136 31.6587 50.4576 31.776C50.2016 31.8933 49.8923 31.9733 49.5296 32.016C49.1776 32.0587 48.7563 32.08 48.2656 32.08ZM52.5376 25.824C52.3136 25.824 52.1216 25.7493 51.9616 25.6C51.8123 25.44 51.7376 25.2533 51.7376 25.04C51.7376 24.8267 51.8123 24.64 51.9616 24.48C52.1216 24.32 52.3136 24.24 52.5376 24.24C52.751 24.24 52.9323 24.32 53.0816 24.48C53.2416 24.64 53.3216 24.8267 53.3216 25.04C53.3216 25.2533 53.2416 25.44 53.0816 25.6C52.9323 25.7493 52.751 25.824 52.5376 25.824ZM50.3456 25.824C50.1216 25.824 49.9296 25.7493 49.7696 25.6C49.6203 25.44 49.5456 25.2533 49.5456 25.04C49.5456 24.8267 49.6203 24.64 49.7696 24.48C49.9296 24.32 50.1216 24.24 50.3456 24.24C50.559 24.24 50.7403 24.32 50.8896 24.48C51.0496 24.64 51.1296 24.8267 51.1296 25.04C51.1296 25.2533 51.0496 25.44 50.8896 25.6C50.7403 25.7493 50.559 25.824 50.3456 25.824ZM54.7344 32.08L54.8944 30.768C55.2357 30.768 55.513 30.7467 55.7264 30.704C55.9397 30.6507 56.1157 30.528 56.2544 30.336C56.4037 30.1333 56.5424 29.8187 56.6704 29.392C56.7984 28.9653 56.9477 28.368 57.1184 27.6L58.3184 27.936C58.2757 28.1173 58.2277 28.3253 58.1744 28.56C58.121 28.784 58.073 29.0187 58.0304 29.264C57.9877 29.4987 57.9664 29.7173 57.9664 29.92C57.9664 30.1867 58.0677 30.3947 58.2704 30.544C58.473 30.6933 58.841 30.768 59.3744 30.768C59.6944 30.768 59.9557 30.7413 60.1584 30.688C60.361 30.6347 60.5264 30.5067 60.6544 30.304C60.793 30.1013 60.9157 29.776 61.0224 29.328C61.129 28.88 61.241 28.2667 61.3584 27.488L62.5744 27.712C62.5424 27.904 62.505 28.1387 62.4624 28.416C62.4197 28.6933 62.377 28.9707 62.3344 29.248C62.3024 29.5147 62.2864 29.7387 62.2864 29.92C62.2864 30.0693 62.3184 30.2133 62.3824 30.352C62.457 30.48 62.5957 30.5813 62.7984 30.656C63.0117 30.7307 63.3264 30.768 63.7424 30.768C64.0517 30.768 64.3184 30.7307 64.5424 30.656C64.777 30.5813 64.953 30.4427 65.0704 30.24C65.1984 30.0373 65.2624 29.7547 65.2624 29.392C65.2624 28.9867 65.1664 28.48 64.9744 27.872C64.793 27.2533 64.585 26.64 64.3504 26.032L65.6464 25.552C65.785 25.8933 65.913 26.2827 66.0304 26.72C66.1584 27.1573 66.265 27.5893 66.3504 28.016C66.4357 28.4427 66.4784 28.816 66.4784 29.136C66.4784 29.6267 66.4144 30.0587 66.2864 30.432C66.1584 30.8053 65.977 31.1147 65.7424 31.36C65.5077 31.5947 65.2197 31.776 64.8784 31.904C64.537 32.0213 64.153 32.08 63.7264 32.08C63.225 32.08 62.8144 32.0213 62.4944 31.904C62.1744 31.7867 61.929 31.6107 61.7584 31.376C61.5877 31.1307 61.4757 30.8213 61.4224 30.448H61.9664C61.7637 30.9067 61.5504 31.2533 61.3264 31.488C61.1024 31.7227 60.825 31.8827 60.4944 31.968C60.1637 32.0427 59.7264 32.08 59.1824 32.08C58.9157 32.08 58.6277 32.0373 58.3184 31.952C58.0197 31.8667 57.7584 31.7013 57.5344 31.456C57.3104 31.2 57.177 30.8213 57.1344 30.32L57.6144 30.224C57.433 30.768 57.209 31.1733 56.9424 31.44C56.6864 31.696 56.377 31.8667 56.0144 31.952C55.6517 32.0373 55.225 32.08 54.7344 32.08ZM74.0693 23.424C74.0693 23.1893 74.0533 22.9067 74.0213 22.576C73.9893 22.2453 73.9519 21.9147 73.9093 21.584C73.8666 21.2533 73.8239 20.9707 73.7813 20.736L75.1573 20.576C75.1893 20.7893 75.2213 21.072 75.2533 21.424C75.2959 21.7653 75.3279 22.1067 75.3493 22.448C75.3706 22.7893 75.3813 23.072 75.3813 23.296C75.3813 23.808 75.3439 24.3093 75.2693 24.8C75.2053 25.28 75.0986 25.7547 74.9493 26.224C74.7999 26.6827 74.6026 27.1307 74.3573 27.568L74.1653 27.92C73.8666 28.4213 73.4986 28.9067 73.0613 29.376C72.6239 29.8347 72.1119 30.272 71.5253 30.688H73.5413C73.9039 30.688 74.1813 30.6453 74.3733 30.56C74.5653 30.464 74.6933 30.3413 74.7573 30.192C74.8319 30.0427 74.8693 29.8827 74.8693 29.712C74.8693 29.424 74.6933 29.0667 74.3413 28.64C73.9999 28.2027 73.5253 27.7227 72.9173 27.2C72.3093 26.6667 71.6212 26.1067 70.8533 25.52C70.0853 24.9333 69.2746 24.336 68.4213 23.728L69.1733 22.672C70.1546 23.3973 71.0186 24.0533 71.7653 24.64C72.5226 25.2267 73.1679 25.7653 73.7013 26.256C74.2453 26.736 74.6879 27.184 75.0293 27.6C75.3813 28.0053 75.6373 28.3947 75.7973 28.768C75.9679 29.1307 76.0533 29.488 76.0533 29.84C76.0533 30.0747 76.0106 30.32 75.9253 30.576C75.8506 30.8213 75.7119 31.056 75.5093 31.28C75.3173 31.4933 75.0399 31.6693 74.6773 31.808C74.3253 31.936 73.8666 32 73.3013 32H69.6213V30.704C70.7199 29.9147 71.5893 29.1467 72.2293 28.4C72.8799 27.6533 73.3493 26.8747 73.6373 26.064C73.9253 25.2533 74.0693 24.3733 74.0693 23.424ZM79.0658 32L78.7458 20.576H80.0418L80.3618 32H79.0658ZM86.98 32.016C86.98 31.76 87.0013 31.488 87.044 31.2C87.0973 30.9013 87.172 30.5867 87.268 30.256C87.3747 29.9147 87.5027 29.5573 87.652 29.184L88.804 29.632C88.6973 29.9307 88.6013 30.2133 88.516 30.48C88.4413 30.7467 88.3827 30.9973 88.34 31.232C88.308 31.4667 88.292 31.6907 88.292 31.904C88.292 32.416 88.4253 32.8587 88.692 33.232C88.9693 33.6053 89.348 33.8933 89.828 34.096C90.308 34.2987 90.868 34.4 91.508 34.4C92.2867 34.4 92.9267 34.288 93.428 34.064C93.94 33.84 94.3347 33.4987 94.612 33.04C94.9 32.5813 95.092 32 95.188 31.296C95.284 30.5813 95.316 29.744 95.284 28.784L94.98 20.576H96.308L96.58 29.12C96.6013 29.8347 96.5693 30.5227 96.484 31.184C96.4093 31.8347 96.26 32.432 96.036 32.976C95.812 33.5307 95.5027 34.0107 95.108 34.416C94.7133 34.832 94.2173 35.152 93.62 35.376C93.0227 35.6 92.3027 35.712 91.46 35.712C90.8947 35.712 90.3453 35.6373 89.812 35.488C89.2787 35.3387 88.7987 35.1147 88.372 34.816C87.9453 34.5173 87.604 34.1333 87.348 33.664C87.1027 33.2053 86.98 32.656 86.98 32.016ZM101.565 30.768C102.098 30.768 102.52 30.7147 102.829 30.608C103.149 30.5013 103.378 30.3467 103.517 30.144C103.666 29.9307 103.741 29.6853 103.741 29.408C103.741 29.1947 103.682 28.9387 103.565 28.64C103.458 28.3413 103.309 28.0107 103.117 27.648C102.925 27.2747 102.701 26.8853 102.445 26.48C102.2 26.064 101.933 25.6427 101.645 25.216L102.749 24.496C103.165 25.1253 103.528 25.7227 103.837 26.288C104.146 26.8427 104.408 27.3653 104.621 27.856C104.834 28.336 105.005 28.7893 105.133 29.216C105.282 29.6853 105.448 30.032 105.629 30.256C105.821 30.48 106.018 30.624 106.221 30.688C106.424 30.7413 106.61 30.768 106.781 30.768C107.005 30.768 107.17 30.832 107.277 30.96C107.384 31.0773 107.437 31.2213 107.437 31.392C107.437 31.5627 107.362 31.7227 107.213 31.872C107.064 32.0107 106.872 32.08 106.637 32.08C106.285 32.08 105.938 32.016 105.597 31.888C105.266 31.7493 104.978 31.5307 104.733 31.232C104.488 30.9227 104.317 30.512 104.221 30L104.861 29.488C104.861 29.9147 104.77 30.3307 104.589 30.736C104.408 31.1307 104.077 31.456 103.597 31.712C103.128 31.968 102.45 32.096 101.565 32.096C101.181 32.096 100.808 32.064 100.445 32C100.093 31.936 99.7677 31.8453 99.469 31.728C99.1703 31.6 98.909 31.4507 98.685 31.28L99.325 30.176C99.5383 30.3147 99.837 30.448 100.221 30.576C100.605 30.704 101.053 30.768 101.565 30.768ZM107.141 32.08L107.301 30.768C107.941 30.768 108.543 30.7093 109.109 30.592C109.674 30.464 110.191 30.2987 110.661 30.096C111.141 29.8827 111.551 29.6427 111.893 29.376C112.234 29.0987 112.495 28.816 112.677 28.528C112.869 28.2293 112.965 27.936 112.965 27.648C112.965 27.5093 112.917 27.3707 112.821 27.232C112.725 27.0827 112.559 26.96 112.325 26.864C112.101 26.768 111.797 26.72 111.413 26.72C111.178 26.72 110.917 26.752 110.629 26.816C110.341 26.88 110.063 26.9707 109.797 27.088C109.541 27.1947 109.327 27.3173 109.157 27.456C109.445 27.6907 109.711 27.92 109.957 28.144C110.213 28.368 110.474 28.6133 110.741 28.88C111.007 29.136 111.295 29.4293 111.605 29.76C111.85 29.9413 112.122 30.096 112.421 30.224C112.73 30.352 113.061 30.4587 113.413 30.544C113.775 30.6187 114.143 30.6773 114.517 30.72C114.89 30.752 115.263 30.768 115.637 30.768C115.861 30.768 116.021 30.832 116.117 30.96C116.223 31.0773 116.277 31.2213 116.277 31.392C116.277 31.5627 116.202 31.7227 116.053 31.872C115.903 32.0107 115.711 32.08 115.477 32.08C114.89 32.08 114.287 32.0267 113.669 31.92C113.061 31.8027 112.49 31.632 111.957 31.408C111.423 31.1733 110.97 30.88 110.597 30.528C110.415 30.2933 110.213 30.0587 109.989 29.824C109.765 29.5893 109.519 29.3547 109.253 29.12C108.997 28.8747 108.719 28.6453 108.421 28.432C108.357 28.3787 108.293 28.2827 108.229 28.144C108.165 28.0053 108.111 27.8613 108.069 27.712C108.026 27.5627 108.005 27.4507 108.005 27.376C108.005 27.216 108.106 27.024 108.309 26.8C108.511 26.576 108.783 26.3627 109.125 26.16C109.466 25.9467 109.855 25.7707 110.293 25.632C110.73 25.4933 111.183 25.424 111.653 25.424C112.261 25.424 112.751 25.5147 113.125 25.696C113.509 25.8773 113.786 26.112 113.957 26.4C114.138 26.6773 114.229 26.976 114.229 27.296C114.229 27.7653 114.111 28.2347 113.877 28.704C113.642 29.1627 113.306 29.5947 112.869 30C112.431 30.4053 111.919 30.768 111.333 31.088C110.746 31.3973 110.095 31.6427 109.381 31.824C108.677 31.9947 107.93 32.08 107.141 32.08ZM115.984 32.08L116.144 30.768C116.443 30.768 116.694 30.704 116.896 30.576C117.099 30.448 117.296 30.2347 117.488 29.936C117.68 29.6373 117.888 29.2373 118.112 28.736C118.422 28.0533 118.726 27.536 119.024 27.184C119.334 26.832 119.638 26.592 119.936 26.464C120.246 26.336 120.55 26.272 120.848 26.272C121.211 26.272 121.547 26.368 121.856 26.56C122.166 26.7413 122.438 26.9867 122.672 27.296C122.907 27.6053 123.088 27.9467 123.216 28.32C123.355 28.6827 123.424 29.0453 123.424 29.408C123.424 30.048 123.312 30.56 123.088 30.944C122.864 31.3173 122.576 31.5893 122.224 31.76C121.883 31.92 121.526 32 121.152 32C120.822 32 120.395 31.936 119.872 31.808C119.36 31.68 118.71 31.3547 117.92 30.832L118.544 29.824C119.067 30.1547 119.536 30.384 119.952 30.512C120.379 30.6293 120.731 30.688 121.008 30.688C121.318 30.688 121.563 30.6453 121.744 30.56C121.926 30.464 122.059 30.3307 122.144 30.16C122.23 29.9893 122.272 29.7973 122.272 29.584C122.272 29.2747 122.198 28.9653 122.048 28.656C121.899 28.3467 121.707 28.0907 121.472 27.888C121.248 27.6853 121.008 27.584 120.752 27.584C120.56 27.584 120.374 27.6373 120.192 27.744C120.011 27.8507 119.824 28.048 119.632 28.336C119.44 28.624 119.222 29.04 118.976 29.584C118.72 30.16 118.475 30.6187 118.24 30.96C118.016 31.2907 117.787 31.536 117.552 31.696C117.318 31.856 117.072 31.9573 116.816 32C116.571 32.0533 116.294 32.08 115.984 32.08Z" fill="#B8C0CC"/>
<path d="M23.54 82.166C23.9907 82.166 24.3807 82.0967 24.71 81.958C25.0393 81.8193 25.308 81.633 25.516 81.399C25.7327 81.1563 25.8887 80.8747 25.984 80.554C26.088 80.2247 26.14 79.8737 26.14 79.501C26.14 79.0937 26.0967 78.721 26.01 78.383C25.9233 78.045 25.7803 77.759 25.581 77.525C25.3817 77.2823 25.113 77.096 24.775 76.966C24.4457 76.8273 24.034 76.758 23.54 76.758C23.046 76.758 22.63 76.8273 22.292 76.966C21.9627 77.096 21.6983 77.2823 21.499 77.525C21.2997 77.759 21.1567 78.045 21.07 78.383C20.9833 78.721 20.94 79.0937 20.94 79.501C20.94 79.8737 20.9877 80.2247 21.083 80.554C21.187 80.8747 21.343 81.1563 21.551 81.399C21.7677 81.633 22.0363 81.8193 22.357 81.958C22.6863 82.0967 23.0807 82.166 23.54 82.166ZM23.54 68.789C23.1327 68.789 22.7903 68.854 22.513 68.984C22.2357 69.114 22.006 69.2873 21.824 69.504C21.6507 69.712 21.525 69.9547 21.447 70.232C21.369 70.5093 21.33 70.7953 21.33 71.09C21.33 71.4193 21.3603 71.74 21.421 72.052C21.4817 72.364 21.5943 72.6413 21.759 72.884C21.9237 73.1267 22.149 73.3217 22.435 73.469C22.721 73.6163 23.0893 73.69 23.54 73.69C23.9907 73.69 24.359 73.6163 24.645 73.469C24.931 73.3217 25.1563 73.1267 25.321 72.884C25.4857 72.6413 25.5983 72.364 25.659 72.052C25.7197 71.74 25.75 71.4193 25.75 71.09C25.75 70.7953 25.711 70.5093 25.633 70.232C25.555 69.9547 25.425 69.712 25.243 69.504C25.0697 69.2873 24.84 69.114 24.554 68.984C24.2767 68.854 23.9387 68.789 23.54 68.789ZM27.115 75.12C27.6783 75.3193 28.1593 75.5663 28.558 75.861C28.9653 76.1557 29.2947 76.4937 29.546 76.875C29.806 77.2563 29.9967 77.6767 30.118 78.136C30.2393 78.5867 30.3 79.0677 30.3 79.579C30.3 80.4283 30.1353 81.1997 29.806 81.893C29.4853 82.5863 29.026 83.18 28.428 83.674C27.8387 84.1593 27.128 84.5363 26.296 84.805C25.464 85.0737 24.5453 85.208 23.54 85.208C22.5347 85.208 21.616 85.0737 20.784 84.805C19.952 84.5363 19.237 84.1593 18.639 83.674C18.0497 83.18 17.5903 82.5863 17.261 81.893C16.9403 81.1997 16.78 80.4283 16.78 79.579C16.78 79.0677 16.8407 78.5867 16.962 78.136C17.0833 77.6767 17.2697 77.2563 17.521 76.875C17.781 76.4937 18.1103 76.1557 18.509 75.861C18.9163 75.5663 19.4017 75.3193 19.965 75.12C19.107 74.73 18.4657 74.1927 18.041 73.508C17.6163 72.8147 17.404 71.9827 17.404 71.012C17.404 70.2753 17.5557 69.595 17.859 68.971C18.1623 68.3383 18.587 67.7923 19.133 67.333C19.679 66.8737 20.3247 66.514 21.07 66.254C21.824 65.9853 22.6473 65.851 23.54 65.851C24.4327 65.851 25.2517 65.9853 25.997 66.254C26.751 66.514 27.401 66.8737 27.947 67.333C28.493 67.7923 28.9177 68.3383 29.221 68.971C29.5243 69.595 29.676 70.2753 29.676 71.012C29.676 71.9827 29.4637 72.8147 29.039 73.508C28.6143 74.1927 27.973 74.73 27.115 75.12ZM36.431 71.844C36.431 73.7333 37.3064 74.678 39.057 74.678C39.915 74.678 40.5737 74.4223 41.033 73.911C41.501 73.391 41.735 72.702 41.735 71.844C41.735 71.3847 41.6657 70.9817 41.527 70.635C41.397 70.2797 41.2107 69.985 40.968 69.751C40.734 69.517 40.448 69.3393 40.11 69.218C39.772 69.0967 39.4037 69.036 39.005 69.036C38.5977 69.036 38.2337 69.1097 37.913 69.257C37.601 69.3957 37.3324 69.5907 37.107 69.842C36.8904 70.0933 36.7214 70.3923 36.6 70.739C36.4874 71.077 36.431 71.4453 36.431 71.844ZM39.655 77.824C39.7764 77.6767 39.8934 77.5337 40.006 77.395C40.1187 77.2563 40.2227 77.1177 40.318 76.979C39.5207 77.4037 38.615 77.616 37.601 77.616C36.9857 77.616 36.3704 77.5077 35.755 77.291C35.1397 77.0657 34.5807 76.7277 34.078 76.277C33.584 75.8263 33.181 75.2587 32.869 74.574C32.557 73.8893 32.401 73.079 32.401 72.143C32.401 71.285 32.557 70.4747 32.869 69.712C33.1897 68.9493 33.6404 68.282 34.221 67.71C34.8104 67.138 35.5124 66.6873 36.327 66.358C37.1417 66.02 38.0517 65.851 39.057 65.851C40.0797 65.851 40.994 66.007 41.8 66.319C42.606 66.631 43.2864 67.0687 43.841 67.632C44.4044 68.1953 44.8334 68.867 45.128 69.647C45.4314 70.4183 45.583 71.272 45.583 72.208C45.583 73.4473 45.3967 74.5567 45.024 75.536C44.6514 76.5153 44.153 77.4383 43.529 78.305L39.447 84.103C39.265 84.3543 38.9877 84.5667 38.615 84.74C38.251 84.9133 37.835 85 37.367 85H33.649L39.655 77.824ZM57.1221 70.648C57.1221 71.3413 56.9964 71.974 56.7451 72.546C56.4937 73.118 56.1601 73.612 55.7441 74.028C55.3281 74.4353 54.8427 74.7517 54.2881 74.977C53.7421 75.2023 53.1701 75.315 52.5721 75.315C51.9134 75.315 51.3067 75.2023 50.7521 74.977C50.2061 74.7517 49.7294 74.4353 49.3221 74.028C48.9234 73.612 48.6114 73.118 48.3861 72.546C48.1607 71.974 48.0481 71.3413 48.0481 70.648C48.0481 69.9287 48.1607 69.2787 48.3861 68.698C48.6114 68.1087 48.9234 67.606 49.3221 67.19C49.7294 66.774 50.2061 66.4533 50.7521 66.228C51.3067 65.994 51.9134 65.877 52.5721 65.877C53.2307 65.877 53.8374 65.994 54.3921 66.228C54.9554 66.4533 55.4364 66.774 55.8351 67.19C56.2424 67.606 56.5587 68.1087 56.7841 68.698C57.0094 69.2787 57.1221 69.9287 57.1221 70.648ZM54.0281 70.648C54.0281 70.206 53.9891 69.842 53.9111 69.556C53.8417 69.2613 53.7421 69.0273 53.6121 68.854C53.4821 68.6807 53.3261 68.5593 53.1441 68.49C52.9707 68.4207 52.7801 68.386 52.5721 68.386C52.3641 68.386 52.1734 68.4207 52.0001 68.49C51.8267 68.5593 51.6794 68.6807 51.5581 68.854C51.4367 69.0273 51.3414 69.2613 51.2721 69.556C51.2027 69.842 51.1681 70.206 51.1681 70.648C51.1681 71.064 51.2027 71.4107 51.2721 71.688C51.3414 71.9653 51.4367 72.1863 51.5581 72.351C51.6794 72.5157 51.8267 72.6327 52.0001 72.702C52.1734 72.7713 52.3641 72.806 52.5721 72.806C52.7801 72.806 52.9707 72.7713 53.1441 72.702C53.3261 72.6327 53.4821 72.5157 53.6121 72.351C53.7421 72.1863 53.8417 71.9653 53.9111 71.688C53.9891 71.4107 54.0281 71.064 54.0281 70.648ZM63.0761 66.657C63.2061 66.5097 63.3664 66.3753 63.5571 66.254C63.7477 66.124 64.0121 66.059 64.3501 66.059H67.2881L53.0141 84.428C52.8841 84.5927 52.7194 84.7313 52.5201 84.844C52.3294 84.948 52.0954 85 51.8181 85H48.8021L63.0761 66.657ZM68.0161 80.554C68.0161 81.2473 67.8904 81.8843 67.6391 82.465C67.3877 83.037 67.0541 83.531 66.6381 83.947C66.2221 84.3543 65.7367 84.6707 65.1821 84.896C64.6361 85.1213 64.0641 85.234 63.4661 85.234C62.8074 85.234 62.2007 85.1213 61.6461 84.896C61.1001 84.6707 60.6234 84.3543 60.2161 83.947C59.8174 83.531 59.5054 83.037 59.2801 82.465C59.0547 81.8843 58.9421 81.2473 58.9421 80.554C58.9421 79.8347 59.0547 79.1847 59.2801 78.604C59.5054 78.0147 59.8174 77.512 60.2161 77.096C60.6234 76.68 61.1001 76.3593 61.6461 76.134C62.2007 75.9 62.8074 75.783 63.4661 75.783C64.1247 75.783 64.7314 75.9 65.2861 76.134C65.8494 76.3593 66.3304 76.68 66.7291 77.096C67.1364 77.512 67.4527 78.0147 67.6781 78.604C67.9034 79.1847 68.0161 79.8347 68.0161 80.554ZM64.9221 80.554C64.9221 80.1207 64.8831 79.761 64.8051 79.475C64.7357 79.1803 64.6361 78.9463 64.5061 78.773C64.3761 78.5997 64.2201 78.4783 64.0381 78.409C63.8647 78.3397 63.6741 78.305 63.4661 78.305C63.2581 78.305 63.0674 78.3397 62.8941 78.409C62.7207 78.4783 62.5734 78.5997 62.4521 78.773C62.3307 78.9463 62.2354 79.1803 62.1661 79.475C62.0967 79.761 62.0621 80.1207 62.0621 80.554C62.0621 80.97 62.0967 81.3167 62.1661 81.594C62.2354 81.8713 62.3307 82.0923 62.4521 82.257C62.5734 82.4217 62.7207 82.5387 62.8941 82.608C63.0674 82.6773 63.2581 82.712 63.4661 82.712C63.6741 82.712 63.8647 82.6773 64.0381 82.608C64.2201 82.5387 64.3761 82.4217 64.5061 82.257C64.6361 82.0923 64.7357 81.8713 64.8051 81.594C64.8831 81.3167 64.9221 80.97 64.9221 80.554Z" fill="white"/>
<rect x="81" y="66.5" width="46" height="16" rx="4" fill="#0F3E28"/>
<path d="M86.2584 76.76H89.2284L87.7484 73.79L86.2584 76.76ZM98.2389 77.755V78.5H94.3589V77.755H95.8789V73.05C95.8789 72.9 95.8839 72.745 95.8939 72.585L94.6739 73.62C94.6272 73.6567 94.5806 73.68 94.5339 73.69C94.4872 73.7 94.4422 73.7017 94.3989 73.695C94.3589 73.6883 94.3222 73.675 94.2889 73.655C94.2589 73.6317 94.2339 73.6083 94.2139 73.585L93.9089 73.16L96.0589 71.305H96.8539V77.755H98.2389ZM99.9197 77.88C99.9197 77.7833 99.9364 77.6933 99.9697 77.61C100.006 77.5233 100.055 77.4483 100.115 77.385C100.178 77.3217 100.251 77.2717 100.335 77.235C100.421 77.1983 100.513 77.18 100.61 77.18C100.706 77.18 100.796 77.1983 100.88 77.235C100.966 77.2717 101.041 77.3217 101.105 77.385C101.168 77.4483 101.218 77.5233 101.255 77.61C101.291 77.6933 101.31 77.7833 101.31 77.88C101.31 77.98 101.291 78.0717 101.255 78.155C101.218 78.2383 101.168 78.3117 101.105 78.375C101.041 78.4383 100.966 78.4867 100.88 78.52C100.796 78.5567 100.706 78.575 100.61 78.575C100.513 78.575 100.421 78.5567 100.335 78.52C100.251 78.4867 100.178 78.4383 100.115 78.375C100.055 78.3117 100.006 78.2383 99.9697 78.155C99.9364 78.0717 99.9197 77.98 99.9197 77.88ZM107.818 74.9C107.818 75.53 107.75 76.075 107.613 76.535C107.48 76.995 107.295 77.3767 107.058 77.68C106.821 77.9833 106.543 78.2083 106.223 78.355C105.903 78.5017 105.558 78.575 105.188 78.575C104.818 78.575 104.473 78.5017 104.153 78.355C103.833 78.2083 103.555 77.9833 103.318 77.68C103.085 77.3767 102.901 76.995 102.768 76.535C102.635 76.075 102.568 75.53 102.568 74.9C102.568 74.27 102.635 73.725 102.768 73.265C102.901 72.8017 103.085 72.42 103.318 72.12C103.555 71.8167 103.833 71.5917 104.153 71.445C104.473 71.295 104.818 71.22 105.188 71.22C105.558 71.22 105.903 71.295 106.223 71.445C106.543 71.5917 106.821 71.8167 107.058 72.12C107.295 72.42 107.48 72.8017 107.613 73.265C107.75 73.725 107.818 74.27 107.818 74.9ZM106.708 74.9C106.708 74.3667 106.665 73.9233 106.578 73.57C106.495 73.2133 106.383 72.9283 106.243 72.715C106.103 72.5017 105.941 72.35 105.758 72.26C105.575 72.17 105.385 72.125 105.188 72.125C104.988 72.125 104.796 72.17 104.613 72.26C104.433 72.35 104.273 72.5017 104.133 72.715C103.993 72.9283 103.881 73.2133 103.798 73.57C103.715 73.9233 103.673 74.3667 103.673 74.9C103.673 75.4333 103.715 75.8783 103.798 76.235C103.881 76.5883 103.993 76.8717 104.133 77.085C104.273 77.2983 104.433 77.45 104.613 77.54C104.796 77.63 104.988 77.675 105.188 77.675C105.385 77.675 105.575 77.63 105.758 77.54C105.941 77.45 106.103 77.2983 106.243 77.085C106.383 76.8717 106.495 76.5883 106.578 76.235C106.665 75.8783 106.708 75.4333 106.708 74.9ZM110.134 73.44C110.134 73.8667 110.247 74.195 110.474 74.425C110.704 74.6517 111.024 74.765 111.434 74.765C111.654 74.765 111.847 74.73 112.014 74.66C112.184 74.59 112.327 74.4967 112.444 74.38C112.56 74.26 112.649 74.1217 112.709 73.965C112.769 73.805 112.799 73.635 112.799 73.455C112.799 73.245 112.765 73.0583 112.699 72.895C112.635 72.7283 112.544 72.5867 112.424 72.47C112.307 72.3533 112.167 72.265 112.004 72.205C111.84 72.1417 111.662 72.11 111.469 72.11C111.265 72.11 111.082 72.1433 110.919 72.21C110.755 72.2767 110.615 72.37 110.499 72.49C110.382 72.6067 110.292 72.7467 110.229 72.91C110.165 73.07 110.134 73.2467 110.134 73.44ZM111.979 75.675C112.045 75.5917 112.107 75.5133 112.164 75.44C112.22 75.3633 112.274 75.2867 112.324 75.21C112.15 75.3333 111.957 75.4283 111.744 75.495C111.53 75.5583 111.304 75.59 111.064 75.59C110.804 75.59 110.554 75.5467 110.314 75.46C110.074 75.37 109.86 75.2383 109.674 75.065C109.487 74.8883 109.337 74.6717 109.224 74.415C109.114 74.155 109.059 73.8567 109.059 73.52C109.059 73.2033 109.117 72.905 109.234 72.625C109.354 72.345 109.52 72.1017 109.734 71.895C109.947 71.685 110.202 71.52 110.499 71.4C110.795 71.28 111.124 71.22 111.484 71.22C111.84 71.22 112.164 71.2783 112.454 71.395C112.744 71.5083 112.99 71.67 113.194 71.88C113.397 72.0867 113.554 72.335 113.664 72.625C113.774 72.9117 113.829 73.2283 113.829 73.575C113.829 73.7917 113.809 73.9967 113.769 74.19C113.732 74.3833 113.677 74.5717 113.604 74.755C113.534 74.935 113.447 75.1133 113.344 75.29C113.244 75.4633 113.13 75.64 113.004 75.82L111.309 78.25C111.259 78.3233 111.184 78.3833 111.084 78.43C110.987 78.4767 110.877 78.5 110.754 78.5H109.769L111.979 75.675ZM118.565 73.04C118.565 73.3167 118.52 73.565 118.43 73.785C118.343 74.005 118.225 74.1933 118.075 74.35C117.925 74.5033 117.751 74.6217 117.555 74.705C117.358 74.785 117.151 74.825 116.935 74.825C116.701 74.825 116.485 74.785 116.285 74.705C116.088 74.6217 115.916 74.5033 115.77 74.35C115.626 74.1933 115.513 74.005 115.43 73.785C115.346 73.565 115.305 73.3167 115.305 73.04C115.305 72.7567 115.346 72.5033 115.43 72.28C115.513 72.0533 115.626 71.8633 115.77 71.71C115.916 71.5533 116.088 71.4333 116.285 71.35C116.485 71.2667 116.701 71.225 116.935 71.225C117.168 71.225 117.383 71.2667 117.58 71.35C117.78 71.4333 117.951 71.5533 118.095 71.71C118.241 71.8633 118.356 72.0533 118.44 72.28C118.523 72.5033 118.565 72.7567 118.565 73.04ZM117.735 73.04C117.735 72.8367 117.713 72.665 117.67 72.525C117.63 72.3817 117.573 72.2667 117.5 72.18C117.43 72.09 117.345 72.0267 117.245 71.99C117.148 71.95 117.045 71.93 116.935 71.93C116.821 71.93 116.716 71.95 116.62 71.99C116.523 72.0267 116.44 72.09 116.37 72.18C116.3 72.2667 116.245 72.3817 116.205 72.525C116.165 72.665 116.145 72.8367 116.145 73.04C116.145 73.24 116.165 73.4083 116.205 73.545C116.245 73.6817 116.3 73.7933 116.37 73.88C116.44 73.9633 116.523 74.0233 116.62 74.06C116.716 74.0967 116.821 74.115 116.935 74.115C117.045 74.115 117.148 74.0967 117.245 74.06C117.345 74.0233 117.43 73.9633 117.5 73.88C117.573 73.7933 117.63 73.6817 117.67 73.545C117.713 73.4083 117.735 73.24 117.735 73.04ZM121.035 71.475C121.071 71.4283 121.115 71.3883 121.165 71.355C121.218 71.3183 121.291 71.3 121.385 71.3H122.16L116.855 78.335C116.818 78.3817 116.773 78.4217 116.72 78.455C116.666 78.485 116.601 78.5 116.525 78.5H115.725L121.035 71.475ZM122.595 76.805C122.595 77.0817 122.55 77.33 122.46 77.55C122.37 77.77 122.25 77.9567 122.1 78.11C121.95 78.2633 121.776 78.3817 121.58 78.465C121.383 78.545 121.176 78.585 120.96 78.585C120.726 78.585 120.51 78.545 120.31 78.465C120.113 78.3817 119.941 78.2633 119.795 78.11C119.651 77.9567 119.538 77.77 119.455 77.55C119.375 77.33 119.335 77.0817 119.335 76.805C119.335 76.5217 119.375 76.2683 119.455 76.045C119.538 75.8183 119.651 75.6267 119.795 75.47C119.941 75.3133 120.113 75.195 120.31 75.115C120.51 75.0317 120.726 74.99 120.96 74.99C121.193 74.99 121.41 75.0317 121.61 75.115C121.81 75.195 121.981 75.3133 122.125 75.47C122.271 75.6267 122.386 75.8183 122.47 76.045C122.553 76.2683 122.595 76.5217 122.595 76.805ZM121.765 76.805C121.765 76.6017 121.743 76.43 121.7 76.29C121.66 76.1467 121.603 76.0317 121.53 75.945C121.456 75.855 121.37 75.7917 121.27 75.755C121.173 75.715 121.07 75.695 120.96 75.695C120.85 75.695 120.746 75.715 120.65 75.755C120.553 75.7917 120.468 75.855 120.395 75.945C120.325 76.0317 120.27 76.1467 120.23 76.29C120.19 76.43 120.17 76.6017 120.17 76.805C120.17 77.005 120.19 77.1733 120.23 77.31C120.27 77.4467 120.325 77.5583 120.395 77.645C120.468 77.7283 120.553 77.7883 120.65 77.825C120.746 77.8617 120.85 77.88 120.96 77.88C121.07 77.88 121.173 77.8617 121.27 77.825C121.37 77.7883 121.456 77.7283 121.53 77.645C121.603 77.5583 121.66 77.4467 121.7 77.31C121.743 77.1733 121.765 77.005 121.765 76.805Z" fill="#0BFF96"/>
<rect x="250" y="16" width="32" height="32" rx="8" fill="#015B0A"/>
<path d="M262 37.3333V33.3333" stroke="#40FF53" stroke-width="2" stroke-linecap="round" stroke-linejoin="round"/>
<path d="M270 37.3334V30.6667" stroke="#40FF53" stroke-width="2" stroke-linecap="round" stroke-linejoin="round"/>
<path d="M266 37.3334V26.6667" stroke="#40FF53" stroke-width="2" stroke-linecap="round" stroke-linejoin="round"/>
<path d="M16.42 108.014C16.42 107.79 16.4387 107.552 16.476 107.3C16.5227 107.039 16.588 106.763 16.672 106.474C16.7653 106.175 16.8773 105.863 17.008 105.536L18.016 105.928C17.9227 106.189 17.8387 106.437 17.764 106.67C17.6987 106.903 17.6473 107.123 17.61 107.328C17.582 107.533 17.568 107.729 17.568 107.916C17.568 108.308 17.652 108.639 17.82 108.91C17.9973 109.19 18.24 109.419 18.548 109.596C18.856 109.773 19.206 109.904 19.598 109.988C19.9993 110.072 20.424 110.114 20.872 110.114C21.4133 110.114 21.9173 110.067 22.384 109.974C22.86 109.881 23.2753 109.745 23.63 109.568C23.994 109.4 24.2787 109.204 24.484 108.98C24.6893 108.765 24.792 108.532 24.792 108.28C24.792 108.159 24.7453 108.047 24.652 107.944C24.5587 107.841 24.4187 107.743 24.232 107.65C24.0453 107.557 23.8213 107.468 23.56 107.384C23.2987 107.291 23 107.197 22.664 107.104L22.93 105.942C23.4153 106.129 23.8447 106.287 24.218 106.418C24.5913 106.539 24.918 106.637 25.198 106.712C25.478 106.787 25.7207 106.843 25.926 106.88C26.1313 106.908 26.304 106.922 26.444 106.922C26.64 106.922 26.78 106.978 26.864 107.09C26.9573 107.193 27.004 107.319 27.004 107.468C27.004 107.617 26.9387 107.757 26.808 107.888C26.6773 108.009 26.5093 108.07 26.304 108.07C26.248 108.07 26.192 108.07 26.136 108.07C26.08 108.07 26.0193 108.07 25.954 108.07C25.898 108.07 25.842 108.07 25.786 108.07C25.8047 108.154 25.8187 108.219 25.828 108.266C25.8373 108.322 25.842 108.392 25.842 108.476C25.842 108.821 25.7207 109.157 25.478 109.484C25.2447 109.811 24.8993 110.105 24.442 110.366C23.9847 110.637 23.4293 110.851 22.776 111.01C22.132 111.169 21.3947 111.248 20.564 111.248C19.8267 111.248 19.1407 111.127 18.506 110.884C17.8807 110.651 17.3767 110.296 16.994 109.82C16.6113 109.344 16.42 108.742 16.42 108.014ZM21.572 113.894C21.376 113.894 21.208 113.824 21.068 113.684C20.9373 113.553 20.872 113.395 20.872 113.208C20.872 113.021 20.9373 112.858 21.068 112.718C21.208 112.578 21.376 112.508 21.572 112.508C21.7587 112.508 21.9173 112.578 22.048 112.718C22.188 112.858 22.258 113.021 22.258 113.208C22.258 113.395 22.188 113.553 22.048 113.684C21.9173 113.824 21.7587 113.894 21.572 113.894ZM19.654 113.894C19.458 113.894 19.29 113.824 19.15 113.684C19.0193 113.553 18.954 113.395 18.954 113.208C18.954 113.021 19.0193 112.858 19.15 112.718C19.29 112.578 19.458 112.508 19.654 112.508C19.8407 112.508 19.9993 112.578 20.13 112.718C20.27 112.858 20.34 113.021 20.34 113.208C20.34 113.395 20.27 113.553 20.13 113.684C19.9993 113.824 19.8407 113.894 19.654 113.894ZM33.5846 108.252C32.7633 108.252 32.0726 108.219 31.5126 108.154C30.9619 108.098 30.5139 108.009 30.1686 107.888C29.8233 107.767 29.5619 107.613 29.3846 107.426C29.2073 107.239 29.0859 107.015 29.0206 106.754L29.3426 106.642C29.1093 107.09 28.8573 107.417 28.5866 107.622C28.3159 107.818 28.0313 107.944 27.7326 108C27.4433 108.047 27.1353 108.07 26.8086 108.07L26.9486 106.922C27.2753 106.922 27.5413 106.875 27.7466 106.782C27.9613 106.689 28.1339 106.535 28.2646 106.32C28.4046 106.105 28.5259 105.821 28.6286 105.466C28.7313 105.111 28.8433 104.673 28.9646 104.15L29.9866 104.416C29.9306 104.631 29.8793 104.836 29.8326 105.032C29.7859 105.228 29.7486 105.401 29.7206 105.55C29.7019 105.69 29.6926 105.802 29.6926 105.886C29.6926 106.11 29.7439 106.301 29.8466 106.46C29.9493 106.609 30.1453 106.735 30.4346 106.838C30.7239 106.931 31.1393 107.001 31.6806 107.048C32.2313 107.085 32.9499 107.104 33.8366 107.104C34.4526 107.104 35.0033 107.067 35.4886 106.992C35.9739 106.917 36.3799 106.805 36.7066 106.656C37.0426 106.497 37.2993 106.306 37.4766 106.082C37.6539 105.858 37.7426 105.601 37.7426 105.312C37.7426 105.107 37.6913 104.906 37.5886 104.71C37.4859 104.505 37.3273 104.332 37.1126 104.192C36.8979 104.052 36.6133 103.982 36.2586 103.982C35.8106 103.982 35.3626 104.099 34.9146 104.332C34.4759 104.565 34.0559 104.859 33.6546 105.214C33.2626 105.559 32.9126 105.914 32.6046 106.278C32.2966 106.642 32.0493 106.959 31.8626 107.23L30.6446 107.188C30.9433 106.703 31.2979 106.208 31.7086 105.704C32.1286 105.191 32.5859 104.719 33.0806 104.29C33.5846 103.851 34.1119 103.501 34.6626 103.24C35.2133 102.969 35.7733 102.834 36.3426 102.834C36.8559 102.834 37.2946 102.941 37.6586 103.156C38.0319 103.361 38.3166 103.641 38.5126 103.996C38.7179 104.351 38.8206 104.752 38.8206 105.2C38.8206 105.751 38.6573 106.259 38.3306 106.726C38.0133 107.183 37.4719 107.552 36.7066 107.832C35.9413 108.112 34.9006 108.252 33.5846 108.252ZM35.9366 101.392C35.7406 101.392 35.5726 101.327 35.4326 101.196C35.3019 101.056 35.2366 100.893 35.2366 100.706C35.2366 100.519 35.3019 100.356 35.4326 100.216C35.5726 100.076 35.7406 100.006 35.9366 100.006C36.1233 100.006 36.2819 100.076 36.4126 100.216C36.5526 100.356 36.6226 100.519 36.6226 100.706C36.6226 100.893 36.5526 101.056 36.4126 101.196C36.2819 101.327 36.1233 101.392 35.9366 101.392ZM44.0291 108.07C43.2824 108.07 42.7084 107.986 42.3071 107.818C41.9151 107.65 41.6444 107.389 41.4951 107.034C41.3457 106.679 41.2617 106.222 41.2431 105.662L40.9631 98.004H42.1111L42.3911 105.214C42.4097 105.671 42.4517 106.026 42.5171 106.278C42.5917 106.521 42.7504 106.689 42.9931 106.782C43.2451 106.875 43.6371 106.922 44.1691 106.922C44.3651 106.922 44.5051 106.978 44.5891 107.09C44.6824 107.193 44.7291 107.319 44.7291 107.468C44.7291 107.617 44.6637 107.757 44.5331 107.888C44.4024 108.009 44.2344 108.07 44.0291 108.07ZM44.5293 108.07L44.6693 106.922C44.9306 106.922 45.136 106.866 45.2853 106.754C45.444 106.642 45.5933 106.455 45.7333 106.194C45.8826 105.933 46.0693 105.583 46.2933 105.144C46.5173 104.696 46.7413 104.332 46.9653 104.052C47.1986 103.763 47.4226 103.539 47.6373 103.38C47.8613 103.212 48.0713 103.095 48.2673 103.03C48.4633 102.965 48.6453 102.932 48.8133 102.932C49.1213 102.932 49.3966 103.002 49.6393 103.142C49.882 103.273 50.1106 103.501 50.3253 103.828C50.54 104.145 50.7593 104.584 50.9833 105.144C51.198 105.657 51.3893 106.045 51.5573 106.306C51.7346 106.558 51.9166 106.726 52.1033 106.81C52.2993 106.885 52.5186 106.922 52.7613 106.922C52.9573 106.922 53.0973 106.978 53.1813 107.09C53.2746 107.193 53.3213 107.319 53.3213 107.468C53.3213 107.617 53.256 107.757 53.1253 107.888C52.9946 108.009 52.8266 108.07 52.6213 108.07C52.2573 108.07 51.9213 108.009 51.6133 107.888C51.3146 107.767 51.0626 107.575 50.8573 107.314L51.0533 107.02C50.9506 107.309 50.8106 107.547 50.6333 107.734C50.4653 107.911 50.274 108.042 50.0593 108.126C49.8446 108.219 49.616 108.266 49.3733 108.266C49.0653 108.266 48.748 108.201 48.4213 108.07C48.104 107.939 47.796 107.753 47.4973 107.51C47.1986 107.267 46.9373 106.983 46.7133 106.656C46.4706 107.085 46.2373 107.403 46.0133 107.608C45.7986 107.804 45.5746 107.93 45.3413 107.986C45.108 108.042 44.8373 108.07 44.5293 108.07ZM47.2453 105.592C47.404 105.853 47.572 106.082 47.7493 106.278C47.936 106.474 48.1226 106.637 48.3093 106.768C48.496 106.889 48.678 106.983 48.8553 107.048C49.042 107.104 49.21 107.132 49.3593 107.132C49.686 107.132 49.924 107.015 50.0733 106.782C50.232 106.549 50.2273 106.222 50.0593 105.802C49.9753 105.587 49.8866 105.377 49.7933 105.172C49.7093 104.967 49.616 104.78 49.5133 104.612C49.4106 104.435 49.294 104.299 49.1633 104.206C49.0326 104.103 48.888 104.052 48.7293 104.052C48.5893 104.052 48.44 104.099 48.2813 104.192C48.132 104.285 47.9686 104.444 47.7913 104.668C47.6233 104.892 47.4413 105.2 47.2453 105.592ZM53.123 108.07L53.249 106.922C53.781 106.922 54.1544 106.871 54.369 106.768C54.5837 106.665 54.705 106.483 54.733 106.222C54.7704 105.961 54.7797 105.597 54.761 105.13L54.495 98.004H55.629L55.909 105.004C55.9277 105.499 55.909 105.937 55.853 106.32C55.8064 106.703 55.685 107.025 55.489 107.286C55.3024 107.547 55.0177 107.743 54.635 107.874C54.2617 108.005 53.7577 108.07 53.123 108.07ZM58.5478 108L58.2678 98.004H59.4018L59.6818 108H58.5478ZM65.1927 111.248L64.7867 110.184C65.4681 109.96 66.0327 109.703 66.4807 109.414C66.9381 109.125 67.2974 108.817 67.5587 108.49C67.8294 108.163 68.0207 107.832 68.1327 107.496C68.2447 107.151 68.3007 106.819 68.3007 106.502C68.3007 106.045 68.1981 105.583 67.9927 105.116C67.7967 104.64 67.5774 104.192 67.3347 103.772L68.3567 103.254C68.5341 103.581 68.6881 103.903 68.8187 104.22C68.9587 104.537 69.0801 104.836 69.1827 105.116C69.2947 105.396 69.3834 105.653 69.4487 105.886C69.5794 106.287 69.7474 106.563 69.9527 106.712C70.1674 106.852 70.4567 106.922 70.8207 106.922C71.0167 106.922 71.1567 106.978 71.2407 107.09C71.3341 107.193 71.3807 107.319 71.3807 107.468C71.3807 107.617 71.3154 107.757 71.1847 107.888C71.0541 108.009 70.8861 108.07 70.6807 108.07C70.2701 108.07 69.9341 108 69.6727 107.86C69.4207 107.711 69.2294 107.519 69.0987 107.286C68.9681 107.043 68.8794 106.791 68.8327 106.53L69.2807 106.782C69.2807 107.398 69.1407 107.958 68.8607 108.462C68.5901 108.975 68.2401 109.419 67.8107 109.792C67.3814 110.175 66.9334 110.487 66.4667 110.73C66.0001 110.973 65.5754 111.145 65.1927 111.248ZM75.4855 111.038C74.8975 111.038 74.3655 110.903 73.8895 110.632C73.4135 110.361 73.0355 109.951 72.7555 109.4C72.4755 108.859 72.3355 108.177 72.3355 107.356C72.3355 106.6 72.4242 105.905 72.6015 105.27C72.7788 104.635 73.0122 104.089 73.3015 103.632C73.6002 103.165 73.9268 102.806 74.2815 102.554C74.6362 102.302 74.9862 102.176 75.3315 102.176C75.6395 102.176 75.9148 102.265 76.1575 102.442C76.4002 102.619 76.5915 102.867 76.7315 103.184C76.8715 103.501 76.9415 103.879 76.9415 104.318C76.9415 104.71 76.8808 105.102 76.7595 105.494C76.6382 105.886 76.4095 106.241 76.0735 106.558C75.7468 106.875 75.2755 107.118 74.6595 107.286L75.5695 106.516C75.8682 106.591 76.1668 106.661 76.4655 106.726C76.7735 106.782 77.0862 106.829 77.4035 106.866C77.7302 106.903 78.0708 106.922 78.4255 106.922C78.6215 106.922 78.7615 106.978 78.8455 107.09C78.9388 107.193 78.9855 107.319 78.9855 107.468C78.9855 107.617 78.9202 107.757 78.7895 107.888C78.6588 108.009 78.4908 108.07 78.2855 108.07C78.0335 108.07 77.7628 108.056 77.4735 108.028C77.1842 108 76.8948 107.967 76.6055 107.93C76.3162 107.883 76.0408 107.832 75.7795 107.776L76.9975 107.734C77.2308 107.986 77.3895 108.257 77.4735 108.546C77.5668 108.845 77.5902 109.139 77.5435 109.428C77.5062 109.727 77.3988 109.997 77.2215 110.24C77.0535 110.483 76.8248 110.674 76.5355 110.814C76.2462 110.963 75.8962 111.038 75.4855 111.038ZM71.1875 108.07L71.3275 106.922C71.5235 106.922 71.7195 106.922 71.9155 106.922C72.1115 106.922 72.2982 106.917 72.4755 106.908L72.5315 107.944C72.3168 107.981 72.0928 108.009 71.8595 108.028C71.6355 108.056 71.4115 108.07 71.1875 108.07ZM75.5135 109.89C75.6815 109.89 75.8448 109.857 76.0035 109.792C76.1715 109.736 76.3068 109.633 76.4095 109.484C76.5215 109.344 76.5775 109.153 76.5775 108.91C76.5775 108.677 76.5168 108.462 76.3955 108.266C76.2835 108.079 76.0828 107.925 75.7935 107.804C75.5042 107.683 75.0935 107.622 74.5615 107.622C74.4495 107.622 74.3235 107.631 74.1835 107.65C74.0528 107.659 73.9175 107.678 73.7775 107.706C73.6375 107.725 73.4928 107.753 73.3435 107.79V106.838C73.6982 106.791 74.0202 106.721 74.3095 106.628C74.6082 106.525 74.8695 106.385 75.0935 106.208C75.3175 106.031 75.4902 105.797 75.6115 105.508C75.7328 105.219 75.7935 104.864 75.7935 104.444C75.7935 104.304 75.7748 104.145 75.7375 103.968C75.7095 103.791 75.6535 103.641 75.5695 103.52C75.4855 103.389 75.3735 103.324 75.2335 103.324C75.0935 103.324 74.9208 103.417 74.7155 103.604C74.5195 103.791 74.3235 104.052 74.1275 104.388C73.9408 104.724 73.7822 105.125 73.6515 105.592C73.5302 106.049 73.4695 106.553 73.4695 107.104C73.4695 107.711 73.5348 108.196 73.6655 108.56C73.8055 108.933 73.9828 109.213 74.1975 109.4C74.4122 109.596 74.6362 109.727 74.8695 109.792C75.1028 109.857 75.3175 109.89 75.5135 109.89ZM78.7832 108.07L78.9232 106.922C79.2219 106.922 79.4645 106.903 79.6512 106.866C79.8379 106.819 79.9919 106.712 80.1132 106.544C80.2439 106.367 80.3652 106.091 80.4772 105.718C80.5892 105.345 80.7199 104.822 80.8692 104.15L81.9192 104.444C81.8632 104.677 81.7979 104.957 81.7232 105.284C81.6485 105.611 81.6112 105.909 81.6112 106.18C81.6112 106.329 81.6485 106.46 81.7232 106.572C81.7979 106.684 81.9239 106.773 82.1012 106.838C82.2879 106.894 82.5352 106.922 82.8432 106.922C83.1232 106.922 83.3519 106.899 83.5292 106.852C83.7065 106.805 83.8512 106.693 83.9632 106.516C84.0845 106.339 84.1919 106.054 84.2852 105.662C84.3785 105.27 84.4765 104.733 84.5792 104.052L85.6432 104.248C85.6152 104.416 85.5825 104.621 85.5452 104.864C85.5079 105.107 85.4705 105.349 85.4332 105.592C85.4052 105.825 85.3912 106.021 85.3912 106.18C85.3912 106.311 85.4192 106.437 85.4752 106.558C85.5405 106.67 85.6619 106.759 85.8392 106.824C86.0259 106.889 86.3012 106.922 86.6652 106.922C87.1319 106.922 87.4679 106.824 87.6732 106.628C87.8879 106.432 87.9952 106.133 87.9952 105.732C87.9952 105.517 87.9905 105.293 87.9812 105.06C87.9719 104.817 87.9532 104.551 87.9252 104.262C87.9065 103.963 87.8739 103.623 87.8272 103.24L88.8492 103.17C88.9052 103.926 88.9659 104.547 89.0312 105.032C89.1059 105.517 89.2085 105.9 89.3392 106.18C89.4792 106.451 89.6659 106.642 89.8992 106.754C90.1325 106.866 90.4405 106.922 90.8232 106.922C91.0192 106.922 91.1592 106.978 91.2432 107.09C91.3365 107.193 91.3832 107.319 91.3832 107.468C91.3832 107.617 91.3179 107.757 91.1872 107.888C91.0565 108.009 90.8885 108.07 90.6832 108.07C90.3659 108.07 90.0812 108.028 89.8292 107.944C89.5865 107.851 89.3719 107.729 89.1852 107.58C89.0079 107.421 88.8585 107.244 88.7372 107.048C88.6252 106.843 88.5459 106.628 88.4992 106.404L88.7512 106.488C88.6485 106.908 88.4852 107.235 88.2612 107.468C88.0465 107.692 87.7899 107.851 87.4912 107.944C87.1925 108.028 86.8752 108.07 86.5392 108.07C86.1285 108.07 85.7925 108.019 85.5312 107.916C85.2699 107.813 85.0645 107.659 84.9152 107.454C84.7752 107.239 84.6819 106.969 84.6352 106.642H85.1112C84.9339 107.043 84.7472 107.347 84.5512 107.552C84.3552 107.757 84.1125 107.897 83.8232 107.972C83.5339 108.037 83.1512 108.07 82.6752 108.07C82.4419 108.07 82.1899 108.033 81.9192 107.958C81.6579 107.883 81.4292 107.739 81.2332 107.524C81.0372 107.3 80.9205 106.969 80.8832 106.53L81.3032 106.446C81.1445 106.922 80.9485 107.277 80.7152 107.51C80.4912 107.734 80.2205 107.883 79.9032 107.958C79.5859 108.033 79.2125 108.07 78.7832 108.07ZM84.8172 100.37C84.6212 100.37 84.4532 100.305 84.3132 100.174C84.1825 100.034 84.1172 99.8707 84.1172 99.684C84.1172 99.4973 84.1825 99.334 84.3132 99.194C84.4532 99.054 84.6212 98.984 84.8172 98.984C85.0039 98.984 85.1625 99.054 85.2932 99.194C85.4332 99.334 85.5032 99.4973 85.5032 99.684C85.5032 99.8707 85.4332 100.034 85.2932 100.174C85.1625 100.305 85.0039 100.37 84.8172 100.37ZM83.8652 101.91C83.6692 101.91 83.5012 101.845 83.3612 101.714C83.2305 101.574 83.1652 101.411 83.1652 101.224C83.1652 101.037 83.2305 100.874 83.3612 100.734C83.5012 100.594 83.6692 100.524 83.8652 100.524C84.0519 100.524 84.2105 100.594 84.3412 100.734C84.4812 100.874 84.5512 101.037 84.5512 101.224C84.5512 101.411 84.4812 101.574 84.3412 101.714C84.2105 101.845 84.0519 101.91 83.8652 101.91ZM85.7692 101.91C85.5732 101.91 85.4052 101.845 85.2652 101.714C85.1345 101.574 85.0692 101.411 85.0692 101.224C85.0692 101.037 85.1345 100.874 85.2652 100.734C85.4052 100.594 85.5732 100.524 85.7692 100.524C85.9559 100.524 86.1145 100.594 86.2452 100.734C86.3852 100.874 86.4552 101.037 86.4552 101.224C86.4552 101.411 86.3852 101.574 86.2452 101.714C86.1145 101.845 85.9559 101.91 85.7692 101.91ZM91.1777 108.07L91.3037 106.922C91.8357 106.922 92.2091 106.871 92.4237 106.768C92.6384 106.665 92.7597 106.483 92.7877 106.222C92.8251 105.961 92.8344 105.597 92.8157 105.13L92.5497 98.004H93.6837L93.9637 105.004C93.9824 105.499 93.9637 105.937 93.9077 106.32C93.8611 106.703 93.7397 107.025 93.5437 107.286C93.3571 107.547 93.0724 107.743 92.6897 107.874C92.3164 108.005 91.8124 108.07 91.1777 108.07ZM99.3885 108.07C98.6418 108.07 98.0678 107.986 97.6665 107.818C97.2745 107.65 97.0038 107.389 96.8545 107.034C96.7051 106.679 96.6211 106.222 96.6025 105.662L96.3225 98.004H97.4705L97.7505 105.214C97.7691 105.671 97.8111 106.026 97.8765 106.278C97.9511 106.521 98.1098 106.689 98.3525 106.782C98.6045 106.875 98.9965 106.922 99.5285 106.922C99.7245 106.922 99.8645 106.978 99.9485 107.09C100.042 107.193 100.088 107.319 100.088 107.468C100.088 107.617 100.023 107.757 99.8925 107.888C99.7618 108.009 99.5938 108.07 99.3885 108.07ZM99.8887 108.07L100.029 106.922C100.486 106.922 100.85 106.894 101.121 106.838C101.391 106.782 101.587 106.67 101.709 106.502C101.83 106.325 101.891 106.063 101.891 105.718C101.891 105.485 101.853 105.209 101.779 104.892C101.704 104.565 101.606 104.22 101.485 103.856C101.363 103.492 101.233 103.133 101.093 102.778L102.227 102.358C102.348 102.657 102.46 102.997 102.563 103.38C102.675 103.763 102.768 104.141 102.843 104.514C102.917 104.887 102.955 105.214 102.955 105.494C102.955 105.867 102.913 106.199 102.829 106.488C102.754 106.768 102.637 107.011 102.479 107.216C102.32 107.412 102.115 107.575 101.863 107.706C101.62 107.827 101.335 107.921 101.009 107.986C100.682 108.042 100.309 108.07 99.8887 108.07ZM101.387 110.674C101.191 110.674 101.023 110.604 100.883 110.464C100.752 110.333 100.687 110.175 100.687 109.988C100.687 109.801 100.752 109.638 100.883 109.498C101.023 109.358 101.191 109.288 101.387 109.288C101.573 109.288 101.732 109.358 101.863 109.498C102.003 109.638 102.073 109.801 102.073 109.988C102.073 110.175 102.003 110.333 101.863 110.464C101.732 110.604 101.573 110.674 101.387 110.674ZM114.993 108.07C114.489 108.07 114.041 108 113.649 107.86C113.267 107.711 112.959 107.463 112.725 107.118C112.501 106.763 112.375 106.273 112.347 105.648L112.123 100.776H113.257L113.481 105.396C113.509 105.835 113.589 106.166 113.719 106.39C113.85 106.605 114.032 106.749 114.265 106.824C114.508 106.889 114.797 106.922 115.133 106.922C115.329 106.922 115.469 106.978 115.553 107.09C115.647 107.193 115.693 107.319 115.693 107.468C115.693 107.617 115.628 107.757 115.497 107.888C115.367 108.009 115.199 108.07 114.993 108.07ZM112.879 106.53C112.347 106.698 111.829 106.782 111.325 106.782C110.821 106.782 110.364 106.707 109.953 106.558C109.543 106.409 109.216 106.194 108.973 105.914C108.731 105.625 108.609 105.279 108.609 104.878C108.609 104.486 108.707 104.117 108.903 103.772C109.109 103.427 109.384 103.119 109.729 102.848C110.084 102.577 110.49 102.353 110.947 102.176C111.414 101.989 111.909 101.863 112.431 101.798L112.627 102.974C112.161 102.993 111.745 103.058 111.381 103.17C111.027 103.273 110.723 103.408 110.471 103.576C110.229 103.744 110.042 103.926 109.911 104.122C109.781 104.318 109.715 104.509 109.715 104.696C109.715 104.901 109.79 105.069 109.939 105.2C110.089 105.331 110.28 105.433 110.513 105.508C110.747 105.573 111.003 105.615 111.283 105.634C111.563 105.643 111.834 105.634 112.095 105.606C112.357 105.569 112.581 105.517 112.767 105.452L112.879 106.53ZM112.585 99.166C112.389 99.166 112.221 99.1007 112.081 98.97C111.951 98.83 111.885 98.6667 111.885 98.48C111.885 98.2933 111.951 98.13 112.081 97.99C112.221 97.85 112.389 97.78 112.585 97.78C112.772 97.78 112.931 97.85 113.061 97.99C113.201 98.13 113.271 98.2933 113.271 98.48C113.271 98.6667 113.201 98.83 113.061 98.97C112.931 99.1007 112.772 99.166 112.585 99.166ZM110.667 99.166C110.471 99.166 110.303 99.1007 110.163 98.97C110.033 98.83 109.967 98.6667 109.967 98.48C109.967 98.2933 110.033 98.13 110.163 97.99C110.303 97.85 110.471 97.78 110.667 97.78C110.854 97.78 111.013 97.85 111.143 97.99C111.283 98.13 111.353 98.2933 111.353 98.48C111.353 98.6667 111.283 98.83 111.143 98.97C111.013 99.1007 110.854 99.166 110.667 99.166ZM115.498 108.07L115.638 106.922C116.095 106.922 116.459 106.894 116.73 106.838C117.001 106.782 117.197 106.67 117.318 106.502C117.439 106.325 117.5 106.063 117.5 105.718C117.5 105.485 117.463 105.209 117.388 104.892C117.313 104.565 117.215 104.22 117.094 103.856C116.973 103.492 116.842 103.133 116.702 102.778L117.836 102.358C117.957 102.657 118.069 102.997 118.172 103.38C118.284 103.763 118.377 104.141 118.452 104.514C118.527 104.887 118.564 105.214 118.564 105.494C118.564 105.867 118.522 106.199 118.438 106.488C118.363 106.768 118.247 107.011 118.088 107.216C117.929 107.412 117.724 107.575 117.472 107.706C117.229 107.827 116.945 107.921 116.618 107.986C116.291 108.042 115.918 108.07 115.498 108.07ZM117.29 100.902C117.094 100.902 116.926 100.837 116.786 100.706C116.655 100.566 116.59 100.403 116.59 100.216C116.59 100.029 116.655 99.866 116.786 99.726C116.926 99.586 117.094 99.516 117.29 99.516C117.477 99.516 117.635 99.586 117.766 99.726C117.906 99.866 117.976 100.029 117.976 100.216C117.976 100.403 117.906 100.566 117.766 100.706C117.635 100.837 117.477 100.902 117.29 100.902ZM119.39 111.22L118.984 110.156C119.927 109.857 120.65 109.498 121.154 109.078C121.667 108.667 122.017 108.238 122.204 107.79C122.4 107.342 122.498 106.913 122.498 106.502C122.498 106.241 122.47 105.989 122.414 105.746C122.358 105.503 122.26 105.228 122.12 104.92C121.98 104.612 121.784 104.229 121.532 103.772L122.554 103.254C122.909 103.861 123.161 104.435 123.31 104.976C123.469 105.517 123.548 105.993 123.548 106.404C123.548 106.992 123.45 107.524 123.254 108C123.067 108.476 122.815 108.896 122.498 109.26C122.19 109.633 121.849 109.951 121.476 110.212C121.112 110.473 120.743 110.688 120.37 110.856C120.006 111.024 119.679 111.145 119.39 111.22ZM129.049 108.07C128.302 108.07 127.728 107.986 127.327 107.818C126.935 107.65 126.664 107.389 126.515 107.034C126.365 106.679 126.281 106.222 126.263 105.662L125.983 98.004H127.131L127.411 105.214C127.429 105.671 127.471 106.026 127.537 106.278C127.611 106.521 127.77 106.689 128.013 106.782C128.265 106.875 128.657 106.922 129.189 106.922C129.385 106.922 129.525 106.978 129.609 107.09C129.702 107.193 129.749 107.319 129.749 107.468C129.749 107.617 129.683 107.757 129.553 107.888C129.422 108.009 129.254 108.07 129.049 108.07ZM129.549 108.07L129.689 106.922C129.922 106.922 130.16 106.922 130.403 106.922C130.655 106.913 130.902 106.899 131.145 106.88C131.387 106.861 131.621 106.838 131.845 106.81C132.069 106.782 132.269 106.74 132.447 106.684C132.773 106.581 133.072 106.446 133.343 106.278C133.623 106.11 133.847 105.905 134.015 105.662C134.192 105.419 134.281 105.139 134.281 104.822C134.281 104.607 134.229 104.388 134.127 104.164C134.024 103.931 133.884 103.735 133.707 103.576C133.529 103.417 133.324 103.338 133.091 103.338C132.867 103.338 132.657 103.413 132.461 103.562C132.274 103.711 132.12 103.907 131.999 104.15C131.887 104.383 131.831 104.626 131.831 104.878C131.831 105.177 131.905 105.447 132.055 105.69C132.213 105.923 132.405 106.124 132.629 106.292C132.853 106.46 133.077 106.595 133.301 106.698L131.971 107.09C131.821 106.978 131.644 106.824 131.439 106.628C131.243 106.423 131.065 106.171 130.907 105.872C130.757 105.573 130.683 105.233 130.683 104.85C130.683 104.477 130.748 104.131 130.879 103.814C131.019 103.487 131.201 103.203 131.425 102.96C131.658 102.717 131.919 102.531 132.209 102.4C132.507 102.26 132.815 102.19 133.133 102.19C133.59 102.19 133.991 102.316 134.337 102.568C134.682 102.82 134.948 103.142 135.135 103.534C135.331 103.917 135.429 104.318 135.429 104.738C135.429 105.139 135.354 105.503 135.205 105.83C135.055 106.147 134.85 106.432 134.589 106.684C134.337 106.936 134.038 107.151 133.693 107.328C133.357 107.505 132.997 107.65 132.615 107.762C132.4 107.827 132.167 107.879 131.915 107.916C131.672 107.953 131.415 107.981 131.145 108C130.874 108.028 130.603 108.047 130.333 108.056C130.062 108.065 129.801 108.07 129.549 108.07ZM136.479 108.07C136.012 108.07 135.527 108.042 135.023 107.986C134.528 107.921 134.057 107.841 133.609 107.748C133.17 107.645 132.806 107.533 132.517 107.412L133.483 106.712C133.763 106.749 134.094 106.787 134.477 106.824C134.859 106.852 135.242 106.875 135.625 106.894C136.007 106.913 136.339 106.922 136.619 106.922C136.815 106.922 136.955 106.978 137.039 107.09C137.132 107.193 137.179 107.319 137.179 107.468C137.179 107.617 137.113 107.757 136.983 107.888C136.852 108.009 136.684 108.07 136.479 108.07ZM133.987 100.748C133.791 100.748 133.623 100.683 133.483 100.552C133.352 100.412 133.287 100.249 133.287 100.062C133.287 99.8753 133.352 99.712 133.483 99.572C133.623 99.432 133.791 99.362 133.987 99.362C134.173 99.362 134.332 99.432 134.463 99.572C134.603 99.712 134.673 99.8753 134.673 100.062C134.673 100.249 134.603 100.412 134.463 100.552C134.332 100.683 134.173 100.748 133.987 100.748ZM132.069 100.748C131.873 100.748 131.705 100.683 131.565 100.552C131.434 100.412 131.369 100.249 131.369 100.062C131.369 99.8753 131.434 99.712 131.565 99.572C131.705 99.432 131.873 99.362 132.069 99.362C132.255 99.362 132.414 99.432 132.545 99.572C132.685 99.712 132.755 99.8753 132.755 100.062C132.755 100.249 132.685 100.412 132.545 100.552C132.414 100.683 132.255 100.748 132.069 100.748ZM136.98 108.07L137.12 106.922C137.382 106.922 137.601 106.866 137.778 106.754C137.956 106.642 138.128 106.455 138.296 106.194C138.464 105.933 138.646 105.583 138.842 105.144C139.113 104.547 139.379 104.094 139.64 103.786C139.911 103.478 140.177 103.268 140.438 103.156C140.709 103.044 140.975 102.988 141.236 102.988C141.554 102.988 141.848 103.072 142.118 103.24C142.389 103.399 142.627 103.613 142.832 103.884C143.038 104.155 143.196 104.453 143.308 104.78C143.43 105.097 143.49 105.415 143.49 105.732C143.49 106.292 143.392 106.74 143.196 107.076C143 107.403 142.748 107.641 142.44 107.79C142.142 107.93 141.829 108 141.502 108C141.213 108 140.84 107.944 140.382 107.832C139.934 107.72 139.365 107.435 138.674 106.978L139.22 106.096C139.678 106.385 140.088 106.586 140.452 106.698C140.826 106.801 141.134 106.852 141.376 106.852C141.647 106.852 141.862 106.815 142.02 106.74C142.179 106.656 142.296 106.539 142.37 106.39C142.445 106.241 142.482 106.073 142.482 105.886C142.482 105.615 142.417 105.345 142.286 105.074C142.156 104.803 141.988 104.579 141.782 104.402C141.586 104.225 141.376 104.136 141.152 104.136C140.984 104.136 140.821 104.183 140.662 104.276C140.504 104.369 140.34 104.542 140.172 104.794C140.004 105.046 139.813 105.41 139.598 105.886C139.374 106.39 139.16 106.791 138.954 107.09C138.758 107.379 138.558 107.594 138.352 107.734C138.147 107.874 137.932 107.963 137.708 108C137.494 108.047 137.251 108.07 136.98 108.07Z" fill="#B8C0CC"/>
<path d="M22.6 132.704C22.6 133.456 22.518 134.108 22.354 134.66C22.194 135.208 21.974 135.662 21.694 136.022C21.414 136.382 21.082 136.65 20.698 136.826C20.318 137.002 19.91 137.09 19.474 137.09C19.034 137.09 18.624 137.002 18.244 136.826C17.868 136.65 17.54 136.382 17.26 136.022C16.98 135.662 16.76 135.208 16.6 134.66C16.44 134.108 16.36 133.456 16.36 132.704C16.36 131.952 16.44 131.3 16.6 130.748C16.76 130.196 16.98 129.74 17.26 129.38C17.54 129.016 17.868 128.746 18.244 128.57C18.624 128.394 19.034 128.306 19.474 128.306C19.91 128.306 20.318 128.394 20.698 128.57C21.082 128.746 21.414 129.016 21.694 129.38C21.974 129.74 22.194 130.196 22.354 130.748C22.518 131.3 22.6 131.952 22.6 132.704ZM21.49 132.704C21.49 132.048 21.434 131.498 21.322 131.054C21.214 130.606 21.066 130.246 20.878 129.974C20.694 129.702 20.48 129.508 20.236 129.392C19.992 129.272 19.738 129.212 19.474 129.212C19.21 129.212 18.956 129.272 18.712 129.392C18.468 129.508 18.254 129.702 18.07 129.974C17.886 130.246 17.738 130.606 17.626 131.054C17.518 131.498 17.464 132.048 17.464 132.704C17.464 133.36 17.518 133.91 17.626 134.354C17.738 134.798 17.886 135.156 18.07 135.428C18.254 135.7 18.468 135.896 18.712 136.016C18.956 136.132 19.21 136.19 19.474 136.19C19.738 136.19 19.992 136.132 20.236 136.016C20.48 135.896 20.694 135.7 20.878 135.428C21.066 135.156 21.214 134.798 21.322 134.354C21.434 133.91 21.49 133.36 21.49 132.704ZM27.7929 130.478C27.7929 130.814 27.7409 131.116 27.6369 131.384C27.5329 131.648 27.3929 131.872 27.2169 132.056C27.0449 132.236 26.8429 132.374 26.6109 132.47C26.3829 132.566 26.1409 132.614 25.8849 132.614C25.6169 132.614 25.3669 132.566 25.1349 132.47C24.9029 132.374 24.7009 132.236 24.5289 132.056C24.3609 131.872 24.2289 131.648 24.1329 131.384C24.0369 131.116 23.9889 130.814 23.9889 130.478C23.9889 130.134 24.0369 129.828 24.1329 129.56C24.2289 129.292 24.3609 129.066 24.5289 128.882C24.7009 128.698 24.9029 128.558 25.1349 128.462C25.3669 128.366 25.6169 128.318 25.8849 128.318C26.1569 128.318 26.4089 128.366 26.6409 128.462C26.8729 128.558 27.0749 128.698 27.2469 128.882C27.4189 129.066 27.5529 129.292 27.6489 129.56C27.7449 129.828 27.7929 130.134 27.7929 130.478ZM26.9649 130.478C26.9649 130.214 26.9369 129.99 26.8809 129.806C26.8249 129.622 26.7469 129.472 26.6469 129.356C26.5509 129.236 26.4369 129.15 26.3049 129.098C26.1729 129.046 26.0329 129.02 25.8849 129.02C25.7369 129.02 25.5989 129.046 25.4709 129.098C25.3429 129.15 25.2309 129.236 25.1349 129.356C25.0389 129.472 24.9629 129.622 24.9069 129.806C24.8509 129.99 24.8229 130.214 24.8229 130.478C24.8229 130.738 24.8509 130.96 24.9069 131.144C24.9629 131.324 25.0389 131.472 25.1349 131.588C25.2309 131.7 25.3429 131.782 25.4709 131.834C25.5989 131.882 25.7369 131.906 25.8849 131.906C26.0329 131.906 26.1729 131.882 26.3049 131.834C26.4369 131.782 26.5509 131.7 26.6469 131.588C26.7469 131.472 26.8249 131.324 26.8809 131.144C26.9369 130.96 26.9649 130.738 26.9649 130.478ZM30.8349 128.582C30.8749 128.534 30.9209 128.492 30.9729 128.456C31.0289 128.42 31.1029 128.402 31.1949 128.402H31.9689L25.6809 136.826C25.6449 136.878 25.5989 136.92 25.5429 136.952C25.4869 136.984 25.4189 137 25.3389 137H24.5529L30.8349 128.582ZM32.5509 134.972C32.5509 135.308 32.4989 135.608 32.3949 135.872C32.2909 136.136 32.1509 136.36 31.9749 136.544C31.8029 136.724 31.6009 136.862 31.3689 136.958C31.1409 137.054 30.8989 137.102 30.6429 137.102C30.3709 137.102 30.1189 137.054 29.8869 136.958C29.6589 136.862 29.4589 136.724 29.2869 136.544C29.1189 136.36 28.9869 136.136 28.8909 135.872C28.7949 135.608 28.7469 135.308 28.7469 134.972C28.7469 134.628 28.7949 134.322 28.8909 134.054C28.9869 133.782 29.1189 133.554 29.2869 133.37C29.4589 133.186 29.6589 133.046 29.8869 132.95C30.1189 132.854 30.3709 132.806 30.6429 132.806C30.9109 132.806 31.1609 132.854 31.3929 132.95C31.6289 133.046 31.8309 133.186 31.9989 133.37C32.1709 133.554 32.3049 133.782 32.4009 134.054C32.5009 134.322 32.5509 134.628 32.5509 134.972ZM31.7229 134.972C31.7229 134.708 31.6949 134.484 31.6389 134.3C31.5829 134.112 31.5049 133.96 31.4049 133.844C31.3089 133.728 31.1949 133.644 31.0629 133.592C30.9309 133.54 30.7909 133.514 30.6429 133.514C30.4949 133.514 30.3549 133.54 30.2229 133.592C30.0949 133.644 29.9829 133.728 29.8869 133.844C29.7909 133.96 29.7149 134.112 29.6589 134.3C29.6069 134.484 29.5809 134.708 29.5809 134.972C29.5809 135.232 29.6069 135.452 29.6589 135.632C29.7149 135.812 29.7909 135.96 29.8869 136.076C29.9829 136.188 30.0949 136.27 30.2229 136.322C30.3549 136.37 30.4949 136.394 30.6429 136.394C30.7909 136.394 30.9309 136.37 31.0629 136.322C31.1949 136.27 31.3089 136.188 31.4049 136.076C31.5049 135.96 31.5829 135.812 31.6389 135.632C31.6949 135.452 31.7229 135.232 31.7229 134.972Z" fill="white"/>
<path d="M259.155 130.928C259.155 131.2 259.193 131.444 259.269 131.66C259.349 131.872 259.461 132.052 259.605 132.2C259.753 132.348 259.931 132.46 260.139 132.536C260.351 132.612 260.587 132.65 260.847 132.65C261.135 132.65 261.389 132.604 261.609 132.512C261.833 132.416 262.021 132.29 262.173 132.134C262.325 131.978 262.441 131.798 262.521 131.594C262.601 131.39 262.641 131.178 262.641 130.958C262.641 130.69 262.597 130.448 262.509 130.232C262.425 130.012 262.307 129.826 262.155 129.674C262.003 129.522 261.821 129.406 261.609 129.326C261.401 129.242 261.171 129.2 260.919 129.2C260.655 129.2 260.415 129.244 260.199 129.332C259.983 129.416 259.797 129.534 259.641 129.686C259.485 129.838 259.365 130.02 259.281 130.232C259.197 130.444 259.155 130.676 259.155 130.928ZM261.651 133.574C261.739 133.458 261.821 133.348 261.897 133.244C261.973 133.14 262.045 133.036 262.113 132.932C261.893 133.108 261.645 133.242 261.369 133.334C261.093 133.426 260.801 133.472 260.493 133.472C260.169 133.472 259.861 133.418 259.569 133.31C259.281 133.202 259.027 133.044 258.807 132.836C258.587 132.624 258.411 132.366 258.279 132.062C258.151 131.754 258.087 131.402 258.087 131.006C258.087 130.63 258.157 130.278 258.297 129.95C258.437 129.622 258.633 129.336 258.885 129.092C259.137 128.848 259.437 128.656 259.785 128.516C260.133 128.376 260.515 128.306 260.931 128.306C261.343 128.306 261.717 128.374 262.053 128.51C262.389 128.646 262.677 128.836 262.917 129.08C263.157 129.324 263.341 129.616 263.469 129.956C263.601 130.296 263.667 130.672 263.667 131.084C263.667 131.332 263.643 131.568 263.595 131.792C263.551 132.012 263.485 132.23 263.397 132.446C263.313 132.658 263.209 132.87 263.085 133.082C262.961 133.29 262.821 133.504 262.665 133.724L260.571 136.748C260.519 136.824 260.445 136.886 260.349 136.934C260.253 136.978 260.143 137 260.019 137H259.035L261.651 133.574ZM271.518 132.704C271.518 133.456 271.436 134.108 271.272 134.66C271.112 135.208 270.892 135.662 270.612 136.022C270.332 136.382 270 136.65 269.616 136.826C269.236 137.002 268.828 137.09 268.392 137.09C267.952 137.09 267.542 137.002 267.162 136.826C266.786 136.65 266.458 136.382 266.178 136.022C265.898 135.662 265.678 135.208 265.518 134.66C265.358 134.108 265.278 133.456 265.278 132.704C265.278 131.952 265.358 131.3 265.518 130.748C265.678 130.196 265.898 129.74 266.178 129.38C266.458 129.016 266.786 128.746 267.162 128.57C267.542 128.394 267.952 128.306 268.392 128.306C268.828 128.306 269.236 128.394 269.616 128.57C270 128.746 270.332 129.016 270.612 129.38C270.892 129.74 271.112 130.196 271.272 130.748C271.436 131.3 271.518 131.952 271.518 132.704ZM270.408 132.704C270.408 132.048 270.352 131.498 270.24 131.054C270.132 130.606 269.984 130.246 269.796 129.974C269.612 129.702 269.398 129.508 269.154 129.392C268.91 129.272 268.656 129.212 268.392 129.212C268.128 129.212 267.874 129.272 267.63 129.392C267.386 129.508 267.172 129.702 266.988 129.974C266.804 130.246 266.656 130.606 266.544 131.054C266.436 131.498 266.382 132.048 266.382 132.704C266.382 133.36 266.436 133.91 266.544 134.354C266.656 134.798 266.804 135.156 266.988 135.428C267.172 135.7 267.386 135.896 267.63 136.016C267.874 136.132 268.128 136.19 268.392 136.19C268.656 136.19 268.91 136.132 269.154 136.016C269.398 135.896 269.612 135.7 269.796 135.428C269.984 135.156 270.132 134.798 270.24 134.354C270.352 133.91 270.408 133.36 270.408 132.704ZM276.711 130.478C276.711 130.814 276.659 131.116 276.555 131.384C276.451 131.648 276.311 131.872 276.135 132.056C275.963 132.236 275.761 132.374 275.529 132.47C275.301 132.566 275.059 132.614 274.803 132.614C274.535 132.614 274.285 132.566 274.053 132.47C273.821 132.374 273.619 132.236 273.447 132.056C273.279 131.872 273.147 131.648 273.051 131.384C272.955 131.116 272.907 130.814 272.907 130.478C272.907 130.134 272.955 129.828 273.051 129.56C273.147 129.292 273.279 129.066 273.447 128.882C273.619 128.698 273.821 128.558 274.053 128.462C274.285 128.366 274.535 128.318 274.803 128.318C275.075 128.318 275.327 128.366 275.559 128.462C275.791 128.558 275.993 128.698 276.165 128.882C276.337 129.066 276.471 129.292 276.567 129.56C276.663 129.828 276.711 130.134 276.711 130.478ZM275.883 130.478C275.883 130.214 275.855 129.99 275.799 129.806C275.743 129.622 275.665 129.472 275.565 129.356C275.469 129.236 275.355 129.15 275.223 129.098C275.091 129.046 274.951 129.02 274.803 129.02C274.655 129.02 274.517 129.046 274.389 129.098C274.261 129.15 274.149 129.236 274.053 129.356C273.957 129.472 273.881 129.622 273.825 129.806C273.769 129.99 273.741 130.214 273.741 130.478C273.741 130.738 273.769 130.96 273.825 131.144C273.881 131.324 273.957 131.472 274.053 131.588C274.149 131.7 274.261 131.782 274.389 131.834C274.517 131.882 274.655 131.906 274.803 131.906C274.951 131.906 275.091 131.882 275.223 131.834C275.355 131.782 275.469 131.7 275.565 131.588C275.665 131.472 275.743 131.324 275.799 131.144C275.855 130.96 275.883 130.738 275.883 130.478ZM279.753 128.582C279.793 128.534 279.839 128.492 279.891 128.456C279.947 128.42 280.021 128.402 280.113 128.402H280.887L274.599 136.826C274.563 136.878 274.517 136.92 274.461 136.952C274.405 136.984 274.337 137 274.257 137H273.471L279.753 128.582ZM281.469 134.972C281.469 135.308 281.417 135.608 281.313 135.872C281.209 136.136 281.069 136.36 280.893 136.544C280.721 136.724 280.519 136.862 280.287 136.958C280.059 137.054 279.817 137.102 279.561 137.102C279.289 137.102 279.037 137.054 278.805 136.958C278.577 136.862 278.377 136.724 278.205 136.544C278.037 136.36 277.905 136.136 277.809 135.872C277.713 135.608 277.665 135.308 277.665 134.972C277.665 134.628 277.713 134.322 277.809 134.054C277.905 133.782 278.037 133.554 278.205 133.37C278.377 133.186 278.577 133.046 278.805 132.95C279.037 132.854 279.289 132.806 279.561 132.806C279.829 132.806 280.079 132.854 280.311 132.95C280.547 133.046 280.749 133.186 280.917 133.37C281.089 133.554 281.223 133.782 281.319 134.054C281.419 134.322 281.469 134.628 281.469 134.972ZM280.641 134.972C280.641 134.708 280.613 134.484 280.557 134.3C280.501 134.112 280.423 133.96 280.323 133.844C280.227 133.728 280.113 133.644 279.981 133.592C279.849 133.54 279.709 133.514 279.561 133.514C279.413 133.514 279.273 133.54 279.141 133.592C279.013 133.644 278.901 133.728 278.805 133.844C278.709 133.96 278.633 134.112 278.577 134.3C278.525 134.484 278.499 134.708 278.499 134.972C278.499 135.232 278.525 135.452 278.577 135.632C278.633 135.812 278.709 135.96 278.805 136.076C278.901 136.188 279.013 136.27 279.141 136.322C279.273 136.37 279.413 136.394 279.561 136.394C279.709 136.394 279.849 136.37 279.981 136.322C280.113 136.27 280.227 136.188 280.323 136.076C280.423 135.96 280.501 135.812 280.557 135.632C280.613 135.452 280.641 135.232 280.641 134.972Z" fill="white"/>
<g clip-path="url(#clip0_2001_2325)">
<rect x="16" y="143" width="266" height="4" rx="2" fill="#486581"/>
<rect x="16" y="143" width="222" height="4" rx="2" fill="#0FCA7A"/>
</g>
<defs>
<clipPath id="clip0_2001_2325">
<rect width="266" height="4" fill="white" transform="translate(16 143)"/>
</clipPath>
</defs>
</svg>
