<svg width="289" height="168" viewBox="0 0 289 168" fill="none" xmlns="http://www.w3.org/2000/svg">
<rect width="289" height="168" rx="8" fill="#102A43"/>
<path d="M20.896 36.84C19.552 36.84 18.5067 36.488 17.76 35.784C17.0133 35.08 16.64 34.0987 16.64 32.84C16.64 32.3493 16.704 31.832 16.832 31.288C16.9707 30.7333 17.1573 30.184 17.392 29.64L18.384 29.944C18.1813 30.392 18.016 30.856 17.888 31.336C17.76 31.816 17.696 32.2693 17.696 32.696C17.696 33.56 17.936 34.2267 18.416 34.696C18.896 35.1653 19.5627 35.4 20.416 35.4H21.376C21.8773 35.4 22.2987 35.3413 22.64 35.224C22.992 35.1173 23.2747 34.9307 23.488 34.664C23.7013 34.408 23.856 34.0667 23.952 33.64C24.048 33.224 24.096 32.712 24.096 32.104V21.16H25.28V32.104C25.28 33.736 24.928 34.9307 24.224 35.688C23.52 36.456 22.4107 36.84 20.896 36.84ZM27.5284 35.464H28.3764C29.539 35.464 30.435 35.2453 31.0644 34.808C31.7044 34.3813 32.099 33.7787 32.2484 33H30.3764C29.523 33 28.8617 32.776 28.3924 32.328C27.923 31.88 27.6884 31.2507 27.6884 30.44C27.6884 29.96 27.7577 29.5067 27.8964 29.08C28.0457 28.6533 28.2484 28.2853 28.5044 27.976C28.7604 27.656 29.0644 27.4053 29.4164 27.224C29.779 27.032 30.1737 26.936 30.6004 26.936C31.4857 26.936 32.179 27.3307 32.6804 28.12C33.1924 28.9093 33.4484 30.0187 33.4484 31.448V31.624H34.1844V32.68L33.8644 33H33.3044C33.0697 34.2267 32.5417 35.1707 31.7204 35.832C30.9097 36.504 29.795 36.84 28.3764 36.84H27.5284V35.464ZM28.8084 30.28C28.8084 30.7493 28.931 31.0907 29.1764 31.304C29.4324 31.5173 29.8324 31.624 30.3764 31.624H32.3284V31.128C32.3284 30.264 32.163 29.5813 31.8324 29.08C31.5124 28.568 31.0697 28.312 30.5044 28.312C29.9604 28.312 29.539 28.4933 29.2404 28.856C28.9524 29.2187 28.8084 29.6933 28.8084 30.28ZM34.3675 31.944L34.6875 31.624H35.2315C35.7008 31.624 36.1328 31.608 36.5275 31.576C36.9328 31.544 37.3435 31.4853 37.7595 31.4C38.1755 31.304 38.6128 31.1707 39.0715 31C39.5408 30.8293 40.0688 30.6053 40.6555 30.328L42.1275 29.624V29.56L39.7595 29.032L36.4475 28.216V29.592H35.3275V28.36C35.3275 27.912 35.4502 27.576 35.6955 27.352C35.9515 27.1173 36.2715 27 36.6555 27C36.7728 27 36.9115 27.016 37.0715 27.048C37.2422 27.0693 37.5035 27.1227 37.8555 27.208L41.7595 28.216C42.3462 28.3653 42.8368 28.472 43.2315 28.536C43.6262 28.5893 43.9675 28.616 44.2555 28.616H44.5115V29.992H43.2955V30.184C43.2955 30.7173 43.4128 31.0907 43.6475 31.304C43.8822 31.5173 44.2448 31.624 44.7355 31.624H45.2955V32.68L44.9755 33C44.5062 33 44.1062 32.9573 43.7755 32.872C43.4448 32.7867 43.1728 32.648 42.9595 32.456C42.7568 32.2533 42.6022 31.9973 42.4955 31.688C42.3995 31.3787 42.3462 31 42.3355 30.552L41.0875 31.304C40.4262 31.6987 39.8395 32.0133 39.3275 32.248C38.8155 32.472 38.3355 32.6427 37.8875 32.76C37.4395 32.8667 37.0022 32.936 36.5755 32.968C36.1595 32.9893 35.7115 33 35.2315 33H34.3675V31.944ZM45.4769 31.944L45.7969 31.624H46.3569C47.2635 31.624 47.7169 31.1707 47.7169 30.264V27.736H48.8369V30.264C48.8369 31.1707 49.2902 31.624 50.1969 31.624H50.7569V32.68L50.4369 33C48.9649 33 48.1009 32.4773 47.8449 31.432H47.7649C47.6475 32.0187 47.4182 32.4293 47.0769 32.664C46.7355 32.888 46.2022 33 45.4769 33V31.944ZM49.1729 25.816C48.9595 25.816 48.7889 25.7573 48.6609 25.64C48.5329 25.512 48.4689 25.3093 48.4689 25.032C48.4689 24.7547 48.5329 24.5573 48.6609 24.44C48.7889 24.312 48.9595 24.248 49.1729 24.248H49.3489C49.5622 24.248 49.7329 24.312 49.8609 24.44C49.9889 24.5573 50.0529 24.7547 50.0529 25.032C50.0529 25.3093 49.9889 25.512 49.8609 25.64C49.7329 25.7573 49.5622 25.816 49.3489 25.816H49.1729ZM47.1089 25.816C46.8955 25.816 46.7249 25.7573 46.5969 25.64C46.4689 25.512 46.4049 25.3093 46.4049 25.032C46.4049 24.7547 46.4689 24.5573 46.5969 24.44C46.7249 24.312 46.8955 24.248 47.1089 24.248H47.2849C47.4982 24.248 47.6689 24.312 47.7969 24.44C47.9249 24.5573 47.9889 24.7547 47.9889 25.032C47.9889 25.3093 47.9249 25.512 47.7969 25.64C47.6689 25.7573 47.4982 25.816 47.2849 25.816H47.1089ZM50.93 31.944L51.25 31.624H51.714C52.226 31.624 52.594 31.5067 52.818 31.272C53.0527 31.0373 53.17 30.664 53.17 30.152V21.16H54.354V30.152C54.354 31.1333 54.1407 31.8533 53.714 32.312C53.298 32.7707 52.6313 33 51.714 33H50.93V31.944ZM57.2469 21.16H58.4309V33H57.2469V21.16ZM69.3023 36.84C67.9583 36.84 66.9129 36.488 66.1663 35.784C65.4196 35.08 65.0463 34.0987 65.0463 32.84C65.0463 32.3493 65.1103 31.832 65.2383 31.288C65.3769 30.7333 65.5636 30.184 65.7983 29.64L66.7903 29.944C66.5876 30.392 66.4223 30.856 66.2943 31.336C66.1663 31.816 66.1023 32.2693 66.1023 32.696C66.1023 33.56 66.3423 34.2267 66.8223 34.696C67.3023 35.1653 67.9689 35.4 68.8223 35.4H69.7823C70.2836 35.4 70.7049 35.3413 71.0463 35.224C71.3983 35.1173 71.6809 34.9307 71.8943 34.664C72.1076 34.408 72.2623 34.0667 72.3583 33.64C72.4543 33.224 72.5023 32.712 72.5023 32.104V21.16H73.6863V32.104C73.6863 33.736 73.3343 34.9307 72.6302 35.688C71.9263 36.456 70.8169 36.84 69.3023 36.84ZM77.1986 33C76.8146 33 76.4946 32.888 76.2386 32.664C75.9933 32.4293 75.8706 32.088 75.8706 31.64V30.408H76.9906V31.624H79.1506C79.5133 31.624 79.812 31.6133 80.0466 31.592C80.2813 31.5707 80.468 31.5387 80.6066 31.496C80.7453 31.4427 80.8413 31.3733 80.8946 31.288C80.948 31.2027 80.9746 31.0907 80.9746 30.952C80.9746 30.824 80.948 30.6693 80.8946 30.488C80.8413 30.3067 80.7453 30.0293 80.6066 29.656L79.0706 25.432L80.2066 25.016L81.8386 29.496C81.9986 29.9227 82.1373 30.2747 82.2546 30.552C82.3826 30.8187 82.5106 31.032 82.6386 31.192C82.7666 31.352 82.8946 31.464 83.0226 31.528C83.1613 31.592 83.316 31.624 83.4866 31.624H83.8866V32.68L83.5666 33C83.2786 33 83.0226 32.9733 82.7986 32.92C82.5853 32.8667 82.3933 32.7867 82.2226 32.68C82.052 32.5627 81.8973 32.4133 81.7586 32.232C81.62 32.0507 81.4866 31.8267 81.3586 31.56H81.2786C81.2146 32.0827 81.012 32.456 80.6706 32.68C80.3293 32.8933 79.8226 33 79.1506 33H77.1986ZM84.0706 31.944L84.3906 31.624H87.3506L87.3666 31.56L85.1106 28.776V27.4C85.58 27.1547 86.0866 26.968 86.6306 26.84C87.1853 26.7013 87.724 26.632 88.2466 26.632C89.2173 26.632 89.9693 26.8293 90.5026 27.224C91.0466 27.6187 91.3186 28.168 91.3186 28.872C91.3186 29.1493 91.2813 29.3947 91.2066 29.608C91.1426 29.8107 91.0306 30.0133 90.8706 30.216C90.7106 30.4187 90.5026 30.6267 90.2466 30.84C89.9906 31.0533 89.6813 31.2987 89.3186 31.576L89.3346 31.624H92.0386V32.68L91.7186 33H90.6786C90.252 33 89.836 32.9413 89.4306 32.824C89.036 32.696 88.668 32.5093 88.3266 32.264C87.9853 32.5093 87.612 32.696 87.2066 32.824C86.812 32.9413 86.4013 33 85.9746 33H84.0706V31.944ZM86.1826 28.392L88.4386 31.08L88.6146 30.936C88.8706 30.7227 89.0946 30.536 89.2866 30.376C89.4893 30.216 89.66 30.0667 89.7986 29.928C89.9373 29.7787 90.044 29.64 90.1186 29.512C90.1933 29.3733 90.2306 29.224 90.2306 29.064C90.2306 28.7227 90.0546 28.4613 89.7026 28.28C89.3506 28.0987 88.8546 28.008 88.2146 28.008C87.9053 28.008 87.58 28.0347 87.2386 28.088C86.908 28.1307 86.556 28.2107 86.1826 28.328V28.392ZM94.3073 32.072C94.0619 32.4027 93.7739 32.6427 93.4433 32.792C93.1233 32.9307 92.7126 33 92.2112 33V31.944L92.5312 31.624C92.7339 31.624 92.9046 31.5973 93.0433 31.544C93.1926 31.4907 93.3206 31.4107 93.4273 31.304C93.5446 31.1867 93.6459 31.0373 93.7313 30.856C93.8273 30.664 93.9233 30.44 94.0193 30.184L94.4673 29C94.7126 28.36 95.0379 27.8693 95.4433 27.528C95.8486 27.176 96.3873 27 97.0593 27C97.8486 27 98.4566 27.3573 98.8833 28.072C99.3206 28.7867 99.5393 29.7787 99.5393 31.048V31.8L98.5953 33.192L94.3073 32.072ZM94.9473 30.808L98.4193 31.736V31.048C98.4193 30.216 98.2806 29.5653 98.0033 29.096C97.7366 28.616 97.3579 28.376 96.8673 28.376C96.4619 28.376 96.1473 28.4987 95.9233 28.744C95.7099 28.9893 95.5286 29.2987 95.3793 29.672L94.9473 30.808Z" fill="#B8C0CC"/>
<path d="M29.663 87.088V90H18.873V87.088H22.513V77.533C22.513 77.2903 22.5173 77.0477 22.526 76.805C22.5347 76.5537 22.5477 76.3023 22.565 76.051L20.407 77.845C20.2163 77.9923 20.0257 78.0833 19.835 78.118C19.653 78.144 19.4797 78.144 19.315 78.118C19.1503 78.0833 19.003 78.027 18.873 77.949C18.743 77.8623 18.6477 77.7757 18.587 77.689L17.313 75.999L23.215 71.046H26.543V87.088H29.663ZM44.27 86.36C44.7034 86.36 45.0457 86.4813 45.297 86.724C45.5484 86.958 45.674 87.27 45.674 87.66V90H32.362V88.7C32.362 88.4487 32.414 88.18 32.518 87.894C32.622 87.608 32.804 87.348 33.064 87.114L38.524 81.615C38.992 81.147 39.3994 80.7007 39.746 80.276C40.0927 79.8513 40.3787 79.4353 40.604 79.028C40.8294 78.612 40.9984 78.2003 41.111 77.793C41.2237 77.377 41.28 76.9393 41.28 76.48C41.28 75.726 41.098 75.1497 40.734 74.751C40.3787 74.3437 39.8327 74.14 39.096 74.14C38.498 74.14 37.991 74.3003 37.575 74.621C37.1677 74.933 36.886 75.323 36.73 75.791C36.548 76.2677 36.3097 76.584 36.015 76.74C35.7204 76.896 35.3 76.9307 34.754 76.844L32.622 76.467C32.7607 75.5223 33.025 74.699 33.415 73.997C33.8137 73.295 34.3034 72.71 34.884 72.242C35.4734 71.774 36.145 71.4273 36.899 71.202C37.653 70.968 38.4634 70.851 39.33 70.851C40.266 70.851 41.1067 70.9897 41.852 71.267C42.606 71.5357 43.2474 71.9127 43.776 72.398C44.3047 72.8833 44.7077 73.464 44.985 74.14C45.271 74.8073 45.414 75.544 45.414 76.35C45.414 77.0433 45.3144 77.6847 45.115 78.274C44.9244 78.8633 44.66 79.4267 44.322 79.964C43.984 80.4927 43.5897 81.0083 43.139 81.511C42.697 82.005 42.2247 82.5077 41.722 83.019L38.017 86.815C38.4937 86.6677 38.966 86.555 39.434 86.477C39.902 86.399 40.3354 86.36 40.734 86.36H44.27ZM57.1221 75.648C57.1221 76.3413 56.9964 76.974 56.7451 77.546C56.4937 78.118 56.1601 78.612 55.7441 79.028C55.3281 79.4353 54.8427 79.7517 54.2881 79.977C53.7421 80.2023 53.1701 80.315 52.5721 80.315C51.9134 80.315 51.3067 80.2023 50.7521 79.977C50.2061 79.7517 49.7294 79.4353 49.3221 79.028C48.9234 78.612 48.6114 78.118 48.3861 77.546C48.1607 76.974 48.0481 76.3413 48.0481 75.648C48.0481 74.9287 48.1607 74.2787 48.3861 73.698C48.6114 73.1087 48.9234 72.606 49.3221 72.19C49.7294 71.774 50.2061 71.4533 50.7521 71.228C51.3067 70.994 51.9134 70.877 52.5721 70.877C53.2307 70.877 53.8374 70.994 54.3921 71.228C54.9554 71.4533 55.4364 71.774 55.8351 72.19C56.2424 72.606 56.5587 73.1087 56.7841 73.698C57.0094 74.2787 57.1221 74.9287 57.1221 75.648ZM54.0281 75.648C54.0281 75.206 53.9891 74.842 53.9111 74.556C53.8417 74.2613 53.7421 74.0273 53.6121 73.854C53.4821 73.6807 53.3261 73.5593 53.1441 73.49C52.9707 73.4207 52.7801 73.386 52.5721 73.386C52.3641 73.386 52.1734 73.4207 52.0001 73.49C51.8267 73.5593 51.6794 73.6807 51.5581 73.854C51.4367 74.0273 51.3414 74.2613 51.2721 74.556C51.2027 74.842 51.1681 75.206 51.1681 75.648C51.1681 76.064 51.2027 76.4107 51.2721 76.688C51.3414 76.9653 51.4367 77.1863 51.5581 77.351C51.6794 77.5157 51.8267 77.6327 52.0001 77.702C52.1734 77.7713 52.3641 77.806 52.5721 77.806C52.7801 77.806 52.9707 77.7713 53.1441 77.702C53.3261 77.6327 53.4821 77.5157 53.6121 77.351C53.7421 77.1863 53.8417 76.9653 53.9111 76.688C53.9891 76.4107 54.0281 76.064 54.0281 75.648ZM63.0761 71.657C63.2061 71.5097 63.3664 71.3753 63.5571 71.254C63.7477 71.124 64.0121 71.059 64.3501 71.059H67.2881L53.0141 89.428C52.8841 89.5927 52.7194 89.7313 52.5201 89.844C52.3294 89.948 52.0954 90 51.8181 90H48.8021L63.0761 71.657ZM68.0161 85.554C68.0161 86.2473 67.8904 86.8843 67.6391 87.465C67.3877 88.037 67.0541 88.531 66.6381 88.947C66.2221 89.3543 65.7367 89.6707 65.1821 89.896C64.6361 90.1213 64.0641 90.234 63.4661 90.234C62.8074 90.234 62.2007 90.1213 61.6461 89.896C61.1001 89.6707 60.6234 89.3543 60.2161 88.947C59.8174 88.531 59.5054 88.037 59.2801 87.465C59.0547 86.8843 58.9421 86.2473 58.9421 85.554C58.9421 84.8347 59.0547 84.1847 59.2801 83.604C59.5054 83.0147 59.8174 82.512 60.2161 82.096C60.6234 81.68 61.1001 81.3593 61.6461 81.134C62.2007 80.9 62.8074 80.783 63.4661 80.783C64.1247 80.783 64.7314 80.9 65.2861 81.134C65.8494 81.3593 66.3304 81.68 66.7291 82.096C67.1364 82.512 67.4527 83.0147 67.6781 83.604C67.9034 84.1847 68.0161 84.8347 68.0161 85.554ZM64.9221 85.554C64.9221 85.1207 64.8831 84.761 64.8051 84.475C64.7357 84.1803 64.6361 83.9463 64.5061 83.773C64.3761 83.5997 64.2201 83.4783 64.0381 83.409C63.8647 83.3397 63.6741 83.305 63.4661 83.305C63.2581 83.305 63.0674 83.3397 62.8941 83.409C62.7207 83.4783 62.5734 83.5997 62.4521 83.773C62.3307 83.9463 62.2354 84.1803 62.1661 84.475C62.0967 84.761 62.0621 85.1207 62.0621 85.554C62.0621 85.97 62.0967 86.3167 62.1661 86.594C62.2354 86.8713 62.3307 87.0923 62.4521 87.257C62.5734 87.4217 62.7207 87.5387 62.8941 87.608C63.0674 87.6773 63.2581 87.712 63.4661 87.712C63.6741 87.712 63.8647 87.6773 64.0381 87.608C64.2201 87.5387 64.3761 87.4217 64.5061 87.257C64.6361 87.0923 64.7357 86.8713 64.8051 86.594C64.8831 86.3167 64.9221 85.97 64.9221 85.554Z" fill="white"/>
<rect x="81" y="71.5" width="46" height="16" rx="4" fill="#823030"/>
<path d="M87.7484 81.76L89.2284 78.79H86.2584L87.7484 81.76ZM98.0489 82.485C98.1656 82.485 98.2572 82.52 98.3239 82.59C98.3906 82.6567 98.4239 82.7433 98.4239 82.85V83.5H93.5539V83.135C93.5539 83.0617 93.5689 82.985 93.5989 82.905C93.6289 82.825 93.6772 82.7517 93.7439 82.685L95.9839 80.44C96.1739 80.25 96.3422 80.0683 96.4889 79.895C96.6389 79.7217 96.7656 79.5483 96.8689 79.375C96.9756 79.2017 97.0556 79.0267 97.1089 78.85C97.1656 78.67 97.1939 78.4817 97.1939 78.285C97.1939 78.095 97.1639 77.9283 97.1039 77.785C97.0472 77.6383 96.9672 77.5183 96.8639 77.425C96.7639 77.3283 96.6422 77.2567 96.4989 77.21C96.3589 77.16 96.2039 77.135 96.0339 77.135C95.8706 77.135 95.7189 77.1583 95.5789 77.205C95.4422 77.2517 95.3189 77.3167 95.2089 77.4C95.1022 77.4833 95.0122 77.5833 94.9389 77.7C94.8689 77.8133 94.8172 77.9383 94.7839 78.075C94.7339 78.2117 94.6689 78.3033 94.5889 78.35C94.5122 78.3967 94.3989 78.4067 94.2489 78.38L93.6839 78.28C93.7339 77.94 93.8272 77.6417 93.9639 77.385C94.1039 77.1283 94.2789 76.915 94.4889 76.745C94.6989 76.5717 94.9389 76.4417 95.2089 76.355C95.4822 76.265 95.7772 76.22 96.0939 76.22C96.4139 76.22 96.7072 76.2683 96.9739 76.365C97.2439 76.4583 97.4756 76.5933 97.6689 76.77C97.8656 76.9433 98.0189 77.155 98.1289 77.405C98.2389 77.655 98.2939 77.9367 98.2939 78.25C98.2939 78.5167 98.2539 78.7633 98.1739 78.99C98.0972 79.2167 97.9922 79.4333 97.8589 79.64C97.7256 79.8467 97.5689 80.0483 97.3889 80.245C97.2122 80.4383 97.0256 80.635 96.8289 80.835L95.0889 82.615C95.2322 82.575 95.3756 82.5433 95.5189 82.52C95.6656 82.4967 95.8039 82.485 95.9339 82.485H98.0489ZM99.9197 82.88C99.9197 82.7833 99.9364 82.6933 99.9697 82.61C100.006 82.5233 100.055 82.4483 100.115 82.385C100.178 82.3217 100.251 82.2717 100.335 82.235C100.421 82.1983 100.513 82.18 100.61 82.18C100.706 82.18 100.796 82.1983 100.88 82.235C100.966 82.2717 101.041 82.3217 101.105 82.385C101.168 82.4483 101.218 82.5233 101.255 82.61C101.291 82.6933 101.31 82.7833 101.31 82.88C101.31 82.98 101.291 83.0717 101.255 83.155C101.218 83.2383 101.168 83.3117 101.105 83.375C101.041 83.4383 100.966 83.4867 100.88 83.52C100.796 83.5567 100.706 83.575 100.61 83.575C100.513 83.575 100.421 83.5567 100.335 83.52C100.251 83.4867 100.178 83.4383 100.115 83.375C100.055 83.3117 100.006 83.2383 99.9697 83.155C99.9364 83.0717 99.9197 82.98 99.9197 82.88ZM105.193 82.73C105.41 82.73 105.603 82.7 105.773 82.64C105.943 82.5767 106.085 82.49 106.198 82.38C106.315 82.2667 106.403 82.1333 106.463 81.98C106.523 81.8267 106.553 81.66 106.553 81.48C106.553 81.26 106.518 81.07 106.448 80.91C106.381 80.75 106.286 80.6183 106.163 80.515C106.043 80.4083 105.9 80.33 105.733 80.28C105.566 80.2267 105.386 80.2 105.193 80.2C105 80.2 104.82 80.2267 104.653 80.28C104.486 80.33 104.341 80.4083 104.218 80.515C104.098 80.6183 104.003 80.75 103.933 80.91C103.866 81.07 103.833 81.26 103.833 81.48C103.833 81.66 103.863 81.8267 103.923 81.98C103.983 82.1333 104.07 82.2667 104.183 82.38C104.3 82.49 104.443 82.5767 104.613 82.64C104.783 82.7 104.976 82.73 105.193 82.73ZM105.193 77.045C104.996 77.045 104.823 77.075 104.673 77.135C104.526 77.195 104.405 77.275 104.308 77.375C104.211 77.475 104.138 77.5933 104.088 77.73C104.041 77.8633 104.018 78.005 104.018 78.155C104.018 78.305 104.038 78.4517 104.078 78.595C104.121 78.7383 104.188 78.8667 104.278 78.98C104.371 79.09 104.493 79.1783 104.643 79.245C104.793 79.3117 104.976 79.345 105.193 79.345C105.41 79.345 105.593 79.3117 105.743 79.245C105.893 79.1783 106.013 79.09 106.103 78.98C106.196 78.8667 106.263 78.7383 106.303 78.595C106.346 78.4517 106.368 78.305 106.368 78.155C106.368 78.005 106.343 77.8633 106.293 77.73C106.246 77.5933 106.173 77.475 106.073 77.375C105.976 77.275 105.855 77.195 105.708 77.135C105.561 77.075 105.39 77.045 105.193 77.045ZM106.328 79.745C106.771 79.8817 107.103 80.0983 107.323 80.395C107.546 80.6917 107.658 81.06 107.658 81.5C107.658 81.8167 107.598 82.1033 107.478 82.36C107.358 82.6167 107.19 82.835 106.973 83.015C106.756 83.195 106.496 83.335 106.193 83.435C105.893 83.5317 105.56 83.58 105.193 83.58C104.826 83.58 104.491 83.5317 104.188 83.435C103.888 83.335 103.63 83.195 103.413 83.015C103.196 82.835 103.028 82.6167 102.908 82.36C102.788 82.1033 102.728 81.8167 102.728 81.5C102.728 81.06 102.838 80.6917 103.058 80.395C103.281 80.0983 103.615 79.8817 104.058 79.745C103.698 79.6017 103.426 79.3933 103.243 79.12C103.063 78.8467 102.973 78.5183 102.973 78.135C102.973 77.865 103.026 77.6133 103.133 77.38C103.24 77.1467 103.39 76.945 103.583 76.775C103.78 76.6017 104.015 76.4667 104.288 76.37C104.561 76.27 104.863 76.22 105.193 76.22C105.523 76.22 105.823 76.27 106.093 76.37C106.366 76.4667 106.6 76.6017 106.793 76.775C106.99 76.945 107.141 77.1467 107.248 77.38C107.358 77.6133 107.413 77.865 107.413 78.135C107.413 78.5183 107.321 78.8467 107.138 79.12C106.958 79.3933 106.688 79.6017 106.328 79.745ZM110.134 78.44C110.134 78.8667 110.247 79.195 110.474 79.425C110.704 79.6517 111.024 79.765 111.434 79.765C111.654 79.765 111.847 79.73 112.014 79.66C112.184 79.59 112.327 79.4967 112.444 79.38C112.56 79.26 112.649 79.1217 112.709 78.965C112.769 78.805 112.799 78.635 112.799 78.455C112.799 78.245 112.765 78.0583 112.699 77.895C112.635 77.7283 112.544 77.5867 112.424 77.47C112.307 77.3533 112.167 77.265 112.004 77.205C111.84 77.1417 111.662 77.11 111.469 77.11C111.265 77.11 111.082 77.1433 110.919 77.21C110.755 77.2767 110.615 77.37 110.499 77.49C110.382 77.6067 110.292 77.7467 110.229 77.91C110.165 78.07 110.134 78.2467 110.134 78.44ZM111.979 80.675C112.045 80.5917 112.107 80.5133 112.164 80.44C112.22 80.3633 112.274 80.2867 112.324 80.21C112.15 80.3333 111.957 80.4283 111.744 80.495C111.53 80.5583 111.304 80.59 111.064 80.59C110.804 80.59 110.554 80.5467 110.314 80.46C110.074 80.37 109.86 80.2383 109.674 80.065C109.487 79.8883 109.337 79.6717 109.224 79.415C109.114 79.155 109.059 78.8567 109.059 78.52C109.059 78.2033 109.117 77.905 109.234 77.625C109.354 77.345 109.52 77.1017 109.734 76.895C109.947 76.685 110.202 76.52 110.499 76.4C110.795 76.28 111.124 76.22 111.484 76.22C111.84 76.22 112.164 76.2783 112.454 76.395C112.744 76.5083 112.99 76.67 113.194 76.88C113.397 77.0867 113.554 77.335 113.664 77.625C113.774 77.9117 113.829 78.2283 113.829 78.575C113.829 78.7917 113.809 78.9967 113.769 79.19C113.732 79.3833 113.677 79.5717 113.604 79.755C113.534 79.935 113.447 80.1133 113.344 80.29C113.244 80.4633 113.13 80.64 113.004 80.82L111.309 83.25C111.259 83.3233 111.184 83.3833 111.084 83.43C110.987 83.4767 110.877 83.5 110.754 83.5H109.769L111.979 80.675ZM118.565 78.04C118.565 78.3167 118.52 78.565 118.43 78.785C118.343 79.005 118.225 79.1933 118.075 79.35C117.925 79.5033 117.751 79.6217 117.555 79.705C117.358 79.785 117.151 79.825 116.935 79.825C116.701 79.825 116.485 79.785 116.285 79.705C116.088 79.6217 115.916 79.5033 115.77 79.35C115.626 79.1933 115.513 79.005 115.43 78.785C115.346 78.565 115.305 78.3167 115.305 78.04C115.305 77.7567 115.346 77.5033 115.43 77.28C115.513 77.0533 115.626 76.8633 115.77 76.71C115.916 76.5533 116.088 76.4333 116.285 76.35C116.485 76.2667 116.701 76.225 116.935 76.225C117.168 76.225 117.383 76.2667 117.58 76.35C117.78 76.4333 117.951 76.5533 118.095 76.71C118.241 76.8633 118.356 77.0533 118.44 77.28C118.523 77.5033 118.565 77.7567 118.565 78.04ZM117.735 78.04C117.735 77.8367 117.713 77.665 117.67 77.525C117.63 77.3817 117.573 77.2667 117.5 77.18C117.43 77.09 117.345 77.0267 117.245 76.99C117.148 76.95 117.045 76.93 116.935 76.93C116.821 76.93 116.716 76.95 116.62 76.99C116.523 77.0267 116.44 77.09 116.37 77.18C116.3 77.2667 116.245 77.3817 116.205 77.525C116.165 77.665 116.145 77.8367 116.145 78.04C116.145 78.24 116.165 78.4083 116.205 78.545C116.245 78.6817 116.3 78.7933 116.37 78.88C116.44 78.9633 116.523 79.0233 116.62 79.06C116.716 79.0967 116.821 79.115 116.935 79.115C117.045 79.115 117.148 79.0967 117.245 79.06C117.345 79.0233 117.43 78.9633 117.5 78.88C117.573 78.7933 117.63 78.6817 117.67 78.545C117.713 78.4083 117.735 78.24 117.735 78.04ZM121.035 76.475C121.071 76.4283 121.115 76.3883 121.165 76.355C121.218 76.3183 121.291 76.3 121.385 76.3H122.16L116.855 83.335C116.818 83.3817 116.773 83.4217 116.72 83.455C116.666 83.485 116.601 83.5 116.525 83.5H115.725L121.035 76.475ZM122.595 81.805C122.595 82.0817 122.55 82.33 122.46 82.55C122.37 82.77 122.25 82.9567 122.1 83.11C121.95 83.2633 121.776 83.3817 121.58 83.465C121.383 83.545 121.176 83.585 120.96 83.585C120.726 83.585 120.51 83.545 120.31 83.465C120.113 83.3817 119.941 83.2633 119.795 83.11C119.651 82.9567 119.538 82.77 119.455 82.55C119.375 82.33 119.335 82.0817 119.335 81.805C119.335 81.5217 119.375 81.2683 119.455 81.045C119.538 80.8183 119.651 80.6267 119.795 80.47C119.941 80.3133 120.113 80.195 120.31 80.115C120.51 80.0317 120.726 79.99 120.96 79.99C121.193 79.99 121.41 80.0317 121.61 80.115C121.81 80.195 121.981 80.3133 122.125 80.47C122.271 80.6267 122.386 80.8183 122.47 81.045C122.553 81.2683 122.595 81.5217 122.595 81.805ZM121.765 81.805C121.765 81.6017 121.743 81.43 121.7 81.29C121.66 81.1467 121.603 81.0317 121.53 80.945C121.456 80.855 121.37 80.7917 121.27 80.755C121.173 80.715 121.07 80.695 120.96 80.695C120.85 80.695 120.746 80.715 120.65 80.755C120.553 80.7917 120.468 80.855 120.395 80.945C120.325 81.0317 120.27 81.1467 120.23 81.29C120.19 81.43 120.17 81.6017 120.17 81.805C120.17 82.005 120.19 82.1733 120.23 82.31C120.27 82.4467 120.325 82.5583 120.395 82.645C120.468 82.7283 120.553 82.7883 120.65 82.825C120.746 82.8617 120.85 82.88 120.96 82.88C121.07 82.88 121.173 82.8617 121.27 82.825C121.37 82.7883 121.456 82.7283 121.53 82.645C121.603 82.5583 121.66 82.4467 121.7 82.31C121.743 82.1733 121.765 82.005 121.765 81.805Z" fill="#FFF4F4"/>
<rect x="241" y="16" width="32" height="32" rx="8" fill="#774700"/>
<g clip-path="url(#clip0_2001_2257)">
<path d="M263.667 25.3333L256.333 32.6666" stroke="#FFD9AA" stroke-width="2" stroke-linecap="round" stroke-linejoin="round"/>
<path d="M263.667 25.3333L259 38.6666L256.333 32.6666L250.333 29.9999L263.667 25.3333Z" stroke="#FFD9AA" stroke-width="2" stroke-linecap="round" stroke-linejoin="round"/>
</g>
<path d="M21.026 118.284C19.6073 118.284 18.5013 117.962 17.708 117.318C16.924 116.683 16.532 115.792 16.532 114.644C16.532 114.224 16.588 113.762 16.7 113.258C16.8213 112.754 16.9847 112.259 17.19 111.774L18.254 112.096C18.0767 112.479 17.932 112.871 17.82 113.272C17.708 113.673 17.652 114.037 17.652 114.364C17.652 115.073 17.9087 115.619 18.422 116.002C18.9353 116.394 19.6447 116.59 20.55 116.59H21.516C22.5893 116.59 23.4247 116.427 24.022 116.1C24.6287 115.783 24.932 115.335 24.932 114.756V114.728L22.804 114.308C22.0387 114.159 21.4927 113.925 21.166 113.608C20.8393 113.291 20.676 112.829 20.676 112.222C20.676 111.746 20.7693 111.289 20.956 110.85C21.1427 110.402 21.3947 110.01 21.712 109.674C22.0387 109.329 22.412 109.053 22.832 108.848C23.2613 108.643 23.7093 108.54 24.176 108.54C24.8387 108.531 25.3847 108.699 25.814 109.044C26.2433 109.389 26.6073 109.917 26.906 110.626L27.298 111.564C27.3913 111.816 27.48 112.007 27.564 112.138L28.166 111.116C28.5113 110.519 28.8567 110.019 29.202 109.618C29.5567 109.207 29.9207 108.881 30.294 108.638C30.6673 108.386 31.0547 108.209 31.456 108.106C31.8573 107.994 32.2773 107.938 32.716 107.938C33.7053 107.938 34.4613 108.213 34.984 108.764C35.516 109.305 35.782 110.057 35.782 111.018C35.782 112.073 35.502 112.833 34.942 113.3C34.382 113.767 33.528 114 32.38 114H28.138C27.886 114 27.6573 113.972 27.452 113.916C27.256 113.851 27.074 113.748 26.906 113.608C26.7473 113.468 26.598 113.286 26.458 113.062C26.318 112.838 26.178 112.563 26.038 112.236L25.646 111.326C25.3193 110.533 24.764 110.136 23.98 110.136C23.7093 110.136 23.4433 110.183 23.182 110.276C22.9207 110.369 22.6873 110.495 22.482 110.654C22.2767 110.813 22.1133 110.995 21.992 111.2C21.8707 111.405 21.81 111.615 21.81 111.83C21.81 112.073 21.894 112.259 22.062 112.39C22.23 112.521 22.5333 112.637 22.972 112.74L24.736 113.118C25.2027 113.221 25.5387 113.403 25.744 113.664C25.9587 113.925 26.066 114.289 26.066 114.756C26.066 115.316 25.9493 115.815 25.716 116.254C25.492 116.693 25.1607 117.061 24.722 117.36C24.2927 117.659 23.7653 117.887 23.14 118.046C22.524 118.205 21.8193 118.284 21.026 118.284ZM28.53 112.334L28.572 112.418H32.38C33.164 112.418 33.7333 112.32 34.088 112.124C34.4427 111.928 34.62 111.569 34.62 111.046C34.62 110.038 34.0553 109.534 32.926 109.534H32.506C32.114 109.534 31.764 109.562 31.456 109.618C31.148 109.674 30.8633 109.772 30.602 109.912C30.3407 110.052 30.0887 110.243 29.846 110.486C29.6127 110.729 29.3747 111.037 29.132 111.41L28.53 112.334ZM21.908 121.182C21.6933 121.182 21.5207 121.117 21.39 120.986C21.2687 120.855 21.208 120.655 21.208 120.384C21.208 120.104 21.2687 119.899 21.39 119.768C21.5207 119.647 21.6933 119.586 21.908 119.586H22.118C22.3327 119.586 22.5053 119.647 22.636 119.768C22.7667 119.899 22.832 120.104 22.832 120.384C22.832 120.655 22.7667 120.855 22.636 120.986C22.5053 121.117 22.3327 121.182 22.118 121.182H21.908ZM19.934 121.182C19.7193 121.182 19.5467 121.117 19.416 120.986C19.2947 120.855 19.234 120.655 19.234 120.384C19.234 120.104 19.2947 119.899 19.416 119.768C19.5467 119.647 19.7193 119.586 19.934 119.586H20.144C20.3587 119.586 20.5313 119.647 20.662 119.768C20.7927 119.899 20.858 120.104 20.858 120.384C20.858 120.655 20.7927 120.855 20.662 120.986C20.5313 121.117 20.3587 121.182 20.144 121.182H19.934ZM32.184 106.51C31.9693 106.51 31.7967 106.445 31.666 106.314C31.5447 106.183 31.484 105.983 31.484 105.712C31.484 105.432 31.5447 105.231 31.666 105.11C31.7967 104.979 31.9693 104.914 32.184 104.914H32.394C32.6087 104.914 32.7813 104.979 32.912 105.11C33.0427 105.231 33.108 105.432 33.108 105.712C33.108 105.983 33.0427 106.183 32.912 106.314C32.7813 106.445 32.6087 106.51 32.394 106.51H32.184ZM40.3858 114C39.4711 114 38.8131 113.813 38.4118 113.44C38.0104 113.057 37.8098 112.423 37.8098 111.536V103.64H39.1118V111.41C39.1118 111.802 39.2004 112.068 39.3778 112.208C39.5644 112.348 39.8678 112.418 40.2878 112.418H40.7498V113.664L40.3998 114H40.3858ZM40.9179 112.754L41.2539 112.418C41.5432 112.418 41.7719 112.409 41.9399 112.39C42.1172 112.371 42.2712 112.329 42.4019 112.264C42.3739 112.115 42.3599 111.951 42.3599 111.774C42.3599 111.251 42.5232 110.771 42.8499 110.332C43.1859 109.893 43.6852 109.464 44.3479 109.044L45.1179 108.568H46.5319L47.5819 111.382C47.6566 111.587 47.7312 111.76 47.8059 111.9C47.8806 112.031 47.9599 112.133 48.0439 112.208C48.1372 112.283 48.2399 112.339 48.3519 112.376C48.4639 112.404 48.5992 112.418 48.7579 112.418H49.0939V113.664L48.7579 114C48.2446 114 47.8386 113.925 47.5399 113.776C47.2412 113.617 46.9799 113.347 46.7559 112.964L46.6719 112.978V114H44.9499C44.3246 114 43.8112 113.897 43.4099 113.692C43.0179 113.477 42.7332 113.174 42.5559 112.782H42.4719C42.3412 113.202 42.1546 113.51 41.9119 113.706C41.6692 113.902 41.3379 114 40.9179 114V112.754ZM43.4379 111.62C43.4379 111.9 43.5499 112.105 43.7739 112.236C43.9979 112.357 44.3199 112.418 44.7399 112.418H46.4899C46.4526 112.343 46.4199 112.264 46.3919 112.18C46.3639 112.096 46.3312 112.007 46.2939 111.914L45.5519 109.926L44.7119 110.346C44.3386 110.533 44.0306 110.733 43.7879 110.948C43.5546 111.153 43.4379 111.377 43.4379 111.62ZM49.2519 112.754L49.5879 112.418H50.0779C50.4886 112.418 50.7732 112.329 50.9319 112.152C51.0999 111.975 51.1839 111.695 51.1839 111.312V103.64H52.4999V111.312C52.4999 112.236 52.3132 112.917 51.9399 113.356C51.5666 113.785 50.9459 114 50.0779 114H49.2519V112.754ZM54.9367 103.64H56.2387V114H54.9367V103.64ZM60.6795 115.778H61.2115C61.6875 115.778 62.0842 115.717 62.4015 115.596C62.7189 115.475 62.9755 115.302 63.1715 115.078C63.3675 114.863 63.5075 114.602 63.5915 114.294C63.6755 113.986 63.7175 113.641 63.7175 113.258C63.7175 113.006 63.7035 112.745 63.6755 112.474C63.6475 112.203 63.6102 111.933 63.5635 111.662L63.2695 109.968L64.4735 109.744L64.6695 110.92C64.7162 111.191 64.7535 111.452 64.7815 111.704C64.8189 111.956 64.8469 112.194 64.8655 112.418H66.1675V113.664L65.8315 114H64.8655C64.8095 114.485 64.6975 114.933 64.5295 115.344C64.3615 115.755 64.1282 116.109 63.8295 116.408C63.5402 116.707 63.1809 116.94 62.7515 117.108C62.3222 117.276 61.8135 117.36 61.2255 117.36H60.6795V115.778ZM69.062 117.78C68.81 117.397 68.6 117.071 68.432 116.8C68.2733 116.539 68.1426 116.31 68.04 116.114C67.9466 115.918 67.8813 115.741 67.844 115.582C67.8066 115.433 67.788 115.274 67.788 115.106C67.788 114.807 67.8393 114.523 67.942 114.252C68.054 113.981 68.1846 113.739 68.334 113.524L68.264 113.482C68.0773 113.659 67.844 113.79 67.564 113.874C67.2933 113.958 66.8826 114 66.332 114V112.754L66.668 112.418H67.074C67.4566 112.418 67.7553 112.348 67.97 112.208C68.194 112.068 68.3946 111.821 68.572 111.466L69.146 110.304L70.182 110.836L69.65 111.914C69.5286 112.157 69.426 112.376 69.342 112.572C69.258 112.768 69.188 112.95 69.132 113.118C69.076 113.277 69.034 113.431 69.006 113.58C68.9873 113.729 68.978 113.879 68.978 114.028C68.978 114.187 68.9966 114.341 69.034 114.49C69.0713 114.639 69.1273 114.803 69.202 114.98C69.2766 115.167 69.3746 115.367 69.496 115.582C69.6266 115.797 69.7806 116.044 69.958 116.324L71.106 113.496C71.2646 113.085 71.4326 112.805 71.61 112.656C71.7873 112.497 72.0393 112.418 72.366 112.418H73.486V113.664L73.15 114H72.086L70.602 117.78H69.062ZM73.6542 112.754L73.9902 112.418H74.2702C74.4662 112.418 74.6389 112.404 74.7882 112.376C74.9376 112.348 75.0682 112.297 75.1802 112.222C75.2922 112.147 75.3949 112.049 75.4882 111.928C75.5816 111.807 75.6749 111.653 75.7682 111.466L76.3422 110.304L77.3922 110.836L76.7622 112.082L76.8602 112.138C77.1402 112.297 77.4062 112.413 77.6582 112.488C77.9196 112.563 78.1856 112.6 78.4562 112.6C78.8762 112.6 79.1842 112.507 79.3802 112.32C79.5762 112.124 79.6742 111.788 79.6742 111.312V110.304H80.8922V111.312C80.8922 111.769 80.9529 112.096 81.0742 112.292C81.2049 112.479 81.4289 112.572 81.7462 112.572H81.9982C82.2969 112.572 82.5116 112.479 82.6422 112.292C82.7822 112.096 82.8522 111.769 82.8522 111.312V109.744H84.0702V111.312C84.0702 112.049 84.4342 112.418 85.1622 112.418H85.6942V113.664L85.3442 114C84.6909 114 84.1822 113.883 83.8182 113.65C83.4636 113.407 83.2209 113.034 83.0902 112.53H83.0202C82.9642 113.118 82.8102 113.538 82.5582 113.79C82.3156 114.042 81.9702 114.168 81.5222 114.168C80.5702 114.168 80.0056 113.622 79.8282 112.53H79.7442C79.5856 113.622 79.0676 114.168 78.1902 114.168C77.9196 114.168 77.6396 114.117 77.3502 114.014C77.0702 113.911 76.7342 113.743 76.3422 113.51L75.9642 113.286C75.6842 113.575 75.3669 113.767 75.0122 113.86C74.6576 113.953 74.2049 114 73.6542 114V112.754ZM81.1862 108.876C80.9716 108.876 80.7989 108.811 80.6682 108.68C80.5376 108.549 80.4722 108.349 80.4722 108.078C80.4722 107.798 80.5376 107.597 80.6682 107.476C80.7989 107.345 80.9716 107.28 81.1862 107.28H81.3822C81.5969 107.28 81.7696 107.345 81.9002 107.476C82.0309 107.597 82.0962 107.798 82.0962 108.078C82.0962 108.349 82.0309 108.549 81.9002 108.68C81.7696 108.811 81.5969 108.876 81.3822 108.876H81.1862ZM79.1982 108.876C78.9836 108.876 78.8109 108.811 78.6802 108.68C78.5589 108.549 78.4982 108.349 78.4982 108.078C78.4982 107.798 78.5589 107.597 78.6802 107.476C78.8109 107.345 78.9836 107.28 79.1982 107.28H79.4082C79.6229 107.28 79.7956 107.345 79.9262 107.476C80.0569 107.597 80.1222 107.798 80.1222 108.078C80.1222 108.349 80.0569 108.549 79.9262 108.68C79.7956 108.811 79.6229 108.876 79.4082 108.876H79.1982ZM80.1922 107.028C79.9869 107.028 79.8189 106.967 79.6882 106.846C79.5576 106.715 79.4922 106.515 79.4922 106.244C79.4922 105.973 79.5576 105.777 79.6882 105.656C79.8189 105.535 79.9869 105.474 80.1922 105.474H80.4022C80.6076 105.474 80.7709 105.535 80.8922 105.656C81.0229 105.777 81.0882 105.973 81.0882 106.244C81.0882 106.515 81.0229 106.715 80.8922 106.846C80.7709 106.967 80.6076 107.028 80.4022 107.028H80.1922ZM85.8574 112.754L86.1934 112.418H86.6834C87.094 112.418 87.3787 112.329 87.5374 112.152C87.7054 111.975 87.7894 111.695 87.7894 111.312V103.64H89.1054V111.312C89.1054 112.236 88.9187 112.917 88.5454 113.356C88.172 113.785 87.5514 114 86.6834 114H85.8574V112.754ZM94.1182 114C93.2035 114 92.5455 113.813 92.1442 113.44C91.7428 113.057 91.5422 112.423 91.5422 111.536V103.64H92.8442V111.41C92.8442 111.802 92.9328 112.068 93.1102 112.208C93.2968 112.348 93.6002 112.418 94.0202 112.418H94.4822V113.664L94.1322 114H94.1182ZM94.6503 112.754L94.9863 112.418H95.2803C95.915 112.418 96.363 112.348 96.6243 112.208C96.8857 112.059 97.0163 111.793 97.0163 111.41C97.0163 111.251 97.0023 111.051 96.9743 110.808C96.9557 110.565 96.9137 110.243 96.8483 109.842L96.6243 108.624L97.8423 108.428L98.0243 109.646C98.1363 110.393 98.1923 110.981 98.1923 111.41C98.1923 112.287 97.9543 112.941 97.4783 113.37C97.0023 113.79 96.2697 114 95.2803 114H94.6503V112.754ZM96.9043 116.898C96.6897 116.898 96.517 116.833 96.3863 116.702C96.265 116.571 96.2043 116.371 96.2043 116.1C96.2043 115.82 96.265 115.615 96.3863 115.484C96.517 115.363 96.6897 115.302 96.9043 115.302H97.1143C97.329 115.302 97.5017 115.363 97.6323 115.484C97.763 115.615 97.8283 115.82 97.8283 116.1C97.8283 116.371 97.763 116.571 97.6323 116.702C97.5017 116.833 97.329 116.898 97.1143 116.898H96.9043ZM109.691 114C108.842 114 108.23 113.827 107.857 113.482C107.493 113.127 107.311 112.581 107.311 111.844V111.676H107.241C107.101 112.199 106.882 112.577 106.583 112.81C106.284 113.034 105.892 113.146 105.407 113.146C104.763 113.146 104.268 112.973 103.923 112.628C103.578 112.283 103.405 111.797 103.405 111.172C103.405 110.855 103.452 110.565 103.545 110.304C103.638 110.033 103.783 109.781 103.979 109.548C104.175 109.315 104.418 109.095 104.707 108.89C105.006 108.675 105.356 108.461 105.757 108.246L107.241 107.462V106.72H108.515V111.536C108.515 111.872 108.599 112.105 108.767 112.236C108.935 112.357 109.201 112.418 109.565 112.418H110.027V113.664L109.691 114ZM105.715 111.564C106.275 111.564 106.667 111.494 106.891 111.354C107.124 111.214 107.241 110.967 107.241 110.612V108.722L105.981 109.366C105.477 109.627 105.113 109.861 104.889 110.066C104.665 110.262 104.553 110.505 104.553 110.794C104.553 111.065 104.637 111.261 104.805 111.382C104.982 111.503 105.286 111.564 105.715 111.564ZM107.801 105.586C107.586 105.586 107.414 105.521 107.283 105.39C107.162 105.259 107.101 105.059 107.101 104.788C107.101 104.508 107.162 104.307 107.283 104.186C107.414 104.055 107.586 103.99 107.801 103.99H108.011C108.226 103.99 108.398 104.055 108.529 104.186C108.66 104.307 108.725 104.508 108.725 104.788C108.725 105.059 108.66 105.259 108.529 105.39C108.398 105.521 108.226 105.586 108.011 105.586H107.801ZM105.827 105.586C105.612 105.586 105.44 105.521 105.309 105.39C105.188 105.259 105.127 105.059 105.127 104.788C105.127 104.508 105.188 104.307 105.309 104.186C105.44 104.055 105.612 103.99 105.827 103.99H106.037C106.252 103.99 106.424 104.055 106.555 104.186C106.686 104.307 106.751 104.508 106.751 104.788C106.751 105.059 106.686 105.259 106.555 105.39C106.424 105.521 106.252 105.586 106.037 105.586H105.827ZM110.191 112.754L110.527 112.418H110.821C111.456 112.418 111.904 112.348 112.165 112.208C112.427 112.059 112.557 111.793 112.557 111.41C112.557 111.251 112.543 111.051 112.515 110.808C112.497 110.565 112.455 110.243 112.389 109.842L112.165 108.624L113.383 108.428L113.565 109.646C113.677 110.393 113.733 110.981 113.733 111.41C113.733 112.287 113.495 112.941 113.019 113.37C112.543 113.79 111.811 114 110.821 114H110.191V112.754ZM112.487 107C112.273 107 112.1 106.935 111.969 106.804C111.848 106.673 111.787 106.473 111.787 106.202C111.787 105.922 111.848 105.721 111.969 105.6C112.1 105.469 112.273 105.404 112.487 105.404H112.697C112.912 105.404 113.085 105.469 113.215 105.6C113.346 105.721 113.411 105.922 113.411 106.202C113.411 106.473 113.346 106.673 113.215 106.804C113.085 106.935 112.912 107 112.697 107H112.487ZM113.933 115.778H114.465C114.941 115.778 115.338 115.717 115.655 115.596C115.973 115.475 116.229 115.302 116.425 115.078C116.621 114.863 116.761 114.602 116.845 114.294C116.929 113.986 116.971 113.641 116.971 113.258C116.971 113.006 116.957 112.745 116.929 112.474C116.901 112.203 116.864 111.933 116.817 111.662L116.523 109.968L117.727 109.744L117.923 110.92C118.082 111.825 118.161 112.6 118.161 113.244C118.161 113.823 118.091 114.359 117.951 114.854C117.821 115.358 117.606 115.797 117.307 116.17C117.009 116.543 116.626 116.833 116.159 117.038C115.693 117.253 115.133 117.36 114.479 117.36H113.933V115.778ZM122.739 114C121.825 114 121.167 113.813 120.765 113.44C120.364 113.057 120.163 112.423 120.163 111.536V103.64H121.465V111.41C121.465 111.802 121.554 112.068 121.731 112.208C121.918 112.348 122.221 112.418 122.641 112.418H123.103V113.664L122.753 114H122.739ZM123.271 112.754L123.607 112.418H125.413L125.441 112.348C124.601 111.629 124.181 110.785 124.181 109.814C124.181 109.422 124.242 109.053 124.363 108.708C124.494 108.363 124.676 108.059 124.909 107.798C125.143 107.537 125.418 107.331 125.735 107.182C126.062 107.033 126.421 106.958 126.813 106.958C127.205 106.958 127.56 107.033 127.877 107.182C128.204 107.331 128.479 107.537 128.703 107.798C128.937 108.05 129.119 108.353 129.249 108.708C129.38 109.053 129.445 109.422 129.445 109.814C129.445 110.775 129.025 111.62 128.185 112.348L128.213 112.418H130.033V113.664L129.697 114H129.529C129.035 114 128.559 113.944 128.101 113.832C127.653 113.711 127.224 113.515 126.813 113.244C126.412 113.515 125.983 113.711 125.525 113.832C125.068 113.944 124.597 114 124.111 114H123.271V112.754ZM126.813 112.096C127.289 111.835 127.658 111.536 127.919 111.2C128.181 110.864 128.311 110.472 128.311 110.024C128.311 109.576 128.176 109.217 127.905 108.946C127.644 108.675 127.303 108.54 126.883 108.54H126.729C126.309 108.54 125.964 108.675 125.693 108.946C125.432 109.217 125.301 109.576 125.301 110.024C125.301 110.472 125.432 110.864 125.693 111.2C125.964 111.536 126.337 111.835 126.813 112.096ZM127.667 105.53C127.453 105.53 127.28 105.465 127.149 105.334C127.028 105.203 126.967 105.003 126.967 104.732C126.967 104.452 127.028 104.251 127.149 104.13C127.28 103.999 127.453 103.934 127.667 103.934H127.877C128.092 103.934 128.265 103.999 128.395 104.13C128.526 104.251 128.591 104.452 128.591 104.732C128.591 105.003 128.526 105.203 128.395 105.334C128.265 105.465 128.092 105.53 127.877 105.53H127.667ZM125.693 105.53C125.479 105.53 125.306 105.465 125.175 105.334C125.054 105.203 124.993 105.003 124.993 104.732C124.993 104.452 125.054 104.251 125.175 104.13C125.306 103.999 125.479 103.934 125.693 103.934H125.903C126.118 103.934 126.291 103.999 126.421 104.13C126.552 104.251 126.617 104.452 126.617 104.732C126.617 105.003 126.552 105.203 126.421 105.334C126.291 105.465 126.118 105.53 125.903 105.53H125.693ZM132.115 113.202C131.901 113.491 131.644 113.697 131.345 113.818C131.047 113.939 130.664 114 130.197 114V112.754L130.533 112.418C130.888 112.418 131.145 112.343 131.303 112.194C131.471 112.035 131.625 111.769 131.765 111.396L132.157 110.388C132.381 109.809 132.675 109.347 133.039 109.002C133.413 108.647 133.912 108.47 134.537 108.47C135.303 108.47 135.891 108.797 136.301 109.45C136.712 110.094 136.917 110.999 136.917 112.166V112.712L135.867 114.252L132.115 113.202ZM132.773 111.732L135.713 112.558V112.166C135.713 111.503 135.587 110.985 135.335 110.612C135.083 110.239 134.733 110.052 134.285 110.052C133.959 110.052 133.693 110.15 133.487 110.346C133.291 110.533 133.128 110.794 132.997 111.13L132.773 111.732Z" fill="#B8C0CC"/>
<path d="M22.6 137.704C22.6 138.456 22.518 139.108 22.354 139.66C22.194 140.208 21.974 140.662 21.694 141.022C21.414 141.382 21.082 141.65 20.698 141.826C20.318 142.002 19.91 142.09 19.474 142.09C19.034 142.09 18.624 142.002 18.244 141.826C17.868 141.65 17.54 141.382 17.26 141.022C16.98 140.662 16.76 140.208 16.6 139.66C16.44 139.108 16.36 138.456 16.36 137.704C16.36 136.952 16.44 136.3 16.6 135.748C16.76 135.196 16.98 134.74 17.26 134.38C17.54 134.016 17.868 133.746 18.244 133.57C18.624 133.394 19.034 133.306 19.474 133.306C19.91 133.306 20.318 133.394 20.698 133.57C21.082 133.746 21.414 134.016 21.694 134.38C21.974 134.74 22.194 135.196 22.354 135.748C22.518 136.3 22.6 136.952 22.6 137.704ZM21.49 137.704C21.49 137.048 21.434 136.498 21.322 136.054C21.214 135.606 21.066 135.246 20.878 134.974C20.694 134.702 20.48 134.508 20.236 134.392C19.992 134.272 19.738 134.212 19.474 134.212C19.21 134.212 18.956 134.272 18.712 134.392C18.468 134.508 18.254 134.702 18.07 134.974C17.886 135.246 17.738 135.606 17.626 136.054C17.518 136.498 17.464 137.048 17.464 137.704C17.464 138.36 17.518 138.91 17.626 139.354C17.738 139.798 17.886 140.156 18.07 140.428C18.254 140.7 18.468 140.896 18.712 141.016C18.956 141.132 19.21 141.19 19.474 141.19C19.738 141.19 19.992 141.132 20.236 141.016C20.48 140.896 20.694 140.7 20.878 140.428C21.066 140.156 21.214 139.798 21.322 139.354C21.434 138.91 21.49 138.36 21.49 137.704ZM27.7929 135.478C27.7929 135.814 27.7409 136.116 27.6369 136.384C27.5329 136.648 27.3929 136.872 27.2169 137.056C27.0449 137.236 26.8429 137.374 26.6109 137.47C26.3829 137.566 26.1409 137.614 25.8849 137.614C25.6169 137.614 25.3669 137.566 25.1349 137.47C24.9029 137.374 24.7009 137.236 24.5289 137.056C24.3609 136.872 24.2289 136.648 24.1329 136.384C24.0369 136.116 23.9889 135.814 23.9889 135.478C23.9889 135.134 24.0369 134.828 24.1329 134.56C24.2289 134.292 24.3609 134.066 24.5289 133.882C24.7009 133.698 24.9029 133.558 25.1349 133.462C25.3669 133.366 25.6169 133.318 25.8849 133.318C26.1569 133.318 26.4089 133.366 26.6409 133.462C26.8729 133.558 27.0749 133.698 27.2469 133.882C27.4189 134.066 27.5529 134.292 27.6489 134.56C27.7449 134.828 27.7929 135.134 27.7929 135.478ZM26.9649 135.478C26.9649 135.214 26.9369 134.99 26.8809 134.806C26.8249 134.622 26.7469 134.472 26.6469 134.356C26.5509 134.236 26.4369 134.15 26.3049 134.098C26.1729 134.046 26.0329 134.02 25.8849 134.02C25.7369 134.02 25.5989 134.046 25.4709 134.098C25.3429 134.15 25.2309 134.236 25.1349 134.356C25.0389 134.472 24.9629 134.622 24.9069 134.806C24.8509 134.99 24.8229 135.214 24.8229 135.478C24.8229 135.738 24.8509 135.96 24.9069 136.144C24.9629 136.324 25.0389 136.472 25.1349 136.588C25.2309 136.7 25.3429 136.782 25.4709 136.834C25.5989 136.882 25.7369 136.906 25.8849 136.906C26.0329 136.906 26.1729 136.882 26.3049 136.834C26.4369 136.782 26.5509 136.7 26.6469 136.588C26.7469 136.472 26.8249 136.324 26.8809 136.144C26.9369 135.96 26.9649 135.738 26.9649 135.478ZM30.8349 133.582C30.8749 133.534 30.9209 133.492 30.9729 133.456C31.0289 133.42 31.1029 133.402 31.1949 133.402H31.9689L25.6809 141.826C25.6449 141.878 25.5989 141.92 25.5429 141.952C25.4869 141.984 25.4189 142 25.3389 142H24.5529L30.8349 133.582ZM32.5509 139.972C32.5509 140.308 32.4989 140.608 32.3949 140.872C32.2909 141.136 32.1509 141.36 31.9749 141.544C31.8029 141.724 31.6009 141.862 31.3689 141.958C31.1409 142.054 30.8989 142.102 30.6429 142.102C30.3709 142.102 30.1189 142.054 29.8869 141.958C29.6589 141.862 29.4589 141.724 29.2869 141.544C29.1189 141.36 28.9869 141.136 28.8909 140.872C28.7949 140.608 28.7469 140.308 28.7469 139.972C28.7469 139.628 28.7949 139.322 28.8909 139.054C28.9869 138.782 29.1189 138.554 29.2869 138.37C29.4589 138.186 29.6589 138.046 29.8869 137.95C30.1189 137.854 30.3709 137.806 30.6429 137.806C30.9109 137.806 31.1609 137.854 31.3929 137.95C31.6289 138.046 31.8309 138.186 31.9989 138.37C32.1709 138.554 32.3049 138.782 32.4009 139.054C32.5009 139.322 32.5509 139.628 32.5509 139.972ZM31.7229 139.972C31.7229 139.708 31.6949 139.484 31.6389 139.3C31.5829 139.112 31.5049 138.96 31.4049 138.844C31.3089 138.728 31.1949 138.644 31.0629 138.592C30.9309 138.54 30.7909 138.514 30.6429 138.514C30.4949 138.514 30.3549 138.54 30.2229 138.592C30.0949 138.644 29.9829 138.728 29.8869 138.844C29.7909 138.96 29.7149 139.112 29.6589 139.3C29.6069 139.484 29.5809 139.708 29.5809 139.972C29.5809 140.232 29.6069 140.452 29.6589 140.632C29.7149 140.812 29.7909 140.96 29.8869 141.076C29.9829 141.188 30.0949 141.27 30.2229 141.322C30.3549 141.37 30.4949 141.394 30.6429 141.394C30.7909 141.394 30.9309 141.37 31.0629 141.322C31.1949 141.27 31.3089 141.188 31.4049 141.076C31.5049 140.96 31.5829 140.812 31.6389 140.632C31.6949 140.452 31.7229 140.232 31.7229 139.972Z" fill="white"/>
<path d="M254.565 141.184V142H249.957V141.184H251.799V135.322C251.799 135.146 251.805 134.968 251.817 134.788L250.287 136.102C250.235 136.146 250.183 136.174 250.131 136.186C250.079 136.194 250.031 136.194 249.987 136.186C249.943 136.178 249.901 136.162 249.861 136.138C249.825 136.114 249.797 136.088 249.777 136.06L249.441 135.598L252.003 133.384H252.873V141.184H254.565ZM259.386 141.208C259.674 141.208 259.934 141.162 260.166 141.07C260.402 140.978 260.602 140.85 260.766 140.686C260.934 140.522 261.062 140.328 261.15 140.104C261.242 139.88 261.288 139.636 261.288 139.372C261.288 139.092 261.244 138.84 261.156 138.616C261.068 138.388 260.942 138.196 260.778 138.04C260.618 137.88 260.426 137.758 260.202 137.674C259.978 137.59 259.732 137.548 259.464 137.548C259.176 137.548 258.916 137.598 258.684 137.698C258.452 137.794 258.254 137.926 258.09 138.094C257.93 138.258 257.806 138.45 257.718 138.67C257.634 138.886 257.592 139.112 257.592 139.348C257.592 139.624 257.632 139.876 257.712 140.104C257.792 140.332 257.908 140.528 258.06 140.692C258.216 140.856 258.404 140.984 258.624 141.076C258.848 141.164 259.102 141.208 259.386 141.208ZM258.762 136.624C258.686 136.72 258.612 136.814 258.54 136.906C258.472 136.994 258.406 137.082 258.342 137.17C258.546 137.03 258.77 136.922 259.014 136.846C259.258 136.77 259.524 136.732 259.812 136.732C260.16 136.732 260.488 136.79 260.796 136.906C261.104 137.018 261.372 137.184 261.6 137.404C261.832 137.62 262.016 137.888 262.152 138.208C262.288 138.524 262.356 138.886 262.356 139.294C262.356 139.69 262.284 140.058 262.14 140.398C261.996 140.738 261.794 141.034 261.534 141.286C261.278 141.538 260.968 141.736 260.604 141.88C260.244 142.024 259.846 142.096 259.41 142.096C258.978 142.096 258.586 142.028 258.234 141.892C257.882 141.752 257.582 141.556 257.334 141.304C257.09 141.048 256.9 140.74 256.764 140.38C256.632 140.016 256.566 139.61 256.566 139.162C256.566 138.786 256.648 138.386 256.812 137.962C256.98 137.534 257.246 137.078 257.61 136.594L259.794 133.66C259.85 133.588 259.926 133.528 260.022 133.48C260.122 133.428 260.236 133.402 260.364 133.402H261.312L258.762 136.624ZM267.711 135.478C267.711 135.814 267.659 136.116 267.555 136.384C267.451 136.648 267.311 136.872 267.135 137.056C266.963 137.236 266.761 137.374 266.529 137.47C266.301 137.566 266.059 137.614 265.803 137.614C265.535 137.614 265.285 137.566 265.053 137.47C264.821 137.374 264.619 137.236 264.447 137.056C264.279 136.872 264.147 136.648 264.051 136.384C263.955 136.116 263.907 135.814 263.907 135.478C263.907 135.134 263.955 134.828 264.051 134.56C264.147 134.292 264.279 134.066 264.447 133.882C264.619 133.698 264.821 133.558 265.053 133.462C265.285 133.366 265.535 133.318 265.803 133.318C266.075 133.318 266.327 133.366 266.559 133.462C266.791 133.558 266.993 133.698 267.165 133.882C267.337 134.066 267.471 134.292 267.567 134.56C267.663 134.828 267.711 135.134 267.711 135.478ZM266.883 135.478C266.883 135.214 266.855 134.99 266.799 134.806C266.743 134.622 266.665 134.472 266.565 134.356C266.469 134.236 266.355 134.15 266.223 134.098C266.091 134.046 265.951 134.02 265.803 134.02C265.655 134.02 265.517 134.046 265.389 134.098C265.261 134.15 265.149 134.236 265.053 134.356C264.957 134.472 264.881 134.622 264.825 134.806C264.769 134.99 264.741 135.214 264.741 135.478C264.741 135.738 264.769 135.96 264.825 136.144C264.881 136.324 264.957 136.472 265.053 136.588C265.149 136.7 265.261 136.782 265.389 136.834C265.517 136.882 265.655 136.906 265.803 136.906C265.951 136.906 266.091 136.882 266.223 136.834C266.355 136.782 266.469 136.7 266.565 136.588C266.665 136.472 266.743 136.324 266.799 136.144C266.855 135.96 266.883 135.738 266.883 135.478ZM270.753 133.582C270.793 133.534 270.839 133.492 270.891 133.456C270.947 133.42 271.021 133.402 271.113 133.402H271.887L265.599 141.826C265.563 141.878 265.517 141.92 265.461 141.952C265.405 141.984 265.337 142 265.257 142H264.471L270.753 133.582ZM272.469 139.972C272.469 140.308 272.417 140.608 272.313 140.872C272.209 141.136 272.069 141.36 271.893 141.544C271.721 141.724 271.519 141.862 271.287 141.958C271.059 142.054 270.817 142.102 270.561 142.102C270.289 142.102 270.037 142.054 269.805 141.958C269.577 141.862 269.377 141.724 269.205 141.544C269.037 141.36 268.905 141.136 268.809 140.872C268.713 140.608 268.665 140.308 268.665 139.972C268.665 139.628 268.713 139.322 268.809 139.054C268.905 138.782 269.037 138.554 269.205 138.37C269.377 138.186 269.577 138.046 269.805 137.95C270.037 137.854 270.289 137.806 270.561 137.806C270.829 137.806 271.079 137.854 271.311 137.95C271.547 138.046 271.749 138.186 271.917 138.37C272.089 138.554 272.223 138.782 272.319 139.054C272.419 139.322 272.469 139.628 272.469 139.972ZM271.641 139.972C271.641 139.708 271.613 139.484 271.557 139.3C271.501 139.112 271.423 138.96 271.323 138.844C271.227 138.728 271.113 138.644 270.981 138.592C270.849 138.54 270.709 138.514 270.561 138.514C270.413 138.514 270.273 138.54 270.141 138.592C270.013 138.644 269.901 138.728 269.805 138.844C269.709 138.96 269.633 139.112 269.577 139.3C269.525 139.484 269.499 139.708 269.499 139.972C269.499 140.232 269.525 140.452 269.577 140.632C269.633 140.812 269.709 140.96 269.805 141.076C269.901 141.188 270.013 141.27 270.141 141.322C270.273 141.37 270.413 141.394 270.561 141.394C270.709 141.394 270.849 141.37 270.981 141.322C271.113 141.27 271.227 141.188 271.323 141.076C271.423 140.96 271.501 140.812 271.557 140.632C271.613 140.452 271.641 140.232 271.641 139.972Z" fill="white"/>
<g clip-path="url(#clip1_2001_2257)">
<rect x="16" y="148" width="257" height="4" rx="2" fill="#486581"/>
<rect x="16" y="148" width="44" height="4" rx="2" fill="#F7A23B"/>
</g>
<defs>
<clipPath id="clip0_2001_2257">
<rect width="16" height="16" fill="white" transform="translate(249 24)"/>
</clipPath>
<clipPath id="clip1_2001_2257">
<rect width="257" height="4" fill="white" transform="translate(16 148)"/>
</clipPath>
</defs>
</svg>
