<svg width="824" height="283" viewBox="0 0 824 283" fill="none" xmlns="http://www.w3.org/2000/svg">
<g clip-path="url(#clip0_2004_2394)">
<rect width="824" height="283" fill="white"/>
<path d="M44.3299 32.5943C43.8299 32.5943 43.3796 32.4949 42.9791 32.296C42.5785 32.0971 42.2575 31.8244 42.016 31.4778C41.7745 31.1312 41.6424 30.7363 41.6197 30.2932H42.6424C42.6822 30.688 42.8612 31.0147 43.1793 31.2733C43.5004 31.529 43.8839 31.6568 44.3299 31.6568C44.6879 31.6568 45.006 31.573 45.2844 31.4054C45.5657 31.2378 45.7859 31.0076 45.945 30.715C46.1069 30.4196 46.1879 30.0858 46.1879 29.7136C46.1879 29.3329 46.104 28.9934 45.9364 28.6951C45.7717 28.394 45.5444 28.1568 45.2546 27.9835C44.9648 27.8102 44.6339 27.7221 44.2617 27.7193C43.9947 27.7165 43.7205 27.7576 43.4393 27.8429C43.158 27.9253 42.9265 28.0318 42.7447 28.1625L41.756 28.0432L42.2844 23.7477H46.8185V24.6852H43.1708L42.864 27.2591H42.9151C43.0941 27.117 43.3185 26.9991 43.5884 26.9054C43.8583 26.8116 44.1396 26.7647 44.4322 26.7647C44.9663 26.7647 45.4421 26.8926 45.8597 27.1483C46.2802 27.4011 46.6097 27.7477 46.8484 28.188C47.0898 28.6284 47.2106 29.1312 47.2106 29.6966C47.2106 30.2534 47.0856 30.7505 46.8356 31.188C46.5884 31.6227 46.2475 31.9665 45.8129 32.2193C45.3782 32.4693 44.8839 32.5943 44.3299 32.5943ZM51.75 32.5943C51.108 32.5943 50.5611 32.4196 50.1094 32.0701C49.6577 31.7179 49.3125 31.2079 49.0739 30.5403C48.8352 29.8699 48.7159 29.0602 48.7159 28.1113C48.7159 27.1682 48.8352 26.3628 49.0739 25.6951C49.3153 25.0247 49.6619 24.5133 50.1136 24.1611C50.5682 23.8059 51.1136 23.6284 51.75 23.6284C52.3864 23.6284 52.9304 23.8059 53.3821 24.1611C53.8366 24.5133 54.1832 25.0247 54.4219 25.6951C54.6634 26.3628 54.7841 27.1682 54.7841 28.1113C54.7841 29.0602 54.6648 29.8699 54.4261 30.5403C54.1875 31.2079 53.8423 31.7179 53.3906 32.0701C52.9389 32.4196 52.392 32.5943 51.75 32.5943ZM51.75 31.6568C52.3864 31.6568 52.8807 31.35 53.233 30.7363C53.5852 30.1227 53.7614 29.2477 53.7614 28.1113C53.7614 27.3557 53.6804 26.7122 53.5185 26.1809C53.3594 25.6497 53.1293 25.2449 52.8281 24.9665C52.5298 24.688 52.1705 24.5488 51.75 24.5488C51.1193 24.5488 50.6264 24.8599 50.2713 25.4821C49.9162 26.1014 49.7386 26.9778 49.7386 28.1113C49.7386 28.867 49.8182 29.5091 49.9773 30.0375C50.1364 30.5659 50.3651 30.9679 50.6634 31.2434C50.9645 31.519 51.3267 31.6568 51.75 31.6568ZM59.25 32.5943C58.608 32.5943 58.0611 32.4196 57.6094 32.0701C57.1577 31.7179 56.8125 31.2079 56.5739 30.5403C56.3352 29.8699 56.2159 29.0602 56.2159 28.1113C56.2159 27.1682 56.3352 26.3628 56.5739 25.6951C56.8153 25.0247 57.1619 24.5133 57.6136 24.1611C58.0682 23.8059 58.6136 23.6284 59.25 23.6284C59.8864 23.6284 60.4304 23.8059 60.8821 24.1611C61.3366 24.5133 61.6832 25.0247 61.9219 25.6951C62.1634 26.3628 62.2841 27.1682 62.2841 28.1113C62.2841 29.0602 62.1648 29.8699 61.9261 30.5403C61.6875 31.2079 61.3423 31.7179 60.8906 32.0701C60.4389 32.4196 59.892 32.5943 59.25 32.5943ZM59.25 31.6568C59.8864 31.6568 60.3807 31.35 60.733 30.7363C61.0852 30.1227 61.2614 29.2477 61.2614 28.1113C61.2614 27.3557 61.1804 26.7122 61.0185 26.1809C60.8594 25.6497 60.6293 25.2449 60.3281 24.9665C60.0298 24.688 59.6705 24.5488 59.25 24.5488C58.6193 24.5488 58.1264 24.8599 57.7713 25.4821C57.4162 26.1014 57.2386 26.9778 57.2386 28.1113C57.2386 28.867 57.3182 29.5091 57.4773 30.0375C57.6364 30.5659 57.8651 30.9679 58.1634 31.2434C58.4645 31.519 58.8267 31.6568 59.25 31.6568Z" fill="#72777B"/>
<path d="M40.9996 54.6352V53.7658L44.8349 47.6977H45.4656V49.0442H45.0394L42.1417 53.6295V53.6977H47.3065V54.6352H40.9996ZM45.1076 56.4249V54.3709V53.9661V47.6977H46.1133V56.4249H45.1076ZM51.75 56.5442C51.108 56.5442 50.5611 56.3695 50.1094 56.0201C49.6577 55.6678 49.3125 55.1579 49.0739 54.4903C48.8352 53.8198 48.7159 53.0102 48.7159 52.0613C48.7159 51.1181 48.8352 50.3127 49.0739 49.6451C49.3153 48.9746 49.6619 48.4633 50.1136 48.111C50.5682 47.7559 51.1136 47.5783 51.75 47.5783C52.3864 47.5783 52.9304 47.7559 53.3821 48.111C53.8366 48.4633 54.1832 48.9746 54.4219 49.6451C54.6634 50.3127 54.7841 51.1181 54.7841 52.0613C54.7841 53.0102 54.6648 53.8198 54.4261 54.4903C54.1875 55.1579 53.8423 55.6678 53.3906 56.0201C52.9389 56.3695 52.392 56.5442 51.75 56.5442ZM51.75 55.6067C52.3864 55.6067 52.8807 55.2999 53.233 54.6863C53.5852 54.0727 53.7614 53.1977 53.7614 52.0613C53.7614 51.3056 53.6804 50.6621 53.5185 50.1309C53.3594 49.5996 53.1293 49.1948 52.8281 48.9164C52.5298 48.638 52.1705 48.4988 51.75 48.4988C51.1193 48.4988 50.6264 48.8099 50.2713 49.432C49.9162 50.0513 49.7386 50.9278 49.7386 52.0613C49.7386 52.817 49.8182 53.459 49.9773 53.9874C50.1364 54.5158 50.3651 54.9178 50.6634 55.1934C50.9645 55.469 51.3267 55.6067 51.75 55.6067ZM59.25 56.5442C58.608 56.5442 58.0611 56.3695 57.6094 56.0201C57.1577 55.6678 56.8125 55.1579 56.5739 54.4903C56.3352 53.8198 56.2159 53.0102 56.2159 52.0613C56.2159 51.1181 56.3352 50.3127 56.5739 49.6451C56.8153 48.9746 57.1619 48.4633 57.6136 48.111C58.0682 47.7559 58.6136 47.5783 59.25 47.5783C59.8864 47.5783 60.4304 47.7559 60.8821 48.111C61.3366 48.4633 61.6832 48.9746 61.9219 49.6451C62.1634 50.3127 62.2841 51.1181 62.2841 52.0613C62.2841 53.0102 62.1648 53.8198 61.9261 54.4903C61.6875 55.1579 61.3423 55.6678 60.8906 56.0201C60.4389 56.3695 59.892 56.5442 59.25 56.5442ZM59.25 55.6067C59.8864 55.6067 60.3807 55.2999 60.733 54.6863C61.0852 54.0727 61.2614 53.1977 61.2614 52.0613C61.2614 51.3056 61.1804 50.6621 61.0185 50.1309C60.8594 49.5996 60.6293 49.1948 60.3281 48.9164C60.0298 48.638 59.6705 48.4988 59.25 48.4988C58.6193 48.4988 58.1264 48.8099 57.7713 49.432C57.4162 50.0513 57.2386 50.9278 57.2386 52.0613C57.2386 52.817 57.3182 53.459 57.4773 53.9874C57.6364 54.5158 57.8651 54.9178 58.1634 55.1934C58.4645 55.469 58.8267 55.6067 59.25 55.6067Z" fill="#72777B"/>
<path d="M71 51.9249H800" stroke="#E7EAEE"/>
<path d="M44.4109 80.4943C43.8484 80.4943 43.3469 80.3977 42.9066 80.2045C42.4691 80.0114 42.1211 79.7429 41.8626 79.3991C41.6069 79.0526 41.4677 78.6506 41.445 78.1932H42.5188C42.5416 78.4744 42.6381 78.7173 42.8086 78.9219C42.9791 79.1236 43.2021 79.2798 43.4776 79.3906C43.7532 79.5014 44.0586 79.5568 44.3938 79.5568C44.7688 79.5568 45.1012 79.4915 45.391 79.3608C45.6808 79.2301 45.908 79.0483 46.0728 78.8153C46.2376 78.5824 46.32 78.3125 46.32 78.0057C46.32 77.6847 46.2404 77.402 46.0813 77.1577C45.9222 76.9105 45.6893 76.7173 45.3825 76.5781C45.0756 76.4389 44.7006 76.3693 44.2575 76.3693H43.5586V75.4318H44.2575C44.604 75.4318 44.908 75.3693 45.1694 75.2443C45.4336 75.1193 45.6396 74.9432 45.7873 74.7159C45.9379 74.4886 46.0131 74.2216 46.0131 73.9148C46.0131 73.6193 45.9478 73.3622 45.8171 73.1435C45.6864 72.9247 45.5018 72.7543 45.2631 72.6321C45.0273 72.5099 44.7489 72.4489 44.4279 72.4489C44.1268 72.4489 43.8427 72.5043 43.5756 72.6151C43.3114 72.723 43.0955 72.8807 42.9279 73.0881C42.7603 73.2926 42.6694 73.5398 42.6552 73.8295H41.6325C41.6495 73.3722 41.7873 72.9716 42.0458 72.6278C42.3043 72.2813 42.6424 72.0114 43.06 71.8182C43.4805 71.625 43.9421 71.5284 44.445 71.5284C44.9847 71.5284 45.4478 71.6378 45.8342 71.8565C46.2205 72.0724 46.5174 72.358 46.7248 72.7131C46.9322 73.0682 47.0359 73.4517 47.0359 73.8636C47.0359 74.3551 46.9066 74.7741 46.6481 75.1207C46.3924 75.4673 46.0444 75.7074 45.604 75.8409V75.9091C46.1552 76 46.5856 76.2344 46.8952 76.6122C47.2049 76.9872 47.3597 77.4517 47.3597 78.0057C47.3597 78.4801 47.2305 78.9063 46.9719 79.2841C46.7163 79.6591 46.3668 79.9545 45.9237 80.1705C45.4805 80.3864 44.9762 80.4943 44.4109 80.4943ZM51.8299 80.4943C51.3299 80.4943 50.8796 80.3949 50.4791 80.196C50.0785 79.9972 49.7575 79.7244 49.516 79.3778C49.2745 79.0313 49.1424 78.6364 49.1197 78.1932H50.1424C50.1822 78.5881 50.3612 78.9148 50.6793 79.1733C51.0004 79.429 51.3839 79.5568 51.8299 79.5568C52.1879 79.5568 52.506 79.473 52.7844 79.3054C53.0657 79.1378 53.2859 78.9077 53.445 78.6151C53.6069 78.3196 53.6879 77.9858 53.6879 77.6136C53.6879 77.233 53.604 76.8935 53.4364 76.5952C53.2717 76.294 53.0444 76.0568 52.7546 75.8835C52.4648 75.7102 52.1339 75.6222 51.7617 75.6193C51.4947 75.6165 51.2205 75.6577 50.9393 75.7429C50.658 75.8253 50.4265 75.9318 50.2447 76.0625L49.256 75.9432L49.7844 71.6477H54.3185V72.5852H50.6708L50.364 75.1591H50.4151C50.5941 75.017 50.8185 74.8991 51.0884 74.8054C51.3583 74.7116 51.6396 74.6648 51.9322 74.6648C52.4663 74.6648 52.9421 74.7926 53.3597 75.0483C53.7802 75.3011 54.1097 75.6477 54.3484 76.0881C54.5898 76.5284 54.7106 77.0313 54.7106 77.5966C54.7106 78.1534 54.5856 78.6506 54.3356 79.0881C54.0884 79.5227 53.7475 79.8665 53.3129 80.1193C52.8782 80.3693 52.3839 80.4943 51.8299 80.4943ZM59.25 80.4943C58.608 80.4943 58.0611 80.3196 57.6094 79.9702C57.1577 79.6179 56.8125 79.108 56.5739 78.4403C56.3352 77.7699 56.2159 76.9602 56.2159 76.0114C56.2159 75.0682 56.3352 74.2628 56.5739 73.5952C56.8153 72.9247 57.1619 72.4134 57.6136 72.0611C58.0682 71.706 58.6136 71.5284 59.25 71.5284C59.8864 71.5284 60.4304 71.706 60.8821 72.0611C61.3366 72.4134 61.6832 72.9247 61.9219 73.5952C62.1634 74.2628 62.2841 75.0682 62.2841 76.0114C62.2841 76.9602 62.1648 77.7699 61.9261 78.4403C61.6875 79.108 61.3423 79.6179 60.8906 79.9702C60.4389 80.3196 59.892 80.4943 59.25 80.4943ZM59.25 79.5568C59.8864 79.5568 60.3807 79.25 60.733 78.6364C61.0852 78.0227 61.2614 77.1477 61.2614 76.0114C61.2614 75.2557 61.1804 74.6122 61.0185 74.081C60.8594 73.5497 60.6293 73.1449 60.3281 72.8665C60.0298 72.5881 59.6705 72.4489 59.25 72.4489C58.6193 72.4489 58.1264 72.7599 57.7713 73.3821C57.4162 74.0014 57.2386 74.8778 57.2386 76.0114C57.2386 76.767 57.3182 77.4091 57.4773 77.9375C57.6364 78.4659 57.8651 78.8679 58.1634 79.1435C58.4645 79.419 58.8267 79.5568 59.25 79.5568Z" fill="#72777B"/>
<path d="M71 75.875H800" stroke="#E7EAEE"/>
<path d="M44.2116 104.444C43.6491 104.444 43.1477 104.348 42.7074 104.154C42.2699 103.961 41.9219 103.693 41.6634 103.349C41.4077 103.003 41.2685 102.601 41.2457 102.143H42.3196C42.3423 102.424 42.4389 102.667 42.6094 102.872C42.7798 103.074 43.0028 103.23 43.2784 103.341C43.554 103.451 43.8594 103.507 44.1946 103.507C44.5696 103.507 44.902 103.441 45.1918 103.311C45.4815 103.18 45.7088 102.998 45.8736 102.765C46.0384 102.532 46.1207 102.262 46.1207 101.956C46.1207 101.635 46.0412 101.352 45.8821 101.108C45.723 100.86 45.4901 100.667 45.1832 100.528C44.8764 100.389 44.5014 100.319 44.0582 100.319H43.3594V99.3818H44.0582C44.4048 99.3818 44.7088 99.3193 44.9702 99.1943C45.2344 99.0693 45.4403 98.8931 45.5881 98.6659C45.7386 98.4386 45.8139 98.1715 45.8139 97.8647C45.8139 97.5693 45.7486 97.3122 45.6179 97.0934C45.4872 96.8747 45.3026 96.7042 45.0639 96.5821C44.8281 96.4599 44.5497 96.3988 44.2287 96.3988C43.9276 96.3988 43.6435 96.4542 43.3764 96.565C43.1122 96.673 42.8963 96.8306 42.7287 97.038C42.5611 97.2426 42.4702 97.4897 42.456 97.7795H41.4332C41.4503 97.3221 41.5881 96.9215 41.8466 96.5778C42.1051 96.2312 42.4432 95.9613 42.8608 95.7681C43.2813 95.575 43.7429 95.4784 44.2457 95.4784C44.7855 95.4784 45.2486 95.5877 45.6349 95.8065C46.0213 96.0224 46.3182 96.3079 46.5256 96.663C46.733 97.0181 46.8366 97.4017 46.8366 97.8136C46.8366 98.3051 46.7074 98.7241 46.4489 99.0707C46.1932 99.4173 45.8452 99.6573 45.4048 99.7909V99.859C45.956 99.95 46.3864 100.184 46.696 100.562C47.0057 100.937 47.1605 101.402 47.1605 101.956C47.1605 102.43 47.0313 102.856 46.7727 103.234C46.517 103.609 46.1676 103.904 45.7244 104.12C45.2813 104.336 44.777 104.444 44.2116 104.444ZM51.75 104.444C51.108 104.444 50.5611 104.27 50.1094 103.92C49.6577 103.568 49.3125 103.058 49.0739 102.39C48.8352 101.72 48.7159 100.91 48.7159 99.9613C48.7159 99.0181 48.8352 98.2127 49.0739 97.5451C49.3153 96.8747 49.6619 96.3633 50.1136 96.011C50.5682 95.6559 51.1136 95.4784 51.75 95.4784C52.3864 95.4784 52.9304 95.6559 53.3821 96.011C53.8366 96.3633 54.1832 96.8747 54.4219 97.5451C54.6634 98.2127 54.7841 99.0181 54.7841 99.9613C54.7841 100.91 54.6648 101.72 54.4261 102.39C54.1875 103.058 53.8423 103.568 53.3906 103.92C52.9389 104.27 52.392 104.444 51.75 104.444ZM51.75 103.507C52.3864 103.507 52.8807 103.2 53.233 102.586C53.5852 101.973 53.7614 101.098 53.7614 99.9613C53.7614 99.2056 53.6804 98.5622 53.5185 98.0309C53.3594 97.4997 53.1293 97.0948 52.8281 96.8164C52.5298 96.538 52.1705 96.3988 51.75 96.3988C51.1193 96.3988 50.6264 96.7099 50.2713 97.3321C49.9162 97.9514 49.7386 98.8278 49.7386 99.9613C49.7386 100.717 49.8182 101.359 49.9773 101.887C50.1364 102.416 50.3651 102.818 50.6634 103.093C50.9645 103.369 51.3267 103.507 51.75 103.507ZM59.25 104.444C58.608 104.444 58.0611 104.27 57.6094 103.92C57.1577 103.568 56.8125 103.058 56.5739 102.39C56.3352 101.72 56.2159 100.91 56.2159 99.9613C56.2159 99.0181 56.3352 98.2127 56.5739 97.5451C56.8153 96.8747 57.1619 96.3633 57.6136 96.011C58.0682 95.6559 58.6136 95.4784 59.25 95.4784C59.8864 95.4784 60.4304 95.6559 60.8821 96.011C61.3366 96.3633 61.6832 96.8747 61.9219 97.5451C62.1634 98.2127 62.2841 99.0181 62.2841 99.9613C62.2841 100.91 62.1648 101.72 61.9261 102.39C61.6875 103.058 61.3423 103.568 60.8906 103.92C60.4389 104.27 59.892 104.444 59.25 104.444ZM59.25 103.507C59.8864 103.507 60.3807 103.2 60.733 102.586C61.0852 101.973 61.2614 101.098 61.2614 99.9613C61.2614 99.2056 61.1804 98.5622 61.0185 98.0309C60.8594 97.4997 60.6293 97.0948 60.3281 96.8164C60.0298 96.538 59.6705 96.3988 59.25 96.3988C58.6193 96.3988 58.1264 96.7099 57.7713 97.3321C57.4162 97.9514 57.2386 98.8278 57.2386 99.9613C57.2386 100.717 57.3182 101.359 57.4773 101.887C57.6364 102.416 57.8651 102.818 58.1634 103.093C58.4645 103.369 58.8267 103.507 59.25 103.507Z" fill="#72777B"/>
<path d="M71 99.825H800" stroke="#E7EAEE"/>
<path d="M41.6378 128.275V127.508L44.5185 124.355C44.8565 123.985 45.1349 123.664 45.3537 123.392C45.5724 123.116 45.7344 122.857 45.8395 122.616C45.9474 122.372 46.0014 122.116 46.0014 121.849C46.0014 121.542 45.9276 121.276 45.7798 121.052C45.6349 120.828 45.4361 120.654 45.1832 120.532C44.9304 120.41 44.6463 120.349 44.331 120.349C43.9957 120.349 43.7031 120.418 43.4531 120.558C43.206 120.694 43.0142 120.886 42.8778 121.133C42.7443 121.38 42.6776 121.67 42.6776 122.002H41.6719C41.6719 121.491 41.7898 121.042 42.0256 120.656C42.2614 120.269 42.5824 119.968 42.9886 119.752C43.3977 119.536 43.8565 119.428 44.3651 119.428C44.8764 119.428 45.3295 119.536 45.7244 119.752C46.1193 119.968 46.429 120.259 46.6534 120.626C46.8778 120.992 46.9901 121.4 46.9901 121.849C46.9901 122.17 46.9318 122.484 46.8153 122.791C46.7017 123.095 46.5028 123.434 46.2188 123.809C45.9375 124.181 45.5469 124.636 45.0469 125.173L43.0866 127.269V127.338H47.1435V128.275H41.6378ZM51.75 128.394C51.108 128.394 50.5611 128.22 50.1094 127.87C49.6577 127.518 49.3125 127.008 49.0739 126.34C48.8352 125.67 48.7159 124.86 48.7159 123.911C48.7159 122.968 48.8352 122.163 49.0739 121.495C49.3153 120.825 49.6619 120.313 50.1136 119.961C50.5682 119.606 51.1136 119.428 51.75 119.428C52.3864 119.428 52.9304 119.606 53.3821 119.961C53.8366 120.313 54.1832 120.825 54.4219 121.495C54.6634 122.163 54.7841 122.968 54.7841 123.911C54.7841 124.86 54.6648 125.67 54.4261 126.34C54.1875 127.008 53.8423 127.518 53.3906 127.87C52.9389 128.22 52.392 128.394 51.75 128.394ZM51.75 127.457C52.3864 127.457 52.8807 127.15 53.233 126.536C53.5852 125.923 53.7614 125.048 53.7614 123.911C53.7614 123.156 53.6804 122.512 53.5185 121.981C53.3594 121.45 53.1293 121.045 52.8281 120.767C52.5298 120.488 52.1705 120.349 51.75 120.349C51.1193 120.349 50.6264 120.66 50.2713 121.282C49.9162 121.901 49.7386 122.778 49.7386 123.911C49.7386 124.667 49.8182 125.309 49.9773 125.838C50.1364 126.366 50.3651 126.768 50.6634 127.043C50.9645 127.319 51.3267 127.457 51.75 127.457ZM59.25 128.394C58.608 128.394 58.0611 128.22 57.6094 127.87C57.1577 127.518 56.8125 127.008 56.5739 126.34C56.3352 125.67 56.2159 124.86 56.2159 123.911C56.2159 122.968 56.3352 122.163 56.5739 121.495C56.8153 120.825 57.1619 120.313 57.6136 119.961C58.0682 119.606 58.6136 119.428 59.25 119.428C59.8864 119.428 60.4304 119.606 60.8821 119.961C61.3366 120.313 61.6832 120.825 61.9219 121.495C62.1634 122.163 62.2841 122.968 62.2841 123.911C62.2841 124.86 62.1648 125.67 61.9261 126.34C61.6875 127.008 61.3423 127.518 60.8906 127.87C60.4389 128.22 59.892 128.394 59.25 128.394ZM59.25 127.457C59.8864 127.457 60.3807 127.15 60.733 126.536C61.0852 125.923 61.2614 125.048 61.2614 123.911C61.2614 123.156 61.1804 122.512 61.0185 121.981C60.8594 121.45 60.6293 121.045 60.3281 120.767C60.0298 120.488 59.6705 120.349 59.25 120.349C58.6193 120.349 58.1264 120.66 57.7713 121.282C57.4162 121.901 57.2386 122.778 57.2386 123.911C57.2386 124.667 57.3182 125.309 57.4773 125.838C57.6364 126.366 57.8651 126.768 58.1634 127.043C58.4645 127.319 58.8267 127.457 59.25 127.457Z" fill="#72777B"/>
<path d="M71 123.775H800" stroke="#E7EAEE"/>
<path d="M46.5927 143.498V152.225H45.5359V144.606H45.4847L43.3541 146.02V144.947L45.5359 143.498H46.5927ZM51.8299 152.344C51.3299 152.344 50.8796 152.245 50.4791 152.046C50.0785 151.847 49.7575 151.574 49.516 151.228C49.2745 150.881 49.1424 150.486 49.1197 150.043H50.1424C50.1822 150.438 50.3612 150.765 50.6793 151.023C51.0004 151.279 51.3839 151.407 51.8299 151.407C52.1879 151.407 52.506 151.323 52.7844 151.155C53.0657 150.988 53.2859 150.758 53.445 150.465C53.6069 150.17 53.6879 149.836 53.6879 149.464C53.6879 149.083 53.604 148.743 53.4364 148.445C53.2717 148.144 53.0444 147.907 52.7546 147.733C52.4648 147.56 52.1339 147.472 51.7617 147.469C51.4947 147.466 51.2205 147.508 50.9393 147.593C50.658 147.675 50.4265 147.782 50.2447 147.912L49.256 147.793L49.7844 143.498H54.3185V144.435H50.6708L50.364 147.009H50.4151C50.5941 146.867 50.8185 146.749 51.0884 146.655C51.3583 146.562 51.6396 146.515 51.9322 146.515C52.4663 146.515 52.9421 146.643 53.3597 146.898C53.7802 147.151 54.1097 147.498 54.3484 147.938C54.5898 148.378 54.7106 148.881 54.7106 149.447C54.7106 150.003 54.5856 150.501 54.3356 150.938C54.0884 151.373 53.7475 151.716 53.3129 151.969C52.8782 152.219 52.3839 152.344 51.8299 152.344ZM59.25 152.344C58.608 152.344 58.0611 152.17 57.6094 151.82C57.1577 151.468 56.8125 150.958 56.5739 150.29C56.3352 149.62 56.2159 148.81 56.2159 147.861C56.2159 146.918 56.3352 146.113 56.5739 145.445C56.8153 144.775 57.1619 144.263 57.6136 143.911C58.0682 143.556 58.6136 143.378 59.25 143.378C59.8864 143.378 60.4304 143.556 60.8821 143.911C61.3366 144.263 61.6832 144.775 61.9219 145.445C62.1634 146.113 62.2841 146.918 62.2841 147.861C62.2841 148.81 62.1648 149.62 61.9261 150.29C61.6875 150.958 61.3423 151.468 60.8906 151.82C60.4389 152.17 59.892 152.344 59.25 152.344ZM59.25 151.407C59.8864 151.407 60.3807 151.1 60.733 150.486C61.0852 149.873 61.2614 148.998 61.2614 147.861C61.2614 147.106 61.1804 146.462 61.0185 145.931C60.8594 145.4 60.6293 144.995 60.3281 144.716C60.0298 144.438 59.6705 144.299 59.25 144.299C58.6193 144.299 58.1264 144.61 57.7713 145.232C57.4162 145.851 57.2386 146.728 57.2386 147.861C57.2386 148.617 57.3182 149.259 57.4773 149.787C57.6364 150.316 57.8651 150.718 58.1634 150.993C58.4645 151.269 58.8267 151.407 59.25 151.407Z" fill="#72777B"/>
<path d="M71 147.725H800" stroke="#E7EAEE"/>
<path d="M46.3935 167.448V176.175H45.3366V168.556H45.2855L43.1548 169.97V168.897L45.3366 167.448H46.3935ZM51.75 176.294C51.108 176.294 50.5611 176.12 50.1094 175.77C49.6577 175.418 49.3125 174.908 49.0739 174.24C48.8352 173.57 48.7159 172.76 48.7159 171.811C48.7159 170.868 48.8352 170.063 49.0739 169.395C49.3153 168.725 49.6619 168.213 50.1136 167.861C50.5682 167.506 51.1136 167.328 51.75 167.328C52.3864 167.328 52.9304 167.506 53.3821 167.861C53.8366 168.213 54.1832 168.725 54.4219 169.395C54.6634 170.063 54.7841 170.868 54.7841 171.811C54.7841 172.76 54.6648 173.57 54.4261 174.24C54.1875 174.908 53.8423 175.418 53.3906 175.77C52.9389 176.12 52.392 176.294 51.75 176.294ZM51.75 175.357C52.3864 175.357 52.8807 175.05 53.233 174.436C53.5852 173.823 53.7614 172.948 53.7614 171.811C53.7614 171.056 53.6804 170.412 53.5185 169.881C53.3594 169.35 53.1293 168.945 52.8281 168.666C52.5298 168.388 52.1705 168.249 51.75 168.249C51.1193 168.249 50.6264 168.56 50.2713 169.182C49.9162 169.801 49.7386 170.678 49.7386 171.811C49.7386 172.567 49.8182 173.209 49.9773 173.737C50.1364 174.266 50.3651 174.668 50.6634 174.943C50.9645 175.219 51.3267 175.357 51.75 175.357ZM59.25 176.294C58.608 176.294 58.0611 176.12 57.6094 175.77C57.1577 175.418 56.8125 174.908 56.5739 174.24C56.3352 173.57 56.2159 172.76 56.2159 171.811C56.2159 170.868 56.3352 170.063 56.5739 169.395C56.8153 168.725 57.1619 168.213 57.6136 167.861C58.0682 167.506 58.6136 167.328 59.25 167.328C59.8864 167.328 60.4304 167.506 60.8821 167.861C61.3366 168.213 61.6832 168.725 61.9219 169.395C62.1634 170.063 62.2841 170.868 62.2841 171.811C62.2841 172.76 62.1648 173.57 61.9261 174.24C61.6875 174.908 61.3423 175.418 60.8906 175.77C60.4389 176.12 59.892 176.294 59.25 176.294ZM59.25 175.357C59.8864 175.357 60.3807 175.05 60.733 174.436C61.0852 173.823 61.2614 172.948 61.2614 171.811C61.2614 171.056 61.1804 170.412 61.0185 169.881C60.8594 169.35 60.6293 168.945 60.3281 168.666C60.0298 168.388 59.6705 168.249 59.25 168.249C58.6193 168.249 58.1264 168.56 57.7713 169.182C57.4162 169.801 57.2386 170.678 57.2386 171.811C57.2386 172.567 57.3182 173.209 57.4773 173.737C57.6364 174.266 57.8651 174.668 58.1634 174.943C58.4645 175.219 58.8267 175.357 59.25 175.357Z" fill="#72777B"/>
<path d="M71 171.675H800" stroke="#E7EAEE"/>
<path d="M51.8299 200.244C51.3299 200.244 50.8796 200.145 50.479 199.946C50.0785 199.747 49.7575 199.474 49.516 199.128C49.2745 198.781 49.1424 198.386 49.1197 197.943H50.1424C50.1822 198.338 50.3612 198.665 50.6793 198.923C51.0004 199.179 51.3839 199.307 51.8299 199.307C52.1879 199.307 52.506 199.223 52.7844 199.055C53.0657 198.888 53.2859 198.658 53.445 198.365C53.6069 198.07 53.6879 197.736 53.6879 197.364C53.6879 196.983 53.604 196.643 53.4364 196.345C53.2717 196.044 53.0444 195.807 52.7546 195.634C52.4648 195.46 52.1339 195.372 51.7617 195.369C51.4947 195.366 51.2205 195.408 50.9393 195.493C50.658 195.575 50.4265 195.682 50.2447 195.813L49.256 195.693L49.7844 191.398H54.3185V192.335H50.6708L50.364 194.909H50.4151C50.5941 194.767 50.8185 194.649 51.0884 194.555C51.3583 194.462 51.6396 194.415 51.9322 194.415C52.4663 194.415 52.9421 194.543 53.3597 194.798C53.7802 195.051 54.1097 195.398 54.3484 195.838C54.5898 196.278 54.7106 196.781 54.7106 197.347C54.7106 197.903 54.5856 198.401 54.3356 198.838C54.0884 199.273 53.7475 199.616 53.3129 199.869C52.8782 200.119 52.3839 200.244 51.8299 200.244ZM59.25 200.244C58.608 200.244 58.0611 200.07 57.6094 199.72C57.1577 199.368 56.8125 198.858 56.5739 198.19C56.3352 197.52 56.2159 196.71 56.2159 195.761C56.2159 194.818 56.3352 194.013 56.5739 193.345C56.8153 192.675 57.1619 192.163 57.6136 191.811C58.0682 191.456 58.6136 191.278 59.25 191.278C59.8864 191.278 60.4304 191.456 60.8821 191.811C61.3366 192.163 61.6832 192.675 61.9219 193.345C62.1634 194.013 62.2841 194.818 62.2841 195.761C62.2841 196.71 62.1648 197.52 61.9261 198.19C61.6875 198.858 61.3423 199.368 60.8906 199.72C60.4389 200.07 59.892 200.244 59.25 200.244ZM59.25 199.307C59.8864 199.307 60.3807 199 60.733 198.386C61.0852 197.773 61.2614 196.898 61.2614 195.761C61.2614 195.006 61.1804 194.362 61.0185 193.831C60.8594 193.3 60.6293 192.895 60.3281 192.616C60.0298 192.338 59.6705 192.199 59.25 192.199C58.6193 192.199 58.1264 192.51 57.7713 193.132C57.4162 193.751 57.2386 194.628 57.2386 195.761C57.2386 196.517 57.3182 197.159 57.4773 197.688C57.6364 198.216 57.8651 198.618 58.1634 198.893C58.4645 199.169 58.8267 199.307 59.25 199.307Z" fill="#72777B"/>
<path d="M71 195.625H800" stroke="#E7EAEE"/>
<path d="M59.25 229.919C58.608 229.919 58.0611 229.745 57.6094 229.395C57.1577 229.043 56.8125 228.533 56.5739 227.865C56.3352 227.195 56.2159 226.385 56.2159 225.436C56.2159 224.493 56.3352 223.688 56.5739 223.02C56.8153 222.35 57.1619 221.838 57.6136 221.486C58.0682 221.131 58.6136 220.953 59.25 220.953C59.8864 220.953 60.4304 221.131 60.8821 221.486C61.3366 221.838 61.6832 222.35 61.9219 223.02C62.1634 223.688 62.2841 224.493 62.2841 225.436C62.2841 226.385 62.1648 227.195 61.9261 227.865C61.6875 228.533 61.3423 229.043 60.8906 229.395C60.4389 229.745 59.892 229.919 59.25 229.919ZM59.25 228.982C59.8864 228.982 60.3807 228.675 60.733 228.061C61.0852 227.448 61.2614 226.573 61.2614 225.436C61.2614 224.681 61.1804 224.037 61.0185 223.506C60.8594 222.975 60.6293 222.57 60.3281 222.291C60.0298 222.013 59.6705 221.874 59.25 221.874C58.6193 221.874 58.1264 222.185 57.7713 222.807C57.4162 223.426 57.2386 224.303 57.2386 225.436C57.2386 226.192 57.3182 226.834 57.4773 227.362C57.6364 227.891 57.8651 228.293 58.1634 228.568C58.4645 228.844 58.8267 228.982 59.25 228.982Z" fill="#72777B"/>
<rect x="71.4973" y="31.5" width="728" height="195" stroke="#E7EAEE"/>
<path d="M75.395 233.273H76.4519V239.511C76.4519 240.068 76.3496 240.541 76.145 240.93C75.9405 241.32 75.6521 241.615 75.28 241.817C74.9078 242.018 74.4689 242.119 73.9632 242.119C73.486 242.119 73.0612 242.033 72.6891 241.859C72.3169 241.683 72.0243 241.433 71.8112 241.109C71.5982 240.786 71.4916 240.401 71.4916 239.955H72.5314C72.5314 240.202 72.5925 240.418 72.7146 240.602C72.8396 240.784 73.0101 240.926 73.226 241.028C73.4419 241.131 73.6877 241.182 73.9632 241.182C74.2672 241.182 74.5257 241.118 74.7388 240.99C74.9519 240.862 75.1138 240.675 75.2246 240.428C75.3382 240.178 75.395 239.872 75.395 239.511V233.273ZM80.3595 242.153C79.9448 242.153 79.5683 242.075 79.2303 241.919C78.8922 241.76 78.6237 241.531 78.4249 241.233C78.226 240.932 78.1266 240.568 78.1266 240.142C78.1266 239.767 78.2004 239.463 78.3482 239.23C78.4959 238.994 78.6933 238.81 78.9405 238.676C79.1877 238.543 79.4604 238.443 79.7587 238.378C80.0598 238.31 80.3624 238.256 80.6663 238.216C81.0641 238.165 81.3865 238.126 81.6337 238.101C81.8837 238.072 82.0655 238.026 82.1791 237.96C82.2956 237.895 82.3538 237.781 82.3538 237.619V237.585C82.3538 237.165 82.2388 236.838 82.0087 236.605C81.7814 236.372 81.4362 236.256 80.9732 236.256C80.4931 236.256 80.1166 236.361 79.8439 236.571C79.5712 236.781 79.3794 237.006 79.2686 237.244L78.3141 236.903C78.4845 236.506 78.7118 236.196 78.9959 235.974C79.2828 235.75 79.5953 235.594 79.9334 235.506C80.2743 235.415 80.6095 235.369 80.9391 235.369C81.1493 235.369 81.3908 235.395 81.6635 235.446C81.9391 235.494 82.2047 235.595 82.4604 235.749C82.7189 235.902 82.9334 236.134 83.1038 236.443C83.2743 236.753 83.3595 237.168 83.3595 237.688V242H82.3538V241.114H82.3027C82.2345 241.256 82.1209 241.408 81.9618 241.57C81.8027 241.732 81.5911 241.869 81.3269 241.983C81.0627 242.097 80.7402 242.153 80.3595 242.153ZM80.5129 241.25C80.9107 241.25 81.2459 241.172 81.5186 241.016C81.7942 240.859 82.0016 240.658 82.1408 240.411C82.2828 240.163 82.3538 239.903 82.3538 239.631V238.71C82.3112 238.761 82.2175 238.808 82.0726 238.851C81.9306 238.891 81.7658 238.926 81.5783 238.957C81.3936 238.986 81.2132 239.011 81.0371 239.034C80.8638 239.054 80.7232 239.071 80.6152 239.085C80.3538 239.119 80.1095 239.175 79.8823 239.251C79.6578 239.325 79.476 239.438 79.3368 239.588C79.2004 239.736 79.1323 239.938 79.1323 240.193C79.1323 240.543 79.2615 240.807 79.52 240.986C79.7814 241.162 80.1124 241.25 80.5129 241.25ZM86.2008 238.063V242H85.1951V235.455H86.1667V236.477H86.2519C86.4053 236.145 86.6383 235.878 86.9508 235.676C87.2633 235.472 87.6667 235.369 88.161 235.369C88.6042 235.369 88.992 235.46 89.3244 235.642C89.6568 235.821 89.9153 236.094 90.0999 236.46C90.2846 236.824 90.3769 237.284 90.3769 237.841V242H89.3712V237.909C89.3712 237.395 89.2377 236.994 88.9707 236.707C88.7036 236.418 88.3372 236.273 87.8712 236.273C87.5502 236.273 87.2633 236.342 87.0105 236.482C86.7605 236.621 86.563 236.824 86.4181 237.091C86.2732 237.358 86.2008 237.682 86.2008 238.063Z" fill="#72777B"/>
<line x1="131.247" y1="227" x2="131.247" y2="31" stroke="#E7EAEE"/>
<path d="M132.804 242V233.273H138.037V234.21H133.861V237.159H137.645V238.097H133.861V242H132.804ZM141.975 242.136C141.344 242.136 140.8 241.997 140.342 241.719C139.888 241.438 139.537 241.045 139.29 240.543C139.046 240.037 138.923 239.449 138.923 238.778C138.923 238.108 139.046 237.517 139.29 237.006C139.537 236.491 139.881 236.091 140.321 235.804C140.764 235.514 141.281 235.369 141.872 235.369C142.213 235.369 142.55 235.426 142.882 235.54C143.215 235.653 143.517 235.838 143.79 236.094C144.063 236.347 144.28 236.682 144.442 237.099C144.604 237.517 144.685 238.031 144.685 238.642V239.068H139.639V238.199H143.662C143.662 237.83 143.588 237.5 143.44 237.21C143.296 236.92 143.088 236.692 142.818 236.524C142.551 236.357 142.236 236.273 141.872 236.273C141.472 236.273 141.125 236.372 140.833 236.571C140.543 236.767 140.32 237.023 140.164 237.338C140.007 237.653 139.929 237.991 139.929 238.352V238.932C139.929 239.426 140.014 239.845 140.185 240.189C140.358 240.53 140.598 240.79 140.905 240.969C141.212 241.145 141.568 241.233 141.975 241.233C142.239 241.233 142.477 241.196 142.69 241.122C142.906 241.045 143.092 240.932 143.249 240.781C143.405 240.628 143.526 240.438 143.611 240.21L144.583 240.483C144.48 240.813 144.308 241.102 144.067 241.352C143.825 241.599 143.527 241.793 143.172 241.932C142.817 242.068 142.418 242.136 141.975 242.136ZM148.686 242.136C148.141 242.136 147.659 241.999 147.242 241.723C146.824 241.445 146.497 241.053 146.262 240.547C146.026 240.038 145.908 239.438 145.908 238.744C145.908 238.057 146.026 237.46 146.262 236.955C146.497 236.449 146.825 236.058 147.246 235.783C147.666 235.507 148.152 235.369 148.703 235.369C149.129 235.369 149.466 235.44 149.713 235.582C149.963 235.722 150.154 235.881 150.284 236.06C150.418 236.236 150.521 236.381 150.595 236.494H150.681V233.273H151.686V242H150.715V240.994H150.595C150.521 241.114 150.416 241.264 150.28 241.446C150.144 241.625 149.949 241.786 149.696 241.928C149.443 242.067 149.107 242.136 148.686 242.136ZM148.823 241.233C149.226 241.233 149.567 241.128 149.845 240.918C150.124 240.705 150.335 240.411 150.48 240.036C150.625 239.658 150.698 239.222 150.698 238.727C150.698 238.239 150.627 237.811 150.485 237.445C150.342 237.075 150.132 236.788 149.854 236.584C149.575 236.376 149.232 236.273 148.823 236.273C148.396 236.273 148.041 236.382 147.757 236.601C147.476 236.817 147.264 237.111 147.122 237.483C146.983 237.852 146.914 238.267 146.914 238.727C146.914 239.193 146.985 239.616 147.127 239.997C147.271 240.375 147.485 240.676 147.766 240.901C148.05 241.122 148.402 241.233 148.823 241.233Z" fill="#72777B"/>
<line x1="191.997" y1="227" x2="191.997" y2="31" stroke="#E7EAEE"/>
<path d="M193.554 233.273H194.815L197.781 240.517H197.884L200.85 233.273H202.111V242H201.122V235.369H201.037L198.31 242H197.355L194.628 235.369H194.543V242H193.554V233.273ZM206.02 242.153C205.605 242.153 205.228 242.075 204.89 241.919C204.552 241.76 204.284 241.531 204.085 241.233C203.886 240.932 203.787 240.568 203.787 240.142C203.787 239.767 203.861 239.463 204.008 239.23C204.156 238.994 204.353 238.81 204.601 238.676C204.848 238.543 205.121 238.443 205.419 238.378C205.72 238.31 206.023 238.256 206.327 238.216C206.724 238.165 207.047 238.126 207.294 238.101C207.544 238.072 207.726 238.026 207.839 237.96C207.956 237.895 208.014 237.781 208.014 237.619V237.585C208.014 237.165 207.899 236.838 207.669 236.605C207.442 236.372 207.096 236.256 206.633 236.256C206.153 236.256 205.777 236.361 205.504 236.571C205.231 236.781 205.04 237.006 204.929 237.244L203.974 236.903C204.145 236.506 204.372 236.196 204.656 235.974C204.943 235.75 205.255 235.594 205.594 235.506C205.934 235.415 206.27 235.369 206.599 235.369C206.809 235.369 207.051 235.395 207.324 235.446C207.599 235.494 207.865 235.595 208.121 235.749C208.379 235.902 208.594 236.134 208.764 236.443C208.934 236.753 209.02 237.168 209.02 237.688V242H208.014V241.114H207.963C207.895 241.256 207.781 241.408 207.622 241.57C207.463 241.732 207.251 241.869 206.987 241.983C206.723 242.097 206.4 242.153 206.02 242.153ZM206.173 241.25C206.571 241.25 206.906 241.172 207.179 241.016C207.454 240.859 207.662 240.658 207.801 240.411C207.943 240.163 208.014 239.903 208.014 239.631V238.71C207.971 238.761 207.878 238.808 207.733 238.851C207.591 238.891 207.426 238.926 207.238 238.957C207.054 238.986 206.873 239.011 206.697 239.034C206.524 239.054 206.383 239.071 206.275 239.085C206.014 239.119 205.77 239.175 205.542 239.251C205.318 239.325 205.136 239.438 204.997 239.588C204.861 239.736 204.792 239.938 204.792 240.193C204.792 240.543 204.922 240.807 205.18 240.986C205.442 241.162 205.773 241.25 206.173 241.25ZM210.855 242V235.455H211.827V236.443H211.895C212.014 236.119 212.23 235.857 212.543 235.655C212.855 235.453 213.208 235.352 213.6 235.352C213.673 235.352 213.766 235.354 213.877 235.357C213.987 235.359 214.071 235.364 214.128 235.369V236.392C214.094 236.384 214.016 236.371 213.894 236.354C213.774 236.334 213.648 236.324 213.514 236.324C213.196 236.324 212.912 236.391 212.662 236.524C212.415 236.655 212.219 236.837 212.074 237.07C211.932 237.3 211.861 237.563 211.861 237.858V242H210.855Z" fill="#72777B"/>
<line x1="252.747" y1="227" x2="252.747" y2="31" stroke="#E7EAEE"/>
<path d="M254.662 242H253.554L256.759 233.273H257.85L261.054 242H259.946L257.338 234.653H257.27L254.662 242ZM255.071 238.591H259.537V239.528H255.071V238.591ZM262.277 244.455V235.455H263.249V236.494H263.368C263.442 236.381 263.544 236.236 263.675 236.06C263.808 235.881 263.999 235.722 264.246 235.582C264.496 235.44 264.834 235.369 265.26 235.369C265.811 235.369 266.297 235.507 266.717 235.783C267.138 236.058 267.466 236.449 267.702 236.955C267.938 237.46 268.056 238.057 268.056 238.744C268.056 239.438 267.938 240.038 267.702 240.547C267.466 241.053 267.139 241.445 266.722 241.723C266.304 241.999 265.823 242.136 265.277 242.136C264.857 242.136 264.52 242.067 264.267 241.928C264.014 241.786 263.82 241.625 263.683 241.446C263.547 241.264 263.442 241.114 263.368 240.994H263.283V244.455H262.277ZM263.266 238.727C263.266 239.222 263.338 239.658 263.483 240.036C263.628 240.411 263.84 240.705 264.118 240.918C264.396 241.128 264.737 241.233 265.141 241.233C265.561 241.233 265.912 241.122 266.193 240.901C266.477 240.676 266.69 240.375 266.833 239.997C266.977 239.616 267.05 239.193 267.05 238.727C267.05 238.267 266.979 237.852 266.837 237.483C266.698 237.111 266.486 236.817 266.202 236.601C265.921 236.382 265.567 236.273 265.141 236.273C264.732 236.273 264.388 236.376 264.11 236.584C263.831 236.788 263.621 237.075 263.479 237.445C263.337 237.811 263.266 238.239 263.266 238.727ZM269.59 242V235.455H270.561V236.443H270.629C270.749 236.119 270.965 235.857 271.277 235.655C271.59 235.453 271.942 235.352 272.334 235.352C272.408 235.352 272.5 235.354 272.611 235.357C272.722 235.359 272.806 235.364 272.862 235.369V236.392C272.828 236.384 272.75 236.371 272.628 236.354C272.509 236.334 272.382 236.324 272.249 236.324C271.931 236.324 271.646 236.391 271.396 236.524C271.149 236.655 270.953 236.837 270.808 237.07C270.666 237.3 270.595 237.563 270.595 237.858V242H269.59Z" fill="#72777B"/>
<line x1="313.497" y1="227" x2="313.497" y2="31" stroke="#E7EAEE"/>
<path d="M315.054 233.273H316.315L319.281 240.517H319.384L322.35 233.273H323.611V242H322.622V235.369H322.537L319.81 242H318.855L316.128 235.369H316.043V242H315.054V233.273ZM327.52 242.153C327.105 242.153 326.728 242.075 326.39 241.919C326.052 241.76 325.784 241.531 325.585 241.233C325.386 240.932 325.287 240.568 325.287 240.142C325.287 239.767 325.361 239.463 325.508 239.23C325.656 238.994 325.853 238.81 326.101 238.676C326.348 238.543 326.621 238.443 326.919 238.378C327.22 238.31 327.523 238.256 327.827 238.216C328.224 238.165 328.547 238.126 328.794 238.101C329.044 238.072 329.226 238.026 329.339 237.96C329.456 237.895 329.514 237.781 329.514 237.619V237.585C329.514 237.165 329.399 236.838 329.169 236.605C328.942 236.372 328.596 236.256 328.133 236.256C327.653 236.256 327.277 236.361 327.004 236.571C326.731 236.781 326.54 237.006 326.429 237.244L325.474 236.903C325.645 236.506 325.872 236.196 326.156 235.974C326.443 235.75 326.755 235.594 327.094 235.506C327.434 235.415 327.77 235.369 328.099 235.369C328.309 235.369 328.551 235.395 328.824 235.446C329.099 235.494 329.365 235.595 329.621 235.749C329.879 235.902 330.094 236.134 330.264 236.443C330.434 236.753 330.52 237.168 330.52 237.688V242H329.514V241.114H329.463C329.395 241.256 329.281 241.408 329.122 241.57C328.963 241.732 328.751 241.869 328.487 241.983C328.223 242.097 327.9 242.153 327.52 242.153ZM327.673 241.25C328.071 241.25 328.406 241.172 328.679 241.016C328.954 240.859 329.162 240.658 329.301 240.411C329.443 240.163 329.514 239.903 329.514 239.631V238.71C329.471 238.761 329.378 238.808 329.233 238.851C329.091 238.891 328.926 238.926 328.738 238.957C328.554 238.986 328.373 239.011 328.197 239.034C328.024 239.054 327.883 239.071 327.775 239.085C327.514 239.119 327.27 239.175 327.042 239.251C326.818 239.325 326.636 239.438 326.497 239.588C326.361 239.736 326.292 239.938 326.292 240.193C326.292 240.543 326.422 240.807 326.68 240.986C326.942 241.162 327.273 241.25 327.673 241.25ZM332.769 244.455C332.598 244.455 332.446 244.44 332.313 244.412C332.179 244.386 332.087 244.361 332.036 244.335L332.291 243.449C332.536 243.511 332.752 243.534 332.939 243.517C333.127 243.5 333.293 243.416 333.438 243.266C333.585 243.118 333.72 242.878 333.842 242.545L334.03 242.034L331.61 235.455H332.7L334.507 240.67H334.575L336.382 235.455H337.473L334.695 242.955C334.57 243.293 334.415 243.572 334.23 243.794C334.046 244.018 333.831 244.185 333.587 244.293C333.345 244.401 333.073 244.455 332.769 244.455Z" fill="#72777B"/>
<line x1="374.247" y1="227" x2="374.247" y2="31" stroke="#E7EAEE"/>
<path d="M379.145 233.273H380.202V239.511C380.202 240.068 380.1 240.541 379.895 240.93C379.69 241.32 379.402 241.615 379.03 241.817C378.658 242.018 378.219 242.119 377.713 242.119C377.236 242.119 376.811 242.033 376.439 241.859C376.067 241.683 375.774 241.433 375.561 241.109C375.348 240.786 375.242 240.401 375.242 239.955H376.281C376.281 240.202 376.342 240.418 376.465 240.602C376.59 240.784 376.76 240.926 376.976 241.028C377.192 241.131 377.438 241.182 377.713 241.182C378.017 241.182 378.276 241.118 378.489 240.99C378.702 240.862 378.864 240.675 378.975 240.428C379.088 240.178 379.145 239.872 379.145 239.511V233.273ZM386.308 239.324V235.455H387.314V242H386.308V240.892H386.24C386.087 241.224 385.848 241.507 385.524 241.74C385.2 241.97 384.791 242.085 384.297 242.085C383.888 242.085 383.524 241.996 383.206 241.817C382.888 241.635 382.638 241.362 382.456 240.999C382.274 240.632 382.183 240.17 382.183 239.614V235.455H383.189V239.545C383.189 240.023 383.323 240.403 383.59 240.688C383.86 240.972 384.203 241.114 384.621 241.114C384.871 241.114 385.125 241.05 385.384 240.922C385.645 240.794 385.864 240.598 386.04 240.334C386.219 240.07 386.308 239.733 386.308 239.324ZM390.162 238.063V242H389.156V235.455H390.128V236.477H390.213C390.366 236.145 390.599 235.878 390.912 235.676C391.224 235.472 391.628 235.369 392.122 235.369C392.565 235.369 392.953 235.46 393.285 235.642C393.618 235.821 393.876 236.094 394.061 236.46C394.246 236.824 394.338 237.284 394.338 237.841V242H393.332V237.909C393.332 237.395 393.199 236.994 392.932 236.707C392.665 236.418 392.298 236.273 391.832 236.273C391.511 236.273 391.224 236.342 390.971 236.482C390.721 236.621 390.524 236.824 390.379 237.091C390.234 237.358 390.162 237.682 390.162 238.063Z" fill="#72777B"/>
<line x1="434.997" y1="227" x2="434.997" y2="31" stroke="#E7EAEE"/>
<path d="M439.895 233.273H440.952V239.511C440.952 240.068 440.85 240.541 440.645 240.93C440.44 241.32 440.152 241.615 439.78 241.817C439.408 242.018 438.969 242.119 438.463 242.119C437.986 242.119 437.561 242.033 437.189 241.859C436.817 241.683 436.524 241.433 436.311 241.109C436.098 240.786 435.992 240.401 435.992 239.955H437.031C437.031 240.202 437.092 240.418 437.215 240.602C437.34 240.784 437.51 240.926 437.726 241.028C437.942 241.131 438.188 241.182 438.463 241.182C438.767 241.182 439.026 241.118 439.239 240.99C439.452 240.862 439.614 240.675 439.725 240.428C439.838 240.178 439.895 239.872 439.895 239.511V233.273ZM447.058 239.324V235.455H448.064V242H447.058V240.892H446.99C446.837 241.224 446.598 241.507 446.274 241.74C445.95 241.97 445.541 242.085 445.047 242.085C444.638 242.085 444.274 241.996 443.956 241.817C443.638 241.635 443.388 241.362 443.206 240.999C443.024 240.632 442.933 240.17 442.933 239.614V235.455H443.939V239.545C443.939 240.023 444.073 240.403 444.34 240.688C444.61 240.972 444.953 241.114 445.371 241.114C445.621 241.114 445.875 241.05 446.134 240.922C446.395 240.794 446.614 240.598 446.79 240.334C446.969 240.07 447.058 239.733 447.058 239.324ZM450.912 233.273V242H449.906V233.273H450.912Z" fill="#72777B"/>
<line x1="495.747" y1="227" x2="495.747" y2="31" stroke="#E7EAEE"/>
<path d="M497.662 242H496.554L499.759 233.273H500.85L504.054 242H502.946L500.338 234.653H500.27L497.662 242ZM498.071 238.591H502.537V239.528H498.071V238.591ZM509.402 239.324V235.455H510.408V242H509.402V240.892H509.334C509.181 241.224 508.942 241.507 508.618 241.74C508.294 241.97 507.885 242.085 507.391 242.085C506.982 242.085 506.618 241.996 506.3 241.817C505.982 241.635 505.732 241.362 505.55 240.999C505.368 240.632 505.277 240.17 505.277 239.614V235.455H506.283V239.545C506.283 240.023 506.416 240.403 506.683 240.688C506.953 240.972 507.297 241.114 507.715 241.114C507.965 241.114 508.219 241.05 508.477 240.922C508.739 240.794 508.958 240.598 509.134 240.334C509.313 240.07 509.402 239.733 509.402 239.324ZM514.892 244.591C514.406 244.591 513.988 244.528 513.639 244.403C513.29 244.281 512.998 244.119 512.765 243.918C512.535 243.719 512.352 243.506 512.216 243.278L513.017 242.716C513.108 242.835 513.223 242.972 513.362 243.125C513.501 243.281 513.692 243.416 513.933 243.53C514.177 243.646 514.497 243.705 514.892 243.705C515.42 243.705 515.856 243.577 516.2 243.321C516.544 243.065 516.716 242.665 516.716 242.119V240.79H516.63C516.557 240.909 516.452 241.057 516.315 241.233C516.182 241.406 515.988 241.561 515.736 241.697C515.486 241.831 515.148 241.898 514.721 241.898C514.193 241.898 513.719 241.773 513.298 241.523C512.88 241.273 512.55 240.909 512.305 240.432C512.064 239.955 511.943 239.375 511.943 238.693C511.943 238.023 512.061 237.439 512.297 236.942C512.532 236.442 512.861 236.055 513.281 235.783C513.702 235.507 514.187 235.369 514.738 235.369C515.165 235.369 515.503 235.44 515.753 235.582C516.005 235.722 516.199 235.881 516.332 236.06C516.469 236.236 516.574 236.381 516.648 236.494H516.75V235.455H517.721V242.187C517.721 242.75 517.594 243.207 517.338 243.56C517.085 243.915 516.744 244.175 516.315 244.339C515.889 244.507 515.415 244.591 514.892 244.591ZM514.858 240.994C515.261 240.994 515.602 240.902 515.88 240.717C516.159 240.533 516.371 240.267 516.515 239.92C516.66 239.574 516.733 239.159 516.733 238.676C516.733 238.205 516.662 237.788 516.52 237.428C516.378 237.067 516.167 236.784 515.889 236.58C515.611 236.375 515.267 236.273 514.858 236.273C514.432 236.273 514.077 236.381 513.792 236.597C513.511 236.813 513.3 237.102 513.157 237.466C513.018 237.83 512.949 238.233 512.949 238.676C512.949 239.131 513.02 239.533 513.162 239.882C513.307 240.229 513.52 240.501 513.801 240.7C514.085 240.896 514.437 240.994 514.858 240.994Z" fill="#72777B"/>
<line x1="556.497" y1="227" x2="556.497" y2="31" stroke="#E7EAEE"/>
<path d="M562.827 235.455C562.776 235.023 562.568 234.688 562.205 234.449C561.841 234.21 561.395 234.091 560.867 234.091C560.48 234.091 560.142 234.153 559.852 234.278C559.565 234.403 559.341 234.575 559.179 234.794C559.02 235.013 558.94 235.261 558.94 235.54C558.94 235.773 558.996 235.973 559.107 236.141C559.22 236.305 559.365 236.443 559.541 236.554C559.717 236.662 559.902 236.751 560.095 236.822C560.289 236.891 560.466 236.946 560.628 236.989L561.514 237.227C561.742 237.287 561.994 237.369 562.273 237.474C562.554 237.58 562.823 237.723 563.078 237.905C563.337 238.084 563.55 238.314 563.717 238.595C563.885 238.876 563.969 239.222 563.969 239.631C563.969 240.102 563.845 240.528 563.598 240.909C563.354 241.29 562.996 241.592 562.524 241.817C562.056 242.041 561.486 242.153 560.815 242.153C560.19 242.153 559.649 242.053 559.192 241.851C558.737 241.649 558.379 241.368 558.118 241.007C557.86 240.646 557.713 240.227 557.679 239.75H558.77C558.798 240.08 558.909 240.352 559.102 240.568C559.298 240.781 559.546 240.94 559.844 241.045C560.145 241.148 560.469 241.199 560.815 241.199C561.219 241.199 561.581 241.134 561.902 241.003C562.223 240.869 562.477 240.685 562.665 240.449C562.852 240.21 562.946 239.932 562.946 239.614C562.946 239.324 562.865 239.088 562.703 238.906C562.541 238.724 562.328 238.577 562.064 238.463C561.8 238.349 561.514 238.25 561.208 238.165L560.134 237.858C559.452 237.662 558.912 237.382 558.514 237.018C558.117 236.655 557.918 236.179 557.918 235.591C557.918 235.102 558.05 234.676 558.314 234.313C558.581 233.946 558.939 233.662 559.388 233.46C559.84 233.256 560.344 233.153 560.901 233.153C561.463 233.153 561.963 233.254 562.401 233.456C562.838 233.655 563.185 233.928 563.44 234.274C563.699 234.621 563.835 235.014 563.85 235.455H562.827ZM568.314 242.136C567.684 242.136 567.14 241.997 566.682 241.719C566.228 241.438 565.877 241.045 565.63 240.543C565.385 240.037 565.263 239.449 565.263 238.778C565.263 238.108 565.385 237.517 565.63 237.006C565.877 236.491 566.221 236.091 566.661 235.804C567.104 235.514 567.621 235.369 568.212 235.369C568.553 235.369 568.89 235.426 569.222 235.54C569.554 235.653 569.857 235.838 570.13 236.094C570.402 236.347 570.62 236.682 570.782 237.099C570.944 237.517 571.025 238.031 571.025 238.642V239.068H565.979V238.199H570.002C570.002 237.83 569.928 237.5 569.78 237.21C569.635 236.92 569.428 236.692 569.158 236.524C568.891 236.357 568.576 236.273 568.212 236.273C567.812 236.273 567.465 236.372 567.172 236.571C566.883 236.767 566.66 237.023 566.503 237.338C566.347 237.653 566.269 237.991 566.269 238.352V238.932C566.269 239.426 566.354 239.845 566.525 240.189C566.698 240.53 566.938 240.79 567.245 240.969C567.552 241.145 567.908 241.233 568.314 241.233C568.579 241.233 568.817 241.196 569.03 241.122C569.246 241.045 569.432 240.932 569.589 240.781C569.745 240.628 569.866 240.438 569.951 240.21L570.922 240.483C570.82 240.813 570.648 241.102 570.407 241.352C570.165 241.599 569.867 241.793 569.512 241.932C569.157 242.068 568.758 242.136 568.314 242.136ZM572.554 244.455V235.455H573.526V236.494H573.645C573.719 236.381 573.822 236.236 573.952 236.06C574.086 235.881 574.276 235.722 574.523 235.582C574.773 235.44 575.111 235.369 575.537 235.369C576.089 235.369 576.574 235.507 576.995 235.783C577.415 236.058 577.743 236.449 577.979 236.955C578.215 237.46 578.333 238.057 578.333 238.744C578.333 239.438 578.215 240.038 577.979 240.547C577.743 241.053 577.417 241.445 576.999 241.723C576.581 241.999 576.1 242.136 575.554 242.136C575.134 242.136 574.797 242.067 574.545 241.928C574.292 241.786 574.097 241.625 573.961 241.446C573.824 241.264 573.719 241.114 573.645 240.994H573.56V244.455H572.554ZM573.543 238.727C573.543 239.222 573.616 239.658 573.76 240.036C573.905 240.411 574.117 240.705 574.395 240.918C574.674 241.128 575.015 241.233 575.418 241.233C575.839 241.233 576.189 241.122 576.471 240.901C576.755 240.676 576.968 240.375 577.11 239.997C577.255 239.616 577.327 239.193 577.327 238.727C577.327 238.267 577.256 237.852 577.114 237.483C576.975 237.111 576.763 236.817 576.479 236.601C576.198 236.382 575.844 236.273 575.418 236.273C575.009 236.273 574.665 236.376 574.387 236.584C574.108 236.788 573.898 237.075 573.756 237.445C573.614 237.811 573.543 238.239 573.543 238.727Z" fill="#72777B"/>
<line x1="617.247" y1="227" x2="617.247" y2="31" stroke="#E7EAEE"/>
<path d="M626.168 237.636C626.168 238.557 626.002 239.352 625.669 240.023C625.337 240.693 624.881 241.21 624.301 241.574C623.722 241.938 623.06 242.119 622.315 242.119C621.571 242.119 620.909 241.938 620.33 241.574C619.75 241.21 619.294 240.693 618.962 240.023C618.629 239.352 618.463 238.557 618.463 237.636C618.463 236.716 618.629 235.92 618.962 235.25C619.294 234.58 619.75 234.063 620.33 233.699C620.909 233.335 621.571 233.153 622.315 233.153C623.06 233.153 623.722 233.335 624.301 233.699C624.881 234.063 625.337 234.58 625.669 235.25C626.002 235.92 626.168 236.716 626.168 237.636ZM625.145 237.636C625.145 236.881 625.019 236.243 624.766 235.723C624.516 235.203 624.176 234.81 623.747 234.543C623.321 234.276 622.844 234.142 622.315 234.142C621.787 234.142 621.308 234.276 620.879 234.543C620.453 234.81 620.114 235.203 619.861 235.723C619.611 236.243 619.486 236.881 619.486 237.636C619.486 238.392 619.611 239.03 619.861 239.55C620.114 240.07 620.453 240.463 620.879 240.73C621.308 240.997 621.787 241.131 622.315 241.131C622.844 241.131 623.321 240.997 623.747 240.73C624.176 240.463 624.516 240.07 624.766 239.55C625.019 239.03 625.145 238.392 625.145 237.636ZM630.467 242.136C629.854 242.136 629.325 241.991 628.882 241.702C628.439 241.412 628.098 241.013 627.86 240.504C627.621 239.996 627.502 239.415 627.502 238.761C627.502 238.097 627.624 237.51 627.868 237.001C628.115 236.49 628.459 236.091 628.899 235.804C629.342 235.514 629.86 235.369 630.45 235.369C630.911 235.369 631.325 235.455 631.695 235.625C632.064 235.795 632.367 236.034 632.602 236.341C632.838 236.648 632.985 237.006 633.041 237.415H632.036C631.959 237.116 631.789 236.852 631.524 236.622C631.263 236.389 630.911 236.273 630.467 236.273C630.075 236.273 629.732 236.375 629.436 236.58C629.144 236.781 628.915 237.067 628.75 237.436C628.588 237.803 628.507 238.233 628.507 238.727C628.507 239.233 628.587 239.673 628.746 240.048C628.908 240.423 629.135 240.714 629.428 240.922C629.723 241.129 630.07 241.233 630.467 241.233C630.729 241.233 630.966 241.188 631.179 241.097C631.392 241.006 631.573 240.875 631.72 240.705C631.868 240.534 631.973 240.33 632.036 240.091H633.041C632.985 240.477 632.844 240.825 632.619 241.135C632.398 241.442 632.104 241.686 631.737 241.868C631.374 242.047 630.95 242.136 630.467 242.136ZM637.358 235.455V236.307H633.966V235.455H637.358ZM634.955 233.886H635.96V240.125C635.96 240.409 636.002 240.622 636.084 240.764C636.169 240.903 636.277 240.997 636.408 241.045C636.541 241.091 636.682 241.114 636.83 241.114C636.94 241.114 637.031 241.108 637.102 241.097C637.173 241.082 637.23 241.071 637.273 241.063L637.477 241.966C637.409 241.991 637.314 242.017 637.192 242.043C637.07 242.071 636.915 242.085 636.727 242.085C636.443 242.085 636.165 242.024 635.892 241.902C635.622 241.78 635.398 241.594 635.219 241.344C635.043 241.094 634.955 240.778 634.955 240.398V233.886Z" fill="#72777B"/>
<line x1="677.997" y1="227" x2="677.997" y2="31" stroke="#E7EAEE"/>
<path d="M686.475 233.273V242H685.452L680.696 235.148H680.611V242H679.554V233.273H680.577L685.35 240.142H685.435V233.273H686.475ZM691.112 242.136C690.521 242.136 690.003 241.996 689.557 241.714C689.113 241.433 688.767 241.04 688.517 240.534C688.27 240.028 688.146 239.438 688.146 238.761C688.146 238.08 688.27 237.484 688.517 236.976C688.767 236.467 689.113 236.072 689.557 235.791C690.003 235.51 690.521 235.369 691.112 235.369C691.703 235.369 692.22 235.51 692.663 235.791C693.109 236.072 693.456 236.467 693.703 236.976C693.953 237.484 694.078 238.08 694.078 238.761C694.078 239.438 693.953 240.028 693.703 240.534C693.456 241.04 693.109 241.433 692.663 241.714C692.22 241.996 691.703 242.136 691.112 242.136ZM691.112 241.233C691.561 241.233 691.93 241.118 692.22 240.888C692.51 240.658 692.724 240.355 692.863 239.98C693.003 239.605 693.072 239.199 693.072 238.761C693.072 238.324 693.003 237.916 692.863 237.538C692.724 237.161 692.51 236.855 692.22 236.622C691.93 236.389 691.561 236.273 691.112 236.273C690.663 236.273 690.294 236.389 690.004 236.622C689.714 236.855 689.5 237.161 689.361 237.538C689.221 237.916 689.152 238.324 689.152 238.761C689.152 239.199 689.221 239.605 689.361 239.98C689.5 240.355 689.714 240.658 690.004 240.888C690.294 241.118 690.663 241.233 691.112 241.233ZM700.731 235.455L698.311 242H697.288L694.867 235.455H695.958L697.765 240.67H697.833L699.64 235.455H700.731Z" fill="#72777B"/>
<line x1="738.747" y1="227" x2="738.747" y2="31" stroke="#E7EAEE"/>
<path d="M742.997 242H740.304V233.273H743.117C743.963 233.273 744.688 233.447 745.29 233.797C745.892 234.143 746.354 234.642 746.675 235.293C746.996 235.94 747.156 236.716 747.156 237.619C747.156 238.528 746.994 239.311 746.671 239.967C746.347 240.621 745.875 241.124 745.256 241.476C744.637 241.825 743.884 242 742.997 242ZM741.361 241.063H742.929C743.651 241.063 744.249 240.923 744.723 240.645C745.198 240.366 745.551 239.97 745.784 239.456C746.017 238.942 746.134 238.33 746.134 237.619C746.134 236.915 746.019 236.308 745.789 235.8C745.558 235.288 745.215 234.896 744.757 234.624C744.3 234.348 743.73 234.21 743.048 234.21H741.361V241.063ZM751.537 242.136C750.906 242.136 750.362 241.997 749.905 241.719C749.45 241.438 749.1 241.045 748.852 240.543C748.608 240.037 748.486 239.449 748.486 238.778C748.486 238.108 748.608 237.517 748.852 237.006C749.1 236.491 749.443 236.091 749.884 235.804C750.327 235.514 750.844 235.369 751.435 235.369C751.776 235.369 752.112 235.426 752.445 235.54C752.777 235.653 753.08 235.838 753.352 236.094C753.625 236.347 753.842 236.682 754.004 237.099C754.166 237.517 754.247 238.031 754.247 238.642V239.068H749.202V238.199H753.225C753.225 237.83 753.151 237.5 753.003 237.21C752.858 236.92 752.651 236.692 752.381 236.524C752.114 236.357 751.798 236.273 751.435 236.273C751.034 236.273 750.688 236.372 750.395 236.571C750.105 236.767 749.882 237.023 749.726 237.338C749.57 237.653 749.492 237.991 749.492 238.352V238.932C749.492 239.426 749.577 239.845 749.747 240.189C749.921 240.53 750.161 240.79 750.467 240.969C750.774 241.145 751.131 241.233 751.537 241.233C751.801 241.233 752.04 241.196 752.253 241.122C752.469 241.045 752.655 240.932 752.811 240.781C752.967 240.628 753.088 240.438 753.173 240.21L754.145 240.483C754.043 240.813 753.871 241.102 753.629 241.352C753.388 241.599 753.09 241.793 752.735 241.932C752.379 242.068 751.98 242.136 751.537 242.136ZM758.436 242.136C757.823 242.136 757.294 241.991 756.851 241.702C756.408 241.412 756.067 241.013 755.828 240.504C755.59 239.996 755.47 239.415 755.47 238.761C755.47 238.097 755.592 237.51 755.837 237.001C756.084 236.49 756.428 236.091 756.868 235.804C757.311 235.514 757.828 235.369 758.419 235.369C758.879 235.369 759.294 235.455 759.664 235.625C760.033 235.795 760.335 236.034 760.571 236.341C760.807 236.648 760.953 237.006 761.01 237.415H760.004C759.928 237.116 759.757 236.852 759.493 236.622C759.232 236.389 758.879 236.273 758.436 236.273C758.044 236.273 757.7 236.375 757.405 236.58C757.112 236.781 756.884 237.067 756.719 237.436C756.557 237.803 756.476 238.233 756.476 238.727C756.476 239.233 756.556 239.673 756.715 240.048C756.877 240.423 757.104 240.714 757.396 240.922C757.692 241.129 758.039 241.233 758.436 241.233C758.698 241.233 758.935 241.188 759.148 241.097C759.361 241.006 759.541 240.875 759.689 240.705C759.837 240.534 759.942 240.33 760.004 240.091H761.01C760.953 240.477 760.813 240.825 760.588 241.135C760.367 241.442 760.073 241.686 759.706 241.868C759.342 242.047 758.919 242.136 758.436 242.136Z" fill="#72777B"/>
<path d="M76.0586 197.98L70.9961 197.609V226.999H799.996V50.3221L794.934 63.3497C789.871 76.3773 779.746 102.432 769.621 99.1789C759.496 95.9254 749.371 63.3631 739.246 52.0784C729.121 40.7938 718.996 50.7868 708.871 58.2014C698.746 65.6161 688.621 70.4524 678.496 91.5094C668.371 112.566 658.246 149.844 648.121 171.93C637.996 194.017 627.871 200.912 617.746 196.52C607.621 192.128 597.496 176.449 587.371 163.768C577.246 151.086 567.121 141.402 556.996 140.162C546.871 138.922 536.746 146.127 526.621 142.083C516.496 138.039 506.371 122.747 496.246 132.479C486.121 142.211 475.996 176.968 465.871 168.252C455.746 159.535 445.621 107.345 435.496 103.33C425.371 99.3149 415.246 143.474 405.121 144.132C394.996 144.789 384.871 101.944 374.746 95.8762C364.621 89.8082 354.496 120.517 344.371 122.504C334.246 124.492 324.121 97.7577 313.996 115.041C303.871 132.325 293.746 193.625 283.621 208.587C273.496 223.548 263.371 192.17 253.246 185.853C243.121 179.536 232.996 198.281 222.871 187.634C212.746 176.987 202.621 136.947 192.496 138.745C182.371 140.542 172.246 184.176 162.121 198.209C151.996 212.241 141.871 196.672 131.746 192.009C121.621 187.346 111.496 193.591 101.371 196.342C91.2462 199.093 81.1213 198.351 76.0587 197.98H76.0586Z" fill="url(#paint0_linear_2004_2394)"/>
<path d="M70.9961 197.163L76.0586 197.533C81.1211 197.903 91.2461 198.642 101.371 195.899C111.496 193.156 121.621 186.93 131.746 191.579C141.871 196.228 151.996 211.751 162.121 197.76C172.246 183.77 182.371 140.265 192.496 138.473C202.621 136.68 212.746 176.601 222.871 187.217C232.996 197.833 243.121 179.143 253.246 185.441C263.371 191.739 273.496 223.024 283.621 208.107C293.746 193.191 303.871 132.072 313.996 114.839C324.121 97.6072 334.246 124.262 344.371 122.28C354.496 120.299 364.621 89.6812 374.746 95.7313C384.871 101.781 394.996 144.499 405.121 143.844C415.246 143.188 425.371 99.1598 435.496 103.163C445.621 107.166 455.746 159.202 465.871 167.892C475.996 176.583 486.121 141.929 496.246 132.226C506.371 122.522 516.496 137.769 526.621 141.801C536.746 145.833 546.871 138.649 556.996 139.885C567.121 141.122 577.246 150.778 587.371 163.422C597.496 176.066 607.621 191.698 617.746 196.077C627.871 200.455 637.996 193.581 648.121 171.56C658.246 149.539 668.371 112.372 678.496 91.3774C688.621 70.3829 698.746 65.5609 708.871 58.1682C718.996 50.7755 729.121 40.8122 739.246 52.0634C749.371 63.3146 759.496 95.7803 769.621 99.0242C779.746 102.268 789.871 76.2902 794.934 63.3012L799.996 50.3123" stroke="#00C7F2"/>
<line x1="374.5" y1="77" x2="374.5" y2="172" stroke="#000643"/>
<line x1="434.5" y1="172" x2="434.5" y2="51" stroke="#000643"/>
<line x1="556.5" y1="51" x2="556.5" y2="76" stroke="#000643"/>
<line x1="677.5" y1="76" x2="677.5" y2="52" stroke="#000643"/>
<line x1="72" y1="51.5" x2="132" y2="51.5" stroke="#000643"/>
<path d="M131.5 52L131.5 100" stroke="#000643"/>
<line x1="131" y1="99.5" x2="193" y2="99.5" stroke="#000643"/>
<line x1="192.5" y1="100" x2="192.5" y2="172" stroke="#000643"/>
<line x1="192" y1="172.5" x2="252" y2="172.5" stroke="#000643"/>
<line x1="252.5" y1="173" x2="252.5" y2="77" stroke="#000643"/>
<line x1="252" y1="76.5" x2="375" y2="76.5" stroke="#000643"/>
<line x1="375" y1="171.5" x2="435" y2="171.5" stroke="#000643"/>
<line x1="434" y1="51.5" x2="556" y2="51.5" stroke="#000643"/>
<line x1="557" y1="75.5" x2="677" y2="75.5" stroke="#000643"/>
<line x1="678" y1="52.5" x2="800" y2="52.5" stroke="#000643"/>
<path d="M29.7121 158.964C29.0961 159.132 28.4921 159.276 27.9001 159.396C27.3161 159.516 26.7921 159.608 26.3281 159.672C25.8641 159.736 25.5201 159.768 25.2961 159.768C24.7041 159.768 24.1641 159.672 23.6761 159.48C23.1881 159.288 22.7601 159.04 22.3921 158.736C22.0161 158.432 21.7001 158.104 21.4441 157.752C21.1801 157.4 20.9841 157.06 20.8561 156.732C20.7201 156.396 20.6521 156.112 20.6521 155.88C20.6521 155.68 20.6961 155.504 20.7841 155.352C20.8721 155.2 21.0441 155.052 21.3001 154.908C21.5561 154.764 21.9321 154.612 22.4281 154.452C22.8841 154.3 23.2321 154.156 23.4721 154.02C23.7041 153.884 23.8641 153.736 23.9521 153.576C24.0321 153.416 24.0721 153.232 24.0721 153.024C24.0721 152.856 24.1201 152.736 24.2161 152.664C24.3041 152.584 24.4121 152.544 24.5401 152.544C24.6681 152.544 24.7881 152.6 24.9001 152.712C25.0041 152.824 25.0561 152.968 25.0561 153.144C25.0561 153.456 25.0001 153.724 24.8881 153.948C24.7761 154.164 24.6241 154.352 24.4321 154.512L24.2041 154.236C24.4361 154.332 24.6281 154.456 24.7801 154.608C24.9241 154.752 25.0321 154.916 25.1041 155.1C25.1761 155.276 25.2121 155.464 25.2121 155.664C25.2121 155.896 25.1681 156.136 25.0801 156.384C25.0001 156.632 24.8801 156.876 24.7201 157.116C24.5521 157.356 24.3481 157.584 24.1081 157.8C23.8681 158.008 23.5961 158.192 23.2921 158.352L23.3161 158.232C23.6281 158.456 23.9681 158.604 24.3361 158.676C24.6961 158.748 25.0161 158.784 25.2961 158.784C25.5201 158.784 25.8041 158.76 26.1481 158.712C26.5001 158.664 26.8721 158.604 27.2641 158.532C27.6561 158.452 28.0441 158.368 28.4281 158.28C28.8201 158.184 29.1721 158.096 29.4841 158.016L29.7121 158.964ZM24.2281 155.568C24.2281 155.424 24.2001 155.308 24.1441 155.22C24.0881 155.124 24.0041 155.06 23.8921 155.028C23.7801 154.996 23.6401 155.008 23.4721 155.064C23.1841 155.16 22.9321 155.248 22.7161 155.328C22.4921 155.408 22.3081 155.488 22.1641 155.568C22.0121 155.64 21.9001 155.716 21.8281 155.796C21.7561 155.876 21.7201 155.96 21.7201 156.048C21.7201 156.136 21.7401 156.248 21.7801 156.384C21.8201 156.512 21.8801 156.652 21.9601 156.804C22.0401 156.948 22.1401 157.096 22.2601 157.248C22.3801 157.4 22.5201 157.544 22.6801 157.68L22.5841 157.668C22.9521 157.492 23.2601 157.28 23.5081 157.032C23.7561 156.776 23.9401 156.52 24.0601 156.264C24.1721 156 24.2281 155.768 24.2281 155.568ZM25.0561 152.65L24.0721 152.53C24.0721 152.138 24.0481 151.826 24.0001 151.594C23.9521 151.362 23.8561 151.194 23.7121 151.09C23.5601 150.986 23.3361 150.934 23.0401 150.934C22.8401 150.934 22.6041 150.966 22.3321 151.03C22.0521 151.094 21.7561 151.178 21.4441 151.282C21.1321 151.386 20.8241 151.498 20.5201 151.618L20.1601 150.646C20.4161 150.542 20.7081 150.446 21.0361 150.358C21.3641 150.262 21.6881 150.182 22.0081 150.118C22.3281 150.054 22.6081 150.022 22.8481 150.022C23.1681 150.022 23.4521 150.058 23.7001 150.13C23.9401 150.194 24.1481 150.294 24.3241 150.43C24.4921 150.566 24.6321 150.742 24.7441 150.958C24.8481 151.166 24.9281 151.41 24.9841 151.69C25.0321 151.97 25.0561 152.29 25.0561 152.65ZM18.8281 152.206L18.1801 152.35C18.1321 152.142 18.0921 151.974 18.0601 151.846C18.0281 151.718 17.9921 151.574 17.9521 151.414L18.2041 151.474C18.1401 151.682 18.0041 151.882 17.7961 152.074C17.5881 152.258 17.3521 152.35 17.0881 152.35C16.8481 152.35 16.6481 152.294 16.4881 152.182C16.3201 152.062 16.1961 151.91 16.1161 151.726C16.0361 151.534 15.9961 151.33 15.9961 151.114C15.9961 151.026 16.0041 150.934 16.0201 150.838C16.0361 150.734 16.0601 150.638 16.0921 150.55L16.6921 150.646C16.6761 150.726 16.6601 150.802 16.6441 150.874C16.6281 150.946 16.6201 151.026 16.6201 151.114C16.6201 151.298 16.6601 151.442 16.7401 151.546C16.8121 151.65 16.9161 151.702 17.0521 151.702C17.2201 151.702 17.3641 151.65 17.4841 151.546C17.6041 151.434 17.7001 151.31 17.7721 151.174C17.8361 151.03 17.8681 150.914 17.8681 150.826L17.9161 151.318C17.8601 151.102 17.8041 150.902 17.7481 150.718C17.6841 150.526 17.6241 150.354 17.5681 150.202L18.1801 150.01C18.2521 150.202 18.3281 150.43 18.4081 150.694C18.4881 150.95 18.5641 151.21 18.6361 151.474C18.7081 151.738 18.7721 151.982 18.8281 152.206ZM25.0561 145.435C25.0561 146.075 24.9841 146.567 24.8401 146.911C24.6961 147.247 24.4721 147.479 24.1681 147.607C23.8641 147.735 23.4721 147.807 22.9921 147.823L16.4281 148.063L16.4281 147.079L22.6081 146.839C23.0001 146.823 23.3041 146.787 23.5201 146.731C23.7281 146.667 23.8721 146.531 23.9521 146.323C24.0321 146.107 24.0721 145.771 24.0721 145.315C24.0721 145.147 24.1201 145.027 24.2161 144.955C24.3041 144.875 24.4121 144.835 24.5401 144.835C24.6681 144.835 24.7881 144.891 24.9001 145.003C25.0041 145.115 25.0561 145.259 25.0561 145.435ZM25.0561 144.935L24.0721 144.815C24.0721 144.559 24.0561 144.351 24.0241 144.191C23.9841 144.031 23.8921 143.899 23.7481 143.795C23.5961 143.683 23.3601 143.579 23.0401 143.483C22.7201 143.387 22.2721 143.275 21.6961 143.147L21.9481 142.247C22.1481 142.295 22.3881 142.351 22.6681 142.415C22.9481 142.479 23.2041 142.511 23.4361 142.511C23.5641 142.511 23.6761 142.479 23.7721 142.415C23.8681 142.351 23.9441 142.243 24.0001 142.091C24.0481 141.931 24.0721 141.719 24.0721 141.455C24.0721 141.215 24.0521 141.019 24.0121 140.867C23.9721 140.715 23.8761 140.591 23.7241 140.495C23.5721 140.391 23.3281 140.299 22.9921 140.219C22.6561 140.139 22.1961 140.055 21.6121 139.967L21.7801 139.055C21.9241 139.079 22.1001 139.107 22.3081 139.139C22.5161 139.171 22.7241 139.203 22.9321 139.235C23.1321 139.259 23.3001 139.271 23.4361 139.271C23.5481 139.271 23.6561 139.247 23.7601 139.199C23.8561 139.143 23.9321 139.039 23.9881 138.887C24.0441 138.727 24.0721 138.491 24.0721 138.179C24.0721 137.779 23.9881 137.491 23.8201 137.315C23.6521 137.131 23.3961 137.039 23.0521 137.039C22.8681 137.039 22.6761 137.043 22.4761 137.051C22.2681 137.059 22.0401 137.075 21.7921 137.099C21.5361 137.115 21.2441 137.143 20.9161 137.183L20.8561 136.307C21.5041 136.259 22.0361 136.207 22.4521 136.151C22.8681 136.087 23.1961 135.999 23.4361 135.887C23.6681 135.767 23.8321 135.607 23.9281 135.407C24.0241 135.207 24.0721 134.943 24.0721 134.615C24.0721 134.447 24.1201 134.327 24.2161 134.255C24.3041 134.175 24.4121 134.135 24.5401 134.135C24.6681 134.135 24.7881 134.191 24.9001 134.303C25.0041 134.415 25.0561 134.559 25.0561 134.735C25.0561 135.007 25.0201 135.251 24.9481 135.467C24.8681 135.675 24.7641 135.859 24.6361 136.019C24.5001 136.171 24.3481 136.299 24.1801 136.403C24.0041 136.499 23.8201 136.567 23.6281 136.607L23.7001 136.391C24.0601 136.479 24.3401 136.619 24.5401 136.811C24.7321 136.995 24.8681 137.215 24.9481 137.471C25.0201 137.727 25.0561 137.999 25.0561 138.287C25.0561 138.639 25.0121 138.927 24.9241 139.151C24.8361 139.375 24.7041 139.551 24.5281 139.679C24.3441 139.799 24.1121 139.879 23.8321 139.919L23.8321 139.511C24.1761 139.663 24.4361 139.823 24.6121 139.991C24.7881 140.159 24.9081 140.367 24.9721 140.615C25.0281 140.863 25.0561 141.191 25.0561 141.599C25.0561 141.799 25.0241 142.015 24.9601 142.247C24.8961 142.471 24.7721 142.667 24.5881 142.835C24.3961 143.003 24.1121 143.103 23.7361 143.135L23.6641 142.775C24.0721 142.911 24.3761 143.079 24.5761 143.279C24.7681 143.471 24.8961 143.703 24.9601 143.975C25.0241 144.247 25.0561 144.567 25.0561 144.935ZM25.0561 134.24L24.0721 134.12C24.0721 133.92 24.0721 133.716 24.0721 133.508C24.0641 133.292 24.0521 133.08 24.0361 132.872C24.0201 132.664 24.0001 132.464 23.9761 132.272C23.9521 132.08 23.9161 131.908 23.8681 131.756C23.7801 131.476 23.6641 131.22 23.5201 130.988C23.3761 130.748 23.2001 130.556 22.9921 130.412C22.7841 130.26 22.5441 130.184 22.2721 130.184C22.0881 130.184 21.9001 130.228 21.7081 130.316C21.5081 130.404 21.3401 130.524 21.2041 130.676C21.0681 130.828 21.0001 131.004 21.0001 131.204C21.0001 131.396 21.0641 131.576 21.1921 131.744C21.3201 131.904 21.4881 132.036 21.6961 132.14C21.8961 132.236 22.1041 132.284 22.3201 132.284C22.5761 132.284 22.8081 132.22 23.0161 132.092C23.2161 131.956 23.3881 131.792 23.5321 131.6C23.6761 131.408 23.7921 131.216 23.8801 131.024L24.2161 132.164C24.1201 132.292 23.9881 132.444 23.8201 132.62C23.6441 132.788 23.4281 132.94 23.1721 133.076C22.9161 133.204 22.6241 133.268 22.2961 133.268C21.9761 133.268 21.6801 133.212 21.4081 133.1C21.1281 132.98 20.8841 132.824 20.6761 132.632C20.4681 132.432 20.3081 132.208 20.1961 131.96C20.0761 131.704 20.0161 131.44 20.0161 131.168C20.0161 130.776 20.1241 130.432 20.3401 130.136C20.5561 129.84 20.8321 129.612 21.1681 129.452C21.4961 129.284 21.8401 129.2 22.2001 129.2C22.5441 129.2 22.8561 129.264 23.1361 129.392C23.4081 129.52 23.6521 129.696 23.8681 129.92C24.0841 130.136 24.2681 130.392 24.4201 130.688C24.5721 130.976 24.6961 131.284 24.7921 131.612C24.8481 131.796 24.8921 131.996 24.9241 132.212C24.9561 132.42 24.9801 132.64 24.9961 132.872C25.0201 133.104 25.0361 133.336 25.0441 133.568C25.0521 133.8 25.0561 134.024 25.0561 134.24ZM25.0561 128.3C25.0561 128.7 25.0321 129.116 24.9841 129.548C24.9281 129.972 24.8601 130.376 24.7801 130.76C24.6921 131.136 24.5961 131.448 24.4921 131.696L23.8921 130.868C23.9241 130.628 23.9561 130.344 23.9881 130.016C24.0121 129.688 24.0321 129.36 24.0481 129.032C24.0641 128.704 24.0721 128.42 24.0721 128.18C24.0721 128.012 24.1201 127.892 24.2161 127.82C24.3041 127.74 24.4121 127.7 24.5401 127.7C24.6681 127.7 24.7881 127.756 24.9001 127.868C25.0041 127.98 25.0561 128.124 25.0561 128.3ZM18.7801 130.436C18.7801 130.604 18.7241 130.748 18.6121 130.868C18.4921 130.98 18.3521 131.036 18.1921 131.036C18.0321 131.036 17.8921 130.98 17.7721 130.868C17.6521 130.748 17.5921 130.604 17.5921 130.436C17.5921 130.276 17.6521 130.14 17.7721 130.028C17.8921 129.908 18.0321 129.848 18.1921 129.848C18.3521 129.848 18.4921 129.908 18.6121 130.028C18.7241 130.14 18.7801 130.276 18.7801 130.436ZM18.7801 132.08C18.7801 132.248 18.7241 132.392 18.6121 132.512C18.4921 132.624 18.3521 132.68 18.1921 132.68C18.0321 132.68 17.8921 132.624 17.7721 132.512C17.6521 132.392 17.5921 132.248 17.5921 132.08C17.5921 131.92 17.6521 131.784 17.7721 131.672C17.8921 131.552 18.0321 131.492 18.1921 131.492C18.3521 131.492 18.4921 131.552 18.6121 131.672C18.7241 131.784 18.7801 131.92 18.7801 132.08ZM25.0561 127.798L24.0721 127.69C24.0721 127.234 24.0281 126.914 23.9401 126.73C23.8521 126.546 23.6961 126.442 23.4721 126.418C23.2481 126.386 22.9361 126.378 22.5361 126.394L16.4281 126.622L16.4281 125.65L22.4281 125.41C22.8521 125.394 23.2281 125.41 23.5561 125.458C23.8841 125.498 24.1601 125.602 24.3841 125.77C24.6081 125.93 24.7761 126.174 24.8881 126.502C25.0001 126.822 25.0561 127.254 25.0561 127.798ZM24.9961 123.077L16.4281 123.317L16.4281 122.345L24.9961 122.105L24.9961 123.077ZM24.4561 116.831L23.6281 116.351C23.7321 116.191 23.8321 115.967 23.9281 115.679C24.0241 115.391 24.0721 115.055 24.0721 114.671C24.0721 114.271 24.0321 113.955 23.9521 113.723C23.8721 113.483 23.7561 113.311 23.6041 113.207C23.4441 113.095 23.2601 113.039 23.0521 113.039C22.8921 113.039 22.6961 113.075 22.4641 113.147C22.2241 113.211 21.9041 113.355 21.5041 113.579C21.0961 113.803 20.5641 114.147 19.9081 114.611L19.3681 113.783C19.9521 113.359 20.4801 113.023 20.9521 112.775C21.4241 112.519 21.8401 112.339 22.2001 112.235C22.5521 112.123 22.8561 112.067 23.1121 112.067C23.4321 112.067 23.7441 112.147 24.0481 112.307C24.3441 112.467 24.5881 112.735 24.7801 113.111C24.9721 113.487 25.0681 114.007 25.0681 114.671C25.0681 114.959 25.0441 115.239 24.9961 115.511C24.9481 115.775 24.8801 116.019 24.7921 116.243C24.6961 116.467 24.5841 116.663 24.4561 116.831ZM24.0721 108.453C24.0721 108.053 24.0321 107.737 23.9521 107.505C23.8721 107.265 23.7561 107.093 23.6041 106.989C23.4441 106.877 23.2601 106.821 23.0521 106.821C22.8921 106.821 22.7001 106.865 22.4761 106.953C22.2521 107.033 22.0041 107.145 21.7321 107.289C21.4521 107.433 21.1601 107.601 20.8561 107.793C20.5441 107.977 20.2281 108.177 19.9081 108.393L19.3681 107.565C19.8401 107.253 20.2881 106.981 20.7121 106.749C21.1281 106.517 21.5201 106.321 21.8881 106.161C22.2481 106.001 22.5881 105.873 22.9081 105.777C23.2601 105.665 23.5201 105.541 23.6881 105.405C23.8561 105.261 23.9641 105.113 24.0121 104.961C24.0521 104.809 24.0721 104.669 24.0721 104.541C24.0721 104.373 24.1201 104.249 24.2161 104.169C24.3041 104.089 24.4121 104.049 24.5401 104.049C24.6681 104.049 24.7881 104.105 24.9001 104.217C25.0041 104.329 25.0561 104.473 25.0561 104.649C25.0561 104.913 25.0081 105.173 24.9121 105.429C24.8081 105.677 24.6441 105.893 24.4201 106.077C24.1881 106.261 23.8801 106.389 23.4961 106.461L23.1121 105.981C23.4321 105.981 23.7441 106.049 24.0481 106.185C24.3441 106.321 24.5881 106.569 24.7801 106.929C24.9721 107.281 25.0681 107.789 25.0681 108.453C25.0681 108.741 25.0441 109.021 24.9961 109.293C24.9481 109.557 24.8801 109.801 24.7921 110.025C24.6961 110.249 24.5841 110.445 24.4561 110.613L23.6281 110.133C23.7321 109.973 23.8321 109.749 23.9281 109.461C24.0241 109.173 24.0721 108.837 24.0721 108.453ZM25.0561 104.146L24.0721 104.026C24.0721 103.522 24.0681 103.134 24.0601 102.862C24.0521 102.582 24.0441 102.378 24.0361 102.25C24.0201 102.122 24.0121 102.034 24.0121 101.986C23.9321 102.13 23.8081 102.298 23.6401 102.49C23.4641 102.682 23.2441 102.85 22.9801 102.994C22.7081 103.138 22.3881 103.21 22.0201 103.21C21.5641 103.21 21.1641 103.106 20.8201 102.898C20.4761 102.682 20.2081 102.39 20.0161 102.022C19.8241 101.646 19.7281 101.218 19.7281 100.738C19.7281 100.554 19.7441 100.358 19.7761 100.15C19.8081 99.942 19.8561 99.742 19.9201 99.55L20.8441 99.754C20.8041 99.914 20.7721 100.082 20.7481 100.258C20.7241 100.434 20.7121 100.594 20.7121 100.738C20.7121 101.026 20.7681 101.282 20.8801 101.506C20.9841 101.73 21.1321 101.906 21.3241 102.034C21.5161 102.162 21.7481 102.226 22.0201 102.226C22.2281 102.226 22.4201 102.182 22.5961 102.094C22.7641 102.006 22.9161 101.89 23.0521 101.746C23.1881 101.602 23.3001 101.442 23.3881 101.266C23.4761 101.09 23.5441 100.918 23.5921 100.75C23.6401 100.574 23.6601 100.418 23.6521 100.282C23.6201 100.186 23.5921 100.098 23.5681 100.018C23.5441 99.938 23.5161 99.85 23.4841 99.754C23.4441 99.65 23.3921 99.526 23.3281 99.382C23.2641 99.23 23.1801 99.038 23.0761 98.806L23.9521 98.47C24.1681 99.006 24.3601 99.554 24.5281 100.114C24.6961 100.666 24.8281 101.27 24.9241 101.926C25.0121 102.574 25.0561 103.314 25.0561 104.146Z" fill="#2D2D2D"/>
<path d="M419.503 271.784L419.155 270.872C419.739 270.68 420.223 270.46 420.607 270.212C420.999 269.964 421.307 269.7 421.531 269.42C421.763 269.14 421.927 268.856 422.023 268.568C422.119 268.272 422.167 267.988 422.167 267.716C422.167 267.324 422.079 266.928 421.903 266.528C421.735 266.12 421.547 265.736 421.339 265.376L422.215 264.932C422.367 265.212 422.499 265.488 422.611 265.76C422.731 266.032 422.835 266.288 422.923 266.528C423.019 266.768 423.095 266.988 423.151 267.188C423.263 267.532 423.407 267.768 423.583 267.896C423.767 268.016 424.015 268.076 424.327 268.076C424.495 268.076 424.615 268.124 424.687 268.22C424.767 268.308 424.807 268.416 424.807 268.544C424.807 268.672 424.751 268.792 424.639 268.904C424.527 269.008 424.383 269.06 424.207 269.06C423.855 269.06 423.567 269 423.343 268.88C423.127 268.752 422.963 268.588 422.851 268.388C422.739 268.18 422.663 267.964 422.623 267.74L423.007 267.956C423.007 268.484 422.887 268.964 422.647 269.396C422.415 269.836 422.115 270.216 421.747 270.536C421.379 270.864 420.995 271.132 420.595 271.34C420.195 271.548 419.831 271.696 419.503 271.784ZM428.397 271.604C427.893 271.604 427.437 271.488 427.029 271.256C426.621 271.024 426.297 270.672 426.057 270.2C425.817 269.736 425.697 269.152 425.697 268.448C425.697 267.8 425.773 267.204 425.925 266.66C426.077 266.116 426.277 265.648 426.525 265.256C426.781 264.856 427.061 264.548 427.365 264.332C427.669 264.116 427.969 264.008 428.265 264.008C428.529 264.008 428.765 264.084 428.973 264.236C429.181 264.388 429.345 264.6 429.465 264.872C429.585 265.144 429.645 265.468 429.645 265.844C429.645 266.18 429.593 266.516 429.489 266.852C429.385 267.188 429.189 267.492 428.901 267.764C428.621 268.036 428.217 268.244 427.689 268.388L428.469 267.728C428.725 267.792 428.981 267.852 429.237 267.908C429.501 267.956 429.769 267.996 430.041 268.028C430.321 268.06 430.613 268.076 430.917 268.076C431.085 268.076 431.205 268.124 431.277 268.22C431.357 268.308 431.397 268.416 431.397 268.544C431.397 268.672 431.341 268.792 431.229 268.904C431.117 269.008 430.973 269.06 430.797 269.06C430.581 269.06 430.349 269.048 430.101 269.024C429.853 269 429.605 268.972 429.357 268.94C429.109 268.9 428.873 268.856 428.649 268.808L429.693 268.772C429.893 268.988 430.029 269.22 430.101 269.468C430.181 269.724 430.201 269.976 430.161 270.224C430.129 270.48 430.037 270.712 429.885 270.92C429.741 271.128 429.545 271.292 429.297 271.412C429.049 271.54 428.749 271.604 428.397 271.604ZM424.713 269.06L424.833 268.076C425.001 268.076 425.169 268.076 425.337 268.076C425.505 268.076 425.665 268.072 425.817 268.064L425.865 268.952C425.681 268.984 425.489 269.008 425.289 269.024C425.097 269.048 424.905 269.06 424.713 269.06ZM428.421 270.62C428.565 270.62 428.705 270.592 428.841 270.536C428.985 270.488 429.101 270.4 429.189 270.272C429.285 270.152 429.333 269.988 429.333 269.78C429.333 269.58 429.281 269.396 429.177 269.228C429.081 269.068 428.909 268.936 428.661 268.832C428.413 268.728 428.061 268.676 427.605 268.676C427.509 268.676 427.401 268.684 427.281 268.7C427.169 268.708 427.053 268.724 426.933 268.748C426.813 268.764 426.689 268.788 426.561 268.82V268.004C426.865 267.964 427.141 267.904 427.389 267.824C427.645 267.736 427.869 267.616 428.061 267.464C428.253 267.312 428.401 267.112 428.505 266.864C428.609 266.616 428.661 266.312 428.661 265.952C428.661 265.832 428.645 265.696 428.613 265.544C428.589 265.392 428.541 265.264 428.469 265.16C428.397 265.048 428.301 264.992 428.181 264.992C428.061 264.992 427.913 265.072 427.737 265.232C427.569 265.392 427.401 265.616 427.233 265.904C427.073 266.192 426.937 266.536 426.825 266.936C426.721 267.328 426.669 267.76 426.669 268.232C426.669 268.752 426.725 269.168 426.837 269.48C426.957 269.8 427.109 270.04 427.293 270.2C427.477 270.368 427.669 270.48 427.869 270.536C428.069 270.592 428.253 270.62 428.421 270.62ZM431.295 269.06L431.415 268.076C431.671 268.076 431.879 268.06 432.039 268.028C432.199 267.988 432.331 267.896 432.435 267.752C432.547 267.6 432.651 267.364 432.747 267.044C432.843 266.724 432.955 266.276 433.083 265.7L433.983 265.952C433.951 266.088 433.915 266.244 433.875 266.42C433.835 266.588 433.799 266.764 433.767 266.948C433.735 267.124 433.719 267.288 433.719 267.44C433.719 267.64 433.795 267.796 433.947 267.908C434.099 268.02 434.375 268.076 434.775 268.076C435.015 268.076 435.211 268.056 435.363 268.016C435.515 267.976 435.639 267.88 435.735 267.728C435.839 267.576 435.931 267.332 436.011 266.996C436.091 266.66 436.175 266.2 436.263 265.616L437.175 265.784C437.151 265.928 437.123 266.104 437.091 266.312C437.059 266.52 437.027 266.728 436.995 266.936C436.971 267.136 436.959 267.304 436.959 267.44C436.959 267.552 436.983 267.66 437.031 267.764C437.087 267.86 437.191 267.936 437.343 267.992C437.503 268.048 437.739 268.076 438.051 268.076C438.283 268.076 438.483 268.048 438.651 267.992C438.827 267.936 438.959 267.832 439.047 267.68C439.143 267.528 439.191 267.316 439.191 267.044C439.191 266.74 439.119 266.36 438.975 265.904C438.839 265.44 438.683 264.98 438.507 264.524L439.479 264.164C439.583 264.42 439.679 264.712 439.767 265.04C439.863 265.368 439.943 265.692 440.007 266.012C440.071 266.332 440.103 266.612 440.103 266.852C440.103 267.22 440.055 267.544 439.959 267.824C439.863 268.104 439.727 268.336 439.551 268.52C439.375 268.696 439.159 268.832 438.903 268.928C438.647 269.016 438.359 269.06 438.039 269.06C437.663 269.06 437.355 269.016 437.115 268.928C436.875 268.84 436.691 268.708 436.563 268.532C436.435 268.348 436.351 268.116 436.311 267.836H436.719C436.567 268.18 436.407 268.44 436.239 268.616C436.071 268.792 435.863 268.912 435.615 268.976C435.367 269.032 435.039 269.06 434.631 269.06C434.431 269.06 434.215 269.028 433.983 268.964C433.759 268.9 433.563 268.776 433.395 268.592C433.227 268.4 433.127 268.116 433.095 267.74L433.455 267.668C433.319 268.076 433.151 268.38 432.951 268.58C432.759 268.772 432.527 268.9 432.255 268.964C431.983 269.028 431.663 269.06 431.295 269.06ZM436.467 262.46C436.299 262.46 436.155 262.404 436.035 262.292C435.923 262.172 435.867 262.032 435.867 261.872C435.867 261.712 435.923 261.572 436.035 261.452C436.155 261.332 436.299 261.272 436.467 261.272C436.627 261.272 436.763 261.332 436.875 261.452C436.995 261.572 437.055 261.712 437.055 261.872C437.055 262.032 436.995 262.172 436.875 262.292C436.763 262.404 436.627 262.46 436.467 262.46ZM435.651 263.78C435.483 263.78 435.339 263.724 435.219 263.612C435.107 263.492 435.051 263.352 435.051 263.192C435.051 263.032 435.107 262.892 435.219 262.772C435.339 262.652 435.483 262.592 435.651 262.592C435.811 262.592 435.947 262.652 436.059 262.772C436.179 262.892 436.239 263.032 436.239 263.192C436.239 263.352 436.179 263.492 436.059 263.612C435.947 263.724 435.811 263.78 435.651 263.78ZM437.283 263.78C437.115 263.78 436.971 263.724 436.851 263.612C436.739 263.492 436.683 263.352 436.683 263.192C436.683 263.032 436.739 262.892 436.851 262.772C436.971 262.652 437.115 262.592 437.283 262.592C437.443 262.592 437.579 262.652 437.691 262.772C437.811 262.892 437.871 263.032 437.871 263.192C437.871 263.352 437.811 263.492 437.691 263.612C437.579 263.724 437.443 263.78 437.283 263.78ZM445.921 262.568C445.921 262.392 445.909 262.18 445.885 261.932C445.861 261.684 445.833 261.436 445.801 261.188C445.769 260.94 445.737 260.728 445.705 260.552L446.737 260.432C446.761 260.592 446.785 260.804 446.809 261.068C446.841 261.324 446.865 261.58 446.881 261.836C446.897 262.092 446.905 262.304 446.905 262.472C446.905 262.856 446.877 263.232 446.821 263.6C446.773 263.96 446.693 264.316 446.581 264.668C446.469 265.012 446.321 265.348 446.137 265.676L445.993 265.94C445.769 266.316 445.493 266.68 445.165 267.032C444.837 267.376 444.453 267.704 444.013 268.016H445.525C445.797 268.016 446.005 267.984 446.149 267.92C446.293 267.848 446.389 267.756 446.437 267.644C446.493 267.532 446.521 267.412 446.521 267.284C446.521 267.068 446.389 266.8 446.125 266.48C445.869 266.152 445.513 265.792 445.057 265.4C444.601 265 444.085 264.58 443.509 264.14C442.933 263.7 442.325 263.252 441.685 262.796L442.249 262.004C442.985 262.548 443.633 263.04 444.193 263.48C444.761 263.92 445.245 264.324 445.645 264.692C446.053 265.052 446.385 265.388 446.641 265.7C446.905 266.004 447.097 266.296 447.217 266.576C447.345 266.848 447.409 267.116 447.409 267.38C447.409 267.556 447.377 267.74 447.313 267.932C447.257 268.116 447.153 268.292 447.001 268.46C446.857 268.62 446.649 268.752 446.377 268.856C446.113 268.952 445.769 269 445.345 269H442.585V268.028C443.409 267.436 444.061 266.86 444.541 266.3C445.029 265.74 445.381 265.156 445.597 264.548C445.813 263.94 445.921 263.28 445.921 262.568ZM441.517 261.368L441.373 260.72C441.581 260.672 441.749 260.632 441.877 260.6C442.005 260.568 442.149 260.532 442.309 260.492L442.249 260.744C442.041 260.68 441.841 260.544 441.649 260.336C441.465 260.128 441.373 259.892 441.373 259.628C441.373 259.388 441.429 259.188 441.541 259.028C441.661 258.86 441.813 258.736 441.997 258.656C442.189 258.576 442.393 258.536 442.609 258.536C442.697 258.536 442.789 258.544 442.885 258.56C442.989 258.576 443.085 258.6 443.173 258.632L443.077 259.232C442.997 259.216 442.921 259.2 442.849 259.184C442.777 259.168 442.697 259.16 442.609 259.16C442.425 259.16 442.281 259.2 442.177 259.28C442.073 259.352 442.021 259.456 442.021 259.592C442.021 259.76 442.073 259.904 442.177 260.024C442.289 260.144 442.413 260.24 442.549 260.312C442.693 260.376 442.809 260.408 442.897 260.408L442.405 260.456C442.621 260.4 442.821 260.344 443.005 260.288C443.197 260.224 443.369 260.164 443.521 260.108L443.713 260.72C443.521 260.792 443.293 260.868 443.029 260.948C442.773 261.028 442.513 261.104 442.249 261.176C441.985 261.248 441.741 261.312 441.517 261.368ZM449.793 269L449.553 260.432H450.525L450.765 269H449.793Z" fill="#2D2D2D"/>
</g>
<rect x="0.5" y="0.5" width="823" height="282" rx="15.5" stroke="#E7EAEE"/>
<defs>
<linearGradient id="paint0_linear_2004_2394" x1="435.496" y1="46.9993" x2="435.496" y2="226.999" gradientUnits="userSpaceOnUse">
<stop stop-color="#000643"/>
<stop offset="1" stop-color="#03BAE2" stop-opacity="0"/>
</linearGradient>
<clipPath id="clip0_2004_2394">
<rect width="824" height="283" rx="16" fill="white"/>
</clipPath>
</defs>
</svg>
