<svg width="34" height="34" viewBox="0 0 34 34" fill="none" xmlns="http://www.w3.org/2000/svg">
<path d="M1 1H33" stroke="#989AA7" stroke-linecap="round" stroke-linejoin="round"/>
<path d="M28.2 1H5.79995C4.9163 1 4.19995 1.71634 4.19995 2.6V31.4C4.19995 32.2837 4.9163 33 5.79995 33H28.2C29.0836 33 29.8 32.2837 29.8 31.4V2.6C29.8 1.71634 29.0836 1 28.2 1Z" stroke="#989AA7" stroke-linejoin="round"/>
<path d="M13.8 23.4H20.2V33H13.8V23.4Z" stroke="#989AA7" stroke-linecap="round" stroke-linejoin="round"/>
<path d="M9.80005 7.40002H11.4M9.80005 12.2H11.4M16.2 7.40002H17.8M16.2 12.2H17.8M22.6 7.40002H24.2M22.6 12.2H24.2" stroke="#989AA7" stroke-linecap="round"/>
<path d="M1 33H33M20.2 23.4H21.8C22.2416 23.4 22.608 23.0384 22.5232 22.6048C22.0816 20.3328 19.7768 18.6 17 18.6C14.224 18.6 11.9184 20.332 11.4768 22.6048C11.392 23.0384 11.7584 23.4 12.2 23.4H13.8" stroke="#989AA7" stroke-linecap="round" stroke-linejoin="round"/>
</svg>
