<svg width="32" height="25" viewBox="0 0 32 25" fill="none" xmlns="http://www.w3.org/2000/svg">
<path d="M1.93134 7.71349H30.0341L28.2877 1.76135H3.72212L1.93134 7.71349ZM24.8692 9.47239H7.10686L6.48275 14.276H25.5164L24.8692 9.47239ZM3.26467 25L5.36751 9.47415H1.18312C0.797778 9.47415 0.486313 9.31878 0.248725 9.00804C0.0111367 8.6973 -0.0562387 8.35314 0.0465979 7.97556L2.12992 0.839685C2.20203 0.569986 2.34033 0.357745 2.54482 0.202961C2.74931 0.0481776 2.99044 -0.0180744 3.26822 0.00420507H28.7309C29.0087 0.00420507 29.2498 0.0815968 29.4543 0.23638C29.6588 0.391164 29.7977 0.603405 29.871 0.873104L31.9543 7.97556C32.056 8.35314 31.988 8.6973 31.7504 9.00804C31.514 9.31878 31.2019 9.47415 30.8142 9.47415H26.6068L28.7008 25H26.9632L25.7309 16.0366H6.23452L5.00403 25H3.26467Z" fill="#989AA7"/>
</svg>
