<svg width="34" height="34" viewBox="0 0 34 34" fill="none" xmlns="http://www.w3.org/2000/svg">
<ellipse cx="16.6061" cy="16.5879" rx="16.6061" ry="16.5879" fill="url(#paint0_linear_2004_1692)" fill-opacity="0.15"/>
<mask id="path-2-inside-1_2004_1692" fill="white">
<path d="M5.82236 24.2975C5.16712 24.6532 4.34069 24.4125 4.05212 23.725C3.32274 21.9873 2.96328 20.1113 3.00296 18.2172C3.05209 15.872 3.71148 13.58 4.91614 11.5672C6.12079 9.55435 7.82914 7.89015 9.87282 6.7386C11.9165 5.58706 14.225 4.9879 16.5707 5.00019C18.9164 5.01247 21.2185 5.63577 23.25 6.80866C25.2815 7.98155 26.9723 9.66355 28.1558 11.6889C29.3394 13.7142 29.9747 16.013 29.9993 18.3586C30.0191 20.253 29.64 22.1252 28.8925 23.8551C28.5967 24.5395 27.7678 24.7716 27.1163 24.409C26.4649 24.0464 26.2394 23.2265 26.518 22.5349C27.0471 21.2212 27.3143 19.8119 27.2994 18.3869C27.2798 16.5104 26.7715 14.6714 25.8247 13.0511C24.8779 11.4308 23.5252 10.0852 21.9 9.14693C20.2748 8.20862 18.4332 7.70998 16.5566 7.70015C14.68 7.69032 12.8332 8.16965 11.1983 9.09088C9.56331 10.0121 8.19663 11.3435 7.23291 12.9537C6.26918 14.564 5.74167 16.3976 5.70237 18.2738C5.67252 19.6986 5.92498 21.1105 6.44032 22.4297C6.71161 23.1242 6.47759 23.9417 5.82236 24.2975Z"/>
</mask>
<path d="M5.82236 24.2975C5.16712 24.6532 4.34069 24.4125 4.05212 23.725C3.32274 21.9873 2.96328 20.1113 3.00296 18.2172C3.05209 15.872 3.71148 13.58 4.91614 11.5672C6.12079 9.55435 7.82914 7.89015 9.87282 6.7386C11.9165 5.58706 14.225 4.9879 16.5707 5.00019C18.9164 5.01247 21.2185 5.63577 23.25 6.80866C25.2815 7.98155 26.9723 9.66355 28.1558 11.6889C29.3394 13.7142 29.9747 16.013 29.9993 18.3586C30.0191 20.253 29.64 22.1252 28.8925 23.8551C28.5967 24.5395 27.7678 24.7716 27.1163 24.409C26.4649 24.0464 26.2394 23.2265 26.518 22.5349C27.0471 21.2212 27.3143 19.8119 27.2994 18.3869C27.2798 16.5104 26.7715 14.6714 25.8247 13.0511C24.8779 11.4308 23.5252 10.0852 21.9 9.14693C20.2748 8.20862 18.4332 7.70998 16.5566 7.70015C14.68 7.69032 12.8332 8.16965 11.1983 9.09088C9.56331 10.0121 8.19663 11.3435 7.23291 12.9537C6.26918 14.564 5.74167 16.3976 5.70237 18.2738C5.67252 19.6986 5.92498 21.1105 6.44032 22.4297C6.71161 23.1242 6.47759 23.9417 5.82236 24.2975Z" fill="#E4E4E4" stroke="url(#paint1_linear_2004_1692)" stroke-width="0.295349" mask="url(#path-2-inside-1_2004_1692)"/>
<mask id="path-3-inside-2_2004_1692" fill="white">
<path d="M5.82236 24.2975C5.16712 24.6532 4.34067 24.4124 4.05208 23.725C2.85183 20.8658 2.66745 17.6652 3.55594 14.6658C4.57285 11.2328 6.91184 8.34438 10.0584 6.63595C13.2049 4.92753 16.9013 4.53904 20.3342 5.55594C23.3337 6.44444 25.9175 8.34222 27.6617 10.9061C28.0811 11.5225 27.8329 12.3468 27.1776 12.7025C26.5224 13.0583 25.7094 12.8093 25.2747 12.2035C23.8834 10.2646 21.8798 8.82974 19.5674 8.14475C16.821 7.33123 13.8639 7.64203 11.3467 9.00876C8.82947 10.3755 6.95828 12.6862 6.14475 15.4326C5.45977 17.7451 5.57188 20.2069 6.44028 22.4297C6.71158 23.1242 6.47759 23.9417 5.82236 24.2975Z"/>
</mask>
<path d="M5.82236 24.2975C5.16712 24.6532 4.34067 24.4124 4.05208 23.725C2.85183 20.8658 2.66745 17.6652 3.55594 14.6658C4.57285 11.2328 6.91184 8.34438 10.0584 6.63595C13.2049 4.92753 16.9013 4.53904 20.3342 5.55594C23.3337 6.44444 25.9175 8.34222 27.6617 10.9061C28.0811 11.5225 27.8329 12.3468 27.1776 12.7025C26.5224 13.0583 25.7094 12.8093 25.2747 12.2035C23.8834 10.2646 21.8798 8.82974 19.5674 8.14475C16.821 7.33123 13.8639 7.64203 11.3467 9.00876C8.82947 10.3755 6.95828 12.6862 6.14475 15.4326C5.45977 17.7451 5.57188 20.2069 6.44028 22.4297C6.71158 23.1242 6.47759 23.9417 5.82236 24.2975Z" fill="url(#paint2_linear_2004_1692)" stroke="url(#paint3_linear_2004_1692)" stroke-width="0.295349" mask="url(#path-3-inside-2_2004_1692)"/>
<path d="M21.056 15.3366C21.3298 15.3368 21.5976 15.5424 21.5911 15.8571H21.5921V18.0027C21.5921 18.2483 21.4255 18.4176 21.2493 18.4841C21.0739 18.5503 20.8471 18.5333 20.6771 18.3767L20.0794 17.8259L17.2337 20.4421C16.9186 20.7323 16.4179 20.7332 16.1028 20.4431L14.5032 18.9695L11.8206 21.446C11.5055 21.7362 11.0039 21.7362 10.6888 21.446C10.3612 21.144 10.361 20.6454 10.6888 20.3435L13.9407 17.3445L14.0023 17.2937C14.318 17.0557 14.7762 17.0726 15.0716 17.3445L16.6702 18.8161L18.9153 16.7487L18.3519 16.2302C18.1761 16.068 18.1478 15.8344 18.2318 15.6491C18.3148 15.466 18.5021 15.3366 18.7308 15.3366H21.056Z" fill="url(#paint4_linear_2004_1692)" stroke="url(#paint5_linear_2004_1692)" stroke-width="0.54187"/>
<defs>
<linearGradient id="paint0_linear_2004_1692" x1="4.15153" y1="3.70768e-07" x2="29.0257" y2="33.202" gradientUnits="userSpaceOnUse">
<stop stop-color="white"/>
<stop offset="1"/>
</linearGradient>
<linearGradient id="paint1_linear_2004_1692" x1="25.815" y1="19.625" x2="6.915" y2="19.625" gradientUnits="userSpaceOnUse">
<stop stop-color="#000643"/>
<stop offset="0.395833" stop-color="#2B3DE3"/>
<stop offset="1" stop-color="white"/>
</linearGradient>
<linearGradient id="paint2_linear_2004_1692" x1="32.025" y1="27.0307" x2="0.300002" y2="27.0307" gradientUnits="userSpaceOnUse">
<stop stop-color="#3A417E"/>
<stop offset="0.159669" stop-color="#32D172"/>
<stop offset="0.268196" stop-color="#767DC8"/>
<stop offset="0.658066" stop-color="#475E94"/>
<stop offset="0.804268" stop-color="#4251D9"/>
<stop offset="1" stop-color="#0000FF"/>
</linearGradient>
<linearGradient id="paint3_linear_2004_1692" x1="25.815" y1="19.625" x2="6.915" y2="19.625" gradientUnits="userSpaceOnUse">
<stop stop-color="#000643"/>
<stop offset="0.395833" stop-color="#2B3DE3"/>
<stop offset="1" stop-color="white"/>
</linearGradient>
<linearGradient id="paint4_linear_2004_1692" x1="16.0177" y1="15.6071" x2="16.0177" y2="21.3929" gradientUnits="userSpaceOnUse">
<stop stop-color="#9799B7"/>
<stop offset="1" stop-color="#DADADA"/>
</linearGradient>
<linearGradient id="paint5_linear_2004_1692" x1="19.6772" y1="18.7411" x2="12.2522" y2="18.7411" gradientUnits="userSpaceOnUse">
<stop stop-color="#000643"/>
<stop offset="0.395833" stop-color="#2B3DE3"/>
<stop offset="1" stop-color="white"/>
</linearGradient>
</defs>
</svg>
