<svg width="35" height="35" viewBox="0 0 35 35" fill="none" xmlns="http://www.w3.org/2000/svg">
<g opacity="0.2">
<ellipse cx="17.3208" cy="17.3398" rx="17.3208" ry="17.3398" transform="matrix(-1 0 0 1 34.6416 0)" fill="url(#paint0_linear_2069_1291)"/>
</g>
<g clip-path="url(#clip0_2069_1291)">
<path d="M21.4503 24.3399H24.3403C24.7944 24.3399 25.166 23.9683 25.166 23.5142V15.2571C25.166 14.803 24.7944 14.4314 24.3403 14.4314H21.4503C20.9962 14.4314 20.6246 14.803 20.6246 15.2571V23.5142C20.6246 23.9683 20.9962 24.3399 21.4503 24.3399ZM15.464 9.47717H18.3539C18.8081 9.47717 19.1796 9.84874 19.1796 10.3029V23.5142C19.1796 23.9683 18.8081 24.3399 18.3539 24.3399H15.464C15.0098 24.3399 14.6383 23.9683 14.6383 23.5142V10.3029C14.6383 9.84874 15.0098 9.47717 15.464 9.47717ZM9.4776 16.0828H12.3676C12.8217 16.0828 13.1933 16.4544 13.1933 16.9085V23.5142C13.1933 23.9683 12.8217 24.3399 12.3676 24.3399H9.4776C9.02346 24.3399 8.65189 23.9683 8.65189 23.5142V16.9085C8.65189 16.4544 9.02346 16.0828 9.4776 16.0828Z" fill="url(#paint1_linear_2069_1291)"/>
</g>
<defs>
<linearGradient id="paint0_linear_2069_1291" x1="-0.599335" y1="25.9626" x2="33.383" y2="25.9626" gradientUnits="userSpaceOnUse">
<stop stop-color="#967CFD"/>
<stop offset="1" stop-color="#3177FF"/>
</linearGradient>
<linearGradient id="paint1_linear_2069_1291" x1="16.909" y1="9.47717" x2="16.909" y2="24.3399" gradientUnits="userSpaceOnUse">
<stop stop-color="#967CFD"/>
<stop offset="1" stop-color="#3177FF"/>
</linearGradient>
<clipPath id="clip0_2069_1291">
<rect width="19.817" height="19.817" fill="white" transform="matrix(-1 0 0 1 26.8169 7)"/>
</clipPath>
</defs>
</svg>
