<svg width="30" height="30" viewBox="0 0 30 30" fill="none" xmlns="http://www.w3.org/2000/svg">
<g clip-path="url(#clip0_11_1342)">
<path d="M25.5612 25.5617H21.1161V18.6004C21.1161 16.9405 21.0865 14.8035 18.8042 14.8035C16.4891 14.8035 16.1348 16.6122 16.1348 18.4796V25.5612H11.6899V11.2461H15.9571V13.2024H16.0168C16.4439 12.4722 17.061 11.8715 17.8024 11.4643C18.5438 11.0571 19.3818 10.8586 20.2271 10.89C24.7324 10.89 25.563 13.8534 25.563 17.7086L25.5612 25.5617ZM6.67429 9.2894C5.24964 9.28964 4.09452 8.13487 4.09429 6.71023C4.09405 5.28558 5.2487 4.13046 6.67335 4.13023C8.098 4.12987 9.25311 5.28464 9.25335 6.70929C9.25347 7.39343 8.98183 8.04961 8.49816 8.53347C8.0145 9.01733 7.35843 9.28925 6.67429 9.2894ZM8.89686 25.5618H4.44714V11.2461H8.89675V25.5617L8.89686 25.5618ZM27.7772 0.00206135H2.21354C1.00534 -0.0115324 0.0145215 0.956319 -0.000244141 2.16452V27.8348C0.0140527 29.0436 1.00476 30.0124 2.21343 29.9997H27.7772C28.9884 30.0147 29.983 29.0459 29.9998 27.8348V2.16253C29.9825 0.951983 28.9878 -0.0157511 27.7772 6.91671e-05" fill="#0A66C2"/>
</g>
<defs>
<clipPath id="clip0_11_1342">
<rect width="30" height="30" fill="white"/>
</clipPath>
</defs>
</svg>
