<svg width="34" height="31" viewBox="0 0 34 31" fill="none" xmlns="http://www.w3.org/2000/svg">
<path d="M18.7888 21.0266L22.5524 15.4443M22.5524 15.4443L22.9986 14.7866C23.2859 14.3511 23.685 14.001 24.1541 13.7727C24.6231 13.5444 25.1449 13.4464 25.6649 13.4889C26.1848 13.5314 26.6837 13.7129 27.1095 14.0144C27.5352 14.3159 27.8721 14.7262 28.0848 15.2026L32.7 25.0533C33.6529 27.0835 32.22 29.4444 30.0386 29.4444H3.96212C1.78612 29.4444 0.353229 27.0978 1.29368 25.0675L11.619 2.73847C11.8495 2.21674 12.2279 1.77402 12.7073 1.46506C13.1868 1.15611 13.7463 0.994469 14.3166 1.00014C14.8869 1.00582 15.4431 1.17856 15.9163 1.49699C16.3895 1.81543 16.759 2.26559 16.979 2.7918L22.5542 15.4461L22.5524 15.4443Z" stroke="#989AA7" stroke-width="1.5" stroke-linecap="round" stroke-linejoin="round"/>
</svg>
