<svg width="28" height="27" viewBox="0 0 28 27" fill="none" xmlns="http://www.w3.org/2000/svg">
<path d="M13.9998 16.1281C17.6443 16.1281 20.6093 13.269 20.6093 9.75466C20.6093 6.24033 17.6443 3.3812 13.9998 3.3812C10.3553 3.3812 7.39038 6.24033 7.39038 9.75466C7.39038 13.269 10.3553 16.1281 13.9998 16.1281ZM8.58837 10.3172H10.4206C10.5408 12.3465 11.3004 13.7482 12.0624 14.6592C10.189 13.9687 8.80934 12.3077 8.58837 10.3172ZM14.5832 14.4216V10.3172H16.4101C16.3167 11.705 15.8723 12.9012 15.0846 13.8785C14.9145 14.0895 14.7436 14.2698 14.5832 14.4216ZM14.5832 9.19216V5.08776C14.7436 5.23958 14.9145 5.41986 15.0847 5.63091C15.8723 6.6082 16.3167 7.8043 16.4102 9.19216H14.5832ZM13.4165 5.08776V9.19216H11.5896C11.683 7.8043 12.1273 6.6082 12.9151 5.63091C13.0852 5.41986 13.2561 5.23958 13.4165 5.08776ZM13.4165 10.3172V14.4234C12.6879 13.7325 11.7353 12.438 11.5896 10.3172H13.4165ZM15.9373 14.6592C16.6993 13.7482 17.4588 12.3465 17.5791 10.3172H19.4113C19.1903 12.3077 17.8106 13.9687 15.9373 14.6592ZM19.4113 9.19216H17.5791C17.4588 7.16277 16.6992 5.76108 15.9373 4.85016C17.8106 5.54063 19.1903 7.20158 19.4113 9.19216ZM12.0625 4.85016C11.3005 5.76108 10.5409 7.16283 10.4206 9.19216H8.58843C8.80934 7.20158 10.1891 5.54063 12.0625 4.85016Z" fill="#30334C"/>
<path d="M22.7508 0H2.67969V27H22.7508C24.1675 27 25.3201 25.8886 25.3201 24.5225V2.47753C25.3201 1.11139 24.1675 0 22.7508 0ZM24.1535 24.5225C24.1535 25.2682 23.5243 25.875 22.7508 25.875H3.84635V1.125H22.7508C23.5242 1.125 24.1534 1.73177 24.1534 2.47753V24.5225H24.1535Z" fill="#30334C"/>
<path d="M9.09692 19.4641H7.37329V23.3587H8.30616V22.1025H9.12533C9.89901 22.1025 10.4167 21.4608 10.4167 20.7806C10.4167 20.1333 9.86488 19.4641 9.09692 19.4641ZM9.06852 21.3181H8.30622V20.254H9.03433C9.25052 20.254 9.47242 20.4185 9.47242 20.7806C9.47242 21.1317 9.28464 21.3181 9.06852 21.3181Z" fill="#30334C"/>
<path d="M11.7532 19.4641L10.2002 23.3587H11.1901L11.4972 22.4865H12.7544L13.0673 23.3587H14.0571L12.5098 19.4641H11.7532ZM11.6451 21.8667L12.1286 20.4185L12.5951 21.8667H11.6451Z" fill="#30334C"/>
<path d="M16.0878 21.0329C15.5473 20.8903 15.2458 20.819 15.2458 20.5557C15.2458 20.3417 15.4222 20.232 15.7407 20.232C16.2243 20.232 16.7647 20.5447 16.8215 20.6051L17.2254 19.8591C16.8727 19.6561 16.3437 19.4312 15.7691 19.4312C14.9613 19.4312 14.2787 19.8755 14.2787 20.6983C14.2787 21.2853 14.6257 21.554 15.3709 21.7735C15.9284 21.938 16.3437 22.0093 16.3437 22.3C16.3437 22.4865 16.1844 22.5908 15.8488 22.5908C15.2287 22.5908 14.5916 22.2123 14.5177 22.1354L14.1082 22.9198C14.586 23.2216 15.2402 23.4026 15.8318 23.4026C16.6111 23.4026 17.3507 23.0954 17.3507 22.2122C17.3506 21.4882 16.8614 21.2358 16.0878 21.0329Z" fill="#30334C"/>
<path d="M19.5915 21.0329C19.051 20.8903 18.7495 20.819 18.7495 20.5557C18.7495 20.3417 18.9258 20.232 19.2444 20.232C19.7279 20.232 20.2684 20.5447 20.3252 20.6051L20.7291 19.8591C20.3764 19.6561 19.8474 19.4312 19.2729 19.4312C18.4651 19.4312 17.7824 19.8755 17.7824 20.6983C17.7824 21.2853 18.1294 21.554 18.8747 21.7735C19.4322 21.938 19.8474 22.0093 19.8474 22.3C19.8474 22.4865 19.6881 22.5908 19.3525 22.5908C18.7325 22.5908 18.0953 22.2123 18.0214 22.1354L17.6118 22.9198C18.0896 23.2216 18.7438 23.4026 19.3355 23.4026C20.1148 23.4026 20.8543 23.0954 20.8543 22.2122C20.8543 21.4882 20.3651 21.2358 19.5915 21.0329Z" fill="#30334C"/>
</svg>
