<svg width="29" height="31" viewBox="0 0 29 31" fill="none" xmlns="http://www.w3.org/2000/svg">
<mask id="mask0_145_1976" style="mask-type:luminance" maskUnits="userSpaceOnUse" x="0" y="0" width="29" height="31">
<path d="M29 0H0V31H29V0Z" fill="white"/>
</mask>
<g mask="url(#mask0_145_1976)">
<path fill-rule="evenodd" clip-rule="evenodd" d="M18.988 27.4256C18.515 28.5354 18.2023 29.7377 18.0823 31L28.0942 28.7512C28.5667 27.6414 28.8806 26.4391 29 25.1768L18.988 27.4256Z" fill="white"/>
<path fill-rule="evenodd" clip-rule="evenodd" d="M25.5388 22.7174C26.0096 21.5887 26.3218 20.3641 26.4412 19.0813L18.6632 20.8642V17.4354L25.5371 15.8614C26.0096 14.7327 26.3218 13.5081 26.4412 12.2253L18.6629 14.0065V1.67675C17.4711 2.3978 16.4126 3.35862 15.5522 4.49243V14.7207L12.4415 15.4332V0C11.2498 0.72105 10.1913 1.68189 9.33084 2.81399V16.1457L2.37066 17.7402C1.89881 18.8689 1.58681 20.0918 1.46705 21.3763L9.33084 19.5745V23.8923L0.903262 25.8225C0.431415 26.9512 0.119412 28.174 0 29.4586L8.82146 27.4376C9.53946 27.2766 10.1567 26.8193 10.5581 26.189L12.1757 23.6028C12.3438 23.3356 12.4415 23.0119 12.4415 22.6642V18.862L15.5522 18.1478V25.0055L25.5371 22.7156L25.5388 22.7174Z" fill="white"/>
</g>
</svg>
