<svg width="56" height="46" viewBox="0 0 56 46" fill="none" xmlns="http://www.w3.org/2000/svg">
<path d="M53.7998 22.9023C54.8635 22.9026 55.7265 23.7494 55.7266 24.7949C55.7266 25.838 54.8635 26.6824 53.7998 26.6826H51.1094V35.6992C51.1094 41.1587 46.5829 45.5955 41.0205 45.5957H36.9854C35.9189 45.5957 35.0547 44.7479 35.0547 43.7021C35.0549 42.6591 35.9191 41.8125 36.9854 41.8125H41.0205C44.4577 41.8123 47.2539 39.0722 47.2539 35.6992V26.6826H40.6094V29.1943C40.6345 32.3363 38.0636 34.9048 34.8594 34.9346H20.8672C17.6655 34.9048 15.094 32.3363 15.1191 29.1943V26.6826H8.47559V35.709C8.47559 39.0697 11.2642 41.8046 14.6914 41.8096L18.8154 41.8125C19.8791 41.8126 20.7429 42.6592 20.7432 43.7021C20.7406 44.7479 19.8789 45.5957 18.8125 45.5957L14.6865 45.5928C9.13658 45.5878 4.61719 41.1537 4.61719 35.709V26.6826H1.92969C0.865865 26.6825 0 25.8381 0 24.7949C3.02413e-05 23.7493 0.865884 22.9024 1.92969 22.9023H53.7998ZM34.8613 9.48047C36.3937 9.48054 37.8651 10.0847 38.9365 11.1602C40.0155 12.2456 40.6138 13.7032 40.6113 15.2207V18.375C40.5987 18.745 40.2972 19.0455 39.9199 19.0557H15.8047C15.4299 19.0432 15.1287 18.7426 15.1211 18.375V15.2207C15.0933 12.0787 17.6665 9.51288 20.8682 9.48047H34.8613ZM41.0195 0.000976562C46.5846 0.00106588 51.1084 4.43741 51.1084 9.89453V14.5967C51.1082 15.6398 50.247 16.4893 49.1807 16.4893C48.117 16.4891 47.2531 15.6397 47.2529 14.5967V9.89453C47.2529 6.5239 44.4568 3.78134 41.0195 3.78125H36.9844C35.9205 3.78125 35.0566 2.9368 35.0566 1.89355C35.0567 0.847841 35.9205 0.000976562 36.9844 0.000976562H41.0195ZM18.8135 0C19.8773 0 20.7411 0.846925 20.7412 1.89258C20.7412 2.93583 19.8799 3.7832 18.8135 3.7832L14.6875 3.78516C11.2629 3.79012 8.47671 6.52512 8.47656 9.88574V14.5957C8.47647 15.6389 7.60973 16.4883 6.5459 16.4883C5.48208 16.4883 4.61826 15.6389 4.61816 14.5957V9.88574C4.61831 4.44114 9.13476 0.0079474 14.6846 0.00292969L18.8105 0H18.8135Z" fill="#000643"/>
</svg>
