<svg width="23" height="18" viewBox="0 0 23 18" fill="none" xmlns="http://www.w3.org/2000/svg">
<path d="M21.6319 17.7791H19.7588C18.993 17.7791 18.6067 17.3473 18.3738 17.0884C18.1979 16.8913 18.1358 16.839 18.0772 16.839C18.0202 16.839 17.9582 16.8927 17.784 17.0884C17.5528 17.3473 17.1665 17.7791 16.4008 17.7791C15.6333 17.7791 15.2469 17.3473 15.0158 17.0884C14.8381 16.8913 14.7786 16.839 14.72 16.839C14.6631 16.839 14.601 16.8913 14.4251 17.0884C14.1939 17.3473 13.8076 17.7791 13.0418 17.7791C12.2761 17.7791 11.8897 17.3459 11.6603 17.0871C11.4861 16.8927 11.4223 16.839 11.3671 16.839C11.3085 16.839 11.2481 16.89 11.0722 17.0884C10.8411 17.3473 10.4547 17.7791 9.68628 17.7791C8.91967 17.7791 8.53334 17.3473 8.30224 17.0884C8.12624 16.89 8.06593 16.839 8.00729 16.839C7.95032 16.839 7.88825 16.8913 7.71233 17.0884C7.48123 17.3473 7.0949 17.7791 6.32908 17.7791C5.56325 17.7791 5.17693 17.3473 4.94582 17.0884C4.7699 16.8913 4.70951 16.839 4.65087 16.839C4.5939 16.839 4.53016 16.8927 4.35592 17.0884C4.12481 17.3473 3.74016 17.7791 2.97266 17.7791H1.07371C0.708113 17.7791 0.411865 17.5485 0.411865 17.2641V15.7031C0.411865 15.1077 0.968551 14.8073 1.30139 14.6276C1.55147 14.4921 1.62052 14.4438 1.62052 14.3995C1.62052 14.3539 1.55492 14.307 1.30139 14.1689C0.968551 13.9892 0.411865 13.6888 0.411865 13.0933C0.411865 12.4979 0.968551 12.1975 1.30139 12.0178C1.55492 11.881 1.62052 11.834 1.62052 11.7884C1.62052 11.7428 1.55492 11.6959 1.30139 11.5591C0.968551 11.3794 0.411865 11.079 0.411865 10.4822C0.411865 9.88677 0.968551 9.58636 1.30139 9.4066C1.55492 9.26981 1.62052 9.22291 1.62052 9.17734C1.62052 9.13304 1.55147 9.08478 1.30139 8.9493C0.968551 8.7696 0.411865 8.46921 0.411865 7.87373C0.411865 7.27826 0.968551 6.97786 1.30139 6.79817C1.55492 6.66138 1.62052 6.61442 1.62052 6.56882C1.62052 6.52323 1.55492 6.47633 1.30139 6.33818C0.968551 6.15978 0.411865 5.85809 0.411865 5.26261C0.411865 4.66714 0.968551 4.36674 1.30139 4.18705C1.55492 4.05026 1.62052 4.0033 1.62052 3.9577C1.62052 3.91211 1.55492 3.86515 1.30139 3.72706C0.968551 3.5473 0.411865 3.24688 0.411865 2.65013V1.10519C0.411865 0.820855 0.70814 0.59021 1.07371 0.59021H2.97266C3.74013 0.59021 4.12481 1.0234 4.35592 1.28221C4.53014 1.47666 4.5939 1.53029 4.65087 1.53029C4.70951 1.53029 4.7699 1.47934 4.94582 1.28091C5.17693 1.02342 5.56325 0.59021 6.32908 0.59021C7.0949 0.59021 7.48123 1.0234 7.71233 1.28221C7.88825 1.47934 7.95032 1.53029 8.00729 1.53029C8.06593 1.53029 8.12624 1.47934 8.30224 1.28221C8.53334 1.0234 8.91967 0.59021 9.68628 0.59021C10.4547 0.59021 10.8411 1.0234 11.0722 1.28221C11.2481 1.47934 11.3085 1.53029 11.3671 1.53029C11.4223 1.53029 11.4861 1.47666 11.6603 1.28221C11.8897 1.0234 12.2761 0.59021 13.0418 0.59021C13.8076 0.59021 14.1939 1.0234 14.4251 1.28221C14.601 1.47934 14.6631 1.53029 14.72 1.53029C14.7786 1.53029 14.8381 1.47934 15.0158 1.28221C15.2469 1.0234 15.6332 0.59021 16.4008 0.59021C17.1665 0.59021 17.5528 1.0234 17.784 1.28221C17.9582 1.47666 18.0203 1.53029 18.0772 1.53029C18.1358 1.53029 18.1979 1.47934 18.3738 1.28091C18.6067 1.02342 18.993 0.59021 19.7588 0.59021H21.6319C21.9976 0.59021 22.2942 0.820855 22.2942 1.10519V2.6662C22.2942 3.26302 21.7371 3.56343 21.4043 3.74313C21.1507 3.88128 21.0851 3.92818 21.0851 3.97514C21.0851 4.01935 21.1507 4.06633 21.4043 4.20448C21.7371 4.3828 22.2942 4.68321 22.2942 5.27866C22.2942 5.87548 21.7371 6.17589 21.4043 6.35559C21.1507 6.49238 21.0851 6.53934 21.0851 6.58494C21.0851 6.63053 21.1507 6.67743 21.4043 6.81558C21.7371 6.99528 22.2942 7.29567 22.2942 7.89115C22.2942 8.48662 21.7371 8.78701 21.4043 8.96539C21.1542 9.10079 21.0851 9.15044 21.0851 9.19335C21.0851 9.23895 21.1507 9.2859 21.4043 9.42399C21.7371 9.60375 22.2942 9.90417 22.2942 10.4996C22.2942 11.095 21.7371 11.3954 21.4043 11.5751C21.1507 11.712 21.0851 11.7589 21.0851 11.8044C21.0851 11.85 21.1507 11.897 21.4043 12.0338C21.7371 12.2135 22.2942 12.5139 22.2942 13.1094C22.2942 13.7062 21.7371 14.0066 21.4043 14.1863C21.1507 14.3231 21.0851 14.37 21.0851 14.4156C21.0851 14.4598 21.1542 14.5095 21.4043 14.645C21.7371 14.8233 22.2942 15.1237 22.2942 15.7192V17.2641C22.2942 17.5485 21.9976 17.7791 21.6319 17.7791Z" fill="#27323A"/>
<path d="M18.077 15.8091C18.8445 15.8091 19.2308 16.2422 19.462 16.5011C19.6396 16.6982 19.7 16.7491 19.7587 16.7491H20.9694V15.7192C20.9694 15.675 20.9005 15.6266 20.6486 15.4912C20.3175 15.3115 19.7603 15.0111 19.7603 14.4156C19.7603 13.8202 20.3174 13.5198 20.6486 13.3401C20.9039 13.202 20.9694 13.155 20.9694 13.1094C20.9694 13.0638 20.9039 13.0169 20.6486 12.8801C20.3175 12.7004 19.7603 12.4 19.7603 11.8045C19.7603 11.209 20.3174 10.9086 20.6486 10.7289C20.9039 10.5922 20.9694 10.5439 20.9694 10.4996C20.9694 10.454 20.9039 10.4071 20.6486 10.2703C20.3175 10.0906 19.7603 9.79017 19.7603 9.19341C19.7603 8.59796 20.3174 8.29893 20.6486 8.11917C20.9005 7.98376 20.9694 7.93548 20.9694 7.89121C20.9694 7.84561 20.9039 7.79865 20.6486 7.66186C20.3175 7.48216 19.7603 7.18177 19.7603 6.585C19.7603 5.98954 20.3174 5.68913 20.6486 5.50943C20.9039 5.37258 20.9694 5.32432 20.9694 5.27872C20.9694 5.23451 20.9005 5.18623 20.6486 5.05076C20.3175 4.87107 19.7603 4.57067 19.7603 3.97522C19.7603 3.3784 20.3174 3.07799 20.6486 2.89829C20.9039 2.7602 20.9694 2.71324 20.9694 2.66628V1.62026H19.7587C19.7 1.62026 19.6396 1.67121 19.462 1.86973C19.2308 2.12853 18.8445 2.56036 18.077 2.56036C17.3112 2.56036 16.9249 2.12723 16.6955 1.86973C16.5195 1.67123 16.4575 1.62026 16.4006 1.62026C16.342 1.62026 16.2798 1.67121 16.1039 1.86973C15.8728 2.12853 15.4848 2.56036 14.7198 2.56036C13.9541 2.56036 13.5677 2.12723 13.3365 1.86973C13.1606 1.67123 13.1003 1.62026 13.0416 1.62026C12.9847 1.62026 12.9226 1.67389 12.7484 1.86834C12.5173 2.12721 12.1327 2.56034 11.3669 2.56034C10.6011 2.56034 10.2148 2.12851 9.98366 1.86971C9.8051 1.67121 9.74479 1.62024 9.68607 1.62024C9.62743 1.62024 9.56711 1.67119 9.39122 1.86971C9.15923 2.12851 8.7729 2.56034 8.0071 2.56034C7.24131 2.56034 6.85495 2.12721 6.62385 1.86971C6.44793 1.67121 6.38754 1.62024 6.3289 1.62024C6.27193 1.62024 6.20986 1.67119 6.03394 1.86971C5.80284 2.12719 5.41651 2.56034 4.65069 2.56034C3.88487 2.56034 3.49854 2.12721 3.26743 1.86971C3.09152 1.67121 3.03112 1.62024 2.97248 1.62024H1.73584V2.65021C1.73584 2.6958 1.80136 2.74407 2.05667 2.88222C2.38951 3.06192 2.94496 3.36231 2.94496 3.95778C2.94496 4.55454 2.38784 4.85495 2.05667 5.03333C1.80482 5.16879 1.73584 5.21838 1.73584 5.26267C1.73584 5.30827 1.80136 5.35523 2.05667 5.49332C2.38951 5.67301 2.94496 5.97341 2.94496 6.56888C2.94496 7.16436 2.38784 7.46475 2.05667 7.64445C1.80139 7.7826 1.73584 7.82956 1.73584 7.87379C1.73584 7.91809 1.80482 7.96765 2.05667 8.10313C2.38781 8.28153 2.94496 8.58192 2.94496 9.17738C2.94496 9.77277 2.38784 10.0732 2.05667 10.2529C1.80139 10.391 1.73584 10.438 1.73584 10.4823C1.73584 10.5279 1.80136 10.5748 2.05667 10.7129C2.38951 10.8926 2.94496 11.193 2.94496 11.7885C2.94496 12.3839 2.38951 12.6843 2.05667 12.864C1.80139 13.0008 1.73584 13.0478 1.73584 13.0934C1.73584 13.139 1.80136 13.1859 2.05667 13.3227C2.38951 13.5024 2.94496 13.8028 2.94496 14.3996C2.94496 14.995 2.38784 15.2954 2.05667 15.4738C1.80482 15.6092 1.73584 15.6589 1.73584 15.7032V16.7492H2.97248C3.03112 16.7492 3.09152 16.6982 3.26743 16.5011C3.49854 16.2422 3.88487 15.8091 4.65069 15.8091C5.41651 15.8091 5.80284 16.2422 6.03394 16.5011C6.20986 16.6982 6.27193 16.7492 6.3289 16.7492C6.38754 16.7492 6.44793 16.6982 6.62385 16.5011C6.85495 16.2422 7.24128 15.8091 8.0071 15.8091C8.77293 15.8091 9.15925 16.2422 9.39122 16.5011C9.56714 16.6982 9.62745 16.7492 9.68607 16.7492C9.74479 16.7492 9.8051 16.6982 9.98366 16.5011C10.2148 16.2422 10.6011 15.8091 11.3669 15.8091C12.1327 15.8091 12.5173 16.2422 12.7484 16.5011C12.9226 16.6969 12.9847 16.7492 13.0416 16.7492C13.1003 16.7492 13.1606 16.6982 13.3365 16.5011C13.5677 16.2422 13.9541 15.8091 14.7198 15.8091C15.4848 15.8091 15.8728 16.2422 16.1039 16.5011C16.2798 16.6982 16.342 16.7492 16.4006 16.7492C16.4575 16.7492 16.5195 16.6982 16.6955 16.5011C16.9249 16.2422 17.3112 15.8091 18.077 15.8091Z" fill="#F4CE73"/>
<path d="M4.16431 3.50842H18.541V14.8622H4.16431V3.50842Z" fill="#27323A"/>
<path d="M5.04736 4.19507H17.6579V14.1755H5.04736V4.19507Z" fill="#79CCBF"/>
<path d="M12.043 11.4906H11.9188C11.9171 11.7321 11.6653 11.9278 11.3548 11.9278C11.0443 11.9278 10.7908 11.732 10.7908 11.4906H10.6649C10.5097 11.4906 10.382 11.5885 10.382 11.7106V12.585C10.382 12.707 10.5097 12.8049 10.6649 12.8049H12.043C12.1983 12.8049 12.3258 12.707 12.3258 12.585V11.7106C12.3259 11.5885 12.1983 11.4906 12.043 11.4906ZM11.4497 5.56567H11.26C10.1803 5.56567 8.00366 6.03101 8.00366 7.44858C8.00366 8.86478 10.3855 10.1871 10.3855 11.1379H12.3241C12.3241 10.1871 14.7043 8.86478 14.7043 7.44858C14.7043 6.03101 12.526 5.56567 11.4497 5.56567Z" fill="#27323A"/>
<path d="M11.5183 11.1379C11.5183 10.175 12.2255 8.8648 12.2255 7.44723C12.2255 6.10754 11.7702 5.63546 11.489 5.5885C12.1858 5.60327 13.4656 6.07266 13.4656 7.46736C13.4656 8.86879 11.9168 10.1375 11.9168 11.1379H11.5183ZM10.7905 11.1379C10.7905 10.175 9.2417 8.88492 9.2417 7.46736C9.2417 6.06859 10.5301 5.60059 11.2252 5.5885C10.9389 5.6341 10.4801 6.10349 10.4801 7.44723C10.4801 8.8648 11.1907 10.1751 11.1907 11.1379H10.7905Z" fill="white"/>
</svg>
