<svg width="29" height="16" viewBox="0 0 29 16" fill="none" xmlns="http://www.w3.org/2000/svg">
<path d="M11.3167 16C9.15166 16 7.30118 15.2239 5.76527 13.6716C4.23044 12.1193 3.46302 10.2496 3.46302 8.06256C3.46302 7.68776 3.49143 7.3135 3.54823 6.93978C3.60611 6.56498 3.67256 6.26005 3.74759 6.02498C3.63398 6.07914 3.51393 6.10948 3.38746 6.11597C3.26206 6.12247 3.14791 6.12572 3.04502 6.12572C2.17685 6.12572 1.4523 5.82946 0.871383 5.23692C0.290461 4.64548 0 3.92079 0 3.06286C0 2.20602 0.280815 1.48133 0.842444 0.888799C1.40407 0.296266 2.11361 0 2.97106 0C3.71061 0 4.35852 0.219356 4.91479 0.658068C5.46999 1.09678 5.81243 1.64653 5.94212 2.3073C6.62058 1.61944 7.44159 1.08378 8.40514 0.700314C9.3687 0.316847 10.3387 0.125114 11.3151 0.125114H29V3.37483H19.1688V8.06256C19.1688 10.267 18.4051 12.141 16.8778 13.6846C15.3516 15.2282 13.4973 16 11.3151 16M3.02894 4.68772C3.48446 4.68772 3.86656 4.53228 4.17524 4.22139C4.48392 3.9105 4.63773 3.52432 4.63666 3.06286C4.63666 2.60249 4.48285 2.21685 4.17524 1.90596C3.86763 1.59507 3.48553 1.43909 3.02894 1.438C2.57342 1.438 2.19185 1.59399 1.88424 1.90596C1.57663 2.21794 1.42229 2.60357 1.42122 3.06286C1.42122 3.52324 1.57556 3.90941 1.88424 4.22139C2.19293 4.53336 2.57449 4.68881 3.02894 4.68772ZM11.3199 14.1867C12.9952 14.1867 14.4234 13.5887 15.6045 12.3928C16.7846 11.1958 17.3746 9.75079 17.3746 8.05768C17.3746 6.36566 16.783 4.92279 15.5997 3.72905C14.4164 2.53532 12.9871 1.93792 11.3119 1.93683C9.63666 1.93683 8.20847 2.53478 7.02733 3.73068C5.8462 4.92874 5.25563 6.37433 5.25563 8.06743C5.25563 9.75945 5.8478 11.2023 7.03216 12.3961C8.21651 13.5898 9.64577 14.1867 11.3199 14.1867ZM11.3199 10.6867C12.0359 10.6867 12.6468 10.4294 13.1527 9.9149C13.6597 9.39928 13.9132 8.7802 13.9132 8.05768C13.9132 7.33516 13.6581 6.71772 13.1479 6.20534C12.6388 5.69405 12.0263 5.43841 11.3103 5.43841C10.5943 5.43841 9.98339 5.69568 9.47749 6.21022C8.9716 6.72584 8.71865 7.34491 8.71865 8.06743C8.71865 8.78995 8.9732 9.4074 9.48232 9.91977C9.9925 10.4311 10.604 10.6867 11.3199 10.6867Z" fill="#989AA7"/>
</svg>
